<svg width="730" height="353" viewBox="0 0 730 353" fill="none" xmlns="http://www.w3.org/2000/svg">
<path d="M558.658 160.63C552.84 160.477 542.812 160.4 528.574 160.4C526.43 160.4 524.976 159.022 524.21 156.266C523.751 154.735 523.521 152.056 523.521 148.228C523.521 141.339 523.368 135.291 523.062 130.086C523.062 125.34 522.909 116.69 522.603 104.135L522.373 76.577V33.1727C522.373 32.101 522.909 30.9527 523.981 29.7279C525.205 28.5031 535.52 21.1681 536.592 21.1681L540.745 28.1204C542.889 28.2735 546.027 28.35 550.161 28.35C554.601 28.5031 560.113 28.5797 566.696 28.5797C576.494 28.5797 584.149 28.5031 589.661 28.35C595.02 28.0438 603.976 27.8907 616.53 27.8907C625.104 27.8907 632.989 29.4217 640.185 32.4837C649.218 36.3113 656.413 42.2822 661.772 50.3966C667.896 59.8889 670.958 72.2136 670.958 87.3706C670.958 100.997 676.423 113.751 673.361 122.937C670.452 132.123 661.098 140.426 654.515 146.091C647.778 151.909 636.51 153.97 625.487 156.726C614.617 159.328 600.991 160.63 584.609 160.63H558.658ZM586.216 134.679C589.585 134.679 591.805 134.526 592.876 134.22C593.948 133.913 594.713 133.531 595.173 133.071C597.469 130.775 599.613 123.962 601.603 112.632C603.287 102.068 604.129 92.1933 604.129 83.0072V79.3328C604.129 73.9742 603.746 68.8453 602.981 63.9461C602.369 57.9751 601.144 53.0759 599.307 49.2484C598.235 47.5642 596.857 46.7222 595.173 46.7222C593.795 46.7222 592.111 47.1049 590.12 47.8704L588.513 48.5594C588.513 52.0807 588.36 59.9655 588.054 72.2136L587.824 86.452C587.824 89.514 587.747 91.8871 587.594 93.5712L587.365 100.69L586.216 134.679Z" fill="#B2651C" stroke="black" stroke-width="1.07692"/>
<g filter="url(#filter0_n_986_14078)">
<path d="M569.646 153.369C563.829 153.215 553.8 153.139 539.562 153.139C537.419 153.139 535.964 151.761 535.199 149.005C534.739 147.474 534.51 144.795 534.51 140.967C534.51 134.078 534.356 128.03 534.05 122.825C534.05 118.079 533.897 109.428 533.591 96.8742L533.361 69.3159V25.9116C533.361 24.8399 533.897 23.6917 534.969 22.4668C536.194 21.242 537.342 20.6296 538.414 20.6296L551.734 20.8593C553.877 21.0124 557.016 21.0889 561.149 21.0889C565.589 21.242 571.101 21.3186 577.684 21.3186C587.483 21.3186 595.138 21.242 600.649 21.0889C606.008 20.7827 614.964 20.6296 627.519 20.6296C636.092 20.6296 643.977 22.1607 651.173 25.2227C660.206 29.0502 667.402 35.0212 672.76 43.1355C678.884 52.6278 681.946 64.9525 681.946 80.1096C681.946 93.7356 680.415 105.142 677.353 114.328C674.444 123.514 669.698 130.939 663.115 136.604C656.378 142.422 647.498 146.709 636.475 149.465C625.605 152.067 611.979 153.369 595.597 153.369H569.646ZM597.205 127.418C600.573 127.418 602.793 127.265 603.865 126.959C604.936 126.652 605.702 126.27 606.161 125.81C608.458 123.514 610.601 116.701 612.591 105.371C614.275 94.8073 615.118 84.9322 615.118 75.7462V72.0717C615.118 66.7132 614.735 61.5843 613.969 56.685C613.357 50.7141 612.132 45.8148 610.295 41.9873C609.223 40.3032 607.845 39.4611 606.161 39.4611C604.783 39.4611 603.099 39.8439 601.109 40.6094L599.501 41.2983C599.501 44.8197 599.348 52.7044 599.042 64.9525L598.812 79.1909C598.812 82.253 598.736 84.626 598.583 86.3102L598.353 93.4294L597.205 127.418Z" fill="#E9C253"/>
<path d="M569.646 153.369C563.829 153.215 553.8 153.139 539.562 153.139C537.419 153.139 535.964 151.761 535.199 149.005C534.739 147.474 534.51 144.795 534.51 140.967C534.51 134.078 534.356 128.03 534.05 122.825C534.05 118.079 533.897 109.428 533.591 96.8742L533.361 69.3159V25.9116C533.361 24.8399 533.897 23.6917 534.969 22.4668C536.194 21.242 537.342 20.6296 538.414 20.6296L551.734 20.8593C553.877 21.0124 557.016 21.0889 561.149 21.0889C565.589 21.242 571.101 21.3186 577.684 21.3186C587.483 21.3186 595.138 21.242 600.649 21.0889C606.008 20.7827 614.964 20.6296 627.519 20.6296C636.092 20.6296 643.977 22.1607 651.173 25.2227C660.206 29.0502 667.402 35.0212 672.76 43.1355C678.884 52.6278 681.946 64.9525 681.946 80.1096C681.946 93.7356 680.415 105.142 677.353 114.328C674.444 123.514 669.698 130.939 663.115 136.604C656.378 142.422 647.498 146.709 636.475 149.465C625.605 152.067 611.979 153.369 595.597 153.369H569.646ZM597.205 127.418C600.573 127.418 602.793 127.265 603.865 126.959C604.936 126.652 605.702 126.27 606.161 125.81C608.458 123.514 610.601 116.701 612.591 105.371C614.275 94.8073 615.118 84.9322 615.118 75.7462V72.0717C615.118 66.7132 614.735 61.5843 613.969 56.685C613.357 50.7141 612.132 45.8148 610.295 41.9873C609.223 40.3032 607.845 39.4611 606.161 39.4611C604.783 39.4611 603.099 39.8439 601.109 40.6094L599.501 41.2983C599.501 44.8197 599.348 52.7044 599.042 64.9525L598.812 79.1909C598.812 82.253 598.736 84.626 598.583 86.3102L598.353 93.4294L597.205 127.418Z" stroke="black" stroke-width="1.07692"/>
</g>
<path d="M444.997 167.729C443.782 167.965 442.082 168.136 439.897 168.244C438.775 168.146 437.074 168.318 434.796 168.759C429.025 169.877 421.636 169.968 412.631 169.033L411.036 169.341C409.973 169.547 408.775 169.464 407.442 169.092C407.079 168.847 406.656 168.693 406.171 168.629C405.656 168.413 405.051 168.137 404.355 167.799L399.042 165.991C393.985 164.291 389.269 161.501 384.893 157.621C380.488 153.589 376.679 148.969 373.464 143.761C367.364 134.227 363.269 124.068 361.181 113.284C358.858 101.286 359.053 89.2718 361.767 77.2432C364.666 64.5483 369.783 53.9452 377.117 45.4342C385.215 35.9872 395.112 30.1315 406.807 27.8671C410.452 27.1613 413.291 26.7691 415.325 26.6906C415.266 26.3868 415.464 26.1908 415.92 26.1026L416.603 25.9702C427.235 23.9116 436.802 22.4533 445.302 21.5953C452.647 21.2763 459.68 22.1993 466.402 24.3644C480.112 30.0616 490.551 37.1799 497.719 45.7193C505.398 55.263 510.634 67.2494 513.428 81.6784C516.221 96.1073 515.421 110.287 511.028 124.216L509.455 128.303C509.024 129.332 508.732 129.861 508.581 129.89L508.118 131.162L506.699 132.382C502.05 143.367 493.457 151.886 480.92 157.937C472.463 161.466 460.489 164.73 444.997 167.729ZM445.562 149.893C446.929 149.628 447.83 148.587 448.266 146.769C449.559 143.682 450.049 138.072 449.735 129.939C449.622 128.542 449.413 125.431 449.109 120.605C448.805 115.779 448.332 111.301 447.69 107.171C446.297 96.7249 445.366 90.287 444.896 87.8569L443.528 80.7943C442.469 75.3264 441.33 70.6621 440.11 66.8014C438.448 60.6624 436.581 55.9026 434.508 52.5221C432.788 50.9641 431.549 50.2587 430.789 50.4057C429.271 50.6998 428.048 52.1183 427.122 54.6612C426.197 57.2042 425.942 61.5869 426.359 67.8093L428.633 105.188L430.088 112.706C431.779 118.997 432.816 123.13 433.198 125.104L434.713 130.484L436.808 137.642C437.043 138.857 437.401 139.891 437.881 140.743L442.019 148.687C442.289 149.266 442.757 149.648 443.423 149.834C444.241 149.991 444.954 150.01 445.562 149.893Z" fill="#B2651C" stroke="black"/>
<g filter="url(#filter1_n_986_14078)">
<path d="M456.356 157.816C455.141 158.051 453.441 158.223 451.256 158.331C450.134 158.233 448.434 158.405 446.156 158.846C440.384 159.963 432.995 160.055 423.99 159.119L422.395 159.428C421.332 159.634 420.134 159.551 418.801 159.179C418.439 158.934 418.015 158.779 417.53 158.716C417.015 158.5 416.41 158.223 415.715 157.885L410.401 156.078C405.344 154.378 400.628 151.588 396.253 147.708C391.848 143.676 388.038 139.056 384.824 133.848C378.723 124.314 374.629 114.155 372.541 103.371C370.217 91.3723 370.412 79.3586 373.126 67.33C376.025 54.635 381.142 44.032 388.476 35.521C396.575 26.074 406.471 20.2183 418.166 17.9539C421.811 17.2481 424.651 16.8559 426.684 16.7774C426.625 16.4736 426.824 16.2776 427.279 16.1894L427.963 16.057C438.595 13.9984 448.161 12.5401 456.662 11.6821C464.006 11.3631 471.039 12.2861 477.762 14.4512C491.471 20.1484 501.91 27.2667 509.079 35.806C516.757 45.3498 521.993 57.3362 524.787 71.7652C527.581 86.1941 526.781 100.374 522.387 114.303L520.814 118.39C520.383 119.419 520.092 119.948 519.94 119.977L519.477 121.249L518.059 122.469C513.41 133.454 504.817 141.972 492.279 148.024C483.823 151.552 471.849 154.816 456.356 157.816ZM456.921 139.979C458.288 139.715 459.189 138.673 459.625 136.856C460.919 133.769 461.408 128.159 461.094 120.026C460.981 118.629 460.773 115.518 460.469 110.692C460.164 105.866 459.691 101.388 459.049 97.2575C457.657 86.8117 456.725 80.3738 456.255 77.9436L454.887 70.881C453.829 65.4132 452.689 60.7489 451.469 56.8882C449.808 50.7492 447.94 45.9894 445.868 42.6088C444.148 41.0509 442.908 40.3455 442.149 40.4925C440.63 40.7866 439.408 42.2051 438.482 44.748C437.556 47.291 437.302 51.6736 437.718 57.8961L439.992 95.2746L441.448 102.793C443.139 109.084 444.175 113.216 444.558 115.191L446.072 120.571L448.167 127.729C448.402 128.944 448.76 129.977 449.24 130.83L453.378 138.774C453.648 139.352 454.116 139.735 454.782 139.921C455.601 140.077 456.313 140.097 456.921 139.979Z" fill="#E9C253"/>
<path d="M456.356 157.816C455.141 158.051 453.441 158.223 451.256 158.331C450.134 158.233 448.434 158.405 446.156 158.846C440.384 159.963 432.995 160.055 423.99 159.119L422.395 159.428C421.332 159.634 420.134 159.551 418.801 159.179C418.439 158.934 418.015 158.779 417.53 158.716C417.015 158.5 416.41 158.223 415.715 157.885L410.401 156.078C405.344 154.378 400.628 151.588 396.253 147.708C391.848 143.676 388.038 139.056 384.824 133.848C378.723 124.314 374.629 114.155 372.541 103.371C370.217 91.3723 370.412 79.3586 373.126 67.33C376.025 54.635 381.142 44.032 388.476 35.521C396.575 26.074 406.471 20.2183 418.166 17.9539C421.811 17.2481 424.651 16.8559 426.684 16.7774C426.625 16.4736 426.824 16.2776 427.279 16.1894L427.963 16.057C438.595 13.9984 448.161 12.5401 456.662 11.6821C464.006 11.3631 471.039 12.2861 477.762 14.4512C491.471 20.1484 501.91 27.2667 509.079 35.806C516.757 45.3498 521.993 57.3362 524.787 71.7652C527.581 86.1941 526.781 100.374 522.387 114.303L520.814 118.39C520.383 119.419 520.092 119.948 519.94 119.977L519.477 121.249L518.059 122.469C513.41 133.454 504.817 141.972 492.279 148.024C483.823 151.552 471.849 154.816 456.356 157.816ZM456.921 139.979C458.288 139.715 459.189 138.673 459.625 136.856C460.919 133.769 461.408 128.159 461.094 120.026C460.981 118.629 460.773 115.518 460.469 110.692C460.164 105.866 459.691 101.388 459.049 97.2575C457.657 86.8117 456.725 80.3738 456.255 77.9436L454.887 70.881C453.829 65.4132 452.689 60.7489 451.469 56.8882C449.808 50.7492 447.94 45.9894 445.868 42.6088C444.148 41.0509 442.908 40.3455 442.149 40.4925C440.63 40.7866 439.408 42.2051 438.482 44.748C437.556 47.291 437.302 51.6736 437.718 57.8961L439.992 95.2746L441.448 102.793C443.139 109.084 444.175 113.216 444.558 115.191L446.072 120.571L448.167 127.729C448.402 128.944 448.76 129.977 449.24 130.83L453.378 138.774C453.648 139.352 454.116 139.735 454.782 139.921C455.601 140.077 456.313 140.097 456.921 139.979Z" stroke="black"/>
</g>
<path d="M672.369 338.995C672.071 338.249 671.698 337.876 671.25 337.876L671.027 337.428C670.877 337.428 670.654 337.354 670.355 337.205C670.206 336.906 670.057 336.757 669.908 336.757L652.233 316.621C652.084 316.323 651.487 315.577 650.443 314.384C649.399 313.19 648.578 312.296 647.982 311.699C646.639 310.357 645.745 309.387 645.297 308.79C644.253 308.045 643.582 307.672 643.283 307.672C642.388 307.672 641.941 308.194 641.941 309.238V313.936C641.643 315.577 641.494 317.964 641.494 321.096C641.344 322.886 641.27 325.272 641.27 328.255C641.121 329.747 641.046 331.313 641.046 332.954L648.877 334.52C648.877 336.608 640.822 339.666 640.375 339.666H636.571C632.246 340.113 625.832 340.337 617.33 340.337H585.56L577.058 338.323L576.387 336.757V334.52C576.238 333.625 576.163 331.76 576.163 328.927C576.014 325.943 575.939 320.499 575.939 312.594C575.939 308.865 575.79 306.106 575.492 304.316V297.604C575.044 274.932 574.821 251.738 574.821 228.022V222.652C574.522 221.161 574.373 219.52 574.373 217.73V213.703C574.373 213.405 574.522 213.181 574.821 213.032C575.119 211.839 575.641 211.018 576.387 210.571C577.282 209.974 586.283 205.145 587.625 204.847C588.222 204.847 590.325 207.321 590.773 207.47C591.369 207.619 582.577 209.676 583.322 209.676C585.411 209.974 586.678 210.123 587.126 210.123H625.161L642.388 210.347C642.687 210.347 642.911 210.422 643.06 210.571C643.209 210.72 643.283 210.944 643.283 211.242C643.88 212.734 644.178 214.3 644.178 215.94C644.328 216.686 644.402 217.73 644.402 219.073C644.402 225.486 644.328 230.259 644.178 233.392C643.582 237.419 643.283 241.446 643.283 245.473C645.073 245.473 646.49 245.1 647.534 244.355C647.684 244.206 647.907 244.056 648.206 243.907C648.504 243.758 648.728 243.534 648.877 243.236C649.175 242.789 649.846 242.192 650.89 241.446L654.246 238.09C659.467 233.466 661.853 231.304 661.406 231.602L679.305 214.822C680.945 213.479 682.362 212.286 683.556 211.242C684.898 210.198 686.017 209.303 686.912 208.557C689.447 206.767 690.897 205.373 691.493 205.373C692.543 204.848 699.217 199.683 700.112 201.175C701.604 202.667 696.458 210.571 696.756 211.018C698.099 213.554 699.963 216.015 702.349 218.401C704.736 220.639 706.228 222.056 706.824 222.652C709.36 225.486 711.299 227.798 712.641 229.588C713.984 231.378 715.102 233.392 715.997 235.629V236.077C715.997 238.314 714.282 241.148 710.851 244.578C709.956 245.473 709.136 246.219 708.39 246.816C707.794 247.412 707.272 247.934 706.824 248.382L703.468 251.738C703.021 251.738 702.424 252.26 701.678 253.304L694.071 259.569C691.237 262.104 688.776 264.193 686.688 265.833L684.898 267.399L683.332 268.518C682.139 268.966 681.393 269.338 681.095 269.637C681.095 269.935 681.02 270.233 680.871 270.532C680.722 270.83 680.647 271.203 680.647 271.65C680.647 272.694 680.945 273.739 681.542 274.783C682.288 275.678 683.034 276.573 683.779 277.467C684.227 278.064 685.196 278.81 686.688 279.705C686.688 279.705 687.434 280.451 688.925 281.942L692.729 285.298L700.112 291.787L706.6 297.827L714.207 305.211C716.743 307.895 718.533 310.058 719.577 311.699C720.77 313.19 721.367 314.458 721.367 315.502C721.367 316.994 720.845 318.113 719.801 318.858C717.414 321.096 715.326 322.811 713.536 324.004C710.553 326.093 708.316 327.733 706.824 328.927C701.305 333.252 697.204 336.161 694.519 337.652C693.922 337.801 691.834 338.696 688.254 340.337L684.674 342.127C683.63 342.724 683.034 343.022 682.885 343.022C681.095 343.917 679.678 344.364 678.634 344.364C677.888 344.364 677.291 344.141 676.844 343.693L672.369 338.995Z" fill="#B2651C" stroke="black" stroke-width="1.04918"/>
<g filter="url(#filter2_n_986_14078)">
<path d="M680.375 334.298C680.077 333.552 679.704 333.18 679.256 333.18L679.032 332.732C678.883 332.732 678.66 332.657 678.361 332.508C678.212 332.21 678.063 332.061 677.914 332.061L660.239 311.925C660.09 311.626 659.493 310.881 658.449 309.687C657.405 308.494 656.584 307.599 655.988 307.003C654.645 305.66 653.75 304.691 653.303 304.094C652.259 303.348 651.588 302.975 651.289 302.975C650.394 302.975 649.947 303.497 649.947 304.541V309.24C649.649 310.881 649.499 313.267 649.499 316.399C649.35 318.189 649.276 320.576 649.276 323.559C649.127 325.051 649.052 326.617 649.052 328.257V331.837C649.052 333.925 648.828 334.969 648.381 334.969H644.577C640.252 335.417 633.838 335.641 625.336 335.641H593.566L585.064 333.627L584.393 332.061V329.824C584.243 328.929 584.169 327.064 584.169 324.23C584.02 321.247 583.945 315.803 583.945 307.897C583.945 304.169 583.796 301.409 583.498 299.619V292.907C583.05 270.235 582.826 247.042 582.826 223.326V217.956C582.528 216.464 582.379 214.824 582.379 213.034V209.007C582.379 208.708 582.528 208.485 582.826 208.335C583.125 207.142 583.647 206.322 584.393 205.874C585.287 205.278 586.406 204.83 587.749 204.532C588.345 204.532 588.867 204.607 589.315 204.756C589.911 204.905 590.583 204.979 591.328 204.979C593.416 205.278 594.684 205.427 595.132 205.427H633.167L650.394 205.651C650.693 205.651 650.916 205.725 651.066 205.874C651.215 206.023 651.289 206.247 651.289 206.546C651.886 208.037 652.184 209.603 652.184 211.244C652.333 211.99 652.408 213.034 652.408 214.376C652.408 220.79 652.333 225.563 652.184 228.695C651.588 232.723 651.289 236.75 651.289 240.777C653.079 240.777 654.496 240.404 655.54 239.658C655.689 239.509 655.913 239.36 656.211 239.211C656.51 239.062 656.733 238.838 656.883 238.54C657.181 238.092 657.852 237.496 658.896 236.75L662.252 233.394C667.473 228.77 669.859 226.607 669.412 226.905L687.311 210.125C688.951 208.783 690.368 207.59 691.562 206.546C692.904 205.501 694.023 204.607 694.918 203.861C697.453 202.071 699.019 201.176 699.616 201.176C700.362 201.176 701.182 201.922 702.077 203.413C703.569 204.905 704.464 205.874 704.762 206.322C706.104 208.857 707.969 211.319 710.355 213.705C712.742 215.942 714.233 217.359 714.83 217.956C717.366 220.79 719.305 223.102 720.647 224.892C721.99 226.682 723.108 228.695 724.003 230.933V231.38C724.003 233.617 722.288 236.451 718.857 239.882C717.962 240.777 717.142 241.523 716.396 242.119C715.8 242.716 715.277 243.238 714.83 243.686L711.474 247.042C711.027 247.042 710.43 247.564 709.684 248.608L702.077 254.872C699.243 257.408 696.782 259.496 694.694 261.137L692.904 262.703L691.338 263.822C690.145 264.269 689.399 264.642 689.101 264.94C689.101 265.239 689.026 265.537 688.877 265.835C688.728 266.134 688.653 266.507 688.653 266.954C688.653 267.998 688.951 269.042 689.548 270.086C690.294 270.981 691.04 271.876 691.785 272.771C692.233 273.368 693.202 274.114 694.694 275.008C694.694 275.008 695.44 275.754 696.931 277.246L700.735 280.602L708.118 287.09L714.606 293.131L722.213 300.514C724.749 303.199 726.539 305.362 727.583 307.003C728.776 308.494 729.373 309.762 729.373 310.806C729.373 312.298 728.851 313.416 727.807 314.162C725.42 316.399 723.332 318.115 721.542 319.308C718.559 321.396 716.322 323.037 714.83 324.23C709.311 328.556 705.209 331.464 702.525 332.956C701.928 333.105 699.84 334 696.26 335.641L692.68 337.43C691.636 338.027 691.04 338.325 690.89 338.325C689.101 339.22 687.684 339.668 686.639 339.668C685.894 339.668 685.297 339.444 684.85 338.997L680.375 334.298Z" fill="#E9C253"/>
<path d="M680.375 334.298C680.077 333.552 679.704 333.18 679.256 333.18L679.032 332.732C678.883 332.732 678.66 332.657 678.361 332.508C678.212 332.21 678.063 332.061 677.914 332.061L660.239 311.925C660.09 311.626 659.493 310.881 658.449 309.687C657.405 308.494 656.584 307.599 655.988 307.003C654.645 305.66 653.75 304.691 653.303 304.094C652.259 303.348 651.588 302.975 651.289 302.975C650.394 302.975 649.947 303.497 649.947 304.541V309.24C649.649 310.881 649.499 313.267 649.499 316.399C649.35 318.189 649.276 320.576 649.276 323.559C649.127 325.051 649.052 326.617 649.052 328.257V331.837C649.052 333.925 648.828 334.969 648.381 334.969H644.577C640.252 335.417 633.838 335.641 625.336 335.641H593.566L585.064 333.627L584.393 332.061V329.824C584.243 328.929 584.169 327.064 584.169 324.23C584.02 321.247 583.945 315.803 583.945 307.897C583.945 304.169 583.796 301.409 583.498 299.619V292.907C583.05 270.235 582.826 247.042 582.826 223.326V217.956C582.528 216.464 582.379 214.824 582.379 213.034V209.007C582.379 208.708 582.528 208.485 582.826 208.335C583.125 207.142 583.647 206.322 584.393 205.874C585.287 205.278 586.406 204.83 587.749 204.532C588.345 204.532 588.867 204.607 589.315 204.756C589.911 204.905 590.583 204.979 591.328 204.979C593.416 205.278 594.684 205.427 595.132 205.427H633.167L650.394 205.651C650.693 205.651 650.916 205.725 651.066 205.874C651.215 206.023 651.289 206.247 651.289 206.546C651.886 208.037 652.184 209.603 652.184 211.244C652.333 211.99 652.408 213.034 652.408 214.376C652.408 220.79 652.333 225.563 652.184 228.695C651.588 232.723 651.289 236.75 651.289 240.777C653.079 240.777 654.496 240.404 655.54 239.658C655.689 239.509 655.913 239.36 656.211 239.211C656.51 239.062 656.733 238.838 656.883 238.54C657.181 238.092 657.852 237.496 658.896 236.75L662.252 233.394C667.473 228.77 669.859 226.607 669.412 226.905L687.311 210.125C688.951 208.783 690.368 207.59 691.562 206.546C692.904 205.501 694.023 204.607 694.918 203.861C697.453 202.071 699.019 201.176 699.616 201.176C700.362 201.176 701.182 201.922 702.077 203.413C703.569 204.905 704.464 205.874 704.762 206.322C706.104 208.857 707.969 211.319 710.355 213.705C712.742 215.942 714.233 217.359 714.83 217.956C717.366 220.79 719.305 223.102 720.647 224.892C721.99 226.682 723.108 228.695 724.003 230.933V231.38C724.003 233.617 722.288 236.451 718.857 239.882C717.962 240.777 717.142 241.523 716.396 242.119C715.8 242.716 715.277 243.238 714.83 243.686L711.474 247.042C711.027 247.042 710.43 247.564 709.684 248.608L702.077 254.872C699.243 257.408 696.782 259.496 694.694 261.137L692.904 262.703L691.338 263.822C690.145 264.269 689.399 264.642 689.101 264.94C689.101 265.239 689.026 265.537 688.877 265.835C688.728 266.134 688.653 266.507 688.653 266.954C688.653 267.998 688.951 269.042 689.548 270.086C690.294 270.981 691.04 271.876 691.785 272.771C692.233 273.368 693.202 274.114 694.694 275.008C694.694 275.008 695.44 275.754 696.931 277.246L700.735 280.602L708.118 287.09L714.606 293.131L722.213 300.514C724.749 303.199 726.539 305.362 727.583 307.003C728.776 308.494 729.373 309.762 729.373 310.806C729.373 312.298 728.851 313.416 727.807 314.162C725.42 316.399 723.332 318.115 721.542 319.308C718.559 321.396 716.322 323.037 714.83 324.23C709.311 328.556 705.209 331.464 702.525 332.956C701.928 333.105 699.84 334 696.26 335.641L692.68 337.43C691.636 338.027 691.04 338.325 690.89 338.325C689.101 339.22 687.684 339.668 686.639 339.668C685.894 339.668 685.297 339.444 684.85 338.997L680.375 334.298Z" stroke="black" stroke-width="1.04918"/>
</g>
<path d="M39.453 351.63C33.2196 351.466 22.4751 351.384 7.21968 351.384C4.92316 351.384 3.36481 349.907 2.54462 346.955C2.05251 345.314 1.80645 342.444 1.80645 338.343C1.80645 330.961 1.64241 324.481 1.31434 318.904C1.31434 313.819 1.1503 304.551 0.822228 291.1L0.576172 261.573V215.069C0.576172 213.92 1.1503 212.69 2.29856 211.378C3.61086 210.065 14.6623 202.207 15.8105 202.207L20.2606 209.655C22.5572 209.819 25.9199 209.901 30.3489 209.901C35.106 210.065 41.0114 210.148 48.065 210.148C58.5634 210.148 66.7652 210.065 72.6706 209.901C78.4119 209.573 88.008 209.409 101.459 209.409C110.645 209.409 119.093 211.05 126.803 214.33C136.481 218.431 144.191 224.829 149.932 233.523C156.494 243.693 159.774 256.898 159.774 273.138C159.774 287.737 165.63 301.403 162.349 311.245C159.232 321.087 149.21 329.983 142.157 336.053C134.939 342.286 122.866 344.494 111.055 347.447C99.4086 350.235 84.8093 351.63 67.2573 351.63H39.453ZM68.9797 323.825C72.5885 323.825 74.9671 323.661 76.1153 323.333C77.2636 323.005 78.0838 322.595 78.5759 322.103C81.0365 319.642 83.333 312.343 85.4655 300.204C87.2699 288.885 88.1721 278.305 88.1721 268.463V264.526C88.1721 258.785 87.762 253.289 86.9418 248.04C86.2857 241.643 84.9734 236.393 83.0049 232.293C81.8566 230.488 80.3803 229.586 78.5759 229.586C77.0996 229.586 75.2952 229.996 73.1627 230.816L71.4403 231.554C71.4403 235.327 71.2762 243.775 70.9482 256.898L70.7021 272.154C70.7021 275.434 70.6201 277.977 70.4561 279.781L70.21 287.409L68.9797 323.825Z" fill="#B2651C" stroke="black" stroke-width="1.15385"/>
<g filter="url(#filter3_n_986_14078)">
<path d="M51.2264 343.85C44.993 343.686 34.2486 343.604 18.9931 343.604C16.6966 343.604 15.1382 342.128 14.3181 339.175C13.8259 337.535 13.5799 334.664 13.5799 330.563C13.5799 323.181 13.4159 316.702 13.0878 311.125C13.0878 306.039 12.9237 296.771 12.5957 283.32L12.3496 253.793V207.289C12.3496 206.141 12.9237 204.91 14.072 203.598C15.3843 202.286 16.6146 201.63 17.7628 201.63L32.0341 201.876C34.3306 202.04 37.6934 202.122 42.1224 202.122C46.8795 202.286 52.7848 202.368 59.8384 202.368C70.3368 202.368 78.5387 202.286 84.444 202.122C90.1853 201.794 99.7815 201.63 113.233 201.63C122.419 201.63 130.867 203.27 138.576 206.551C148.254 210.652 155.964 217.049 161.706 225.743C168.267 235.913 171.548 249.118 171.548 265.358C171.548 279.957 169.907 292.178 166.627 302.02C163.51 311.863 158.425 319.818 151.371 325.888C144.154 332.121 134.639 336.714 122.829 339.667C111.182 342.456 96.5827 343.85 79.0308 343.85H51.2264ZM80.7532 316.046C84.362 316.046 86.7405 315.882 87.8888 315.554C89.037 315.225 89.8572 314.815 90.3493 314.323C92.8099 311.863 95.1064 304.563 97.2389 292.424C99.0433 281.106 99.9455 270.525 99.9455 260.683V256.746C99.9455 251.005 99.5354 245.51 98.7152 240.26C98.0591 233.863 96.7468 228.614 94.7783 224.513C93.6301 222.708 92.1537 221.806 90.3493 221.806C88.873 221.806 87.0686 222.216 84.9361 223.036L83.2137 223.775C83.2137 227.548 83.0497 235.995 82.7216 249.118L82.4755 264.374C82.4755 267.655 82.3935 270.197 82.2295 272.002L81.9834 279.629L80.7532 316.046Z" fill="#E9C253"/>
<path d="M51.2264 343.85C44.993 343.686 34.2486 343.604 18.9931 343.604C16.6966 343.604 15.1382 342.128 14.3181 339.175C13.8259 337.535 13.5799 334.664 13.5799 330.563C13.5799 323.181 13.4159 316.702 13.0878 311.125C13.0878 306.039 12.9237 296.771 12.5957 283.32L12.3496 253.793V207.289C12.3496 206.141 12.9237 204.91 14.072 203.598C15.3843 202.286 16.6146 201.63 17.7628 201.63L32.0341 201.876C34.3306 202.04 37.6934 202.122 42.1224 202.122C46.8795 202.286 52.7848 202.368 59.8384 202.368C70.3368 202.368 78.5387 202.286 84.444 202.122C90.1853 201.794 99.7815 201.63 113.233 201.63C122.419 201.63 130.867 203.27 138.576 206.551C148.254 210.652 155.964 217.049 161.706 225.743C168.267 235.913 171.548 249.118 171.548 265.358C171.548 279.957 169.907 292.178 166.627 302.02C163.51 311.863 158.425 319.818 151.371 325.888C144.154 332.121 134.639 336.714 122.829 339.667C111.182 342.456 96.5827 343.85 79.0308 343.85H51.2264ZM80.7532 316.046C84.362 316.046 86.7405 315.882 87.8888 315.554C89.037 315.225 89.8572 314.815 90.3493 314.323C92.8099 311.863 95.1064 304.563 97.2389 292.424C99.0433 281.106 99.9455 270.525 99.9455 260.683V256.746C99.9455 251.005 99.5354 245.51 98.7152 240.26C98.0591 233.863 96.7468 228.614 94.7783 224.513C93.6301 222.708 92.1537 221.806 90.3493 221.806C88.873 221.806 87.0686 222.216 84.9361 223.036L83.2137 223.775C83.2137 227.548 83.0497 235.995 82.7216 249.118L82.4755 264.374C82.4755 267.655 82.3935 270.197 82.2295 272.002L81.9834 279.629L80.7532 316.046Z" stroke="black" stroke-width="1.15385"/>
</g>
<path d="M283.048 351.642C276.241 344.99 270.439 338.26 265.643 331.453C262.24 326.966 256.98 318.999 249.863 307.551L245.918 301.285C245.764 301.131 245.609 301.053 245.454 301.053C245.454 300.899 245.454 300.821 245.454 300.821H244.294L243.366 301.285C243.211 303.297 243.134 308.711 243.134 317.529C243.134 323.254 242.824 329.983 242.206 337.718L245.918 341.064C245.3 342.766 240.968 347.233 240.813 347.233H238.493C221.475 348.47 209.099 349.089 201.363 349.089H193.474C191.772 349.089 190.534 349.012 189.761 348.857H188.136L180.942 346.537L180.478 344.912C180.169 344.912 179.937 344.603 179.782 343.984C179.782 343.365 179.782 342.901 179.782 342.592C179.318 336.094 178.931 331.376 178.622 328.436C178.003 320.082 177.616 313.971 177.462 310.104C177.152 306.391 176.997 303.993 176.997 302.91L175.837 290.147L175.605 283.185C175.45 281.793 175.373 279.859 175.373 277.384V275.295C175.682 274.521 175.837 273.284 175.837 271.582V267.637C175.992 267.018 176.069 266.322 176.069 265.549L175.837 263.692V261.372C175.837 260.289 175.682 259.438 175.373 258.819V257.427L175.605 251.625C175.76 250.542 175.837 248.918 175.837 246.752C176.147 242.111 176.301 237.702 176.301 233.525V231.204C176.147 230.74 176.069 229.734 176.069 228.187V222.618C175.605 222.154 175.373 221.69 175.373 221.226C175.373 219.06 179.801 213.425 183.669 212.496C185.68 211.878 186.048 215.656 189.761 215.656C225.962 215.656 253.035 216.894 270.981 219.369C288.617 221.844 300.993 226.099 308.11 232.132C311.204 235.072 313.37 238.553 314.607 242.575C316 246.443 316.696 251.084 316.696 256.498C316.696 265.162 318.096 267.948 313.145 273.827C309.896 277.076 302.231 284.268 297.899 286.434C298.828 288.754 301.535 293.395 306.021 300.357C306.95 301.44 307.8 302.6 308.574 303.838C309.502 305.076 310.585 306.391 311.823 307.783C314.762 311.805 318.166 316.214 322.033 321.01C322.188 321.629 322.807 322.944 323.89 324.955C324.663 325.265 329.374 321.194 329.374 321.658C329.528 321.967 326.052 326.609 325.066 327.731C323.828 329.587 319.945 332.072 313.911 335.63C313.138 336.403 312.21 337.177 311.127 337.95C308.032 340.426 303.778 342.978 298.363 345.608C293.413 348.238 289.158 350.095 285.6 351.178C284.208 351.951 283.357 352.106 283.048 351.642ZM240.813 269.958C242.824 269.958 245.532 269.571 248.935 268.797C252.184 267.869 254.505 266.941 255.897 266.013C258.218 264.62 260.229 263.073 261.93 261.372C263.632 259.36 264.483 257.04 264.483 254.41C264.483 250.078 263.168 246.597 260.538 243.967C258.218 242.111 255.355 241.183 251.952 241.183H241.974C241.974 243.194 241.819 246.365 241.509 250.697L241.277 255.57C240.968 258.664 240.813 263.46 240.813 269.958Z" fill="#B2651C" stroke="black"/>
<g filter="url(#filter4_n_986_14078)">
<path d="M287.3 346.615C280.493 339.963 274.691 333.233 269.895 326.426C266.492 321.94 261.232 313.973 254.115 302.524L250.17 296.259C250.016 296.104 249.861 296.027 249.706 296.027C249.706 295.872 249.706 295.795 249.706 295.795H248.546L247.618 296.259C247.463 298.27 247.386 303.685 247.386 312.503C247.386 318.227 247.076 324.957 246.458 332.692L246.225 339.654C245.607 341.355 245.22 342.206 245.065 342.206H242.745C225.727 343.444 213.351 344.063 205.615 344.063H197.725C196.024 344.063 194.786 343.985 194.013 343.831H192.388L185.194 341.51L184.73 339.886C184.421 339.886 184.189 339.576 184.034 338.957C184.034 338.339 184.034 337.874 184.034 337.565C183.57 331.067 183.183 326.349 182.874 323.41C182.255 315.055 181.868 308.945 181.714 305.077C181.404 301.364 181.249 298.966 181.249 297.883L180.089 285.12L179.857 278.158C179.702 276.766 179.625 274.832 179.625 272.357V270.268C179.934 269.495 180.089 268.257 180.089 266.555V262.61C180.244 261.992 180.321 261.295 180.321 260.522L180.089 258.666V256.345C180.089 255.262 179.934 254.411 179.625 253.792V252.4L179.857 246.599C180.012 245.516 180.089 243.891 180.089 241.725C180.399 237.084 180.553 232.675 180.553 228.498V226.177C180.399 225.713 180.321 224.708 180.321 223.161V217.591C179.857 217.127 179.625 216.663 179.625 216.199C179.625 214.033 181.559 212.486 185.426 211.558C187.438 210.939 190.3 210.63 194.013 210.63C230.214 210.63 257.287 211.867 275.233 214.343C292.869 216.818 305.245 221.072 312.362 227.106C315.456 230.045 317.622 233.526 318.859 237.548C320.252 241.416 320.948 246.057 320.948 251.472C320.948 260.135 318.473 267.406 313.522 273.285C310.273 276.534 306.483 279.241 302.151 281.407C303.08 283.728 305.787 288.369 310.273 295.331C311.202 296.414 312.052 297.574 312.826 298.811C313.754 300.049 314.837 301.364 316.075 302.756C319.014 306.779 322.418 311.188 326.285 315.984C326.44 316.602 327.059 317.917 328.142 319.929C328.915 320.238 329.302 320.625 329.302 321.089C329.457 321.398 329.379 321.862 329.07 322.481C327.832 324.338 324.197 327.045 318.163 330.603C317.39 331.377 316.461 332.15 315.379 332.924C312.284 335.399 308.03 337.952 302.615 340.582C297.665 343.212 293.41 345.068 289.852 346.151C288.46 346.925 287.609 347.079 287.3 346.615ZM245.065 264.931C247.076 264.931 249.784 264.544 253.187 263.771C256.436 262.843 258.757 261.914 260.149 260.986C262.469 259.594 264.481 258.047 266.182 256.345C267.884 254.334 268.735 252.013 268.735 249.383C268.735 245.051 267.42 241.571 264.79 238.941C262.469 237.084 259.607 236.156 256.204 236.156H246.225C246.225 238.167 246.071 241.339 245.761 245.67L245.529 250.544C245.22 253.638 245.065 258.433 245.065 264.931Z" fill="#E9C253"/>
<path d="M287.3 346.615C280.493 339.963 274.691 333.233 269.895 326.426C266.492 321.94 261.232 313.973 254.115 302.524L250.17 296.259C250.016 296.104 249.861 296.027 249.706 296.027C249.706 295.872 249.706 295.795 249.706 295.795H248.546L247.618 296.259C247.463 298.27 247.386 303.685 247.386 312.503C247.386 318.227 247.076 324.957 246.458 332.692L246.225 339.654C245.607 341.355 245.22 342.206 245.065 342.206H242.745C225.727 343.444 213.351 344.063 205.615 344.063H197.725C196.024 344.063 194.786 343.985 194.013 343.831H192.388L185.194 341.51L184.73 339.886C184.421 339.886 184.189 339.576 184.034 338.957C184.034 338.339 184.034 337.874 184.034 337.565C183.57 331.067 183.183 326.349 182.874 323.41C182.255 315.055 181.868 308.945 181.714 305.077C181.404 301.364 181.249 298.966 181.249 297.883L180.089 285.12L179.857 278.158C179.702 276.766 179.625 274.832 179.625 272.357V270.268C179.934 269.495 180.089 268.257 180.089 266.555V262.61C180.244 261.992 180.321 261.295 180.321 260.522L180.089 258.666V256.345C180.089 255.262 179.934 254.411 179.625 253.792V252.4L179.857 246.599C180.012 245.516 180.089 243.891 180.089 241.725C180.399 237.084 180.553 232.675 180.553 228.498V226.177C180.399 225.713 180.321 224.708 180.321 223.161V217.591C179.857 217.127 179.625 216.663 179.625 216.199C179.625 214.033 181.559 212.486 185.426 211.558C187.438 210.939 190.3 210.63 194.013 210.63C230.214 210.63 257.287 211.867 275.233 214.343C292.869 216.818 305.245 221.072 312.362 227.106C315.456 230.045 317.622 233.526 318.859 237.548C320.252 241.416 320.948 246.057 320.948 251.472C320.948 260.135 318.473 267.406 313.522 273.285C310.273 276.534 306.483 279.241 302.151 281.407C303.08 283.728 305.787 288.369 310.273 295.331C311.202 296.414 312.052 297.574 312.826 298.811C313.754 300.049 314.837 301.364 316.075 302.756C319.014 306.779 322.418 311.188 326.285 315.984C326.44 316.602 327.059 317.917 328.142 319.929C328.915 320.238 329.302 320.625 329.302 321.089C329.457 321.398 329.379 321.862 329.07 322.481C327.832 324.338 324.197 327.045 318.163 330.603C317.39 331.377 316.461 332.15 315.379 332.924C312.284 335.399 308.03 337.952 302.615 340.582C297.665 343.212 293.41 345.068 289.852 346.151C288.46 346.925 287.609 347.079 287.3 346.615ZM245.065 264.931C247.076 264.931 249.784 264.544 253.187 263.771C256.436 262.843 258.757 261.914 260.149 260.986C262.469 259.594 264.481 258.047 266.182 256.345C267.884 254.334 268.735 252.013 268.735 249.383C268.735 245.051 267.42 241.571 264.79 238.941C262.469 237.084 259.607 236.156 256.204 236.156H246.225C246.225 238.167 246.071 241.339 245.761 245.67L245.529 250.544C245.22 253.638 245.065 258.433 245.065 264.931Z" stroke="black"/>
</g>
<path d="M61.8156 173.516C58.5668 173.516 56.4783 170.499 55.5501 164.466C55.086 161.836 54.8539 159.438 54.8539 157.272V152.167C54.3898 147.061 54.1577 142.111 54.1577 137.315C53.5389 123.082 52.9974 113.026 52.5333 107.148C52.5333 104.518 52.3786 101.733 52.0692 98.7935C51.7598 95.6994 51.5278 93.5335 51.373 92.2959V18.9657C51.373 17.5734 62.4283 9.00985 63.5112 8.70044L65.8656 9.57047L71.1372 11.7712C76.5519 11.7712 67.6171 16.4131 76.4352 15.949C88.1928 15.6396 98.0166 15.4849 105.907 15.4849H108.227C109.155 15.6396 110.702 15.7169 112.868 15.7169H119.366C124.007 15.7169 127.643 15.7943 130.273 15.949H154.174C157.114 16.2584 161.91 16.4131 168.562 16.4131C169.8 16.4131 170.728 16.4904 171.347 16.6451C172.584 16.9545 173.977 17.1093 175.524 17.1093C176.143 17.1093 176.761 16.8772 177.38 16.4131C180.938 16.4131 182.872 19.6619 183.182 26.1595C183.491 28.3254 183.646 29.9498 183.646 31.0327C183.646 31.9609 183.491 33.8174 183.182 36.6021C183.027 39.0773 193.513 36.392 193.513 41.8067C193.513 43.5084 181.48 51.1443 178.54 51.4537C177.767 51.6085 176.452 51.6858 174.595 51.6858H160.904L153.942 51.9179C152.395 52.382 149.997 52.614 146.749 52.614C143.5 52.614 141.643 52.5367 141.179 52.382C140.715 52.5367 140.328 52.6914 140.019 52.8461C139.864 53.0008 139.71 53.0782 139.555 53.0782C139.555 53.3876 139.477 53.697 139.323 54.0064C139.168 54.3158 139.091 54.7799 139.091 55.3987C138.936 56.4817 138.549 60.504 137.93 67.4657C137.776 69.4769 137.698 73.0351 137.698 78.1404L137.466 78.6045C137.466 79.2233 137.776 79.9195 138.395 80.693H166.241C168.098 80.693 169.413 80.925 170.186 81.3892C171.115 81.8533 171.811 82.7041 172.275 83.9418C172.894 85.7982 173.203 90.5941 173.203 98.3293L183.182 110.105C182.872 111.497 172.43 118.054 171.811 118.518C171.347 118.982 170.651 119.215 169.722 119.215C168.485 119.215 167.324 119.369 166.241 119.679L155.799 120.375H151.158C148.837 120.375 147.29 120.529 146.517 120.839C145.434 121.148 143.964 121.38 142.107 121.535H138.859C136.383 121.535 134.682 121.844 133.753 122.463C132.98 122.618 132.206 123.392 131.433 124.784C131.433 138.862 140.328 156.223 140.019 161.328C138.395 164.723 131.433 166.883 128.648 169.803C125.863 169.803 121.841 169.958 116.581 170.267C114.106 170.267 112.481 170.422 111.708 170.731H108.923C108.304 170.731 107.84 170.654 107.531 170.499C107.222 170.344 106.912 170.267 106.603 170.267L105.907 170.035C105.907 169.88 105.597 169.803 104.978 169.803C104.824 169.803 104.514 169.88 104.05 170.035C103.741 170.19 103.431 170.422 103.122 170.731H83.8611C83.7064 170.886 83.3196 170.963 82.7008 170.963C82.2367 171.118 81.5405 171.35 80.6123 171.659L66.4568 173.284L61.8156 173.516Z" fill="#B2651C" stroke="black"/>
<g filter="url(#filter5_n_986_14078)">
<path d="M72.5656 165.661C69.3168 165.661 67.2283 162.644 66.3001 156.61C65.836 153.98 65.6039 151.583 65.6039 149.417V144.311C65.1398 139.206 64.9077 134.256 64.9077 129.46C64.2889 115.227 63.7474 105.171 63.2833 99.2923C63.2833 96.6623 63.1286 93.8776 62.8192 90.9382C62.5098 87.8441 62.2778 85.6783 62.123 84.4406V11.1105C62.123 9.71815 62.6645 8.86728 63.7474 8.55787H65.1398L65.836 8.78992C71.2506 8.78992 78.3671 8.55787 87.1852 8.09375C98.9428 7.78434 108.767 7.62964 116.657 7.62964H118.977C119.905 7.78434 121.452 7.86169 123.618 7.86169H130.116C134.757 7.86169 138.393 7.93904 141.023 8.09375H164.924C167.864 8.40316 172.66 8.55787 179.312 8.55787C180.55 8.55787 181.478 8.63522 182.097 8.78992C183.334 9.09933 184.727 9.25403 186.274 9.25403C186.893 9.25403 187.511 9.02198 188.13 8.55787C191.688 8.55787 193.622 11.8067 193.932 18.3043C194.241 20.4701 194.396 22.0945 194.396 23.1775C194.396 24.1057 194.241 25.9622 193.932 28.7468C193.777 31.2221 193.7 35.1671 193.7 40.5818C193.7 42.2835 192.23 43.2891 189.29 43.5985C188.517 43.7532 187.202 43.8306 185.345 43.8306H171.654L164.692 44.0626C163.145 44.5267 160.747 44.7588 157.499 44.7588C154.25 44.7588 152.393 44.6814 151.929 44.5267C151.465 44.6814 151.078 44.8362 150.769 44.9909C150.614 45.1456 150.46 45.2229 150.305 45.2229C150.305 45.5323 150.227 45.8417 150.073 46.1512C149.918 46.4606 149.841 46.9247 149.841 47.5435C149.686 48.6264 149.299 52.6488 148.68 59.6105C148.526 61.6216 148.448 65.1799 148.448 70.2851L148.216 70.7492C148.216 71.368 148.526 72.0642 149.145 72.8377H176.991C178.848 72.8377 180.163 73.0698 180.936 73.5339C181.865 73.998 182.561 74.8489 183.025 76.0865C183.644 77.943 183.953 82.7389 183.953 90.4741V107.878C183.644 109.271 183.18 110.199 182.561 110.663C182.097 111.127 181.401 111.359 180.472 111.359C179.235 111.359 178.074 111.514 176.991 111.823L166.549 112.52H161.908C159.587 112.52 158.04 112.674 157.267 112.984C156.184 113.293 154.714 113.525 152.857 113.68H149.609C147.133 113.68 145.432 113.989 144.503 114.608C143.73 114.763 142.956 115.536 142.183 116.929C142.183 131.007 142.028 140.598 141.719 145.704C141.564 153.13 140.79 158.544 139.398 161.948C136.613 161.948 132.591 162.102 127.331 162.412C124.856 162.412 123.231 162.567 122.458 162.876H119.673C119.054 162.876 118.59 162.799 118.281 162.644C117.972 162.489 117.662 162.412 117.353 162.412L116.657 162.18C116.657 162.025 116.347 161.948 115.728 161.948C115.574 161.948 115.264 162.025 114.8 162.18C114.491 162.335 114.181 162.567 113.872 162.876H94.6111C94.4564 163.031 94.0696 163.108 93.4508 163.108C92.9867 163.263 92.2905 163.495 91.3623 163.804L77.2068 165.429L72.5656 165.661Z" fill="#E9C253"/>
<path d="M72.5656 165.661C69.3168 165.661 67.2283 162.644 66.3001 156.61C65.836 153.98 65.6039 151.583 65.6039 149.417V144.311C65.1398 139.206 64.9077 134.256 64.9077 129.46C64.2889 115.227 63.7474 105.171 63.2833 99.2923C63.2833 96.6623 63.1286 93.8776 62.8192 90.9382C62.5098 87.8441 62.2778 85.6783 62.123 84.4406V11.1105C62.123 9.71815 62.6645 8.86728 63.7474 8.55787H65.1398L65.836 8.78992C71.2506 8.78992 78.3671 8.55787 87.1852 8.09375C98.9428 7.78434 108.767 7.62964 116.657 7.62964H118.977C119.905 7.78434 121.452 7.86169 123.618 7.86169H130.116C134.757 7.86169 138.393 7.93904 141.023 8.09375H164.924C167.864 8.40316 172.66 8.55787 179.312 8.55787C180.55 8.55787 181.478 8.63522 182.097 8.78992C183.334 9.09933 184.727 9.25403 186.274 9.25403C186.893 9.25403 187.511 9.02198 188.13 8.55787C191.688 8.55787 193.622 11.8067 193.932 18.3043C194.241 20.4701 194.396 22.0945 194.396 23.1775C194.396 24.1057 194.241 25.9622 193.932 28.7468C193.777 31.2221 193.7 35.1671 193.7 40.5818C193.7 42.2835 192.23 43.2891 189.29 43.5985C188.517 43.7532 187.202 43.8306 185.345 43.8306H171.654L164.692 44.0626C163.145 44.5267 160.747 44.7588 157.499 44.7588C154.25 44.7588 152.393 44.6814 151.929 44.5267C151.465 44.6814 151.078 44.8362 150.769 44.9909C150.614 45.1456 150.46 45.2229 150.305 45.2229C150.305 45.5323 150.227 45.8417 150.073 46.1512C149.918 46.4606 149.841 46.9247 149.841 47.5435C149.686 48.6264 149.299 52.6488 148.68 59.6105C148.526 61.6216 148.448 65.1799 148.448 70.2851L148.216 70.7492C148.216 71.368 148.526 72.0642 149.145 72.8377H176.991C178.848 72.8377 180.163 73.0698 180.936 73.5339C181.865 73.998 182.561 74.8489 183.025 76.0865C183.644 77.943 183.953 82.7389 183.953 90.4741V107.878C183.644 109.271 183.18 110.199 182.561 110.663C182.097 111.127 181.401 111.359 180.472 111.359C179.235 111.359 178.074 111.514 176.991 111.823L166.549 112.52H161.908C159.587 112.52 158.04 112.674 157.267 112.984C156.184 113.293 154.714 113.525 152.857 113.68H149.609C147.133 113.68 145.432 113.989 144.503 114.608C143.73 114.763 142.956 115.536 142.183 116.929C142.183 131.007 142.028 140.598 141.719 145.704C141.564 153.13 140.79 158.544 139.398 161.948C136.613 161.948 132.591 162.102 127.331 162.412C124.856 162.412 123.231 162.567 122.458 162.876H119.673C119.054 162.876 118.59 162.799 118.281 162.644C117.972 162.489 117.662 162.412 117.353 162.412L116.657 162.18C116.657 162.025 116.347 161.948 115.728 161.948C115.574 161.948 115.264 162.025 114.8 162.18C114.491 162.335 114.181 162.567 113.872 162.876H94.6111C94.4564 163.031 94.0696 163.108 93.4508 163.108C92.9867 163.263 92.2905 163.495 91.3623 163.804L77.2068 165.429L72.5656 165.661Z" stroke="black"/>
</g>
<path d="M260.974 165.944C259.739 165.873 258.049 165.621 255.904 165.188C254.841 164.817 253.151 164.565 250.834 164.432C244.965 164.096 237.781 162.366 229.282 159.245L227.66 159.152C226.579 159.09 225.439 158.714 224.238 158.026C223.947 157.699 223.574 157.445 223.12 157.264C222.674 156.929 222.156 156.512 221.565 156.013L216.859 152.954C212.376 150.062 208.491 146.198 205.205 141.36C201.927 136.369 199.371 130.953 197.536 125.115C193.968 114.373 192.499 103.519 193.128 92.553C193.828 80.3513 196.972 68.7548 202.562 57.7634C208.495 46.1718 216.063 37.1534 225.265 30.7081C235.439 23.5437 246.472 20.3025 258.365 20.9847C262.071 21.1973 264.92 21.5156 266.91 21.9397C266.928 21.6308 267.168 21.4896 267.632 21.5162L268.327 21.5561C279.138 22.1762 288.769 23.1161 297.22 24.3756C304.417 25.8731 311.007 28.498 316.99 32.2503C328.877 41.1449 337.244 50.6125 342.092 60.653C347.186 71.7923 349.313 84.6984 348.471 99.3713C347.629 114.044 343.366 127.591 335.68 140.012L333.151 143.586C332.48 144.477 332.067 144.918 331.913 144.909L331.151 146.028L329.476 146.861C322.268 156.365 311.843 162.508 298.202 165.29C289.138 166.629 276.728 166.847 260.974 165.944ZM265.91 148.794C267.3 148.874 268.43 148.086 269.299 146.431C271.312 143.758 273.167 138.44 274.863 130.48C275.097 129.099 275.66 126.032 276.553 121.279C277.445 116.527 278.088 112.07 278.482 107.908C279.702 97.4413 280.383 90.972 280.525 88.5008L280.937 81.3189C281.256 75.7586 281.299 70.9573 281.066 66.915C280.966 60.556 280.327 55.4832 279.149 51.6966C277.866 49.7635 276.838 48.7747 276.065 48.7304C274.521 48.6419 272.987 49.7161 271.464 51.9531C269.941 54.1901 268.617 58.3755 267.49 64.5093L260.499 101.298L260.06 108.944C260.151 115.457 260.139 119.718 260.024 121.726L260.169 127.313L260.438 134.766C260.368 136.002 260.46 137.092 260.716 138.036L262.772 146.754C262.891 147.381 263.251 147.867 263.851 148.211C264.606 148.564 265.292 148.758 265.91 148.794Z" fill="#B2651C" stroke="black"/>
<g filter="url(#filter6_n_986_14078)">
<path d="M274.426 159.13C273.19 159.059 271.5 158.807 269.355 158.374C268.292 158.003 266.602 157.751 264.285 157.619C258.416 157.282 251.232 155.553 242.733 152.431L241.112 152.338C240.03 152.276 238.89 151.901 237.69 151.212C237.398 150.885 237.026 150.631 236.571 150.45C236.125 150.115 235.607 149.698 235.016 149.199L230.31 146.14C225.827 143.248 221.942 139.384 218.656 134.547C215.378 129.555 212.822 124.14 210.987 118.301C207.42 107.559 205.95 96.7053 206.579 85.7392C207.279 73.5376 210.424 61.9411 216.013 50.9496C221.946 39.3581 229.514 30.3397 238.717 23.8944C248.89 16.7299 259.923 13.4888 271.816 14.171C275.523 14.3836 278.371 14.7019 280.361 15.126C280.379 14.8171 280.619 14.6759 281.083 14.7025L281.778 14.7424C292.589 15.3625 302.22 16.3023 310.671 17.5618C317.868 19.0594 324.458 21.6843 330.441 25.4366C342.328 34.3312 350.695 43.7988 355.543 53.8393C360.637 64.9786 362.764 77.8847 361.922 92.5576C361.08 107.23 356.817 120.777 349.131 133.198L346.602 136.772C345.931 137.663 345.518 138.104 345.364 138.096L344.602 139.214L342.927 140.048C335.719 149.552 325.294 155.694 311.653 158.476C302.589 159.816 290.18 160.034 274.426 159.13ZM279.361 141.98C280.751 142.06 281.881 141.272 282.75 139.618C284.763 136.944 286.618 131.627 288.314 123.666C288.548 122.285 289.112 119.218 290.004 114.466C290.897 109.713 291.54 105.256 291.933 101.095C293.153 90.6275 293.834 84.1583 293.976 81.6871L294.388 74.5051C294.707 68.9449 294.75 64.1436 294.517 60.1013C294.417 53.7423 293.778 48.6694 292.601 44.8829C291.317 42.9497 290.289 41.961 289.517 41.9167C287.972 41.8281 286.438 42.9024 284.915 45.1394C283.393 47.3764 282.068 51.5618 280.941 57.6956L273.95 94.4847L273.511 102.13C273.602 108.644 273.591 112.904 273.475 114.912L273.62 120.499L273.89 127.952C273.819 129.188 273.911 130.278 274.167 131.223L276.224 139.941C276.343 140.567 276.702 141.053 277.302 141.397C278.057 141.75 278.743 141.945 279.361 141.98Z" fill="#E9C253"/>
<path d="M274.426 159.13C273.19 159.059 271.5 158.807 269.355 158.374C268.292 158.003 266.602 157.751 264.285 157.619C258.416 157.282 251.232 155.553 242.733 152.431L241.112 152.338C240.03 152.276 238.89 151.901 237.69 151.212C237.398 150.885 237.026 150.631 236.571 150.45C236.125 150.115 235.607 149.698 235.016 149.199L230.31 146.14C225.827 143.248 221.942 139.384 218.656 134.547C215.378 129.555 212.822 124.14 210.987 118.301C207.42 107.559 205.95 96.7053 206.579 85.7392C207.279 73.5376 210.424 61.9411 216.013 50.9496C221.946 39.3581 229.514 30.3397 238.717 23.8944C248.89 16.7299 259.923 13.4888 271.816 14.171C275.523 14.3836 278.371 14.7019 280.361 15.126C280.379 14.8171 280.619 14.6759 281.083 14.7025L281.778 14.7424C292.589 15.3625 302.22 16.3023 310.671 17.5618C317.868 19.0594 324.458 21.6843 330.441 25.4366C342.328 34.3312 350.695 43.7988 355.543 53.8393C360.637 64.9786 362.764 77.8847 361.922 92.5576C361.08 107.23 356.817 120.777 349.131 133.198L346.602 136.772C345.931 137.663 345.518 138.104 345.364 138.096L344.602 139.214L342.927 140.048C335.719 149.552 325.294 155.694 311.653 158.476C302.589 159.816 290.18 160.034 274.426 159.13ZM279.361 141.98C280.751 142.06 281.881 141.272 282.75 139.618C284.763 136.944 286.618 131.627 288.314 123.666C288.548 122.285 289.112 119.218 290.004 114.466C290.897 109.713 291.54 105.256 291.933 101.095C293.153 90.6275 293.834 84.1583 293.976 81.6871L294.388 74.5051C294.707 68.9449 294.75 64.1436 294.517 60.1013C294.417 53.7423 293.778 48.6694 292.601 44.8829C291.317 42.9497 290.289 41.961 289.517 41.9167C287.972 41.8281 286.438 42.9024 284.915 45.1394C283.393 47.3764 282.068 51.5618 280.941 57.6956L273.95 94.4847L273.511 102.13C273.602 108.644 273.591 112.904 273.475 114.912L273.62 120.499L273.89 127.952C273.819 129.188 273.911 130.278 274.167 131.223L276.224 139.941C276.343 140.567 276.702 141.053 277.302 141.397C278.057 141.75 278.743 141.945 279.361 141.98Z" stroke="black"/>
</g>
<path d="M427.825 346.738L419.461 344.379L419.032 343.092C418.889 343.092 418.818 342.377 418.818 340.947C418.818 339.089 418.746 337.587 418.603 336.444L418.389 328.294C418.246 326.578 418.175 323.862 418.175 320.144C418.175 316.57 418.103 313.925 417.96 312.209V305.775C417.102 296.767 416.673 287.474 416.673 277.894V272.962C416.673 271.246 416.745 270.031 416.888 269.316V266.099C416.745 265.67 416.673 264.955 416.673 263.954V254.732C416.673 253.016 416.745 251.801 416.888 251.086V248.941L417.102 247.869V245.081C417.245 243.651 417.317 241.721 417.317 239.29C417.317 237.432 417.245 235.787 417.102 234.358L416.888 229.425L416.673 228.567C416.244 228.281 416.244 228.067 416.673 227.924C417.245 225.636 422.69 217.342 425.692 216.341C427.122 215.769 425.824 222.133 429.112 222.133C431.543 222.133 437.905 221.919 448.2 221.49C453.347 221.204 456.564 221.061 457.851 221.061C459.995 220.918 462.569 220.846 465.572 220.846C467.001 220.989 468.002 221.275 468.574 221.704C469.146 221.99 469.646 222.562 470.075 223.42C470.647 224.278 471.076 224.921 471.362 225.35L475.651 231.57C475.508 231.427 477.296 234 481.013 239.29C484.445 244.867 488.591 251.158 493.452 258.163C494.167 259.307 495.025 260.594 496.026 262.024C497.027 263.454 498.099 265.098 499.243 266.957V259.45C499.386 257.449 499.457 254.589 499.457 250.872C499.457 246.01 499.6 240.577 499.886 234.572C499.886 233.428 499.958 232.427 500.101 231.57C500.244 230.569 500.315 229.782 500.315 229.211C500.315 227.781 500.387 227.066 500.53 227.066C501.101 226.208 506.794 218.78 508.223 217.779C509.939 216.636 507.035 222.634 508.894 222.777H521.762C523.906 222.777 525.694 222.848 527.123 222.991H533.557C534.987 223.134 537.132 223.205 539.991 223.205H546.854C549.714 223.205 551.858 223.706 553.288 224.707C554.146 225.279 554.718 226.065 555.004 227.066C555.29 227.924 555.433 229.282 555.433 231.141C555.433 232.999 555.361 234.572 555.218 235.859C555.075 237.289 555.004 239.004 555.004 241.006V242.507C555.147 242.936 555.218 243.58 555.218 244.438V250.014L555.004 274.677V304.703C555.004 320.144 554.861 329.938 554.575 334.084L560.053 334.854C559.338 338.143 552.216 346.166 550.929 346.309C550.643 346.309 550.214 346.38 549.642 346.523C549.213 346.666 548.713 346.738 548.141 346.738C542.994 346.738 539.205 346.595 536.774 346.309H511.682C511.253 346.452 510.681 346.523 509.966 346.523C508.25 346.523 506.463 346.166 504.604 345.451C503.461 345.165 502.245 344.379 500.958 343.092L482.085 316.498C481.371 315.497 480.012 313.853 478.011 311.566L475.223 308.992C474.508 308.277 473.936 307.92 473.507 307.92C473.078 307.92 472.72 308.134 472.434 308.563C472.148 308.849 472.006 309.135 472.006 309.421V313.067C471.863 314.211 471.791 315.998 471.791 318.428V324.648C471.648 326.221 471.577 328.365 471.577 331.082L474.383 329.193C474.24 329.479 475.399 331.835 475.935 332.445C476.785 332.149 477.273 334.856 476.844 337.001C476.558 337.573 470.218 345.094 470.075 345.237C469.932 345.38 469.432 345.451 468.574 345.451C468.288 345.308 468.002 345.237 467.716 345.237C467.573 345.237 467.43 345.237 467.287 345.237C455.992 346.237 446.627 346.738 439.192 346.738H427.825Z" fill="#B2651C" stroke="black" stroke-width="0.924195"/>
<g filter="url(#filter7_n_986_14078)">
<path d="M434.531 338.521L426.166 336.162L425.737 334.875C425.594 334.875 425.523 334.16 425.523 332.731C425.523 330.872 425.452 329.371 425.309 328.227L425.094 320.077C424.951 318.361 424.88 315.645 424.88 311.927C424.88 308.353 424.808 305.708 424.665 303.992V297.558C423.807 288.551 423.378 279.257 423.378 269.678V264.745C423.378 263.029 423.45 261.814 423.593 261.099V257.882C423.45 257.453 423.378 256.738 423.378 255.737V246.515C423.378 244.8 423.45 243.584 423.593 242.869V240.725L423.807 239.652V236.864C423.95 235.435 424.022 233.504 424.022 231.074C424.022 229.215 423.95 227.571 423.807 226.141L423.593 221.208L423.378 220.35C422.949 220.064 422.949 219.85 423.378 219.707C423.95 217.419 425.737 215.775 428.74 214.774C430.17 214.202 432.529 213.916 435.817 213.916C438.248 213.916 444.61 213.702 454.905 213.273C460.052 212.987 463.269 212.844 464.556 212.844C466.7 212.701 469.274 212.63 472.277 212.63C473.706 212.773 474.707 213.059 475.279 213.488C475.851 213.773 476.351 214.345 476.78 215.203C477.352 216.061 477.781 216.704 478.067 217.133L482.357 223.353C482.214 223.21 484.001 225.784 487.718 231.074C491.15 236.65 495.296 242.941 500.157 249.947C500.872 251.091 501.73 252.377 502.731 253.807C503.732 255.237 504.804 256.881 505.948 258.74V251.234C506.091 249.232 506.162 246.372 506.162 242.655C506.162 237.794 506.305 232.361 506.591 226.355C506.591 225.212 506.663 224.211 506.806 223.353C506.949 222.352 507.02 221.566 507.02 220.994C507.02 219.564 507.092 218.849 507.235 218.849C507.806 217.991 508.807 217.062 510.237 216.061C511.953 214.917 513.74 214.417 515.599 214.56H528.467C530.611 214.56 532.399 214.631 533.828 214.774H540.262C541.692 214.917 543.837 214.989 546.696 214.989H553.559C556.419 214.989 558.563 215.489 559.993 216.49C560.851 217.062 561.423 217.848 561.709 218.849C561.995 219.707 562.138 221.065 562.138 222.924C562.138 224.783 562.066 226.355 561.923 227.642C561.78 229.072 561.709 230.788 561.709 232.789V234.291C561.852 234.72 561.923 235.363 561.923 236.221V241.797L561.709 266.461V296.486C561.709 311.927 561.566 321.721 561.28 325.868L560.637 332.945C559.922 336.234 558.921 337.949 557.634 338.092C557.348 338.092 556.919 338.164 556.347 338.307C555.918 338.45 555.418 338.521 554.846 338.521C549.699 338.521 545.91 338.378 543.479 338.092H518.387C517.958 338.235 517.386 338.307 516.671 338.307C514.955 338.307 513.168 337.949 511.309 337.234C510.166 336.949 508.95 336.162 507.664 334.875L488.79 308.282C488.076 307.281 486.717 305.636 484.716 303.349L481.928 300.775C481.213 300.06 480.641 299.703 480.212 299.703C479.783 299.703 479.425 299.917 479.14 300.346C478.854 300.632 478.711 300.918 478.711 301.204V304.85C478.568 305.994 478.496 307.781 478.496 310.212V316.431C478.353 318.004 478.282 320.149 478.282 322.865V331.229C478.139 331.515 478.067 331.944 478.067 332.516C478.067 332.659 477.853 333.803 477.424 335.948C477.138 336.52 476.923 336.877 476.78 337.02C476.637 337.163 476.137 337.234 475.279 337.234C474.993 337.091 474.707 337.02 474.421 337.02C474.278 337.02 474.135 337.02 473.992 337.02C462.697 338.021 453.332 338.521 445.897 338.521H434.531Z" fill="#E9C253"/>
<path d="M434.531 338.521L426.166 336.162L425.737 334.875C425.594 334.875 425.523 334.16 425.523 332.731C425.523 330.872 425.452 329.371 425.309 328.227L425.094 320.077C424.951 318.361 424.88 315.645 424.88 311.927C424.88 308.353 424.808 305.708 424.665 303.992V297.558C423.807 288.551 423.378 279.257 423.378 269.678V264.745C423.378 263.029 423.45 261.814 423.593 261.099V257.882C423.45 257.453 423.378 256.738 423.378 255.737V246.515C423.378 244.8 423.45 243.584 423.593 242.869V240.725L423.807 239.652V236.864C423.95 235.435 424.022 233.504 424.022 231.074C424.022 229.215 423.95 227.571 423.807 226.141L423.593 221.208L423.378 220.35C422.949 220.064 422.949 219.85 423.378 219.707C423.95 217.419 425.737 215.775 428.74 214.774C430.17 214.202 432.529 213.916 435.817 213.916C438.248 213.916 444.61 213.702 454.905 213.273C460.052 212.987 463.269 212.844 464.556 212.844C466.7 212.701 469.274 212.63 472.277 212.63C473.706 212.773 474.707 213.059 475.279 213.488C475.851 213.773 476.351 214.345 476.78 215.203C477.352 216.061 477.781 216.704 478.067 217.133L482.357 223.353C482.214 223.21 484.001 225.784 487.718 231.074C491.15 236.65 495.296 242.941 500.157 249.947C500.872 251.091 501.73 252.377 502.731 253.807C503.732 255.237 504.804 256.881 505.948 258.74V251.234C506.091 249.232 506.162 246.372 506.162 242.655C506.162 237.794 506.305 232.361 506.591 226.355C506.591 225.212 506.663 224.211 506.806 223.353C506.949 222.352 507.02 221.566 507.02 220.994C507.02 219.564 507.092 218.849 507.235 218.849C507.806 217.991 508.807 217.062 510.237 216.061C511.953 214.917 513.74 214.417 515.599 214.56H528.467C530.611 214.56 532.399 214.631 533.828 214.774H540.262C541.692 214.917 543.837 214.989 546.696 214.989H553.559C556.419 214.989 558.563 215.489 559.993 216.49C560.851 217.062 561.423 217.848 561.709 218.849C561.995 219.707 562.138 221.065 562.138 222.924C562.138 224.783 562.066 226.355 561.923 227.642C561.78 229.072 561.709 230.788 561.709 232.789V234.291C561.852 234.72 561.923 235.363 561.923 236.221V241.797L561.709 266.461V296.486C561.709 311.927 561.566 321.721 561.28 325.868L560.637 332.945C559.922 336.234 558.921 337.949 557.634 338.092C557.348 338.092 556.919 338.164 556.347 338.307C555.918 338.45 555.418 338.521 554.846 338.521C549.699 338.521 545.91 338.378 543.479 338.092H518.387C517.958 338.235 517.386 338.307 516.671 338.307C514.955 338.307 513.168 337.949 511.309 337.234C510.166 336.949 508.95 336.162 507.664 334.875L488.79 308.282C488.076 307.281 486.717 305.636 484.716 303.349L481.928 300.775C481.213 300.06 480.641 299.703 480.212 299.703C479.783 299.703 479.425 299.917 479.14 300.346C478.854 300.632 478.711 300.918 478.711 301.204V304.85C478.568 305.994 478.496 307.781 478.496 310.212V316.431C478.353 318.004 478.282 320.149 478.282 322.865V331.229C478.139 331.515 478.067 331.944 478.067 332.516C478.067 332.659 477.853 333.803 477.424 335.948C477.138 336.52 476.923 336.877 476.78 337.02C476.637 337.163 476.137 337.234 475.279 337.234C474.993 337.091 474.707 337.02 474.421 337.02C474.278 337.02 474.135 337.02 473.992 337.02C462.697 338.021 453.332 338.521 445.897 338.521H434.531Z" stroke="black" stroke-width="0.924195"/>
</g>
<path d="M336.807 352.156C336.093 352.156 335.431 351.846 334.819 351.225C334.208 350.479 333.749 349.548 333.443 348.43C333.036 346.194 332.73 343.709 332.526 340.976C332.424 340.107 332.373 338.927 332.373 337.436V335.014L332.526 311.908C332.526 304.082 332.679 296.38 332.985 288.803V229.921C332.985 227.312 339.311 222.615 340.637 222.615C347.67 222.615 347.255 227.996 350.72 227.871H366.01C366.316 227.871 366.57 227.809 366.774 227.685C366.978 227.561 367.233 227.499 367.539 227.499C368.864 227.25 370.699 227.188 373.043 227.312C374.776 227.312 376.611 227.499 378.547 227.871C379.159 228.368 379.617 228.493 379.923 228.244C380.127 228.244 380.535 228.12 381.146 227.871C382.675 227.871 383.848 227.996 384.663 228.244C385.58 228.493 386.294 229.052 386.803 229.921C387.313 231.039 387.721 232.406 388.027 234.02C388.129 235.263 388.18 237.871 388.18 241.846V280.977C388.078 281.97 388.027 284.206 388.027 287.685C388.027 291.411 387.925 294.331 387.721 296.442L387.568 304.827C387.466 306.691 387.415 309.051 387.415 311.908L387.262 314.889V326.815C387.262 334.268 393.22 337.489 392.71 342.707C391.827 347.893 387.06 351.038 385.427 351.038C383.593 351.038 380.943 351.162 377.477 351.411C375.846 351.411 374.776 351.535 374.266 351.784H372.278C371.565 351.784 371.208 351.659 371.208 351.411C370.393 351.162 369.934 351.038 369.832 351.038L368.609 351.784H354.543C354.441 351.908 353.625 351.97 352.096 351.97H340.629L336.807 352.156Z" fill="#B2651C" stroke="black" stroke-width="0.922276"/>
<g filter="url(#filter8_n_986_14078)">
<path d="M343.25 346.536C342.537 346.536 341.874 346.225 341.263 345.604C340.651 344.859 340.192 343.927 339.887 342.809C339.479 340.573 339.173 338.088 338.969 335.356C338.867 334.486 338.816 333.306 338.816 331.815V329.393L338.969 306.287C338.969 298.461 339.122 290.76 339.428 283.182V224.3C339.428 223.058 340.091 222.437 341.416 222.437C348.449 222.437 353.698 222.375 357.164 222.251H372.453C372.759 222.251 373.014 222.189 373.218 222.064C373.422 221.94 373.676 221.878 373.982 221.878C375.307 221.63 377.142 221.568 379.486 221.692C381.219 221.692 383.054 221.878 384.991 222.251C385.602 222.748 386.061 222.872 386.367 222.623C386.57 222.623 386.978 222.499 387.59 222.251C389.119 222.251 390.291 222.375 391.106 222.623C392.024 222.872 392.737 223.431 393.247 224.3C393.756 225.418 394.164 226.785 394.47 228.4C394.572 229.642 394.623 232.251 394.623 236.226V275.356C394.521 276.35 394.47 278.586 394.47 282.064C394.47 285.791 394.368 288.71 394.164 290.822L394.011 299.207C393.909 301.07 393.858 303.43 393.858 306.287L393.706 309.269V321.194C393.706 328.648 393.451 334.983 392.941 340.2C392.941 341.939 392.584 343.678 391.871 345.418C390.036 345.418 387.386 345.542 383.92 345.79C382.289 345.79 381.219 345.914 380.709 346.163H378.722C378.008 346.163 377.652 346.039 377.652 345.79C376.836 345.542 376.377 345.418 376.276 345.418L375.052 346.163H360.986C360.884 346.287 360.069 346.349 358.54 346.349H347.073L343.25 346.536Z" fill="#E9C253"/>
<path d="M343.25 346.536C342.537 346.536 341.874 346.225 341.263 345.604C340.651 344.859 340.192 343.927 339.887 342.809C339.479 340.573 339.173 338.088 338.969 335.356C338.867 334.486 338.816 333.306 338.816 331.815V329.393L338.969 306.287C338.969 298.461 339.122 290.76 339.428 283.182V224.3C339.428 223.058 340.091 222.437 341.416 222.437C348.449 222.437 353.698 222.375 357.164 222.251H372.453C372.759 222.251 373.014 222.189 373.218 222.064C373.422 221.94 373.676 221.878 373.982 221.878C375.307 221.63 377.142 221.568 379.486 221.692C381.219 221.692 383.054 221.878 384.991 222.251C385.602 222.748 386.061 222.872 386.367 222.623C386.57 222.623 386.978 222.499 387.59 222.251C389.119 222.251 390.291 222.375 391.106 222.623C392.024 222.872 392.737 223.431 393.247 224.3C393.756 225.418 394.164 226.785 394.47 228.4C394.572 229.642 394.623 232.251 394.623 236.226V275.356C394.521 276.35 394.47 278.586 394.47 282.064C394.47 285.791 394.368 288.71 394.164 290.822L394.011 299.207C393.909 301.07 393.858 303.43 393.858 306.287L393.706 309.269V321.194C393.706 328.648 393.451 334.983 392.941 340.2C392.941 341.939 392.584 343.678 391.871 345.418C390.036 345.418 387.386 345.542 383.92 345.79C382.289 345.79 381.219 345.914 380.709 346.163H378.722C378.008 346.163 377.652 346.039 377.652 345.79C376.836 345.542 376.377 345.418 376.276 345.418L375.052 346.163H360.986C360.884 346.287 360.069 346.349 358.54 346.349H347.073L343.25 346.536Z" stroke="black" stroke-width="0.922276"/>
</g>
<path d="M394.622 221.252C392.424 221.252 390.159 220.619 387.827 219.354C385.296 218.021 383.298 216.389 381.832 214.457C381.499 214.657 379.7 215.723 376.436 217.655C375.97 217.921 374.538 218.654 372.14 219.853C370.674 220.519 369.575 220.852 368.842 220.852C361.848 220.852 356.585 220.886 353.055 220.952H337.367C336.901 220.952 336.301 220.919 335.568 220.852C334.902 220.719 334.169 220.619 333.37 220.553L331.371 220.053C330.705 219.986 330.372 219.82 330.372 219.553C330.372 216.889 330.272 214.591 330.073 212.659C329.939 210.66 329.873 209.128 329.873 208.062L329.373 199.469V193.973C329.373 192.042 329.406 190.443 329.473 189.177V177.087C329.473 167.028 329.773 158.867 330.372 152.606C330.372 152.406 330.439 152.239 330.572 152.106C330.772 151.973 334.821 147.754 335.154 147.621C336.553 147.288 334.869 151.107 337.667 150.907C339.465 150.774 341.93 150.707 345.061 150.707H347.459C350.39 150.707 353.787 150.641 357.651 150.507L360.349 150.407C361.481 150.274 363.147 150.208 365.345 150.208L370.141 150.108C374.538 150.108 379.101 150.307 383.831 150.707C384.43 150.707 384.93 151.04 385.329 151.706C385.729 152.373 385.996 153.272 386.129 154.404C386.395 155.47 390.852 152.675 391.052 154.074C391.185 155.073 391.451 156.272 391.851 157.671C391.917 157.871 391.951 158.137 391.951 158.47L391.851 159.57C391.718 160.236 387.095 164.596 386.429 164.596C386.229 164.53 385.862 164.496 385.329 164.496C381.932 164.496 378.501 164.696 375.037 165.096C370.374 165.629 366.877 165.962 364.546 166.095C364.279 166.095 364.113 166.295 364.046 166.695C363.646 167.894 363.347 169.526 363.147 171.591C362.947 173.589 362.847 175.455 362.847 177.187C362.714 177.786 362.647 178.452 362.647 179.185C362.647 180.051 362.747 180.617 362.947 180.884C363.213 181.083 363.68 181.183 364.346 181.183H379.834C379.834 177.853 380 175.321 380.333 173.589C380.4 171.591 380.733 170.259 381.333 169.592L385.759 165.096L393.123 169.592C395.255 169.592 396.82 169.559 397.82 169.493H402.616C403.016 169.493 403.582 169.526 404.315 169.592C405.114 169.659 405.714 169.759 406.113 169.892C406.513 170.025 406.813 170.259 407.013 170.592C407.346 170.991 407.612 171.824 407.812 173.09C407.879 173.822 407.912 175.488 407.912 178.086C407.912 178.685 408.045 179.784 408.312 181.383L413.008 181.483C414.74 181.616 415.606 181.683 415.606 181.683H416.905C417.704 181.883 418.237 182.216 418.504 182.682C418.703 182.882 418.87 183.315 419.003 183.981L423.714 188.387V188.686C423.714 189.353 423.647 189.852 423.514 190.185C423.381 190.452 418.77 195.106 418.304 195.172C417.837 195.372 417.105 195.506 416.105 195.572C415.106 195.639 413.94 195.672 412.608 195.672H408.811C408.811 199.336 408.878 201.901 409.011 203.366C409.078 203.699 409.177 204.165 409.311 204.765C409.444 205.298 409.61 205.731 409.81 206.064C410.077 206.797 410.443 207.163 410.909 207.163H414.507C418.17 207.163 421.102 206.897 423.3 206.364C423.633 206.497 423.999 206.797 424.399 207.263C424.799 207.663 424.998 208.062 424.998 208.462L429.337 215.798C429.337 216.065 424.765 220.586 424.299 220.653C423.3 220.852 421.701 220.952 419.503 220.952H408.112C406.58 220.952 405.48 220.919 404.814 220.852H402.416L398.419 220.952C397.953 221.019 397.387 221.086 396.721 221.152C396.121 221.219 395.422 221.252 394.622 221.252ZM362.048 207.163C364.979 207.163 367.343 207.097 369.142 206.963L372.14 206.863C374.271 206.73 375.77 206.664 376.636 206.664H379.834L380.034 206.364L379.934 195.672H365.845C365.178 195.672 364.579 195.705 364.046 195.772C363.58 195.839 363.247 195.972 363.047 196.172C362.714 196.505 362.547 196.904 362.547 197.371C362.414 198.037 362.347 198.803 362.347 199.669C362.347 200.269 362.314 200.935 362.247 201.667C362.181 202.4 362.114 202.966 362.048 203.366L361.948 205.265L362.048 207.163Z" fill="#B2651C" stroke="black"/>
<g filter="url(#filter9_n_986_14078)">
<path d="M398.997 216.774C396.799 216.774 394.534 216.141 392.202 214.876C389.671 213.543 387.673 211.911 386.207 209.979C385.874 210.179 384.075 211.245 380.811 213.177C380.345 213.443 378.913 214.176 376.515 215.375C375.049 216.041 373.95 216.374 373.217 216.374C366.223 216.374 360.96 216.408 357.43 216.474H341.742C341.276 216.474 340.676 216.441 339.943 216.374C339.277 216.241 338.544 216.141 337.745 216.075L335.746 215.575C335.08 215.508 334.747 215.342 334.747 215.075C334.747 212.411 334.647 210.113 334.448 208.181C334.314 206.182 334.248 204.65 334.248 203.584L333.748 194.991V189.495C333.748 187.564 333.781 185.965 333.848 184.699V172.609C333.848 162.55 334.148 154.389 334.747 148.128C334.747 147.928 334.814 147.761 334.947 147.628C335.147 147.495 335.413 147.362 335.746 147.228C337.145 146.895 339.244 146.629 342.042 146.429C343.84 146.296 346.305 146.229 349.436 146.229H351.834C354.765 146.229 358.162 146.163 362.026 146.029L364.724 145.929C365.856 145.796 367.522 145.73 369.72 145.73L374.516 145.63C378.913 145.63 383.476 145.829 388.206 146.229C388.805 146.229 389.305 146.562 389.704 147.228C390.104 147.895 390.371 148.794 390.504 149.926C390.77 150.992 391.003 152.224 391.203 153.623C391.336 154.623 391.603 155.822 392.003 157.221C392.069 157.42 392.103 157.687 392.103 158.02L392.003 159.119C391.869 159.785 391.47 160.118 390.804 160.118C390.604 160.052 390.237 160.018 389.704 160.018C386.307 160.018 382.876 160.218 379.412 160.618C374.749 161.151 371.252 161.484 368.921 161.617C368.654 161.617 368.488 161.817 368.421 162.217C368.021 163.416 367.722 165.048 367.522 167.113C367.322 169.111 367.222 170.977 367.222 172.709C367.089 173.308 367.022 173.974 367.022 174.707C367.022 175.573 367.122 176.139 367.322 176.406C367.588 176.605 368.055 176.705 368.721 176.705H384.209C384.209 173.375 384.375 170.843 384.708 169.111C384.775 167.113 385.108 165.781 385.708 165.114H397.498C399.63 165.114 401.195 165.081 402.195 165.015H406.991C407.391 165.015 407.957 165.048 408.69 165.114C409.489 165.181 410.089 165.281 410.488 165.414C410.888 165.547 411.188 165.781 411.388 166.114C411.721 166.513 411.987 167.346 412.187 168.612C412.254 169.344 412.287 171.01 412.287 173.608C412.287 174.207 412.42 175.307 412.687 176.905L417.383 177.005C419.115 177.138 419.981 177.205 419.981 177.205H421.28C422.079 177.405 422.612 177.738 422.879 178.204C423.078 178.404 423.245 178.837 423.378 179.503L423.778 188.396V188.696C423.778 189.362 423.711 189.862 423.578 190.195C423.445 190.461 423.145 190.628 422.679 190.695C422.212 190.894 421.48 191.028 420.48 191.094C419.481 191.161 418.315 191.194 416.983 191.194H413.186C413.186 194.858 413.253 197.423 413.386 198.888C413.453 199.221 413.552 199.687 413.686 200.287C413.819 200.82 413.985 201.253 414.185 201.586C414.452 202.319 414.818 202.685 415.284 202.685H418.882C422.545 202.685 425.477 202.419 427.675 201.886C428.008 202.019 428.374 202.319 428.774 202.785C429.174 203.185 429.373 203.584 429.373 203.984V215.675C429.373 215.941 429.14 216.108 428.674 216.175C427.675 216.374 426.076 216.474 423.878 216.474H412.487C410.955 216.474 409.855 216.441 409.189 216.374H406.791L402.794 216.474C402.328 216.541 401.762 216.608 401.096 216.674C400.496 216.741 399.797 216.774 398.997 216.774ZM366.423 202.685C369.354 202.685 371.718 202.619 373.517 202.485L376.515 202.385C378.646 202.252 380.145 202.186 381.011 202.186H384.209L384.409 201.886L384.309 191.194H370.22C369.553 191.194 368.954 191.227 368.421 191.294C367.955 191.361 367.622 191.494 367.422 191.694C367.089 192.027 366.922 192.426 366.922 192.893C366.789 193.559 366.722 194.325 366.722 195.191C366.722 195.791 366.689 196.457 366.622 197.189C366.556 197.922 366.489 198.488 366.423 198.888L366.323 200.787L366.423 202.685Z" fill="#E9C253"/>
<path d="M398.997 216.774C396.799 216.774 394.534 216.141 392.202 214.876C389.671 213.543 387.673 211.911 386.207 209.979C385.874 210.179 384.075 211.245 380.811 213.177C380.345 213.443 378.913 214.176 376.515 215.375C375.049 216.041 373.95 216.374 373.217 216.374C366.223 216.374 360.96 216.408 357.43 216.474H341.742C341.276 216.474 340.676 216.441 339.943 216.374C339.277 216.241 338.544 216.141 337.745 216.075L335.746 215.575C335.08 215.508 334.747 215.342 334.747 215.075C334.747 212.411 334.647 210.113 334.448 208.181C334.314 206.182 334.248 204.65 334.248 203.584L333.748 194.991V189.495C333.748 187.564 333.781 185.965 333.848 184.699V172.609C333.848 162.55 334.148 154.389 334.747 148.128C334.747 147.928 334.814 147.761 334.947 147.628C335.147 147.495 335.413 147.362 335.746 147.228C337.145 146.895 339.244 146.629 342.042 146.429C343.84 146.296 346.305 146.229 349.436 146.229H351.834C354.765 146.229 358.162 146.163 362.026 146.029L364.724 145.929C365.856 145.796 367.522 145.73 369.72 145.73L374.516 145.63C378.913 145.63 383.476 145.829 388.206 146.229C388.805 146.229 389.305 146.562 389.704 147.228C390.104 147.895 390.371 148.794 390.504 149.926C390.77 150.992 391.003 152.224 391.203 153.623C391.336 154.623 391.603 155.822 392.003 157.221C392.069 157.42 392.103 157.687 392.103 158.02L392.003 159.119C391.869 159.785 391.47 160.118 390.804 160.118C390.604 160.052 390.237 160.018 389.704 160.018C386.307 160.018 382.876 160.218 379.412 160.618C374.749 161.151 371.252 161.484 368.921 161.617C368.654 161.617 368.488 161.817 368.421 162.217C368.021 163.416 367.722 165.048 367.522 167.113C367.322 169.111 367.222 170.977 367.222 172.709C367.089 173.308 367.022 173.974 367.022 174.707C367.022 175.573 367.122 176.139 367.322 176.406C367.588 176.605 368.055 176.705 368.721 176.705H384.209C384.209 173.375 384.375 170.843 384.708 169.111C384.775 167.113 385.108 165.781 385.708 165.114H397.498C399.63 165.114 401.195 165.081 402.195 165.015H406.991C407.391 165.015 407.957 165.048 408.69 165.114C409.489 165.181 410.089 165.281 410.488 165.414C410.888 165.547 411.188 165.781 411.388 166.114C411.721 166.513 411.987 167.346 412.187 168.612C412.254 169.344 412.287 171.01 412.287 173.608C412.287 174.207 412.42 175.307 412.687 176.905L417.383 177.005C419.115 177.138 419.981 177.205 419.981 177.205H421.28C422.079 177.405 422.612 177.738 422.879 178.204C423.078 178.404 423.245 178.837 423.378 179.503L423.778 188.396V188.696C423.778 189.362 423.711 189.862 423.578 190.195C423.445 190.461 423.145 190.628 422.679 190.695C422.212 190.894 421.48 191.028 420.48 191.094C419.481 191.161 418.315 191.194 416.983 191.194H413.186C413.186 194.858 413.253 197.423 413.386 198.888C413.453 199.221 413.552 199.687 413.686 200.287C413.819 200.82 413.985 201.253 414.185 201.586C414.452 202.319 414.818 202.685 415.284 202.685H418.882C422.545 202.685 425.477 202.419 427.675 201.886C428.008 202.019 428.374 202.319 428.774 202.785C429.174 203.185 429.373 203.584 429.373 203.984V215.675C429.373 215.941 429.14 216.108 428.674 216.175C427.675 216.374 426.076 216.474 423.878 216.474H412.487C410.955 216.474 409.855 216.441 409.189 216.374H406.791L402.794 216.474C402.328 216.541 401.762 216.608 401.096 216.674C400.496 216.741 399.797 216.774 398.997 216.774ZM366.423 202.685C369.354 202.685 371.718 202.619 373.517 202.485L376.515 202.385C378.646 202.252 380.145 202.186 381.011 202.186H384.209L384.409 201.886L384.309 191.194H370.22C369.553 191.194 368.954 191.227 368.421 191.294C367.955 191.361 367.622 191.494 367.422 191.694C367.089 192.027 366.922 192.426 366.922 192.893C366.789 193.559 366.722 194.325 366.722 195.191C366.722 195.791 366.689 196.457 366.622 197.189C366.556 197.922 366.489 198.488 366.423 198.888L366.323 200.787L366.423 202.685Z" stroke="black"/>
</g>
<defs>
<filter id="filter0_n_986_14078" x="532.822" y="20.0912" width="149.662" height="133.816" filterUnits="userSpaceOnUse" color-interpolation-filters="sRGB">
<feFlood flood-opacity="0" result="BackgroundImageFix"/>
<feBlend mode="normal" in="SourceGraphic" in2="BackgroundImageFix" result="shape"/>
<feTurbulence type="fractalNoise" baseFrequency="0.0099999997764825821 0.0099999997764825821" stitchTiles="stitch" numOctaves="3" result="noise" seed="9207" />
<feColorMatrix in="noise" type="luminanceToAlpha" result="alphaNoise" />
<feComponentTransfer in="alphaNoise" result="coloredNoise1">
<feFuncA type="discrete" tableValues="1 1 1 1 1 1 1 1 1 1 1 1 1 1 1 1 1 1 1 1 1 1 1 1 1 1 1 1 1 1 1 1 1 1 1 1 1 1 1 1 1 1 1 1 1 1 1 1 1 1 1 0 0 0 0 0 0 0 0 0 0 0 0 0 0 0 0 0 0 0 0 0 0 0 0 0 0 0 0 0 0 0 0 0 0 0 0 0 0 0 0 0 0 0 0 0 0 0 0 0 "/>
</feComponentTransfer>
<feComposite operator="in" in2="shape" in="coloredNoise1" result="noise1Clipped" />
<feFlood flood-color="rgba(178, 101, 28, 0.05)" result="color1Flood" />
<feComposite operator="in" in2="noise1Clipped" in="color1Flood" result="color1" />
<feMerge result="effect1_noise_986_14078">
<feMergeNode in="shape" />
<feMergeNode in="color1" />
</feMerge>
</filter>
<filter id="filter1_n_986_14078" x="370.434" y="11.1206" width="156.482" height="149.138" filterUnits="userSpaceOnUse" color-interpolation-filters="sRGB">
<feFlood flood-opacity="0" result="BackgroundImageFix"/>
<feBlend mode="normal" in="SourceGraphic" in2="BackgroundImageFix" result="shape"/>
<feTurbulence type="fractalNoise" baseFrequency="0.0099999997764825821 0.0099999997764825821" stitchTiles="stitch" numOctaves="3" result="noise" seed="9207" />
<feColorMatrix in="noise" type="luminanceToAlpha" result="alphaNoise" />
<feComponentTransfer in="alphaNoise" result="coloredNoise1">
<feFuncA type="discrete" tableValues="1 1 1 1 1 1 1 1 1 1 1 1 1 1 1 1 1 1 1 1 1 1 1 1 1 1 1 1 1 1 1 1 1 1 1 1 1 1 1 1 1 1 1 1 1 1 1 1 1 1 1 0 0 0 0 0 0 0 0 0 0 0 0 0 0 0 0 0 0 0 0 0 0 0 0 0 0 0 0 0 0 0 0 0 0 0 0 0 0 0 0 0 0 0 0 0 0 0 0 0 "/>
</feComponentTransfer>
<feComposite operator="in" in2="shape" in="coloredNoise1" result="noise1Clipped" />
<feFlood flood-color="rgba(178, 101, 28, 0.05)" result="color1Flood" />
<feComposite operator="in" in2="noise1Clipped" in="color1Flood" result="color1" />
<feMerge result="effect1_noise_986_14078">
<feMergeNode in="shape" />
<feMergeNode in="color1" />
</feMerge>
</filter>
<filter id="filter2_n_986_14078" x="581.854" y="200.651" width="148.043" height="139.541" filterUnits="userSpaceOnUse" color-interpolation-filters="sRGB">
<feFlood flood-opacity="0" result="BackgroundImageFix"/>
<feBlend mode="normal" in="SourceGraphic" in2="BackgroundImageFix" result="shape"/>
<feTurbulence type="fractalNoise" baseFrequency="0.0099999997764825821 0.0099999997764825821" stitchTiles="stitch" numOctaves="3" result="noise" seed="9207" />
<feColorMatrix in="noise" type="luminanceToAlpha" result="alphaNoise" />
<feComponentTransfer in="alphaNoise" result="coloredNoise1">
<feFuncA type="discrete" tableValues="1 1 1 1 1 1 1 1 1 1 1 1 1 1 1 1 1 1 1 1 1 1 1 1 1 1 1 1 1 1 1 1 1 1 1 1 1 1 1 1 1 1 1 1 1 1 1 1 1 1 1 0 0 0 0 0 0 0 0 0 0 0 0 0 0 0 0 0 0 0 0 0 0 0 0 0 0 0 0 0 0 0 0 0 0 0 0 0 0 0 0 0 0 0 0 0 0 0 0 0 "/>
</feComponentTransfer>
<feComposite operator="in" in2="shape" in="coloredNoise1" result="noise1Clipped" />
<feFlood flood-color="rgba(178, 101, 28, 0.05)" result="color1Flood" />
<feComposite operator="in" in2="noise1Clipped" in="color1Flood" result="color1" />
<feMerge result="effect1_noise_986_14078">
<feMergeNode in="shape" />
<feMergeNode in="color1" />
</feMerge>
</filter>
<filter id="filter3_n_986_14078" x="11.7734" y="201.053" width="160.352" height="143.374" filterUnits="userSpaceOnUse" color-interpolation-filters="sRGB">
<feFlood flood-opacity="0" result="BackgroundImageFix"/>
<feBlend mode="normal" in="SourceGraphic" in2="BackgroundImageFix" result="shape"/>
<feTurbulence type="fractalNoise" baseFrequency="0.0099999997764825821 0.0099999997764825821" stitchTiles="stitch" numOctaves="3" result="noise" seed="9207" />
<feColorMatrix in="noise" type="luminanceToAlpha" result="alphaNoise" />
<feComponentTransfer in="alphaNoise" result="coloredNoise1">
<feFuncA type="discrete" tableValues="1 1 1 1 1 1 1 1 1 1 1 1 1 1 1 1 1 1 1 1 1 1 1 1 1 1 1 1 1 1 1 1 1 1 1 1 1 1 1 1 1 1 1 1 1 1 1 1 1 1 1 0 0 0 0 0 0 0 0 0 0 0 0 0 0 0 0 0 0 0 0 0 0 0 0 0 0 0 0 0 0 0 0 0 0 0 0 0 0 0 0 0 0 0 0 0 0 0 0 0 "/>
</feComponentTransfer>
<feComposite operator="in" in2="shape" in="coloredNoise1" result="noise1Clipped" />
<feFlood flood-color="rgba(178, 101, 28, 0.05)" result="color1Flood" />
<feComposite operator="in" in2="noise1Clipped" in="color1Flood" result="color1" />
<feMerge result="effect1_noise_986_14078">
<feMergeNode in="shape" />
<feMergeNode in="color1" />
</feMerge>
</filter>
<filter id="filter4_n_986_14078" x="179.125" y="210.13" width="150.754" height="137.246" filterUnits="userSpaceOnUse" color-interpolation-filters="sRGB">
<feFlood flood-opacity="0" result="BackgroundImageFix"/>
<feBlend mode="normal" in="SourceGraphic" in2="BackgroundImageFix" result="shape"/>
<feTurbulence type="fractalNoise" baseFrequency="0.0099999997764825821 0.0099999997764825821" stitchTiles="stitch" numOctaves="3" result="noise" seed="9207" />
<feColorMatrix in="noise" type="luminanceToAlpha" result="alphaNoise" />
<feComponentTransfer in="alphaNoise" result="coloredNoise1">
<feFuncA type="discrete" tableValues="1 1 1 1 1 1 1 1 1 1 1 1 1 1 1 1 1 1 1 1 1 1 1 1 1 1 1 1 1 1 1 1 1 1 1 1 1 1 1 1 1 1 1 1 1 1 1 1 1 1 1 0 0 0 0 0 0 0 0 0 0 0 0 0 0 0 0 0 0 0 0 0 0 0 0 0 0 0 0 0 0 0 0 0 0 0 0 0 0 0 0 0 0 0 0 0 0 0 0 0 "/>
</feComponentTransfer>
<feComposite operator="in" in2="shape" in="coloredNoise1" result="noise1Clipped" />
<feFlood flood-color="rgba(178, 101, 28, 0.05)" result="color1Flood" />
<feComposite operator="in" in2="noise1Clipped" in="color1Flood" result="color1" />
<feMerge result="effect1_noise_986_14078">
<feMergeNode in="shape" />
<feMergeNode in="color1" />
</feMerge>
</filter>
<filter id="filter5_n_986_14078" x="61.623" y="7.12964" width="133.273" height="159.031" filterUnits="userSpaceOnUse" color-interpolation-filters="sRGB">
<feFlood flood-opacity="0" result="BackgroundImageFix"/>
<feBlend mode="normal" in="SourceGraphic" in2="BackgroundImageFix" result="shape"/>
<feTurbulence type="fractalNoise" baseFrequency="0.0099999997764825821 0.0099999997764825821" stitchTiles="stitch" numOctaves="3" result="noise" seed="9207" />
<feColorMatrix in="noise" type="luminanceToAlpha" result="alphaNoise" />
<feComponentTransfer in="alphaNoise" result="coloredNoise1">
<feFuncA type="discrete" tableValues="1 1 1 1 1 1 1 1 1 1 1 1 1 1 1 1 1 1 1 1 1 1 1 1 1 1 1 1 1 1 1 1 1 1 1 1 1 1 1 1 1 1 1 1 1 1 1 1 1 1 1 0 0 0 0 0 0 0 0 0 0 0 0 0 0 0 0 0 0 0 0 0 0 0 0 0 0 0 0 0 0 0 0 0 0 0 0 0 0 0 0 0 0 0 0 0 0 0 0 0 "/>
</feComponentTransfer>
<feComposite operator="in" in2="shape" in="coloredNoise1" result="noise1Clipped" />
<feFlood flood-color="rgba(178, 101, 28, 0.05)" result="color1Flood" />
<feComposite operator="in" in2="noise1Clipped" in="color1Flood" result="color1" />
<feMerge result="effect1_noise_986_14078">
<feMergeNode in="shape" />
<feMergeNode in="color1" />
</feMerge>
</filter>
<filter id="filter6_n_986_14078" x="205.938" y="13.582" width="156.664" height="146.594" filterUnits="userSpaceOnUse" color-interpolation-filters="sRGB">
<feFlood flood-opacity="0" result="BackgroundImageFix"/>
<feBlend mode="normal" in="SourceGraphic" in2="BackgroundImageFix" result="shape"/>
<feTurbulence type="fractalNoise" baseFrequency="0.0099999997764825821 0.0099999997764825821" stitchTiles="stitch" numOctaves="3" result="noise" seed="9207" />
<feColorMatrix in="noise" type="luminanceToAlpha" result="alphaNoise" />
<feComponentTransfer in="alphaNoise" result="coloredNoise1">
<feFuncA type="discrete" tableValues="1 1 1 1 1 1 1 1 1 1 1 1 1 1 1 1 1 1 1 1 1 1 1 1 1 1 1 1 1 1 1 1 1 1 1 1 1 1 1 1 1 1 1 1 1 1 1 1 1 1 1 0 0 0 0 0 0 0 0 0 0 0 0 0 0 0 0 0 0 0 0 0 0 0 0 0 0 0 0 0 0 0 0 0 0 0 0 0 0 0 0 0 0 0 0 0 0 0 0 0 "/>
</feComponentTransfer>
<feComposite operator="in" in2="shape" in="coloredNoise1" result="noise1Clipped" />
<feFlood flood-color="rgba(178, 101, 28, 0.05)" result="color1Flood" />
<feComposite operator="in" in2="noise1Clipped" in="color1Flood" result="color1" />
<feMerge result="effect1_noise_986_14078">
<feMergeNode in="shape" />
<feMergeNode in="color1" />
</feMerge>
</filter>
<filter id="filter7_n_986_14078" x="422.594" y="212.167" width="140.006" height="126.816" filterUnits="userSpaceOnUse" color-interpolation-filters="sRGB">
<feFlood flood-opacity="0" result="BackgroundImageFix"/>
<feBlend mode="normal" in="SourceGraphic" in2="BackgroundImageFix" result="shape"/>
<feTurbulence type="fractalNoise" baseFrequency="0.010820233263075352 0.010820233263075352" stitchTiles="stitch" numOctaves="3" result="noise" seed="9207" />
<feColorMatrix in="noise" type="luminanceToAlpha" result="alphaNoise" />
<feComponentTransfer in="alphaNoise" result="coloredNoise1">
<feFuncA type="discrete" tableValues="1 1 1 1 1 1 1 1 1 1 1 1 1 1 1 1 1 1 1 1 1 1 1 1 1 1 1 1 1 1 1 1 1 1 1 1 1 1 1 1 1 1 1 1 1 1 1 1 1 1 1 0 0 0 0 0 0 0 0 0 0 0 0 0 0 0 0 0 0 0 0 0 0 0 0 0 0 0 0 0 0 0 0 0 0 0 0 0 0 0 0 0 0 0 0 0 0 0 0 0 "/>
</feComponentTransfer>
<feComposite operator="in" in2="shape" in="coloredNoise1" result="noise1Clipped" />
<feFlood flood-color="rgba(178, 101, 28, 0.05)" result="color1Flood" />
<feComposite operator="in" in2="noise1Clipped" in="color1Flood" result="color1" />
<feMerge result="effect1_noise_986_14078">
<feMergeNode in="shape" />
<feMergeNode in="color1" />
</feMerge>
</filter>
<filter id="filter8_n_986_14078" x="338.355" y="221.168" width="56.7285" height="125.828" filterUnits="userSpaceOnUse" color-interpolation-filters="sRGB">
<feFlood flood-opacity="0" result="BackgroundImageFix"/>
<feBlend mode="normal" in="SourceGraphic" in2="BackgroundImageFix" result="shape"/>
<feTurbulence type="fractalNoise" baseFrequency="0.010842740535736084 0.010842740535736084" stitchTiles="stitch" numOctaves="3" result="noise" seed="9207" />
<feColorMatrix in="noise" type="luminanceToAlpha" result="alphaNoise" />
<feComponentTransfer in="alphaNoise" result="coloredNoise1">
<feFuncA type="discrete" tableValues="1 1 1 1 1 1 1 1 1 1 1 1 1 1 1 1 1 1 1 1 1 1 1 1 1 1 1 1 1 1 1 1 1 1 1 1 1 1 1 1 1 1 1 1 1 1 1 1 1 1 1 0 0 0 0 0 0 0 0 0 0 0 0 0 0 0 0 0 0 0 0 0 0 0 0 0 0 0 0 0 0 0 0 0 0 0 0 0 0 0 0 0 0 0 0 0 0 0 0 0 "/>
</feComponentTransfer>
<feComposite operator="in" in2="shape" in="coloredNoise1" result="noise1Clipped" />
<feFlood flood-color="rgba(178, 101, 28, 0.05)" result="color1Flood" />
<feComposite operator="in" in2="noise1Clipped" in="color1Flood" result="color1" />
<feMerge result="effect1_noise_986_14078">
<feMergeNode in="shape" />
<feMergeNode in="color1" />
</feMerge>
</filter>
<filter id="filter9_n_986_14078" x="333.248" y="145.13" width="96.625" height="72.1447" filterUnits="userSpaceOnUse" color-interpolation-filters="sRGB">
<feFlood flood-opacity="0" result="BackgroundImageFix"/>
<feBlend mode="normal" in="SourceGraphic" in2="BackgroundImageFix" result="shape"/>
<feTurbulence type="fractalNoise" baseFrequency="0.0099999997764825821 0.0099999997764825821" stitchTiles="stitch" numOctaves="3" result="noise" seed="9207" />
<feColorMatrix in="noise" type="luminanceToAlpha" result="alphaNoise" />
<feComponentTransfer in="alphaNoise" result="coloredNoise1">
<feFuncA type="discrete" tableValues="1 1 1 1 1 1 1 1 1 1 1 1 1 1 1 1 1 1 1 1 1 1 1 1 1 1 1 1 1 1 1 1 1 1 1 1 1 1 1 1 1 1 1 1 1 1 1 1 1 1 1 0 0 0 0 0 0 0 0 0 0 0 0 0 0 0 0 0 0 0 0 0 0 0 0 0 0 0 0 0 0 0 0 0 0 0 0 0 0 0 0 0 0 0 0 0 0 0 0 0 "/>
</feComponentTransfer>
<feComposite operator="in" in2="shape" in="coloredNoise1" result="noise1Clipped" />
<feFlood flood-color="rgba(178, 101, 28, 0.05)" result="color1Flood" />
<feComposite operator="in" in2="noise1Clipped" in="color1Flood" result="color1" />
<feMerge result="effect1_noise_986_14078">
<feMergeNode in="shape" />
<feMergeNode in="color1" />
</feMerge>
</filter>
</defs>
</svg>
