<svg width="743" height="163" viewBox="0 0 743 163" fill="none" xmlns="http://www.w3.org/2000/svg">
<path d="M635.883 152.61L631.208 151.298C626.726 150.144 623.017 148.93 620.081 147.655C618.439 147.348 617.04 146.718 615.883 145.764C614.822 145.238 614.188 144.616 613.983 143.898L612.045 117.776L612.15 116.742C612.249 115.776 612.388 115.093 612.568 114.694C612.9 114.17 622.23 109.128 622.934 109.06C631.549 113.422 631.39 120.793 640.08 121.678C642.839 121.96 644.97 122.246 646.473 122.539C651.715 123.073 655.579 122.77 658.064 121.629C659.39 120.928 660.131 119.819 660.285 118.302C660.51 116.095 660.003 114.231 658.764 112.711C657.539 111.053 655.673 109.539 653.164 108.168L646.796 105.01C644.907 104.4 642.777 103.416 640.407 102.06C640.421 101.922 640.359 101.846 640.221 101.832C640.097 101.68 639.98 101.459 639.87 101.169C639.332 100.975 638.23 100.165 636.563 98.7412L635.385 97.9939C635.661 98.022 635.806 97.9671 635.82 97.8292C635.834 97.6912 635.641 97.5322 635.242 97.3521C634.856 97.0341 634.07 96.5359 632.885 95.8576C631.852 95.0554 630.964 94.1983 630.22 93.2864C629.049 92.4701 628.513 91.5792 628.611 90.6136L628.716 89.579C625.268 89.2276 622.667 85.3389 620.915 77.9128C619.591 70.391 619.084 65.1127 619.393 62.0779C620.7 49.2491 635.216 35.5363 646.954 29.7636C656.497 25.0216 661.236 26.8983 677.159 26.5695C687.479 26.5061 700.226 27.2475 715.4 28.7937C717.261 29.6802 718.736 30.2486 719.826 30.499C722.294 30.89 723.865 31.8863 724.538 33.488C724.882 34.2199 725.086 35.6345 725.151 37.7317C725.34 39.981 733.922 43.0352 733.254 53.6991C733.501 54.0031 726.544 59.2618 726.488 59.8135C726.375 60.9171 722.998 60.2306 719.893 60.6111C716.54 60.6876 714.381 60.6766 713.415 60.5782L708.593 60.714C703.143 60.8556 699.576 60.9799 697.893 61.0871C692.139 61.4764 688.032 62.8001 685.572 65.0582C684.024 66.573 683.158 68.227 682.975 70.0203C682.877 70.9859 682.938 71.7586 683.157 72.3385C683.377 72.9184 684.003 73.6094 685.037 74.4116C686.208 75.2278 689.619 77.3176 695.269 80.6808C701.333 84.0863 707.313 88.3194 713.209 93.3802C718.209 97.6529 721.566 103.012 723.278 109.459C724.253 112.206 724.522 115.718 724.086 119.994C723.693 123.857 729.381 125.9 728.134 128.56C723.62 137.299 709.593 145.278 699.071 150.059C694.1 152.34 688.985 153.979 683.726 154.977C678.454 156.112 673.472 156.441 668.782 155.963L638.303 153.484L635.883 152.61Z" fill="#B2651C" stroke="black"/>
<g filter="url(#filter0_n_1073_13611)">
<path d="M644.773 147.349L640.098 146.036C635.616 144.882 631.907 143.668 628.971 142.393C627.33 142.087 625.93 141.456 624.773 140.502C623.712 139.976 623.078 139.354 622.873 138.636L620.935 112.515L621.041 111.48C621.139 110.514 621.278 109.832 621.458 109.432C621.79 108.908 622.308 108.613 623.012 108.545C631.627 112.907 640.28 115.531 648.97 116.417C651.729 116.698 653.86 116.985 655.363 117.277C660.605 117.811 664.469 117.508 666.955 116.368C668.28 115.667 669.021 114.557 669.175 113.04C669.4 110.833 668.893 108.969 667.654 107.449C666.43 105.791 664.563 104.277 662.054 102.906L655.686 99.7487C653.797 99.1381 651.667 98.1545 649.297 96.798C649.311 96.66 649.249 96.584 649.111 96.57C648.987 96.418 648.87 96.197 648.76 95.907C648.223 95.7129 647.12 94.9037 645.454 93.4795L644.275 92.7322C644.551 92.7603 644.696 92.7054 644.71 92.5675C644.724 92.4295 644.531 92.2705 644.132 92.0904C643.746 91.7723 642.961 91.2742 641.775 90.5959C640.742 89.7937 639.854 88.9366 639.11 88.0246C637.939 87.2084 637.403 86.3175 637.501 85.3519L637.607 84.3173C634.158 83.9659 631.558 80.0772 629.806 72.6511C628.481 65.1292 627.974 59.8509 628.283 56.8162C629.59 43.9874 636.113 34.6867 647.851 28.914C657.394 24.172 670.127 21.6366 686.049 21.3078C696.369 21.2444 709.116 21.9858 724.29 23.532C726.151 24.4185 727.626 24.9869 728.716 25.2373C731.185 25.6282 732.756 26.6246 733.429 28.2263C733.772 28.9582 733.976 30.3728 734.041 32.47C734.23 34.7193 733.991 41.1758 733.322 51.8397C733.57 52.1437 733.666 52.5715 733.609 53.1233C733.497 54.2269 731.888 54.9689 728.783 55.3494C725.43 55.4258 723.271 55.4149 722.306 55.3165L717.483 55.4523C712.033 55.5938 708.466 55.7182 706.783 55.8254C701.029 56.2147 696.922 57.5384 694.462 59.7965C692.914 61.3113 692.048 62.9653 691.865 64.7585C691.767 65.7241 691.828 66.4969 692.047 67.0768C692.267 67.6567 692.894 68.3477 693.927 69.1499C695.098 69.9661 698.509 72.0558 704.159 75.4191C710.224 78.8246 716.204 83.0577 722.099 88.1185C727.099 92.3911 730.456 97.7507 732.168 104.197C733.143 106.945 733.412 110.456 732.976 114.733C732.583 118.595 731.763 121.856 730.516 124.517C726.002 133.256 718.483 140.016 707.961 144.798C702.99 147.079 697.875 148.718 692.616 149.715C687.344 150.85 682.363 151.179 677.672 150.701L647.193 148.222L644.773 147.349Z" fill="#E9C253"/>
<path d="M644.773 147.349L640.098 146.036C635.616 144.882 631.907 143.668 628.971 142.393C627.33 142.087 625.93 141.456 624.773 140.502C623.712 139.976 623.078 139.354 622.873 138.636L620.935 112.515L621.041 111.48C621.139 110.514 621.278 109.832 621.458 109.432C621.79 108.908 622.308 108.613 623.012 108.545C631.627 112.907 640.28 115.531 648.97 116.417C651.729 116.698 653.86 116.985 655.363 117.277C660.605 117.811 664.469 117.508 666.955 116.368C668.28 115.667 669.021 114.557 669.175 113.04C669.4 110.833 668.893 108.969 667.654 107.449C666.43 105.791 664.563 104.277 662.054 102.906L655.686 99.7487C653.797 99.1381 651.667 98.1545 649.297 96.798C649.311 96.66 649.249 96.584 649.111 96.57C648.987 96.418 648.87 96.197 648.76 95.907C648.223 95.7129 647.12 94.9037 645.454 93.4795L644.275 92.7322C644.551 92.7603 644.696 92.7054 644.71 92.5675C644.724 92.4295 644.531 92.2705 644.132 92.0904C643.746 91.7723 642.961 91.2742 641.775 90.5959C640.742 89.7937 639.854 88.9366 639.11 88.0246C637.939 87.2084 637.403 86.3175 637.501 85.3519L637.607 84.3173C634.158 83.9659 631.558 80.0772 629.806 72.6511C628.481 65.1292 627.974 59.8509 628.283 56.8162C629.59 43.9874 636.113 34.6867 647.851 28.914C657.394 24.172 670.127 21.6366 686.049 21.3078C696.369 21.2444 709.116 21.9858 724.29 23.532C726.151 24.4185 727.626 24.9869 728.716 25.2373C731.185 25.6282 732.756 26.6246 733.429 28.2263C733.772 28.9582 733.976 30.3728 734.041 32.47C734.23 34.7193 733.991 41.1758 733.322 51.8397C733.57 52.1437 733.666 52.5715 733.609 53.1233C733.497 54.2269 731.888 54.9689 728.783 55.3494C725.43 55.4258 723.271 55.4149 722.306 55.3165L717.483 55.4523C712.033 55.5938 708.466 55.7182 706.783 55.8254C701.029 56.2147 696.922 57.5384 694.462 59.7965C692.914 61.3113 692.048 62.9653 691.865 64.7585C691.767 65.7241 691.828 66.4969 692.047 67.0768C692.267 67.6567 692.894 68.3477 693.927 69.1499C695.098 69.9661 698.509 72.0558 704.159 75.4191C710.224 78.8246 716.204 83.0577 722.099 88.1185C727.099 92.3911 730.456 97.7507 732.168 104.197C733.143 106.945 733.412 110.456 732.976 114.733C732.583 118.595 731.763 121.856 730.516 124.517C726.002 133.256 718.483 140.016 707.961 144.798C702.99 147.079 697.875 148.718 692.616 149.715C687.344 150.85 682.363 151.179 677.672 150.701L647.193 148.222L644.773 147.349Z" stroke="black"/>
</g>
<path d="M565.682 155.003L562.91 154.577H559.498C557.366 154.292 553.669 154.008 548.409 153.724C547.272 153.724 546.206 153.653 545.211 153.511C544.215 153.368 543.291 153.297 542.438 153.297H537.747L535.614 153.084C531.065 153.084 527.724 153.155 525.592 153.297C523.459 153.582 520.118 153.724 515.569 153.724H511.304L507.466 153.937L506.826 153.084V121.737C506.826 118.325 506.684 115.837 506.399 114.273V109.155L507.252 99.9852C507.679 94.2986 507.892 86.124 507.892 75.4616C508.176 58.2596 509.243 45.8201 511.091 38.1431C512.086 34.0203 513.721 31.3903 515.996 30.2529L526.746 23.937L540.946 30.4662C543.078 30.6083 546.135 30.6794 550.115 30.6794H560.351C561.062 30.8216 562.342 30.9638 564.19 31.1059C566.18 31.2481 567.673 31.6035 568.668 32.1722C569.521 32.883 570.09 33.8782 570.374 35.1576C570.8 36.295 571.014 38.001 571.014 40.2756L570.8 41.9816V44.5406C570.374 45.5357 570.161 46.5309 570.161 47.5261C569.876 48.6634 569.805 49.8007 569.947 50.938V54.1368C570.09 54.8476 570.161 55.8427 570.161 57.1222L570.374 58.8282V63.7329L570.587 70.5569C570.729 71.9786 570.8 73.9689 570.8 76.5279C571.085 78.5182 571.44 79.8687 571.867 80.5796C571.867 81.5747 571.796 82.641 571.653 83.7783C571.511 84.9156 571.44 86.053 571.44 87.1903C571.298 88.8963 571.227 91.4552 571.227 94.8672C571.227 98.137 571.298 100.554 571.44 102.118C571.44 104.392 571.796 106.738 572.506 109.155C573.928 109.724 575.563 110.008 577.411 110.008C582.103 110.008 586.936 109.937 591.912 109.795C597.03 109.652 601.579 109.226 605.56 108.515C606.413 108.657 607.195 109.226 607.906 110.221C608.759 111.216 609.185 112.069 609.185 112.78L618.746 142.937C618.462 143.79 606.839 150.88 605.986 151.165C603.57 152.302 600.229 153.013 595.964 153.297C590.277 154.15 586.51 154.577 584.662 154.577H581.036C578.193 154.577 576.061 154.648 574.639 154.79C571.796 155.074 569.805 155.217 568.668 155.217L565.682 155.003Z" fill="#B2651C" stroke="black"/>
<g filter="url(#filter1_n_1073_13611)">
<path d="M576.529 148.687L573.757 148.261H570.345C568.212 147.977 564.516 147.692 559.256 147.408C558.119 147.408 557.052 147.337 556.057 147.195C555.062 147.052 554.138 146.981 553.285 146.981H548.594L546.461 146.768C541.912 146.768 538.571 146.839 536.438 146.981C534.306 147.266 530.965 147.408 526.416 147.408H522.151L518.312 147.621L517.673 146.768V115.421C517.673 112.009 517.53 109.521 517.246 107.957V102.839L518.099 93.6693C518.526 87.9826 518.739 79.8081 518.739 69.1457C519.023 51.9436 520.089 39.5042 521.938 31.8272C522.933 27.7044 524.568 25.0743 526.842 23.937L551.792 24.1503C553.925 24.2924 556.981 24.3635 560.962 24.3635H571.198C571.909 24.5057 573.188 24.6478 575.036 24.79C577.027 24.9322 578.519 25.2876 579.515 25.8562C580.368 26.5671 580.936 27.5622 581.221 28.8417C581.647 29.9791 581.86 31.685 581.86 33.9597L581.647 35.6657V38.2247C581.221 39.2198 581.007 40.215 581.007 41.2101C580.723 42.3475 580.652 43.4848 580.794 44.6221V47.8208C580.936 48.5317 581.007 49.5268 581.007 50.8063L581.221 52.5123V57.417L581.434 64.241C581.576 65.6626 581.647 67.653 581.647 70.2119C581.931 72.2023 582.287 73.5528 582.713 74.2637C582.713 75.2588 582.642 76.3251 582.5 77.4624C582.358 78.5997 582.287 79.737 582.287 80.8744C582.145 82.5803 582.074 85.1393 582.074 88.5513C582.074 91.8211 582.145 94.2379 582.287 95.8018C582.287 98.0764 582.642 100.422 583.353 102.839C584.775 103.408 586.41 103.692 588.258 103.692C592.949 103.692 597.783 103.621 602.759 103.479C607.877 103.337 612.426 102.91 616.407 102.199C617.26 102.341 618.042 102.91 618.752 103.905C619.605 104.9 620.032 105.753 620.032 106.464L618.539 143.143C618.255 143.996 617.686 144.565 616.833 144.849C614.416 145.986 611.075 146.697 606.81 146.981C601.124 147.834 597.356 148.261 595.508 148.261H591.883C589.04 148.261 586.907 148.332 585.486 148.474C582.642 148.758 580.652 148.901 579.515 148.901L576.529 148.687Z" fill="#E9C253"/>
<path d="M576.529 148.687L573.757 148.261H570.345C568.212 147.977 564.516 147.692 559.256 147.408C558.119 147.408 557.052 147.337 556.057 147.195C555.062 147.052 554.138 146.981 553.285 146.981H548.594L546.461 146.768C541.912 146.768 538.571 146.839 536.438 146.981C534.306 147.266 530.965 147.408 526.416 147.408H522.151L518.312 147.621L517.673 146.768V115.421C517.673 112.009 517.53 109.521 517.246 107.957V102.839L518.099 93.6693C518.526 87.9826 518.739 79.8081 518.739 69.1457C519.023 51.9436 520.089 39.5042 521.938 31.8272C522.933 27.7044 524.568 25.0743 526.842 23.937L551.792 24.1503C553.925 24.2924 556.981 24.3635 560.962 24.3635H571.198C571.909 24.5057 573.188 24.6478 575.036 24.79C577.027 24.9322 578.519 25.2876 579.515 25.8562C580.368 26.5671 580.936 27.5622 581.221 28.8417C581.647 29.9791 581.86 31.685 581.86 33.9597L581.647 35.6657V38.2247C581.221 39.2198 581.007 40.215 581.007 41.2101C580.723 42.3475 580.652 43.4848 580.794 44.6221V47.8208C580.936 48.5317 581.007 49.5268 581.007 50.8063L581.221 52.5123V57.417L581.434 64.241C581.576 65.6626 581.647 67.653 581.647 70.2119C581.931 72.2023 582.287 73.5528 582.713 74.2637C582.713 75.2588 582.642 76.3251 582.5 77.4624C582.358 78.5997 582.287 79.737 582.287 80.8744C582.145 82.5803 582.074 85.1393 582.074 88.5513C582.074 91.8211 582.145 94.2379 582.287 95.8018C582.287 98.0764 582.642 100.422 583.353 102.839C584.775 103.408 586.41 103.692 588.258 103.692C592.949 103.692 597.783 103.621 602.759 103.479C607.877 103.337 612.426 102.91 616.407 102.199C617.26 102.341 618.042 102.91 618.752 103.905C619.605 104.9 620.032 105.753 620.032 106.464L618.539 143.143C618.255 143.996 617.686 144.565 616.833 144.849C614.416 145.986 611.075 146.697 606.81 146.981C601.124 147.834 597.356 148.261 595.508 148.261H591.883C589.04 148.261 586.907 148.332 585.486 148.474C582.642 148.758 580.652 148.901 579.515 148.901L576.529 148.687Z" stroke="black"/>
</g>
<path d="M455.726 155.003L452.905 154.577H449.433C447.263 154.292 443.501 154.008 438.149 153.724C436.991 153.724 435.906 153.653 434.894 153.511C433.881 153.368 432.941 153.297 432.073 153.297H427.299L425.129 153.084C420.499 153.084 417.1 153.155 414.93 153.297C412.76 153.582 409.36 153.724 404.73 153.724H400.39L396.484 153.937L395.833 153.084V121.737C395.833 118.325 395.689 115.837 395.399 114.273V109.155L396.267 99.9852C396.701 94.2986 396.918 86.124 396.918 75.4616C397.208 58.2596 398.293 45.8201 400.173 38.1431C401.186 34.0203 402.85 31.3903 405.164 30.2529L416.104 23.937L430.554 30.4662C432.724 30.6083 435.834 30.6794 439.885 30.6794H450.301C451.024 30.8216 452.326 30.9638 454.207 31.1059C456.232 31.2481 457.751 31.6035 458.764 32.1722C459.632 32.883 460.211 33.8782 460.5 35.1576C460.934 36.295 461.151 38.001 461.151 40.2756L460.934 41.9816V44.5406C460.5 45.5357 460.283 46.5309 460.283 47.5261C459.994 48.6634 459.921 49.8007 460.066 50.938V54.1368C460.211 54.8476 460.283 55.8427 460.283 57.1222L460.5 58.8282V63.7329L460.717 70.5569C460.862 71.9786 460.934 73.9689 460.934 76.5279C461.223 78.5182 461.585 79.8687 462.019 80.5796C462.019 81.5747 461.947 82.641 461.802 83.7783C461.657 84.9156 461.585 86.053 461.585 87.1903C461.44 88.8963 461.368 91.4552 461.368 94.8672C461.368 98.137 461.44 100.554 461.585 102.118C461.585 104.392 461.947 106.738 462.67 109.155C464.117 109.724 465.78 110.008 467.661 110.008C472.435 110.008 477.354 109.937 482.417 109.795C487.625 109.652 492.255 109.226 496.305 108.515C497.173 108.657 497.969 109.226 498.692 110.221C499.56 111.216 499.994 112.069 499.994 112.78L509.723 142.937C509.434 143.79 497.607 150.88 496.739 151.165C494.28 152.302 490.88 153.013 486.54 153.297C480.753 154.15 476.92 154.577 475.039 154.577H471.35C468.457 154.577 466.287 154.648 464.84 154.79C461.947 155.074 459.921 155.217 458.764 155.217L455.726 155.003Z" fill="#B2651C" stroke="black"/>
<g filter="url(#filter2_n_1073_13611)">
<path d="M466.764 148.687L463.942 148.261H460.47C458.3 147.977 454.539 147.692 449.186 147.408C448.029 147.408 446.944 147.337 445.931 147.195C444.919 147.052 443.978 146.981 443.11 146.981H438.336L436.166 146.768C431.537 146.768 428.137 146.839 425.967 146.981C423.797 147.266 420.397 147.408 415.768 147.408H411.428L407.522 147.621L406.871 146.768V115.421C406.871 112.009 406.726 109.521 406.437 107.957V102.839L407.305 93.6693C407.739 87.9826 407.956 79.8081 407.956 69.1457C408.245 51.9436 409.33 39.5042 411.211 31.8272C412.224 27.7044 413.887 25.0743 416.202 23.937L441.591 24.1503C443.761 24.2924 446.872 24.3635 450.922 24.3635H461.338C462.062 24.5057 463.364 24.6478 465.244 24.79C467.27 24.9322 468.789 25.2876 469.802 25.8562C470.67 26.5671 471.248 27.5622 471.538 28.8417C471.972 29.9791 472.189 31.685 472.189 33.9597L471.972 35.6657V38.2247C471.538 39.2198 471.321 40.215 471.321 41.2101C471.031 42.3475 470.959 43.4848 471.104 44.6221V47.8208C471.248 48.5317 471.321 49.5268 471.321 50.8063L471.538 52.5123V57.417L471.755 64.241C471.899 65.6626 471.972 67.653 471.972 70.2119C472.261 72.2023 472.623 73.5528 473.057 74.2637C473.057 75.2588 472.984 76.3251 472.84 77.4624C472.695 78.5997 472.623 79.737 472.623 80.8744C472.478 82.5803 472.406 85.1393 472.406 88.5513C472.406 91.8211 472.478 94.2379 472.623 95.8018C472.623 98.0764 472.984 100.422 473.708 102.839C475.154 103.408 476.818 103.692 478.699 103.692C483.473 103.692 488.391 103.621 493.455 103.479C498.663 103.337 503.292 102.91 507.343 102.199C508.211 102.341 509.007 102.91 509.73 103.905C510.598 104.9 511.032 105.753 511.032 106.464L509.513 143.143C509.224 143.996 508.645 144.565 507.777 144.849C505.317 145.986 501.918 146.697 497.578 146.981C491.791 147.834 487.957 148.261 486.077 148.261H482.388C479.494 148.261 477.324 148.332 475.878 148.474C472.984 148.758 470.959 148.901 469.802 148.901L466.764 148.687Z" fill="#E9C253"/>
<path d="M466.764 148.687L463.942 148.261H460.47C458.3 147.977 454.539 147.692 449.186 147.408C448.029 147.408 446.944 147.337 445.931 147.195C444.919 147.052 443.978 146.981 443.11 146.981H438.336L436.166 146.768C431.537 146.768 428.137 146.839 425.967 146.981C423.797 147.266 420.397 147.408 415.768 147.408H411.428L407.522 147.621L406.871 146.768V115.421C406.871 112.009 406.726 109.521 406.437 107.957V102.839L407.305 93.6693C407.739 87.9826 407.956 79.8081 407.956 69.1457C408.245 51.9436 409.33 39.5042 411.211 31.8272C412.224 27.7044 413.887 25.0743 416.202 23.937L441.591 24.1503C443.761 24.2924 446.872 24.3635 450.922 24.3635H461.338C462.062 24.5057 463.364 24.6478 465.244 24.79C467.27 24.9322 468.789 25.2876 469.802 25.8562C470.67 26.5671 471.248 27.5622 471.538 28.8417C471.972 29.9791 472.189 31.685 472.189 33.9597L471.972 35.6657V38.2247C471.538 39.2198 471.321 40.215 471.321 41.2101C471.031 42.3475 470.959 43.4848 471.104 44.6221V47.8208C471.248 48.5317 471.321 49.5268 471.321 50.8063L471.538 52.5123V57.417L471.755 64.241C471.899 65.6626 471.972 67.653 471.972 70.2119C472.261 72.2023 472.623 73.5528 473.057 74.2637C473.057 75.2588 472.984 76.3251 472.84 77.4624C472.695 78.5997 472.623 79.737 472.623 80.8744C472.478 82.5803 472.406 85.1393 472.406 88.5513C472.406 91.8211 472.478 94.2379 472.623 95.8018C472.623 98.0764 472.984 100.422 473.708 102.839C475.154 103.408 476.818 103.692 478.699 103.692C483.473 103.692 488.391 103.621 493.455 103.479C498.663 103.337 503.292 102.91 507.343 102.199C508.211 102.341 509.007 102.91 509.73 103.905C510.598 104.9 511.032 105.753 511.032 106.464L509.513 143.143C509.224 143.996 508.645 144.565 507.777 144.849C505.317 145.986 501.918 146.697 497.578 146.981C491.791 147.834 487.957 148.261 486.077 148.261H482.388C479.494 148.261 477.324 148.332 475.878 148.474C472.984 148.758 470.959 148.901 469.802 148.901L466.764 148.687Z" stroke="black"/>
</g>
<path d="M241.036 154.256C238.336 154.256 237.27 151.84 237.838 147.008C237.838 145.303 238.193 143.385 238.904 141.253C238.904 140.259 238.975 139.477 239.117 138.909C239.259 138.198 239.33 137.63 239.33 137.203C242.599 121.714 246.222 106.438 250.201 91.375L264.696 34.6758C264.696 34.3916 264.909 34.0364 265.335 33.6101C265.762 33.1837 266.188 32.8285 266.614 32.5443L278.316 25.5377C280.022 25.5377 281.372 25.3245 282.366 24.8982C283.219 24.7561 284.711 24.6851 286.843 24.6851C290.253 24.6851 282.601 31.7627 284.306 31.9048C286.864 32.3311 289.493 32.5443 292.193 32.5443L303.277 32.3311C304.414 32.0469 305.764 31.9048 307.327 31.9048L316.706 31.4785H323.74C326.44 31.4785 329.069 31.5496 331.626 31.6917H337.595C339.016 31.8338 341.076 31.9048 343.776 31.9048H351.876C352.302 31.9048 352.729 31.9759 353.155 32.118C353.581 32.2601 353.937 32.4022 354.221 32.5443C354.789 32.8285 355.5 32.9706 356.352 32.9706H358.271C359.265 33.6811 359.763 34.3916 359.763 35.1021L374.897 91.375C379.586 109.422 383.281 124.698 385.981 137.203C385.981 137.914 386.194 139.264 386.62 141.253C387.189 144.095 391.07 139.82 391.07 141.525C391.07 142.52 398.631 144.176 398.347 145.881C397.636 147.302 385.341 154.256 384.062 154.256H381.718C379.87 154.256 378.449 154.185 377.455 154.042H364.665C363.671 154.042 363.102 153.971 362.96 153.829H351.237L351.023 153.403C350.739 153.119 350.313 152.977 349.745 152.977L349.105 153.403C349.105 153.687 348.963 153.829 348.679 153.829H346.547C345.837 153.545 344.558 153.403 342.71 153.403C339.3 153.119 336.458 152.977 334.184 152.977C332.621 149.708 330.774 142.532 328.642 131.448C325.658 131.874 322.248 132.088 318.411 132.088H307.54C306.971 134.219 306.616 135.995 306.474 137.416C306.332 138.127 314.62 141.427 313.625 145.548C312.631 149.669 305.595 151.556 304.742 152.977L300.719 153.403C300.293 153.545 299.937 153.687 299.653 153.829C299.369 153.829 299.227 153.829 299.227 153.829H298.801C297.948 153.829 297.379 153.687 297.095 153.403C296.527 153.119 296.172 152.977 296.029 152.977L287.93 153.403H281.961C281.251 153.545 280.682 153.687 280.256 153.829C279.83 153.829 279.546 153.829 279.403 153.829H260.646C259.367 153.971 256.738 154.042 252.759 154.042H247.643C246.791 154.185 245.441 154.256 243.593 154.256H241.036ZM326.724 108.641C325.871 103.809 325.374 100.967 325.232 100.114L323.526 89.8829C323.242 87.8935 322.958 86.1172 322.674 84.5541C322.39 82.8488 322.177 81.2857 322.034 79.8647C321.608 78.1594 321.253 76.5963 320.969 75.1753C320.827 73.6121 320.613 72.1911 320.329 70.9122C320.187 70.0595 320.045 68.9938 319.903 67.7148C319.761 66.2938 319.548 65.2991 319.263 64.7307L318.837 62.1728C318.837 61.6044 318.695 61.107 318.411 60.6807L318.198 59.4018C317.913 60.2544 317.771 60.6807 317.771 60.6807V62.1728C317.771 62.3149 317.7 62.5991 317.558 63.0254C317.416 63.3096 317.274 63.8781 317.132 64.7307C316.99 65.4412 316.848 66.3649 316.706 67.5017C316.563 68.4964 316.35 69.6332 316.066 70.9122L314.574 79.6515L312.869 89.4566L312.229 94.146C311.945 95.2829 311.661 97.1302 311.377 99.688C310.098 106.083 309.529 108.996 309.671 108.427H319.05C319.192 108.285 319.405 108.143 319.69 108.001C319.974 107.717 320.187 107.575 320.329 107.575H320.969C321.679 107.575 322.248 107.646 322.674 107.788C323.242 107.93 323.74 108.072 324.166 108.214C325.019 108.498 325.871 108.641 326.724 108.641Z" fill="#B2651C" stroke="black"/>
<g filter="url(#filter3_n_1073_13611)">
<path d="M252.402 147.225C249.702 147.225 248.636 144.81 249.204 139.978C249.204 138.273 249.56 136.355 250.27 134.223C250.27 133.228 250.341 132.447 250.483 131.878C250.625 131.168 250.697 130.599 250.697 130.173C253.965 114.684 257.589 99.4077 261.567 84.3448L276.062 27.6456C276.062 27.3614 276.275 27.0061 276.701 26.5798C277.128 26.1535 277.554 25.7982 277.98 25.514H279.472C281.178 25.514 282.528 25.3009 283.522 24.8746C284.375 24.7325 285.867 24.6614 287.999 24.6614C291.409 24.6614 293.967 24.7325 295.672 24.8746C298.23 25.3009 300.859 25.514 303.559 25.514L314.643 25.3009C315.78 25.0167 317.13 24.8746 318.693 24.8746L328.072 24.4482H335.106C337.806 24.4482 340.435 24.5193 342.993 24.6614H348.961C350.382 24.8035 352.442 24.8746 355.142 24.8746H363.242C363.669 24.8746 364.095 24.9456 364.521 25.0877C364.948 25.2298 365.303 25.3719 365.587 25.514C366.155 25.7982 366.866 25.9403 367.719 25.9403H369.637C370.632 26.6508 371.129 27.3614 371.129 28.0719L386.263 84.3448C390.952 102.392 394.647 117.668 397.347 130.173C397.347 130.884 397.56 132.234 397.987 134.223C398.555 137.065 398.839 139.339 398.839 141.044C398.839 142.039 398.697 143.389 398.413 145.094C397.702 146.515 396.708 147.225 395.429 147.225H393.084C391.237 147.225 389.816 147.154 388.821 147.012H376.032C375.037 147.012 374.468 146.941 374.326 146.799H362.603L362.39 146.373C362.105 146.089 361.679 145.947 361.111 145.947L360.471 146.373C360.471 146.657 360.329 146.799 360.045 146.799H357.913C357.203 146.515 355.924 146.373 354.077 146.373C350.666 146.089 347.824 145.947 345.55 145.947C343.987 142.678 342.14 135.502 340.008 124.418C337.024 124.844 333.614 125.057 329.777 125.057H318.906C318.338 127.189 317.982 128.965 317.84 130.386C317.698 131.097 317.13 133.512 316.135 137.633C315.14 141.754 314.217 144.525 313.364 145.947L312.085 146.373C311.659 146.515 311.304 146.657 311.019 146.799C310.735 146.799 310.593 146.799 310.593 146.799H310.167C309.314 146.799 308.746 146.657 308.461 146.373C307.893 146.089 307.538 145.947 307.396 145.947L299.296 146.373H293.327C292.617 146.515 292.049 146.657 291.622 146.799C291.196 146.799 290.912 146.799 290.77 146.799H272.012C270.733 146.941 268.104 147.012 264.125 147.012H259.01C258.157 147.154 256.807 147.225 254.96 147.225H252.402ZM338.09 101.61C337.237 96.7788 336.74 93.9367 336.598 93.0841L334.893 82.8527C334.608 80.8632 334.324 79.0869 334.04 77.5238C333.756 75.8186 333.543 74.2554 333.401 72.8344C332.974 71.1292 332.619 69.566 332.335 68.145C332.193 66.5819 331.98 65.1608 331.695 63.8819C331.553 63.0293 331.411 61.9635 331.269 60.6846C331.127 59.2635 330.914 58.2688 330.63 57.7004L330.203 55.1425C330.203 54.5741 330.061 54.0768 329.777 53.6505L329.564 52.3715C329.28 53.2242 329.138 53.6505 329.138 53.6505V55.1425C329.138 55.2847 329.066 55.5689 328.924 55.9952C328.782 56.2794 328.64 56.8478 328.498 57.7004C328.356 58.4109 328.214 59.3346 328.072 60.4714C327.93 61.4661 327.716 62.603 327.432 63.8819L325.94 72.6212L324.235 82.4264L323.595 87.1158C323.311 88.2526 323.027 90.0999 322.743 92.6578C321.464 99.0524 320.896 101.966 321.038 101.397H330.416C330.559 101.255 330.772 101.113 331.056 100.971C331.34 100.687 331.553 100.545 331.695 100.545H332.335C333.045 100.545 333.614 100.616 334.04 100.758C334.608 100.9 335.106 101.042 335.532 101.184C336.385 101.468 337.237 101.61 338.09 101.61Z" fill="#E9C253"/>
<path d="M252.402 147.225C249.702 147.225 248.636 144.81 249.204 139.978C249.204 138.273 249.56 136.355 250.27 134.223C250.27 133.228 250.341 132.447 250.483 131.878C250.625 131.168 250.697 130.599 250.697 130.173C253.965 114.684 257.589 99.4077 261.567 84.3448L276.062 27.6456C276.062 27.3614 276.275 27.0061 276.701 26.5798C277.128 26.1535 277.554 25.7982 277.98 25.514H279.472C281.178 25.514 282.528 25.3009 283.522 24.8746C284.375 24.7325 285.867 24.6614 287.999 24.6614C291.409 24.6614 293.967 24.7325 295.672 24.8746C298.23 25.3009 300.859 25.514 303.559 25.514L314.643 25.3009C315.78 25.0167 317.13 24.8746 318.693 24.8746L328.072 24.4482H335.106C337.806 24.4482 340.435 24.5193 342.993 24.6614H348.961C350.382 24.8035 352.442 24.8746 355.142 24.8746H363.242C363.669 24.8746 364.095 24.9456 364.521 25.0877C364.948 25.2298 365.303 25.3719 365.587 25.514C366.155 25.7982 366.866 25.9403 367.719 25.9403H369.637C370.632 26.6508 371.129 27.3614 371.129 28.0719L386.263 84.3448C390.952 102.392 394.647 117.668 397.347 130.173C397.347 130.884 397.56 132.234 397.987 134.223C398.555 137.065 398.839 139.339 398.839 141.044C398.839 142.039 398.697 143.389 398.413 145.094C397.702 146.515 396.708 147.225 395.429 147.225H393.084C391.237 147.225 389.816 147.154 388.821 147.012H376.032C375.037 147.012 374.468 146.941 374.326 146.799H362.603L362.39 146.373C362.105 146.089 361.679 145.947 361.111 145.947L360.471 146.373C360.471 146.657 360.329 146.799 360.045 146.799H357.913C357.203 146.515 355.924 146.373 354.077 146.373C350.666 146.089 347.824 145.947 345.55 145.947C343.987 142.678 342.14 135.502 340.008 124.418C337.024 124.844 333.614 125.057 329.777 125.057H318.906C318.338 127.189 317.982 128.965 317.84 130.386C317.698 131.097 317.13 133.512 316.135 137.633C315.14 141.754 314.217 144.525 313.364 145.947L312.085 146.373C311.659 146.515 311.304 146.657 311.019 146.799C310.735 146.799 310.593 146.799 310.593 146.799H310.167C309.314 146.799 308.746 146.657 308.461 146.373C307.893 146.089 307.538 145.947 307.396 145.947L299.296 146.373H293.327C292.617 146.515 292.049 146.657 291.622 146.799C291.196 146.799 290.912 146.799 290.77 146.799H272.012C270.733 146.941 268.104 147.012 264.125 147.012H259.01C258.157 147.154 256.807 147.225 254.96 147.225H252.402ZM338.09 101.61C337.237 96.7788 336.74 93.9367 336.598 93.0841L334.893 82.8527C334.608 80.8632 334.324 79.0869 334.04 77.5238C333.756 75.8186 333.543 74.2554 333.401 72.8344C332.974 71.1292 332.619 69.566 332.335 68.145C332.193 66.5819 331.98 65.1608 331.695 63.8819C331.553 63.0293 331.411 61.9635 331.269 60.6846C331.127 59.2635 330.914 58.2688 330.63 57.7004L330.203 55.1425C330.203 54.5741 330.061 54.0768 329.777 53.6505L329.564 52.3715C329.28 53.2242 329.138 53.6505 329.138 53.6505V55.1425C329.138 55.2847 329.066 55.5689 328.924 55.9952C328.782 56.2794 328.64 56.8478 328.498 57.7004C328.356 58.4109 328.214 59.3346 328.072 60.4714C327.93 61.4661 327.716 62.603 327.432 63.8819L325.94 72.6212L324.235 82.4264L323.595 87.1158C323.311 88.2526 323.027 90.0999 322.743 92.6578C321.464 99.0524 320.896 101.966 321.038 101.397H330.416C330.559 101.255 330.772 101.113 331.056 100.971C331.34 100.687 331.553 100.545 331.695 100.545H332.335C333.045 100.545 333.614 100.616 334.04 100.758C334.608 100.9 335.106 101.042 335.532 101.184C336.385 101.468 337.237 101.61 338.09 101.61Z" stroke="black"/>
</g>
<path d="M260.853 114.652C258.643 122.869 254.522 139.433 255.718 139.956C256.913 140.479 258.768 140.174 259.546 139.956M264.588 139.956C265.933 139.956 268.151 139.906 268.898 140.155" stroke="black"/>
<path d="M158.306 150.61C157.028 148.621 156.175 144.997 155.749 139.739C155.18 135.05 154.896 128.229 154.896 119.277L155.109 95.8295C155.251 90.1454 155.322 81.1218 155.322 68.7588L154.683 68.1194H133.58C130.454 68.1194 128.394 64.5668 127.399 57.4616C126.831 53.6248 126.546 48.0118 126.546 40.6224V37.8514C126.831 36.8567 126.973 35.2935 126.973 33.162V28.8989L127.186 27.1936L128.038 26.341L134.191 19.7202L136.138 26.5542C142.391 26.5542 147.151 26.4831 150.42 26.341H193.69C195.538 26.4831 198.166 26.5542 201.577 26.5542H206.906C207.474 26.27 208.398 26.1279 209.677 26.1279C210.672 25.8437 211.595 25.7016 212.448 25.7016C215.148 25.7016 217.208 25.8437 218.629 26.1279C221.471 26.4121 223.603 26.5542 225.024 26.5542L230.566 26.341H238.879C243.142 26.341 246.055 26.4121 247.618 26.5542L250.603 26.7673C250.745 26.9094 250.958 27.1226 251.242 27.4068C251.526 27.5489 251.668 27.691 251.668 27.8331L257.602 58.3069C257.602 59.1596 251.171 65.8457 250.176 66.8404C249.324 67.8352 248.471 68.4746 247.618 68.7588C242.929 67.7641 236.818 67.2668 229.287 67.2668H221.187C219.056 67.2668 217.635 69.9667 216.924 75.3666C216.64 76.9298 216.498 79.2034 216.498 82.1876V88.5822C216.498 91.4243 216.569 93.5558 216.711 94.9769V100.945C216.711 106.771 216.427 112.171 215.858 117.145C215.574 120.84 215.432 123.54 215.432 125.245C215.148 126.95 215.006 129.295 215.006 132.279C215.006 136.542 220.543 136.195 220.259 139.037C220.117 143.442 212.803 149.687 209.677 149.971C206.266 150.397 204.277 150.61 203.708 150.61H158.306Z" fill="#B2651C" stroke="black"/>
<g filter="url(#filter4_n_1073_13611)">
<path d="M164.439 143.846C163.16 141.856 162.307 138.233 161.881 132.975C161.313 128.285 161.028 121.464 161.028 112.512L161.241 89.065C161.384 83.3808 161.455 74.3573 161.455 61.9943L160.815 61.3548H139.713C136.587 61.3548 134.526 57.8022 133.531 50.6971C132.963 46.8603 132.679 41.2472 132.679 33.8578V31.0868C132.963 30.0921 133.105 28.529 133.105 26.3974V22.1343L133.318 20.4291L134.171 19.5765L138.008 19.7896H142.271C148.523 19.7896 153.284 19.7186 156.552 19.5765H199.822C201.67 19.7186 204.299 19.7896 207.709 19.7896H213.038C213.607 19.5054 214.53 19.3633 215.809 19.3633C216.804 19.0791 217.727 18.937 218.58 18.937C221.28 18.937 223.341 19.0791 224.762 19.3633C227.604 19.6475 229.735 19.7896 231.156 19.7896L236.698 19.5765H245.011C249.274 19.5765 252.188 19.6475 253.751 19.7896L256.735 20.0028C256.877 20.1449 257.09 20.358 257.374 20.6422C257.659 20.7844 257.801 20.9265 257.801 21.0686V57.3049C257.801 58.1575 257.303 59.0812 256.309 60.0759C255.456 61.0706 254.603 61.7101 253.751 61.9943C249.061 60.9996 242.951 60.5022 235.419 60.5022H227.319C225.188 60.5022 223.767 63.2022 223.056 68.6021C222.772 70.1652 222.63 72.4389 222.63 75.423V81.8177C222.63 84.6598 222.701 86.7913 222.843 88.2123V94.1807C222.843 100.007 222.559 105.407 221.991 110.38C221.706 114.075 221.564 116.775 221.564 118.48C221.28 120.186 221.138 122.53 221.138 125.514C221.138 129.778 220.996 133.33 220.712 136.172C220.57 140.577 218.935 142.922 215.809 143.206C212.399 143.633 210.409 143.846 209.841 143.846H164.439Z" fill="#E9C253"/>
<path d="M164.439 143.846C163.16 141.856 162.307 138.233 161.881 132.975C161.313 128.285 161.028 121.464 161.028 112.512L161.241 89.065C161.384 83.3808 161.455 74.3573 161.455 61.9943L160.815 61.3548H139.713C136.587 61.3548 134.526 57.8022 133.531 50.6971C132.963 46.8603 132.679 41.2472 132.679 33.8578V31.0868C132.963 30.0921 133.105 28.529 133.105 26.3974V22.1343L133.318 20.4291L134.171 19.5765L138.008 19.7896H142.271C148.523 19.7896 153.284 19.7186 156.552 19.5765H199.822C201.67 19.7186 204.299 19.7896 207.709 19.7896H213.038C213.607 19.5054 214.53 19.3633 215.809 19.3633C216.804 19.0791 217.727 18.937 218.58 18.937C221.28 18.937 223.341 19.0791 224.762 19.3633C227.604 19.6475 229.735 19.7896 231.156 19.7896L236.698 19.5765H245.011C249.274 19.5765 252.188 19.6475 253.751 19.7896L256.735 20.0028C256.877 20.1449 257.09 20.358 257.374 20.6422C257.659 20.7844 257.801 20.9265 257.801 21.0686V57.3049C257.801 58.1575 257.303 59.0812 256.309 60.0759C255.456 61.0706 254.603 61.7101 253.751 61.9943C249.061 60.9996 242.951 60.5022 235.419 60.5022H227.319C225.188 60.5022 223.767 63.2022 223.056 68.6021C222.772 70.1652 222.63 72.4389 222.63 75.423V81.8177C222.63 84.6598 222.701 86.7913 222.843 88.2123V94.1807C222.843 100.007 222.559 105.407 221.991 110.38C221.706 114.075 221.564 116.775 221.564 118.48C221.28 120.186 221.138 122.53 221.138 125.514C221.138 129.778 220.996 133.33 220.712 136.172C220.57 140.577 218.935 142.922 215.809 143.206C212.399 143.633 210.409 143.846 209.841 143.846H164.439Z" stroke="black"/>
</g>
<path d="M37.2718 157.78L31.8981 157.093C26.7632 156.55 22.4713 155.814 19.0225 154.886C17.1609 154.815 15.5138 154.347 14.0811 153.482C12.8238 153.074 12.0232 152.491 11.6792 151.732L5.28314 123.216L5.23088 122.057C5.1821 120.975 5.22454 120.199 5.35818 119.729C5.63941 119.096 15.1158 112.01 15.8816 111.821C26.1014 115.232 27.1267 123.393 36.8632 122.954C39.9541 122.815 42.3531 122.784 44.0601 122.862C49.9329 122.597 54.1481 121.633 56.7058 119.969C58.0549 118.979 58.6911 117.634 58.6145 115.934C58.503 113.461 57.6397 111.487 56.0245 110.011C54.4024 108.381 52.0953 107.013 49.1031 105.909L41.5594 103.462C39.3748 103.096 36.8637 102.357 34.0261 101.246C34.0192 101.092 33.9384 101.018 33.7839 101.025C33.6223 100.877 33.4573 100.653 33.2889 100.35C32.6637 100.224 31.3152 99.5102 29.2434 98.2099L27.8211 97.5771C28.1302 97.5632 28.2812 97.479 28.2743 97.3244C28.2673 97.1699 28.0285 97.0258 27.5579 96.8921C27.0803 96.6039 26.1321 96.1821 24.7133 95.6266C23.4421 94.9096 22.3219 94.1084 21.3529 93.2229C19.9271 92.5129 19.1898 91.6169 19.141 90.5351L19.0888 89.376C15.2251 89.5502 11.7211 85.6818 8.57695 77.7707C5.88944 69.6842 4.46903 63.9409 4.31574 60.5408C3.66773 46.1679 17.4549 28.6663 29.4703 20.3815C39.2303 13.5921 44.7672 14.8911 62.2881 11.9331C73.669 10.1811 87.8595 8.92186 104.86 8.1554C107.058 8.83059 108.779 9.21759 110.023 9.31639C112.811 9.34552 114.708 10.1892 115.712 11.8474C116.21 12.5992 116.666 14.1273 117.08 16.4316C117.655 18.8834 127.625 20.8559 128.625 32.7352C128.948 33.0303 122.126 39.9687 122.154 40.5869C122.209 41.8233 118.37 41.6159 115.005 42.542C111.317 43.1728 108.932 43.5127 107.85 43.5614L102.549 44.4973C96.5567 45.5418 92.6401 46.2604 90.7995 46.6531C84.5118 48.0206 80.1943 50.151 77.847 53.0444C76.3851 54.9686 75.6995 56.9353 75.79 58.9444C75.8388 60.0263 76.0317 60.8693 76.3686 61.4736C76.7056 62.0778 77.5097 62.7385 78.7809 63.4555C80.2067 64.1655 84.312 65.9162 91.097 68.7075C98.3455 71.4779 105.636 75.1757 112.968 79.8007C119.184 83.7017 123.762 89.0704 126.703 95.9066C128.226 98.7803 129.096 102.613 129.312 107.404C129.507 111.731 136.118 113.059 135.175 116.199C131.617 126.58 117.436 137.673 106.601 144.665C101.486 147.993 96.1071 150.636 90.4654 152.594C84.8308 154.706 79.3861 155.881 74.1315 156.118L40.085 158.35L37.2718 157.78Z" fill="#B2651C" stroke="black"/>
<g filter="url(#filter5_n_1073_13611)">
<path d="M46.2274 150.523L40.8537 149.836C35.7188 149.293 31.4269 148.558 27.9781 147.629C26.1165 147.558 24.4694 147.091 23.0366 146.226C21.7793 145.818 20.9787 145.235 20.6348 144.476L14.2387 115.96L14.1864 114.801C14.1377 113.719 14.1801 112.943 14.3137 112.472C14.595 111.84 15.1185 111.429 15.8842 111.24C26.1041 114.651 36.0822 116.137 45.8187 115.698C48.9097 115.558 51.3087 115.528 53.0157 115.605C58.8885 115.341 63.1037 114.376 65.6614 112.712C67.0105 111.722 67.6467 110.377 67.5701 108.677C67.4586 106.205 66.5953 104.23 64.9801 102.755C63.358 101.124 61.0508 99.757 58.0587 98.653L50.515 96.2056C48.3304 95.8395 45.8193 95.101 42.9817 93.99C42.9747 93.8355 42.894 93.7617 42.7394 93.7687C42.5779 93.6211 42.4129 93.3962 42.2444 93.0941C41.6193 92.9674 40.2708 92.2539 38.1989 90.9535L36.7766 90.3208C37.0857 90.3069 37.2368 90.2226 37.2298 90.0681C37.2229 89.9135 36.9841 89.7694 36.5135 89.6358C36.0359 89.3476 35.0877 88.9258 33.6689 88.3703C32.3977 87.6533 31.2775 86.852 30.3084 85.9666C28.8827 85.2565 28.1454 84.3606 28.0966 83.2788L28.0443 82.1196C24.1806 82.2938 20.6767 78.4254 17.5325 70.5143C14.845 62.4278 13.4246 56.6845 13.2713 53.2845C12.6233 38.9115 18.307 27.5826 30.3225 19.2978C40.0824 12.5084 53.7228 7.63474 71.2437 4.67674C82.6245 2.92475 96.8151 1.66552 113.815 0.899055C116.014 1.57424 117.735 1.96124 118.978 2.06004C121.767 2.08917 123.663 2.93284 124.667 4.59106C125.166 5.3429 125.622 6.87096 126.035 9.17524C126.611 11.6271 127.398 18.7927 128.398 30.672C128.721 30.9671 128.897 31.4238 128.925 32.042C128.98 33.2784 127.326 34.3596 123.96 35.2856C120.272 35.9165 117.887 36.2563 116.805 36.3051L111.505 37.2409C105.512 38.2854 101.596 39.004 99.7551 39.3967C93.4674 40.7642 89.1499 42.8947 86.8025 45.788C85.3407 47.7123 84.655 49.679 84.7456 51.6881C84.7944 52.7699 84.9872 53.613 85.3242 54.2172C85.6612 54.8215 86.4653 55.4821 87.7365 56.1991C89.1623 56.9091 93.2676 58.6598 100.053 61.4512C107.301 64.2216 114.591 67.9193 121.924 72.5443C128.139 76.4454 132.717 81.814 135.658 88.6502C137.181 91.5239 138.051 95.3563 138.267 100.147C138.462 104.475 138.089 108.208 137.146 111.348C133.588 121.729 126.391 130.416 115.556 137.409C110.441 140.737 105.063 143.38 99.421 145.337C93.7863 147.45 88.3417 148.624 83.0871 148.861L49.0406 151.093L46.2274 150.523Z" fill="#E9C253"/>
<path d="M46.2274 150.523L40.8537 149.836C35.7188 149.293 31.4269 148.558 27.9781 147.629C26.1165 147.558 24.4694 147.091 23.0366 146.226C21.7793 145.818 20.9787 145.235 20.6348 144.476L14.2387 115.96L14.1864 114.801C14.1377 113.719 14.1801 112.943 14.3137 112.472C14.595 111.84 15.1185 111.429 15.8842 111.24C26.1041 114.651 36.0822 116.137 45.8187 115.698C48.9097 115.558 51.3087 115.528 53.0157 115.605C58.8885 115.341 63.1037 114.376 65.6614 112.712C67.0105 111.722 67.6467 110.377 67.5701 108.677C67.4586 106.205 66.5953 104.23 64.9801 102.755C63.358 101.124 61.0508 99.757 58.0587 98.653L50.515 96.2056C48.3304 95.8395 45.8193 95.101 42.9817 93.99C42.9747 93.8355 42.894 93.7617 42.7394 93.7687C42.5779 93.6211 42.4129 93.3962 42.2444 93.0941C41.6193 92.9674 40.2708 92.2539 38.1989 90.9535L36.7766 90.3208C37.0857 90.3069 37.2368 90.2226 37.2298 90.0681C37.2229 89.9135 36.9841 89.7694 36.5135 89.6358C36.0359 89.3476 35.0877 88.9258 33.6689 88.3703C32.3977 87.6533 31.2775 86.852 30.3084 85.9666C28.8827 85.2565 28.1454 84.3606 28.0966 83.2788L28.0443 82.1196C24.1806 82.2938 20.6767 78.4254 17.5325 70.5143C14.845 62.4278 13.4246 56.6845 13.2713 53.2845C12.6233 38.9115 18.307 27.5826 30.3225 19.2978C40.0824 12.5084 53.7228 7.63474 71.2437 4.67674C82.6245 2.92475 96.8151 1.66552 113.815 0.899055C116.014 1.57424 117.735 1.96124 118.978 2.06004C121.767 2.08917 123.663 2.93284 124.667 4.59106C125.166 5.3429 125.622 6.87096 126.035 9.17524C126.611 11.6271 127.398 18.7927 128.398 30.672C128.721 30.9671 128.897 31.4238 128.925 32.042C128.98 33.2784 127.326 34.3596 123.96 35.2856C120.272 35.9165 117.887 36.2563 116.805 36.3051L111.505 37.2409C105.512 38.2854 101.596 39.004 99.7551 39.3967C93.4674 40.7642 89.1499 42.8947 86.8025 45.788C85.3407 47.7123 84.655 49.679 84.7456 51.6881C84.7944 52.7699 84.9872 53.613 85.3242 54.2172C85.6612 54.8215 86.4653 55.4821 87.7365 56.1991C89.1623 56.9091 93.2676 58.6598 100.053 61.4512C107.301 64.2216 114.591 67.9193 121.924 72.5443C128.139 76.4454 132.717 81.814 135.658 88.6502C137.181 91.5239 138.051 95.3563 138.267 100.147C138.462 104.475 138.089 108.208 137.146 111.348C133.588 121.729 126.391 130.416 115.556 137.409C110.441 140.737 105.063 143.38 99.421 145.337C93.7863 147.45 88.3417 148.624 83.0871 148.861L49.0406 151.093L46.2274 150.523Z" stroke="black"/>
</g>
<defs>
<filter id="filter0_n_1073_13611" x="620.433" y="20.8042" width="114.17" height="130.609" filterUnits="userSpaceOnUse" color-interpolation-filters="sRGB">
<feFlood flood-opacity="0" result="BackgroundImageFix"/>
<feBlend mode="normal" in="SourceGraphic" in2="BackgroundImageFix" result="shape"/>
<feTurbulence type="fractalNoise" baseFrequency="0.0099999997764825821 0.0099999997764825821" stitchTiles="stitch" numOctaves="3" result="noise" seed="9207" />
<feColorMatrix in="noise" type="luminanceToAlpha" result="alphaNoise" />
<feComponentTransfer in="alphaNoise" result="coloredNoise1">
<feFuncA type="discrete" tableValues="1 1 1 1 1 1 1 1 1 1 1 1 1 1 1 1 1 1 1 1 1 1 1 1 1 1 1 1 1 1 1 1 1 1 1 1 1 1 1 1 1 1 1 1 1 1 1 1 1 1 1 0 0 0 0 0 0 0 0 0 0 0 0 0 0 0 0 0 0 0 0 0 0 0 0 0 0 0 0 0 0 0 0 0 0 0 0 0 0 0 0 0 0 0 0 0 0 0 0 0 "/>
</feComponentTransfer>
<feComposite operator="in" in2="shape" in="coloredNoise1" result="noise1Clipped" />
<feFlood flood-color="rgba(178, 101, 28, 0.05)" result="color1Flood" />
<feComposite operator="in" in2="noise1Clipped" in="color1Flood" result="color1" />
<feMerge result="effect1_noise_1073_13611">
<feMergeNode in="shape" />
<feMergeNode in="color1" />
</feMerge>
</filter>
<filter id="filter1_n_1073_13611" x="516.746" y="23.436" width="103.786" height="125.964" filterUnits="userSpaceOnUse" color-interpolation-filters="sRGB">
<feFlood flood-opacity="0" result="BackgroundImageFix"/>
<feBlend mode="normal" in="SourceGraphic" in2="BackgroundImageFix" result="shape"/>
<feTurbulence type="fractalNoise" baseFrequency="0.0099999997764825821 0.0099999997764825821" stitchTiles="stitch" numOctaves="3" result="noise" seed="9207" />
<feColorMatrix in="noise" type="luminanceToAlpha" result="alphaNoise" />
<feComponentTransfer in="alphaNoise" result="coloredNoise1">
<feFuncA type="discrete" tableValues="1 1 1 1 1 1 1 1 1 1 1 1 1 1 1 1 1 1 1 1 1 1 1 1 1 1 1 1 1 1 1 1 1 1 1 1 1 1 1 1 1 1 1 1 1 1 1 1 1 1 1 0 0 0 0 0 0 0 0 0 0 0 0 0 0 0 0 0 0 0 0 0 0 0 0 0 0 0 0 0 0 0 0 0 0 0 0 0 0 0 0 0 0 0 0 0 0 0 0 0 "/>
</feComponentTransfer>
<feComposite operator="in" in2="shape" in="coloredNoise1" result="noise1Clipped" />
<feFlood flood-color="rgba(178, 101, 28, 0.05)" result="color1Flood" />
<feComposite operator="in" in2="noise1Clipped" in="color1Flood" result="color1" />
<feMerge result="effect1_noise_1073_13611">
<feMergeNode in="shape" />
<feMergeNode in="color1" />
</feMerge>
</filter>
<filter id="filter2_n_1073_13611" x="405.937" y="23.436" width="105.595" height="125.964" filterUnits="userSpaceOnUse" color-interpolation-filters="sRGB">
<feFlood flood-opacity="0" result="BackgroundImageFix"/>
<feBlend mode="normal" in="SourceGraphic" in2="BackgroundImageFix" result="shape"/>
<feTurbulence type="fractalNoise" baseFrequency="0.0099999997764825821 0.0099999997764825821" stitchTiles="stitch" numOctaves="3" result="noise" seed="9207" />
<feColorMatrix in="noise" type="luminanceToAlpha" result="alphaNoise" />
<feComponentTransfer in="alphaNoise" result="coloredNoise1">
<feFuncA type="discrete" tableValues="1 1 1 1 1 1 1 1 1 1 1 1 1 1 1 1 1 1 1 1 1 1 1 1 1 1 1 1 1 1 1 1 1 1 1 1 1 1 1 1 1 1 1 1 1 1 1 1 1 1 1 0 0 0 0 0 0 0 0 0 0 0 0 0 0 0 0 0 0 0 0 0 0 0 0 0 0 0 0 0 0 0 0 0 0 0 0 0 0 0 0 0 0 0 0 0 0 0 0 0 "/>
</feComponentTransfer>
<feComposite operator="in" in2="shape" in="coloredNoise1" result="noise1Clipped" />
<feFlood flood-color="rgba(178, 101, 28, 0.05)" result="color1Flood" />
<feComposite operator="in" in2="noise1Clipped" in="color1Flood" result="color1" />
<feMerge result="effect1_noise_1073_13611">
<feMergeNode in="shape" />
<feMergeNode in="color1" />
</feMerge>
</filter>
<filter id="filter3_n_1073_13611" x="248.556" y="23.9482" width="150.783" height="123.777" filterUnits="userSpaceOnUse" color-interpolation-filters="sRGB">
<feFlood flood-opacity="0" result="BackgroundImageFix"/>
<feBlend mode="normal" in="SourceGraphic" in2="BackgroundImageFix" result="shape"/>
<feTurbulence type="fractalNoise" baseFrequency="0.0099999997764825821 0.0099999997764825821" stitchTiles="stitch" numOctaves="3" result="noise" seed="9207" />
<feColorMatrix in="noise" type="luminanceToAlpha" result="alphaNoise" />
<feComponentTransfer in="alphaNoise" result="coloredNoise1">
<feFuncA type="discrete" tableValues="1 1 1 1 1 1 1 1 1 1 1 1 1 1 1 1 1 1 1 1 1 1 1 1 1 1 1 1 1 1 1 1 1 1 1 1 1 1 1 1 1 1 1 1 1 1 1 1 1 1 1 0 0 0 0 0 0 0 0 0 0 0 0 0 0 0 0 0 0 0 0 0 0 0 0 0 0 0 0 0 0 0 0 0 0 0 0 0 0 0 0 0 0 0 0 0 0 0 0 0 "/>
</feComponentTransfer>
<feComposite operator="in" in2="shape" in="coloredNoise1" result="noise1Clipped" />
<feFlood flood-color="rgba(178, 101, 28, 0.05)" result="color1Flood" />
<feComposite operator="in" in2="noise1Clipped" in="color1Flood" result="color1" />
<feMerge result="effect1_noise_1073_13611">
<feMergeNode in="shape" />
<feMergeNode in="color1" />
</feMerge>
</filter>
<filter id="filter4_n_1073_13611" x="132.179" y="18.437" width="126.122" height="125.909" filterUnits="userSpaceOnUse" color-interpolation-filters="sRGB">
<feFlood flood-opacity="0" result="BackgroundImageFix"/>
<feBlend mode="normal" in="SourceGraphic" in2="BackgroundImageFix" result="shape"/>
<feTurbulence type="fractalNoise" baseFrequency="0.0099999997764825821 0.0099999997764825821" stitchTiles="stitch" numOctaves="3" result="noise" seed="9207" />
<feColorMatrix in="noise" type="luminanceToAlpha" result="alphaNoise" />
<feComponentTransfer in="alphaNoise" result="coloredNoise1">
<feFuncA type="discrete" tableValues="1 1 1 1 1 1 1 1 1 1 1 1 1 1 1 1 1 1 1 1 1 1 1 1 1 1 1 1 1 1 1 1 1 1 1 1 1 1 1 1 1 1 1 1 1 1 1 1 1 1 1 0 0 0 0 0 0 0 0 0 0 0 0 0 0 0 0 0 0 0 0 0 0 0 0 0 0 0 0 0 0 0 0 0 0 0 0 0 0 0 0 0 0 0 0 0 0 0 0 0 "/>
</feComponentTransfer>
<feComposite operator="in" in2="shape" in="coloredNoise1" result="noise1Clipped" />
<feFlood flood-color="rgba(178, 101, 28, 0.05)" result="color1Flood" />
<feComposite operator="in" in2="noise1Clipped" in="color1Flood" result="color1" />
<feMerge result="effect1_noise_1073_13611">
<feMergeNode in="shape" />
<feMergeNode in="color1" />
</feMerge>
</filter>
<filter id="filter5_n_1073_13611" x="12.7217" y="0.395508" width="126.096" height="151.201" filterUnits="userSpaceOnUse" color-interpolation-filters="sRGB">
<feFlood flood-opacity="0" result="BackgroundImageFix"/>
<feBlend mode="normal" in="SourceGraphic" in2="BackgroundImageFix" result="shape"/>
<feTurbulence type="fractalNoise" baseFrequency="0.0099999997764825821 0.0099999997764825821" stitchTiles="stitch" numOctaves="3" result="noise" seed="9207" />
<feColorMatrix in="noise" type="luminanceToAlpha" result="alphaNoise" />
<feComponentTransfer in="alphaNoise" result="coloredNoise1">
<feFuncA type="discrete" tableValues="1 1 1 1 1 1 1 1 1 1 1 1 1 1 1 1 1 1 1 1 1 1 1 1 1 1 1 1 1 1 1 1 1 1 1 1 1 1 1 1 1 1 1 1 1 1 1 1 1 1 1 0 0 0 0 0 0 0 0 0 0 0 0 0 0 0 0 0 0 0 0 0 0 0 0 0 0 0 0 0 0 0 0 0 0 0 0 0 0 0 0 0 0 0 0 0 0 0 0 0 "/>
</feComponentTransfer>
<feComposite operator="in" in2="shape" in="coloredNoise1" result="noise1Clipped" />
<feFlood flood-color="rgba(178, 101, 28, 0.05)" result="color1Flood" />
<feComposite operator="in" in2="noise1Clipped" in="color1Flood" result="color1" />
<feMerge result="effect1_noise_1073_13611">
<feMergeNode in="shape" />
<feMergeNode in="color1" />
</feMerge>
</filter>
</defs>
</svg>
