<svg width="1284" height="181" viewBox="0 0 1284 181" fill="none" xmlns="http://www.w3.org/2000/svg">
<path d="M793.973 167.274L788.636 166.346C783.531 165.572 779.276 164.644 775.873 163.561C774.016 163.406 772.392 162.865 771 161.936C769.762 161.472 768.988 160.853 768.679 160.08L763.574 131.305V130.145C763.574 129.062 763.651 128.288 763.806 127.824C764.115 127.205 773.901 120.553 774.675 120.398C784.73 124.266 785.387 132.465 795.134 132.465C798.228 132.465 800.626 132.543 802.327 132.697C808.206 132.697 812.46 131.924 815.09 130.377C816.483 129.448 817.179 128.133 817.179 126.432C817.179 123.956 816.405 121.945 814.858 120.398C813.311 118.696 811.068 117.227 808.129 115.989L800.703 113.204C798.537 112.74 796.062 111.889 793.277 110.652C793.277 110.497 793.2 110.42 793.045 110.42C792.89 110.265 792.736 110.033 792.581 109.724C791.962 109.569 790.647 108.795 788.636 107.403L787.244 106.707C787.553 106.707 787.708 106.629 787.708 106.475C787.708 106.32 787.476 106.165 787.012 106.011C786.547 105.701 785.619 105.237 784.227 104.618C782.989 103.845 781.906 102.994 780.978 102.066C779.586 101.292 778.89 100.364 778.89 99.281V98.1207C775.022 98.1207 771.696 94.0983 768.911 86.0537C766.59 77.8543 765.43 72.0529 765.43 68.6494C765.43 54.2618 779.992 37.399 792.368 29.6638C802.424 23.3209 807.897 24.8679 825.533 22.702C836.981 21.4644 851.214 20.8456 868.232 20.8456C870.397 21.6191 872.099 22.0832 873.337 22.2379C876.122 22.3926 877.978 23.3209 878.906 25.0226C879.37 25.7961 879.757 27.3432 880.067 29.6638C880.531 32.139 890.402 34.5585 890.866 46.4708C891.175 46.7802 884.047 53.4042 884.047 54.023C884.047 55.2607 880.221 54.8807 876.818 55.6542C873.105 56.1183 870.707 56.3503 869.624 56.3503L864.287 57.0465C858.253 57.82 854.308 58.3615 852.452 58.6709C846.109 59.7539 841.7 61.6877 839.224 64.4724C837.677 66.3288 836.904 68.2626 836.904 70.2738C836.904 71.3567 837.059 72.2076 837.368 72.8264C837.677 73.4452 838.451 74.1414 839.689 74.9149C841.081 75.6885 845.103 77.6223 851.756 80.7164C858.872 83.8105 865.988 87.8328 873.105 92.7833C879.138 96.9604 883.47 102.53 886.1 109.491C887.492 112.431 888.189 116.298 888.189 121.094C888.189 125.426 894.733 127.05 893.65 130.145C889.628 140.355 874.961 150.798 863.823 157.295C858.563 160.389 853.071 162.787 847.346 164.489C841.622 166.346 836.13 167.274 830.87 167.274L796.758 167.97L793.973 167.274Z" fill="#B2651C" stroke="black"/>
<g filter="url(#filter0_n_963_14048)">
<path d="M803.246 160.428L797.909 159.5C792.804 158.726 788.549 157.798 785.146 156.715C783.289 156.561 781.665 156.019 780.273 155.091C779.035 154.627 778.261 154.008 777.952 153.234L772.847 124.459V123.299C772.847 122.216 772.924 121.443 773.079 120.978C773.388 120.36 773.93 119.973 774.703 119.818C784.759 123.686 794.66 125.62 804.406 125.62C807.501 125.62 809.899 125.697 811.6 125.852C817.479 125.852 821.733 125.078 824.363 123.531C825.756 122.603 826.452 121.288 826.452 119.586C826.452 117.111 825.678 115.1 824.131 113.553C822.584 111.851 820.341 110.381 817.402 109.144L809.976 106.359C807.81 105.895 805.335 105.044 802.55 103.806C802.55 103.651 802.473 103.574 802.318 103.574C802.163 103.419 802.009 103.187 801.854 102.878C801.235 102.723 799.92 101.95 797.909 100.557L796.517 99.8612C796.826 99.8612 796.981 99.7839 796.981 99.6292C796.981 99.4744 796.749 99.3197 796.284 99.165C795.82 98.8556 794.892 98.3915 793.5 97.7727C792.262 96.9992 791.179 96.1483 790.251 95.2201C788.859 94.4465 788.162 93.5183 788.162 92.4354V91.2751C784.295 91.2751 780.969 87.2528 778.184 79.2081C775.863 71.0087 774.703 65.2073 774.703 61.8038C774.703 47.4162 780.891 36.3548 793.268 28.6196C803.324 22.2767 817.17 18.0223 834.806 15.8564C846.254 14.6188 860.487 14 877.505 14C879.67 14.7735 881.372 15.2376 882.61 15.3923C885.394 15.547 887.251 16.4753 888.179 18.177C888.643 18.9506 889.03 20.4976 889.339 22.8182C889.804 25.2934 890.268 32.4872 890.732 44.3995C891.041 44.7089 891.196 45.173 891.196 45.7918C891.196 47.0295 889.494 48.0351 886.091 48.8086C882.378 49.2727 879.98 49.5048 878.897 49.5048L873.56 50.2009C867.526 50.9745 863.581 51.5159 861.725 51.8253C855.382 52.9083 850.973 54.8421 848.497 57.6268C846.95 59.4832 846.177 61.417 846.177 63.4282C846.177 64.5111 846.332 65.362 846.641 65.9808C846.95 66.5997 847.724 67.2958 848.961 68.0694C850.354 68.8429 854.376 70.7767 861.028 73.8708C868.145 76.9649 875.261 80.9872 882.378 85.9378C888.411 90.1148 892.743 95.6842 895.373 102.646C896.765 105.585 897.461 109.453 897.461 114.249C897.461 118.581 896.92 122.293 895.837 125.388C891.815 135.598 884.234 143.952 873.095 150.45C867.835 153.544 862.343 155.942 856.619 157.643C850.895 159.5 845.403 160.428 840.143 160.428L806.031 161.124L803.246 160.428Z" fill="#E9C253"/>
<path d="M803.246 160.428L797.909 159.5C792.804 158.726 788.549 157.798 785.146 156.715C783.289 156.561 781.665 156.019 780.273 155.091C779.035 154.627 778.261 154.008 777.952 153.234L772.847 124.459V123.299C772.847 122.216 772.924 121.443 773.079 120.978C773.388 120.36 773.93 119.973 774.703 119.818C784.759 123.686 794.66 125.62 804.406 125.62C807.501 125.62 809.899 125.697 811.6 125.852C817.479 125.852 821.733 125.078 824.363 123.531C825.756 122.603 826.452 121.288 826.452 119.586C826.452 117.111 825.678 115.1 824.131 113.553C822.584 111.851 820.341 110.381 817.402 109.144L809.976 106.359C807.81 105.895 805.335 105.044 802.55 103.806C802.55 103.651 802.473 103.574 802.318 103.574C802.163 103.419 802.009 103.187 801.854 102.878C801.235 102.723 799.92 101.95 797.909 100.557L796.517 99.8612C796.826 99.8612 796.981 99.7839 796.981 99.6292C796.981 99.4744 796.749 99.3197 796.284 99.165C795.82 98.8556 794.892 98.3915 793.5 97.7727C792.262 96.9992 791.179 96.1483 790.251 95.2201C788.859 94.4465 788.162 93.5183 788.162 92.4354V91.2751C784.295 91.2751 780.969 87.2528 778.184 79.2081C775.863 71.0087 774.703 65.2073 774.703 61.8038C774.703 47.4162 780.891 36.3548 793.268 28.6196C803.324 22.2767 817.17 18.0223 834.806 15.8564C846.254 14.6188 860.487 14 877.505 14C879.67 14.7735 881.372 15.2376 882.61 15.3923C885.394 15.547 887.251 16.4753 888.179 18.177C888.643 18.9506 889.03 20.4976 889.339 22.8182C889.804 25.2934 890.268 32.4872 890.732 44.3995C891.041 44.7089 891.196 45.173 891.196 45.7918C891.196 47.0295 889.494 48.0351 886.091 48.8086C882.378 49.2727 879.98 49.5048 878.897 49.5048L873.56 50.2009C867.526 50.9745 863.581 51.5159 861.725 51.8253C855.382 52.9083 850.973 54.8421 848.497 57.6268C846.95 59.4832 846.177 61.417 846.177 63.4282C846.177 64.5111 846.332 65.362 846.641 65.9808C846.95 66.5997 847.724 67.2958 848.961 68.0694C850.354 68.8429 854.376 70.7767 861.028 73.8708C868.145 76.9649 875.261 80.9872 882.378 85.9378C888.411 90.1148 892.743 95.6842 895.373 102.646C896.765 105.585 897.461 109.453 897.461 114.249C897.461 118.581 896.92 122.293 895.837 125.388C891.815 135.598 884.234 143.952 873.095 150.45C867.835 153.544 862.343 155.942 856.619 157.643C850.895 159.5 845.403 160.428 840.143 160.428L806.031 161.124L803.246 160.428Z" stroke="black"/>
</g>
<path d="M615.15 170.35C613.758 168.184 612.83 164.239 612.366 158.515C611.747 153.409 611.437 145.984 611.437 136.237L611.669 110.711C611.824 104.523 611.901 94.699 611.901 81.2396L611.205 80.5435H588.232C584.828 80.5435 582.585 76.6758 581.502 68.9406C580.883 64.7636 580.574 58.6527 580.574 50.6081V47.5913C580.883 46.5084 581.038 44.8066 581.038 42.4861V37.8449L581.27 35.9885L582.198 35.0602L588.897 27.8523L591.016 35.2923C597.823 35.2923 603.006 35.2149 606.564 35.0602H653.672C655.683 35.2149 658.545 35.2923 662.258 35.2923H668.059C668.678 34.9829 669.684 34.8282 671.076 34.8282C672.159 34.5188 673.165 34.3641 674.093 34.3641C677.032 34.3641 679.275 34.5188 680.823 34.8282C683.917 35.1376 686.237 35.2923 687.784 35.2923L693.818 35.0602H702.868C707.509 35.0602 710.681 35.1376 712.382 35.2923L715.631 35.5243C715.786 35.679 716.018 35.9111 716.327 36.2205C716.637 36.3752 716.791 36.5299 716.791 36.6846L723.251 69.8609C723.251 70.7891 716.25 78.0682 715.167 79.1511C714.239 80.2341 713.311 80.9302 712.382 81.2396C707.277 80.1567 700.625 79.6152 692.425 79.6152H683.607C681.287 79.6152 679.74 82.5546 678.966 88.4334C678.657 90.1352 678.502 92.6104 678.502 95.8592V102.821C678.502 105.915 678.579 108.236 678.734 109.783V116.28C678.734 122.623 678.425 128.502 677.806 133.917C677.496 137.939 677.342 140.878 677.342 142.735C677.032 144.591 676.878 147.144 676.878 150.393C676.878 155.034 682.906 154.656 682.597 157.75C682.442 162.546 674.48 169.344 671.076 169.653C667.363 170.118 665.197 170.35 664.578 170.35H615.15Z" fill="#B2651C" stroke="black"/>
<g filter="url(#filter1_n_963_14048)">
<path d="M621.827 162.986C620.434 160.82 619.506 156.875 619.042 151.151C618.423 146.045 618.114 138.62 618.114 128.873L618.346 103.347C618.5 97.1587 618.578 87.3349 618.578 73.8756L617.882 73.1794H594.908C591.504 73.1794 589.261 69.3118 588.178 61.5765C587.559 57.3995 587.25 51.2887 587.25 43.244V40.2273C587.559 39.1443 587.714 37.4426 587.714 35.122V30.4809L587.946 28.6244L588.874 27.6962L593.051 27.9282H597.693C604.5 27.9282 609.682 27.8509 613.24 27.6962H660.348C662.359 27.8509 665.221 27.9282 668.934 27.9282H674.736C675.354 27.6188 676.36 27.4641 677.752 27.4641C678.835 27.1547 679.841 27 680.769 27C683.709 27 685.952 27.1547 687.499 27.4641C690.593 27.7735 692.913 27.9282 694.46 27.9282L700.494 27.6962H709.544C714.185 27.6962 717.357 27.7735 719.059 27.9282L722.307 28.1603C722.462 28.315 722.694 28.547 723.004 28.8564C723.313 29.0112 723.468 29.1659 723.468 29.3206V68.7703C723.468 69.6985 722.926 70.7041 721.843 71.7871C720.915 72.87 719.987 73.5662 719.059 73.8756C713.953 72.7926 707.301 72.2512 699.102 72.2512H690.283C687.963 72.2512 686.416 75.1906 685.642 81.0694C685.333 82.7711 685.178 85.2464 685.178 88.4952V95.4569C685.178 98.551 685.256 100.872 685.41 102.419V108.916C685.41 115.259 685.101 121.138 684.482 126.553C684.173 130.575 684.018 133.514 684.018 135.371C683.709 137.227 683.554 139.78 683.554 143.029C683.554 147.67 683.399 151.537 683.09 154.632C682.935 159.427 681.156 161.98 677.752 162.289C674.039 162.754 671.874 162.986 671.255 162.986H621.827Z" fill="#E9C253"/>
<path d="M621.827 162.986C620.434 160.82 619.506 156.875 619.042 151.151C618.423 146.045 618.114 138.62 618.114 128.873L618.346 103.347C618.5 97.1587 618.578 87.3349 618.578 73.8756L617.882 73.1794H594.908C591.504 73.1794 589.261 69.3118 588.178 61.5765C587.559 57.3995 587.25 51.2887 587.25 43.244V40.2273C587.559 39.1443 587.714 37.4426 587.714 35.122V30.4809L587.946 28.6244L588.874 27.6962L593.051 27.9282H597.693C604.5 27.9282 609.682 27.8509 613.24 27.6962H660.348C662.359 27.8509 665.221 27.9282 668.934 27.9282H674.736C675.354 27.6188 676.36 27.4641 677.752 27.4641C678.835 27.1547 679.841 27 680.769 27C683.709 27 685.952 27.1547 687.499 27.4641C690.593 27.7735 692.913 27.9282 694.46 27.9282L700.494 27.6962H709.544C714.185 27.6962 717.357 27.7735 719.059 27.9282L722.307 28.1603C722.462 28.315 722.694 28.547 723.004 28.8564C723.313 29.0112 723.468 29.1659 723.468 29.3206V68.7703C723.468 69.6985 722.926 70.7041 721.843 71.7871C720.915 72.87 719.987 73.5662 719.059 73.8756C713.953 72.7926 707.301 72.2512 699.102 72.2512H690.283C687.963 72.2512 686.416 75.1906 685.642 81.0694C685.333 82.7711 685.178 85.2464 685.178 88.4952V95.4569C685.178 98.551 685.256 100.872 685.41 102.419V108.916C685.41 115.259 685.101 121.138 684.482 126.553C684.173 130.575 684.018 133.514 684.018 135.371C683.709 137.227 683.554 139.78 683.554 143.029C683.554 147.67 683.399 151.537 683.09 154.632C682.935 159.427 681.156 161.98 677.752 162.289C674.039 162.754 671.874 162.986 671.255 162.986H621.827Z" stroke="black"/>
</g>
<path d="M1137.99 171.108L1128.94 168.556L1128.47 167.163C1128.32 167.163 1128.24 166.39 1128.24 164.843C1128.24 162.832 1128.17 161.207 1128.01 159.969L1127.78 151.151C1127.62 149.295 1127.55 146.356 1127.55 142.333C1127.55 138.466 1127.47 135.604 1127.31 133.747V126.785C1126.39 117.039 1125.92 106.983 1125.92 96.6179V91.2805C1125.92 89.4241 1126 88.1091 1126.15 87.3356V83.8547C1126 83.3906 1125.92 82.6171 1125.92 81.5341V71.5557C1125.92 69.6992 1126 68.3842 1126.15 67.6107V65.2901L1126.39 64.1298V61.1131C1126.54 59.566 1126.62 57.4775 1126.62 54.8475C1126.62 52.8364 1126.54 51.0573 1126.39 49.5102L1126.15 44.1729L1125.92 43.2447C1125.46 42.9353 1125.46 42.7032 1125.92 42.5485C1126.54 40.0732 1132.43 31.0986 1135.68 30.0157C1137.23 29.3968 1135.82 36.283 1139.38 36.283C1142.01 36.283 1148.9 36.0509 1160.03 35.5868C1165.6 35.2774 1169.08 35.1227 1170.48 35.1227C1172.8 34.968 1175.58 34.8906 1178.83 34.8906C1180.38 35.0453 1181.46 35.3547 1182.08 35.8188C1182.7 36.1283 1183.24 36.7471 1183.7 37.6753C1184.32 38.6035 1184.79 39.2997 1185.1 39.7638L1189.74 46.4935C1189.58 46.3388 1191.52 49.1235 1195.54 54.8475C1199.25 60.881 1203.74 67.688 1209 75.2686C1209.77 76.5062 1210.7 77.8986 1211.78 79.4456C1212.87 80.9927 1214.03 82.7718 1215.26 84.7829V76.6609C1215.42 74.4951 1215.5 71.401 1215.5 67.3786C1215.5 62.1187 1215.65 56.2399 1215.96 49.7423C1215.96 48.5046 1216.04 47.4217 1216.19 46.4935C1216.35 45.4105 1216.42 44.5597 1216.42 43.9408C1216.42 42.3938 1216.5 41.6203 1216.66 41.6203C1217.28 40.692 1223.43 32.6551 1224.98 31.5721C1226.84 30.3345 1223.7 36.8244 1225.71 36.9791H1239.63C1241.95 36.9791 1243.88 37.0565 1245.43 37.2112H1252.39C1253.94 37.3659 1256.26 37.4432 1259.35 37.4432H1266.78C1269.87 37.4432 1272.2 37.9847 1273.74 39.0676C1274.67 39.6865 1275.29 40.5373 1275.6 41.6203C1275.91 42.5485 1276.06 44.0182 1276.06 46.0294C1276.06 48.0405 1275.99 49.7423 1275.83 51.1346C1275.68 52.6817 1275.6 54.5381 1275.6 56.704V58.3284C1275.75 58.7925 1275.83 59.4887 1275.83 60.4169V66.4504L1275.6 93.137V125.625C1275.6 142.333 1275.44 152.93 1275.13 157.417L1281.06 158.25C1280.29 161.808 1272.58 170.489 1271.19 170.644C1270.88 170.644 1270.42 170.721 1269.8 170.876C1269.33 171.031 1268.79 171.108 1268.17 171.108C1262.6 171.108 1258.5 170.954 1255.87 170.644H1228.72C1228.26 170.799 1227.64 170.876 1226.87 170.876C1225.01 170.876 1223.08 170.489 1221.07 169.716C1219.83 169.406 1218.51 168.556 1217.12 167.163L1196.7 138.388C1195.93 137.305 1194.46 135.526 1192.29 133.051L1189.27 130.266C1188.5 129.493 1187.88 129.106 1187.42 129.106C1186.95 129.106 1186.57 129.338 1186.26 129.802C1185.95 130.111 1185.79 130.421 1185.79 130.73V134.675C1185.64 135.913 1185.56 137.847 1185.56 140.477V147.206C1185.41 148.908 1185.33 151.229 1185.33 154.168L1188.36 152.124C1188.21 152.433 1189.46 154.983 1190.04 155.643C1190.96 155.323 1191.49 158.252 1191.03 160.573C1190.72 161.191 1183.86 169.329 1183.7 169.484C1183.55 169.639 1183.01 169.716 1182.08 169.716C1181.77 169.561 1181.46 169.484 1181.15 169.484C1181 169.484 1180.84 169.484 1180.69 169.484C1168.47 170.567 1158.33 171.108 1150.29 171.108H1137.99Z" fill="#B2651C" stroke="black"/>
<g filter="url(#filter2_n_963_14048)">
<path d="M1145.24 162.218L1136.19 159.665L1135.73 158.273C1135.57 158.273 1135.5 157.499 1135.5 155.952C1135.5 153.941 1135.42 152.317 1135.27 151.079L1135.03 142.261C1134.88 140.404 1134.8 137.465 1134.8 133.443C1134.8 129.575 1134.72 126.713 1134.57 124.856V117.895C1133.64 108.148 1133.18 98.0925 1133.18 87.7273V82.3899C1133.18 80.5335 1133.25 79.2185 1133.41 78.445V74.9641C1133.25 74.5 1133.18 73.7265 1133.18 72.6435V62.6651C1133.18 60.8086 1133.25 59.4936 1133.41 58.7201V56.3995L1133.64 55.2392V52.2225C1133.8 50.6754 1133.87 48.5869 1133.87 45.9569C1133.87 43.9458 1133.8 42.1667 1133.64 40.6196L1133.41 35.2823L1133.18 34.3541C1132.71 34.0447 1132.71 33.8126 1133.18 33.6579C1133.8 31.1826 1135.73 29.4035 1138.98 28.3206C1140.53 27.7018 1143.08 27.3924 1146.64 27.3924C1149.27 27.3924 1156.15 27.1603 1167.29 26.6962C1172.86 26.3868 1176.34 26.2321 1177.73 26.2321C1180.05 26.0774 1182.84 26 1186.09 26C1187.63 26.1547 1188.72 26.4641 1189.33 26.9282C1189.95 27.2376 1190.49 27.8565 1190.96 28.7847C1191.58 29.7129 1192.04 30.4091 1192.35 30.8732L1196.99 37.6029C1196.84 37.4482 1198.77 40.2329 1202.79 45.9569C1206.51 51.9904 1210.99 58.7974 1216.25 66.378C1217.03 67.6156 1217.95 69.008 1219.04 70.555C1220.12 72.1021 1221.28 73.8812 1222.52 75.8923V67.7703C1222.67 65.6045 1222.75 62.5104 1222.75 58.488C1222.75 53.2281 1222.91 47.3493 1223.21 40.8517C1223.21 39.614 1223.29 38.5311 1223.45 37.6029C1223.6 36.5199 1223.68 35.6691 1223.68 35.0502C1223.68 33.5032 1223.76 32.7297 1223.91 32.7297C1224.53 31.8014 1225.61 30.7959 1227.16 29.7129C1229.02 28.4753 1230.95 27.9338 1232.96 28.0885H1246.88C1249.21 28.0885 1251.14 28.1659 1252.69 28.3206H1259.65C1261.19 28.4753 1263.52 28.5526 1266.61 28.5526H1274.04C1277.13 28.5526 1279.45 29.0941 1281 30.177C1281.93 30.7959 1282.54 31.6467 1282.85 32.7297C1283.16 33.6579 1283.32 35.1276 1283.32 37.1388C1283.32 39.1499 1283.24 40.8517 1283.09 42.244C1282.93 43.7911 1282.85 45.6475 1282.85 47.8134V49.4378C1283.01 49.9019 1283.09 50.5981 1283.09 51.5263V57.5598L1282.85 84.2464V116.734C1282.85 133.443 1282.7 144.04 1282.39 148.526L1281.69 156.184C1280.92 159.742 1279.84 161.599 1278.44 161.754C1278.14 161.754 1277.67 161.831 1277.05 161.986C1276.59 162.14 1276.05 162.218 1275.43 162.218C1269.86 162.218 1265.76 162.063 1263.13 161.754H1235.98C1235.51 161.908 1234.9 161.986 1234.12 161.986C1232.27 161.986 1230.33 161.599 1228.32 160.825C1227.08 160.516 1225.77 159.665 1224.38 158.273L1203.95 129.498C1203.18 128.415 1201.71 126.636 1199.55 124.16L1196.53 121.376C1195.75 120.602 1195.14 120.215 1194.67 120.215C1194.21 120.215 1193.82 120.447 1193.51 120.911C1193.2 121.221 1193.05 121.53 1193.05 121.84V125.785C1192.89 127.022 1192.82 128.956 1192.82 131.586V138.316C1192.66 140.018 1192.58 142.338 1192.58 145.277V154.328C1192.43 154.637 1192.35 155.101 1192.35 155.72C1192.35 155.875 1192.12 157.112 1191.66 159.433C1191.35 160.052 1191.11 160.439 1190.96 160.593C1190.8 160.748 1190.26 160.825 1189.33 160.825C1189.03 160.671 1188.72 160.593 1188.41 160.593C1188.25 160.593 1188.1 160.593 1187.94 160.593C1175.72 161.676 1165.59 162.218 1157.54 162.218H1145.24Z" fill="#E9C253"/>
<path d="M1145.24 162.218L1136.19 159.665L1135.73 158.273C1135.57 158.273 1135.5 157.499 1135.5 155.952C1135.5 153.941 1135.42 152.317 1135.27 151.079L1135.03 142.261C1134.88 140.404 1134.8 137.465 1134.8 133.443C1134.8 129.575 1134.72 126.713 1134.57 124.856V117.895C1133.64 108.148 1133.18 98.0925 1133.18 87.7273V82.3899C1133.18 80.5335 1133.25 79.2185 1133.41 78.445V74.9641C1133.25 74.5 1133.18 73.7265 1133.18 72.6435V62.6651C1133.18 60.8086 1133.25 59.4936 1133.41 58.7201V56.3995L1133.64 55.2392V52.2225C1133.8 50.6754 1133.87 48.5869 1133.87 45.9569C1133.87 43.9458 1133.8 42.1667 1133.64 40.6196L1133.41 35.2823L1133.18 34.3541C1132.71 34.0447 1132.71 33.8126 1133.18 33.6579C1133.8 31.1826 1135.73 29.4035 1138.98 28.3206C1140.53 27.7018 1143.08 27.3924 1146.64 27.3924C1149.27 27.3924 1156.15 27.1603 1167.29 26.6962C1172.86 26.3868 1176.34 26.2321 1177.73 26.2321C1180.05 26.0774 1182.84 26 1186.09 26C1187.63 26.1547 1188.72 26.4641 1189.33 26.9282C1189.95 27.2376 1190.49 27.8565 1190.96 28.7847C1191.58 29.7129 1192.04 30.4091 1192.35 30.8732L1196.99 37.6029C1196.84 37.4482 1198.77 40.2329 1202.79 45.9569C1206.51 51.9904 1210.99 58.7974 1216.25 66.378C1217.03 67.6156 1217.95 69.008 1219.04 70.555C1220.12 72.1021 1221.28 73.8812 1222.52 75.8923V67.7703C1222.67 65.6045 1222.75 62.5104 1222.75 58.488C1222.75 53.2281 1222.91 47.3493 1223.21 40.8517C1223.21 39.614 1223.29 38.5311 1223.45 37.6029C1223.6 36.5199 1223.68 35.6691 1223.68 35.0502C1223.68 33.5032 1223.76 32.7297 1223.91 32.7297C1224.53 31.8014 1225.61 30.7959 1227.16 29.7129C1229.02 28.4753 1230.95 27.9338 1232.96 28.0885H1246.88C1249.21 28.0885 1251.14 28.1659 1252.69 28.3206H1259.65C1261.19 28.4753 1263.52 28.5526 1266.61 28.5526H1274.04C1277.13 28.5526 1279.45 29.0941 1281 30.177C1281.93 30.7959 1282.54 31.6467 1282.85 32.7297C1283.16 33.6579 1283.32 35.1276 1283.32 37.1388C1283.32 39.1499 1283.24 40.8517 1283.09 42.244C1282.93 43.7911 1282.85 45.6475 1282.85 47.8134V49.4378C1283.01 49.9019 1283.09 50.5981 1283.09 51.5263V57.5598L1282.85 84.2464V116.734C1282.85 133.443 1282.7 144.04 1282.39 148.526L1281.69 156.184C1280.92 159.742 1279.84 161.599 1278.44 161.754C1278.14 161.754 1277.67 161.831 1277.05 161.986C1276.59 162.14 1276.05 162.218 1275.43 162.218C1269.86 162.218 1265.76 162.063 1263.13 161.754H1235.98C1235.51 161.908 1234.9 161.986 1234.12 161.986C1232.27 161.986 1230.33 161.599 1228.32 160.825C1227.08 160.516 1225.77 159.665 1224.38 158.273L1203.95 129.498C1203.18 128.415 1201.71 126.636 1199.55 124.16L1196.53 121.376C1195.75 120.602 1195.14 120.215 1194.67 120.215C1194.21 120.215 1193.82 120.447 1193.51 120.911C1193.2 121.221 1193.05 121.53 1193.05 121.84V125.785C1192.89 127.022 1192.82 128.956 1192.82 131.586V138.316C1192.66 140.018 1192.58 142.338 1192.58 145.277V154.328C1192.43 154.637 1192.35 155.101 1192.35 155.72C1192.35 155.875 1192.12 157.112 1191.66 159.433C1191.35 160.052 1191.11 160.439 1190.96 160.593C1190.8 160.748 1190.26 160.825 1189.33 160.825C1189.03 160.671 1188.72 160.593 1188.41 160.593C1188.25 160.593 1188.1 160.593 1187.94 160.593C1175.72 161.676 1165.59 162.218 1157.54 162.218H1145.24Z" stroke="black"/>
</g>
<path d="M1025.51 180.144C1024.27 180.144 1022.57 179.99 1020.41 179.68C1019.32 179.371 1017.62 179.216 1015.3 179.216C1009.42 179.216 1002.15 177.901 993.488 175.271H991.863C990.78 175.271 989.62 174.962 988.382 174.343C988.073 174.034 987.686 173.802 987.222 173.647C986.758 173.337 986.216 172.951 985.598 172.487L980.724 169.702C976.083 167.072 971.984 163.436 968.425 158.795C964.867 153.999 962.005 148.739 959.839 143.015C955.662 132.495 953.574 121.743 953.574 110.759C953.574 98.5377 956.049 86.7801 961 75.4866C966.26 63.5743 973.299 54.1373 982.117 47.1756C991.863 39.4404 1002.69 35.5728 1014.6 35.5728C1018.32 35.5728 1021.18 35.7275 1023.19 36.0369C1023.19 35.7275 1023.42 35.5728 1023.89 35.5728H1024.58C1035.41 35.5728 1045.08 35.9595 1053.59 36.733C1060.86 37.816 1067.59 40.0592 1073.78 43.4627C1086.16 51.6621 1095.05 60.635 1100.47 70.3814C1106.19 81.2107 1109.05 93.9739 1109.05 108.671C1109.05 123.368 1105.57 137.137 1098.61 149.977L1096.29 153.69C1095.67 154.618 1095.28 155.082 1095.13 155.082L1094.43 156.243L1092.81 157.171C1086.16 167.072 1076.1 173.802 1062.64 177.36C1053.67 179.216 1041.29 180.144 1025.51 180.144ZM1029.46 162.74C1030.85 162.74 1031.93 161.889 1032.71 160.188C1034.56 157.403 1036.11 151.988 1037.35 143.944C1037.5 142.551 1037.89 139.457 1038.51 134.661C1039.13 129.865 1039.51 125.379 1039.67 121.202C1040.29 110.682 1040.6 104.184 1040.6 101.709V94.5153C1040.6 88.9459 1040.36 84.1501 1039.9 80.1278C1039.43 73.7849 1038.51 68.757 1037.11 65.044C1035.72 63.1876 1034.64 62.2594 1033.87 62.2594C1032.32 62.2594 1030.85 63.4196 1029.46 65.7402C1028.06 68.0608 1026.98 72.3152 1026.21 78.5034L1021.33 115.633V123.29C1021.8 129.788 1022.03 134.042 1022.03 136.054L1022.49 141.623L1023.19 149.049C1023.19 150.286 1023.35 151.369 1023.66 152.298L1026.21 160.884C1026.36 161.503 1026.75 161.967 1027.37 162.276C1028.14 162.585 1028.84 162.74 1029.46 162.74Z" fill="#B2651C" stroke="black"/>
<g filter="url(#filter3_n_963_14048)">
<path d="M1038.55 172.572C1037.31 172.572 1035.61 172.417 1033.44 172.108C1032.36 171.798 1030.66 171.643 1028.34 171.643C1022.46 171.643 1015.19 170.329 1006.53 167.699H1004.9C1003.82 167.699 1002.66 167.389 1001.42 166.77C1001.11 166.461 1000.72 166.229 1000.26 166.074C999.796 165.765 999.255 165.378 998.636 164.914L993.763 162.129C989.121 159.499 985.022 155.864 981.463 151.222C977.905 146.427 975.043 141.167 972.877 135.443C968.7 124.923 966.612 114.171 966.612 103.187C966.612 90.9649 969.087 79.2073 974.038 67.9139C979.298 56.0016 986.337 46.5646 995.155 39.6029C1004.9 31.8676 1015.73 28 1027.64 28C1031.36 28 1034.22 28.1547 1036.23 28.4641C1036.23 28.1547 1036.46 28 1036.93 28H1037.62C1048.45 28 1058.12 28.3868 1066.63 29.1603C1073.9 30.2432 1080.63 32.4864 1086.82 35.89C1099.19 44.0893 1108.09 53.0622 1113.5 62.8086C1119.23 73.6379 1122.09 86.4011 1122.09 101.098C1122.09 115.795 1118.61 129.564 1111.65 142.404L1109.33 146.117C1108.71 147.045 1108.32 147.51 1108.17 147.51L1107.47 148.67L1105.85 149.598C1099.19 159.499 1089.14 166.229 1075.68 169.787C1066.71 171.643 1054.33 172.572 1038.55 172.572ZM1042.49 155.167C1043.89 155.167 1044.97 154.317 1045.74 152.615C1047.6 149.83 1049.15 144.415 1050.38 136.371C1050.54 134.978 1050.93 131.884 1051.54 127.088C1052.16 122.293 1052.55 117.806 1052.71 113.629C1053.32 103.109 1053.63 96.6116 1053.63 94.1363V86.9426C1053.63 81.3732 1053.4 76.5773 1052.94 72.555C1052.47 66.2121 1051.54 61.1842 1050.15 57.4713C1048.76 55.6148 1047.68 54.6866 1046.9 54.6866C1045.36 54.6866 1043.89 55.8469 1042.49 58.1675C1041.1 60.488 1040.02 64.7424 1039.25 70.9306L1034.37 108.06V115.718C1034.84 122.215 1035.07 126.47 1035.07 128.481L1035.53 134.05L1036.23 141.476C1036.23 142.714 1036.38 143.797 1036.69 144.725L1039.25 153.311C1039.4 153.93 1039.79 154.394 1040.41 154.703C1041.18 155.013 1041.88 155.167 1042.49 155.167Z" fill="#E9C253"/>
<path d="M1038.55 172.572C1037.31 172.572 1035.61 172.417 1033.44 172.108C1032.36 171.798 1030.66 171.643 1028.34 171.643C1022.46 171.643 1015.19 170.329 1006.53 167.699H1004.9C1003.82 167.699 1002.66 167.389 1001.42 166.77C1001.11 166.461 1000.72 166.229 1000.26 166.074C999.796 165.765 999.255 165.378 998.636 164.914L993.763 162.129C989.121 159.499 985.022 155.864 981.463 151.222C977.905 146.427 975.043 141.167 972.877 135.443C968.7 124.923 966.612 114.171 966.612 103.187C966.612 90.9649 969.087 79.2073 974.038 67.9139C979.298 56.0016 986.337 46.5646 995.155 39.6029C1004.9 31.8676 1015.73 28 1027.64 28C1031.36 28 1034.22 28.1547 1036.23 28.4641C1036.23 28.1547 1036.46 28 1036.93 28H1037.62C1048.45 28 1058.12 28.3868 1066.63 29.1603C1073.9 30.2432 1080.63 32.4864 1086.82 35.89C1099.19 44.0893 1108.09 53.0622 1113.5 62.8086C1119.23 73.6379 1122.09 86.4011 1122.09 101.098C1122.09 115.795 1118.61 129.564 1111.65 142.404L1109.33 146.117C1108.71 147.045 1108.32 147.51 1108.17 147.51L1107.47 148.67L1105.85 149.598C1099.19 159.499 1089.14 166.229 1075.68 169.787C1066.71 171.643 1054.33 172.572 1038.55 172.572ZM1042.49 155.167C1043.89 155.167 1044.97 154.317 1045.74 152.615C1047.6 149.83 1049.15 144.415 1050.38 136.371C1050.54 134.978 1050.93 131.884 1051.54 127.088C1052.16 122.293 1052.55 117.806 1052.71 113.629C1053.32 103.109 1053.63 96.6116 1053.63 94.1363V86.9426C1053.63 81.3732 1053.4 76.5773 1052.94 72.555C1052.47 66.2121 1051.54 61.1842 1050.15 57.4713C1048.76 55.6148 1047.68 54.6866 1046.9 54.6866C1045.36 54.6866 1043.89 55.8469 1042.49 58.1675C1041.1 60.488 1040.02 64.7424 1039.25 70.9306L1034.37 108.06V115.718C1034.84 122.215 1035.07 126.47 1035.07 128.481L1035.53 134.05L1036.23 141.476C1036.23 142.714 1036.38 143.797 1036.69 144.725L1039.25 153.311C1039.4 153.93 1039.79 154.394 1040.41 154.703C1041.18 155.013 1041.88 155.167 1042.49 155.167Z" stroke="black"/>
</g>
<path d="M428.216 168.319C425.277 168.319 424.116 165.689 424.735 160.429C424.735 158.572 425.122 156.484 425.895 154.163C425.895 153.08 425.973 152.229 426.128 151.611C426.282 150.837 426.36 150.218 426.36 149.754C429.918 132.891 433.863 116.261 438.194 99.8618L453.974 38.1346C453.974 37.8251 454.206 37.4384 454.671 36.9743C455.135 36.5102 455.599 36.1234 456.063 35.814L468.803 28.186C470.659 28.186 472.129 27.954 473.212 27.4899C474.14 27.3352 475.765 27.2578 478.085 27.2578C481.798 27.2578 473.467 34.9631 475.324 35.1178C478.108 35.5819 480.97 35.814 483.91 35.814L495.977 35.5819C497.214 35.2725 498.684 35.1178 500.386 35.1178L510.596 34.6537H518.254C521.194 34.6537 524.056 34.731 526.84 34.8858H533.338C534.885 35.0405 537.128 35.1178 540.068 35.1178H548.886C549.35 35.1178 549.814 35.1952 550.278 35.3499C550.742 35.5046 551.129 35.6593 551.438 35.814C552.057 36.1234 552.831 36.2781 553.759 36.2781H555.848C556.93 37.0516 557.472 37.8251 557.472 38.5987L573.948 99.8618C579.053 119.509 583.076 136.14 586.015 149.754C586.015 150.528 586.247 151.997 586.711 154.163C587.33 157.257 591.555 152.603 591.555 154.459C591.555 155.542 599.787 157.345 599.478 159.201C598.704 160.748 585.319 168.319 583.926 168.319H581.374C579.363 168.319 577.816 168.241 576.733 168.087H562.809C561.726 168.087 561.108 168.009 560.953 167.855H548.19L547.958 167.39C547.648 167.081 547.184 166.926 546.565 166.926L545.869 167.39C545.869 167.7 545.714 167.855 545.405 167.855H543.084C542.311 167.545 540.919 167.39 538.907 167.39C535.194 167.081 532.1 166.926 529.625 166.926C527.923 163.368 525.912 155.556 523.592 143.489C520.343 143.953 516.63 144.185 512.453 144.185H500.618C499.999 146.505 499.612 148.439 499.458 149.986C499.303 150.76 508.326 154.352 507.243 158.839C506.16 163.325 498.5 165.379 497.572 166.926L493.192 167.39C492.728 167.545 492.341 167.7 492.032 167.855C491.722 167.855 491.568 167.855 491.568 167.855H491.104C490.175 167.855 489.557 167.7 489.247 167.39C488.628 167.081 488.242 166.926 488.087 166.926L479.269 167.39H472.771C471.998 167.545 471.379 167.7 470.915 167.855C470.45 167.855 470.141 167.855 469.986 167.855H449.565C448.173 168.009 445.311 168.087 440.979 168.087H435.41C434.482 168.241 433.012 168.319 431.001 168.319H428.216ZM521.503 118.658C520.575 113.398 520.033 110.304 519.879 109.376L518.022 98.2374C517.713 96.0715 517.403 94.1377 517.094 92.436C516.785 90.5795 516.553 88.8778 516.398 87.3307C515.934 85.4743 515.547 83.7725 515.238 82.2255C515.083 80.5237 514.851 78.9767 514.541 77.5843C514.387 76.6561 514.232 75.4958 514.077 74.1035C513.923 72.5564 513.69 71.4735 513.381 70.8546L512.917 68.07C512.917 67.4511 512.762 66.9097 512.453 66.4456L512.221 65.0532C511.911 65.9814 511.757 66.4456 511.757 66.4456V68.07C511.757 68.2247 511.679 68.5341 511.525 68.9982C511.37 69.3076 511.215 69.9264 511.06 70.8546C510.906 71.6282 510.751 72.6338 510.596 73.8714C510.442 74.9543 510.21 76.192 509.9 77.5843L508.276 87.0987L506.419 97.7733L505.723 102.879C505.414 104.116 505.104 106.127 504.795 108.912C503.403 115.874 502.784 119.045 502.938 118.426H513.149C513.304 118.272 513.536 118.117 513.845 117.962C514.155 117.653 514.387 117.498 514.541 117.498H515.238C516.011 117.498 516.63 117.576 517.094 117.73C517.713 117.885 518.254 118.04 518.718 118.194C519.647 118.504 520.575 118.658 521.503 118.658Z" fill="#B2651C" stroke="black"/>
<g filter="url(#filter4_n_963_14048)">
<path d="M440.59 160.665C437.651 160.665 436.49 158.035 437.109 152.775C437.109 150.919 437.496 148.83 438.269 146.51C438.269 145.427 438.347 144.576 438.502 143.957C438.656 143.183 438.734 142.565 438.734 142.1C442.292 125.238 446.237 108.607 450.569 92.2081L466.348 30.4809C466.348 30.1715 466.58 29.7847 467.045 29.3206C467.509 28.8565 467.973 28.4697 468.437 28.1603H470.061C471.918 28.1603 473.387 27.9282 474.47 27.4641C475.399 27.3094 477.023 27.2321 479.344 27.2321C483.057 27.2321 485.841 27.3094 487.698 27.4641C490.482 27.9282 493.344 28.1603 496.284 28.1603L508.351 27.9282C509.588 27.6188 511.058 27.4641 512.76 27.4641L522.97 27H530.628C533.568 27 536.43 27.0774 539.214 27.2321H545.712C547.259 27.3868 549.502 27.4641 552.442 27.4641H561.26C561.724 27.4641 562.188 27.5415 562.652 27.6962C563.116 27.8509 563.503 28.0056 563.812 28.1603C564.431 28.4697 565.205 28.6244 566.133 28.6244H568.222C569.305 29.3979 569.846 30.1715 569.846 30.945L586.322 92.2081C591.427 111.856 595.45 128.486 598.389 142.1C598.389 142.874 598.621 144.344 599.085 146.51C599.704 149.604 600.013 152.079 600.013 153.935C600.013 155.018 599.859 156.488 599.549 158.344C598.776 159.892 597.693 160.665 596.301 160.665H593.748C591.737 160.665 590.19 160.588 589.107 160.433H575.183C574.1 160.433 573.482 160.356 573.327 160.201H560.564L560.332 159.737C560.022 159.427 559.558 159.273 558.939 159.273L558.243 159.737C558.243 160.046 558.088 160.201 557.779 160.201H555.458C554.685 159.892 553.293 159.737 551.281 159.737C547.568 159.427 544.474 159.273 541.999 159.273C540.297 155.714 538.286 147.902 535.966 135.835C532.717 136.299 529.004 136.531 524.827 136.531H512.992C512.373 138.852 511.986 140.785 511.832 142.333C511.677 143.106 511.058 145.736 509.975 150.222C508.892 154.709 507.887 157.726 506.958 159.273L505.566 159.737C505.102 159.892 504.715 160.046 504.406 160.201C504.096 160.201 503.942 160.201 503.942 160.201H503.478C502.549 160.201 501.931 160.046 501.621 159.737C501.002 159.427 500.616 159.273 500.461 159.273L491.643 159.737H485.145C484.372 159.892 483.753 160.046 483.289 160.201C482.824 160.201 482.515 160.201 482.36 160.201H461.939C460.547 160.356 457.685 160.433 453.353 160.433H447.784C446.856 160.588 445.386 160.665 443.375 160.665H440.59ZM533.877 111.005C532.949 105.745 532.407 102.651 532.253 101.722L530.396 90.5837C530.087 88.4178 529.777 86.484 529.468 84.7823C529.159 82.9258 528.927 81.2241 528.772 79.677C528.308 77.8206 527.921 76.1188 527.612 74.5718C527.457 72.87 527.225 71.323 526.915 69.9306C526.761 69.0024 526.606 67.8421 526.451 66.4497C526.297 64.9027 526.064 63.8198 525.755 63.2009L525.291 60.4163C525.291 59.7974 525.136 59.256 524.827 58.7919L524.595 57.3995C524.285 58.3277 524.131 58.7919 524.131 58.7919V60.4163C524.131 60.571 524.053 60.8804 523.899 61.3445C523.744 61.6539 523.589 62.2727 523.435 63.2009C523.28 63.9745 523.125 64.9801 522.97 66.2177C522.816 67.3006 522.584 68.5383 522.274 69.9306L520.65 79.445L518.793 90.1196L518.097 95.2249C517.788 96.4625 517.478 98.4737 517.169 101.258C515.777 108.22 515.158 111.392 515.313 110.773H525.523C525.678 110.618 525.91 110.463 526.219 110.309C526.529 109.999 526.761 109.844 526.915 109.844H527.612C528.385 109.844 529.004 109.922 529.468 110.077C530.087 110.231 530.628 110.386 531.092 110.541C532.021 110.85 532.949 111.005 533.877 111.005Z" fill="#E9C253"/>
<path d="M440.59 160.665C437.651 160.665 436.49 158.035 437.109 152.775C437.109 150.919 437.496 148.83 438.269 146.51C438.269 145.427 438.347 144.576 438.502 143.957C438.656 143.183 438.734 142.565 438.734 142.1C442.292 125.238 446.237 108.607 450.569 92.2081L466.348 30.4809C466.348 30.1715 466.58 29.7847 467.045 29.3206C467.509 28.8565 467.973 28.4697 468.437 28.1603H470.061C471.918 28.1603 473.387 27.9282 474.47 27.4641C475.399 27.3094 477.023 27.2321 479.344 27.2321C483.057 27.2321 485.841 27.3094 487.698 27.4641C490.482 27.9282 493.344 28.1603 496.284 28.1603L508.351 27.9282C509.588 27.6188 511.058 27.4641 512.76 27.4641L522.97 27H530.628C533.568 27 536.43 27.0774 539.214 27.2321H545.712C547.259 27.3868 549.502 27.4641 552.442 27.4641H561.26C561.724 27.4641 562.188 27.5415 562.652 27.6962C563.116 27.8509 563.503 28.0056 563.812 28.1603C564.431 28.4697 565.205 28.6244 566.133 28.6244H568.222C569.305 29.3979 569.846 30.1715 569.846 30.945L586.322 92.2081C591.427 111.856 595.45 128.486 598.389 142.1C598.389 142.874 598.621 144.344 599.085 146.51C599.704 149.604 600.013 152.079 600.013 153.935C600.013 155.018 599.859 156.488 599.549 158.344C598.776 159.892 597.693 160.665 596.301 160.665H593.748C591.737 160.665 590.19 160.588 589.107 160.433H575.183C574.1 160.433 573.482 160.356 573.327 160.201H560.564L560.332 159.737C560.022 159.427 559.558 159.273 558.939 159.273L558.243 159.737C558.243 160.046 558.088 160.201 557.779 160.201H555.458C554.685 159.892 553.293 159.737 551.281 159.737C547.568 159.427 544.474 159.273 541.999 159.273C540.297 155.714 538.286 147.902 535.966 135.835C532.717 136.299 529.004 136.531 524.827 136.531H512.992C512.373 138.852 511.986 140.785 511.832 142.333C511.677 143.106 511.058 145.736 509.975 150.222C508.892 154.709 507.887 157.726 506.958 159.273L505.566 159.737C505.102 159.892 504.715 160.046 504.406 160.201C504.096 160.201 503.942 160.201 503.942 160.201H503.478C502.549 160.201 501.931 160.046 501.621 159.737C501.002 159.427 500.616 159.273 500.461 159.273L491.643 159.737H485.145C484.372 159.892 483.753 160.046 483.289 160.201C482.824 160.201 482.515 160.201 482.36 160.201H461.939C460.547 160.356 457.685 160.433 453.353 160.433H447.784C446.856 160.588 445.386 160.665 443.375 160.665H440.59ZM533.877 111.005C532.949 105.745 532.407 102.651 532.253 101.722L530.396 90.5837C530.087 88.4178 529.777 86.484 529.468 84.7823C529.159 82.9258 528.927 81.2241 528.772 79.677C528.308 77.8206 527.921 76.1188 527.612 74.5718C527.457 72.87 527.225 71.323 526.915 69.9306C526.761 69.0024 526.606 67.8421 526.451 66.4497C526.297 64.9027 526.064 63.8198 525.755 63.2009L525.291 60.4163C525.291 59.7974 525.136 59.256 524.827 58.7919L524.595 57.3995C524.285 58.3277 524.131 58.7919 524.131 58.7919V60.4163C524.131 60.571 524.053 60.8804 523.899 61.3445C523.744 61.6539 523.589 62.2727 523.435 63.2009C523.28 63.9745 523.125 64.9801 522.97 66.2177C522.816 67.3006 522.584 68.5383 522.274 69.9306L520.65 79.445L518.793 90.1196L518.097 95.2249C517.788 96.4625 517.478 98.4737 517.169 101.258C515.777 108.22 515.158 111.392 515.313 110.773H525.523C525.678 110.618 525.91 110.463 526.219 110.309C526.529 109.999 526.761 109.844 526.915 109.844H527.612C528.385 109.844 529.004 109.922 529.468 110.077C530.087 110.231 530.628 110.386 531.092 110.541C532.021 110.85 532.949 111.005 533.877 111.005Z" stroke="black"/>
</g>
<path d="M449.791 125.203C447.385 134.148 442.899 152.182 444.2 152.751C445.501 153.32 447.521 152.988 448.368 152.751M453.857 152.751C455.321 152.751 457.736 152.696 458.549 152.967" stroke="black"/>
<path d="M295.762 170C287.243 170 280.888 169.865 276.696 169.594C270.206 169.324 264.526 168.513 259.659 167.16C259.118 167.16 258.577 166.349 258.036 164.726C257.63 163.509 257.427 162.563 257.427 161.887L253.574 88.0571V84.0005C253.574 83.054 253.641 81.3637 253.777 78.9298C253.912 76.4958 253.979 73.2506 253.979 69.194L254.385 58.6469C254.385 55.9425 254.453 53.9142 254.588 52.562C254.588 48.5055 254.723 44.5841 254.994 40.798C254.994 39.581 254.994 38.7697 254.994 38.364C255.129 37.8231 255.196 37.4851 255.196 37.3499C255.467 37.2146 255.94 36.8766 256.616 36.3357C257.427 35.6596 258.104 35.1187 258.644 34.7131C259.997 33.4961 266.191 29.3726 268.76 29.3726L279.536 32.8876C280.888 33.0228 283.39 33.0905 287.041 33.0905C290.962 33.0905 294.14 33.1581 296.573 33.2933H316.451C319.966 33.2933 322.333 33.8342 323.55 34.9159C325.172 36.1329 325.984 38.4992 325.984 42.0149V44.0432C325.984 44.5841 325.916 45.125 325.781 45.6658C325.646 46.2067 325.578 46.7476 325.578 47.2885L325.172 50.5337L324.97 52.9677C324.97 53.5086 325.105 54.0494 325.375 54.5903C325.51 55.1312 325.578 55.8073 325.578 56.6186C325.578 60.2695 325.51 62.9063 325.375 64.5289L325.172 72.8449H330.446C332.204 73.2506 334.097 73.4534 336.125 73.4534C338.829 73.7238 340.723 73.8591 341.804 73.8591C343.021 74.1295 344.847 74.2647 347.281 74.2647L347.484 60.4724C347.619 59.2554 347.686 57.4975 347.686 55.1988L347.889 46.8828V45.2602C347.889 43.0967 347.957 41.2036 348.092 39.581C348.227 37.8231 348.498 36.6062 348.903 35.9301C349.715 34.8483 356.34 30.6836 357.422 30.6836C358.233 30.4132 354.447 33.9018 357.422 33.9018L362.899 33.6989C366.82 33.6989 370.065 33.5637 372.634 33.2933H384.196C389.604 33.2933 393.526 33.2257 395.96 33.0905C400.692 33.0905 403.938 33.0228 405.695 32.8876H411.172C414.417 32.8876 416.581 33.2933 417.662 34.1046C418.474 34.6455 419.015 35.4568 419.285 36.5386C419.555 37.4851 419.691 38.9049 419.691 40.798C419.691 46.0715 419.555 53.1705 419.285 62.095C418.744 70.749 418.474 77.7128 418.474 82.9864C418.474 83.7977 418.609 84.4738 418.879 85.0147C418.879 85.5555 418.947 86.0288 419.082 86.4345C419.217 86.7049 419.285 86.9077 419.285 87.043L420.705 162.292C420.705 162.969 418.295 165.818 417.348 167.035C416.131 168.252 413.487 167.769 412.541 167.769L353.771 168.783C353.366 168.783 352.96 168.445 352.554 167.769C352.149 167.093 351.811 166.214 351.54 165.132C351.405 164.456 351.202 163.577 350.932 162.495C350.796 161.278 350.661 159.791 350.526 158.033L348.295 120.51H346.875C343.224 120.51 340.317 120.442 338.153 120.307C333.015 120.036 329.837 119.901 328.62 119.901H326.998C325.781 119.901 325.172 121.051 325.172 123.349C325.172 140.117 325.105 150.799 324.97 155.396C324.97 156.478 331.255 153.487 330.818 162.665C330.567 167.929 322.941 168.107 320.913 168.783L317.871 168.986C307.323 169.527 299.954 169.865 295.762 170Z" fill="#B2651C" stroke="black" stroke-width="0.874047"/>
<g filter="url(#filter5_n_963_14048)">
<path d="M302.645 166.048C294.127 166.048 287.771 165.913 283.58 165.642C277.089 165.372 271.41 164.56 266.542 163.208C266.001 163.208 265.46 162.397 264.919 160.774C264.514 159.557 264.311 158.611 264.311 157.935L260.457 84.105V80.0484C260.457 79.1019 260.525 77.4117 260.66 74.9777C260.795 72.5438 260.863 69.2985 260.863 65.2419L261.268 54.6948C261.268 51.9904 261.336 49.9621 261.471 48.61C261.471 44.5534 261.606 40.632 261.877 36.8459C261.877 35.6289 261.877 34.8176 261.877 34.4119C262.012 33.8711 262.08 33.533 262.08 33.3978C262.35 33.2626 262.823 32.9245 263.499 32.3836C264.311 31.7075 264.987 31.1667 265.528 30.761C266.88 29.544 268.841 28.9355 271.41 28.9355H286.419C287.771 29.0708 290.273 29.1384 293.924 29.1384C297.845 29.1384 301.023 29.206 303.457 29.3412H323.334C326.85 29.3412 329.216 29.8821 330.433 30.9638C332.056 32.1808 332.867 34.5471 332.867 38.0629V40.0911C332.867 40.632 332.799 41.1729 332.664 41.7138C332.529 42.2546 332.461 42.7955 332.461 43.3364L332.056 46.5817L331.853 49.0156C331.853 49.5565 331.988 50.0974 332.258 50.6382C332.394 51.1791 332.461 51.8552 332.461 52.6665C332.461 56.3174 332.394 58.9542 332.258 60.5769L332.056 68.8928H337.329C339.087 69.2985 340.98 69.5013 343.008 69.5013C345.713 69.7718 347.606 69.907 348.688 69.907C349.905 70.1774 351.73 70.3126 354.164 70.3126L354.367 56.5203C354.502 55.3033 354.57 53.5455 354.57 51.2467L354.772 42.9307V41.3081C354.772 39.1446 354.84 37.2515 354.975 35.6289C355.111 33.871 355.381 32.6541 355.787 31.978C356.598 30.8962 357.544 30.3553 358.626 30.3553C359.438 30.0849 361.331 29.9497 364.305 29.9497L369.782 29.7469C373.703 29.7469 376.948 29.6116 379.518 29.3412H391.079C396.488 29.3412 400.409 29.2736 402.843 29.1384C407.576 29.1384 410.821 29.0708 412.579 28.9355H418.055C421.3 28.9355 423.464 29.3412 424.546 30.1525C425.357 30.6934 425.898 31.5047 426.168 32.5865C426.439 33.533 426.574 34.9528 426.574 36.8459C426.574 42.1194 426.439 49.2184 426.168 58.1429C425.627 66.7969 425.357 73.7607 425.357 79.0343C425.357 79.8456 425.492 80.5217 425.763 81.0626C425.763 81.6035 425.83 82.0767 425.965 82.4824C426.101 82.7528 426.168 82.9556 426.168 83.0909L421.098 160.166C421.098 160.842 420.624 161.788 419.678 163.005C418.461 164.222 417.379 164.831 416.432 164.831H360.655C360.249 164.831 359.843 164.493 359.438 163.817C359.032 163.141 358.694 162.262 358.423 161.18C358.288 160.504 358.085 159.625 357.815 158.543C357.68 157.326 357.544 155.839 357.409 154.081L355.178 116.558H353.758C350.107 116.558 347.2 116.49 345.037 116.355C339.898 116.084 336.721 115.949 335.504 115.949H333.881C332.664 115.949 332.056 117.099 332.056 119.397C332.056 136.164 331.988 146.847 331.853 151.444C331.853 152.526 331.65 155.095 331.244 159.152C330.974 162.262 329.825 164.155 327.796 164.831L324.754 165.034C314.207 165.575 306.837 165.913 302.645 166.048Z" fill="#E9C253"/>
<path d="M302.645 166.048C294.127 166.048 287.771 165.913 283.58 165.642C277.089 165.372 271.41 164.56 266.542 163.208C266.001 163.208 265.46 162.397 264.919 160.774C264.514 159.557 264.311 158.611 264.311 157.935L260.457 84.105V80.0484C260.457 79.1019 260.525 77.4117 260.66 74.9777C260.795 72.5438 260.863 69.2985 260.863 65.2419L261.268 54.6948C261.268 51.9904 261.336 49.9621 261.471 48.61C261.471 44.5534 261.606 40.632 261.877 36.8459C261.877 35.6289 261.877 34.8176 261.877 34.4119C262.012 33.8711 262.08 33.533 262.08 33.3978C262.35 33.2626 262.823 32.9245 263.499 32.3836C264.311 31.7075 264.987 31.1667 265.528 30.761C266.88 29.544 268.841 28.9355 271.41 28.9355H286.419C287.771 29.0708 290.273 29.1384 293.924 29.1384C297.845 29.1384 301.023 29.206 303.457 29.3412H323.334C326.85 29.3412 329.216 29.8821 330.433 30.9638C332.056 32.1808 332.867 34.5471 332.867 38.0629V40.0911C332.867 40.632 332.799 41.1729 332.664 41.7138C332.529 42.2546 332.461 42.7955 332.461 43.3364L332.056 46.5817L331.853 49.0156C331.853 49.5565 331.988 50.0974 332.258 50.6382C332.394 51.1791 332.461 51.8552 332.461 52.6665C332.461 56.3174 332.394 58.9542 332.258 60.5769L332.056 68.8928H337.329C339.087 69.2985 340.98 69.5013 343.008 69.5013C345.713 69.7718 347.606 69.907 348.688 69.907C349.905 70.1774 351.73 70.3126 354.164 70.3126L354.367 56.5203C354.502 55.3033 354.57 53.5455 354.57 51.2467L354.772 42.9307V41.3081C354.772 39.1446 354.84 37.2515 354.975 35.6289C355.111 33.871 355.381 32.6541 355.787 31.978C356.598 30.8962 357.544 30.3553 358.626 30.3553C359.438 30.0849 361.331 29.9497 364.305 29.9497L369.782 29.7469C373.703 29.7469 376.948 29.6116 379.518 29.3412H391.079C396.488 29.3412 400.409 29.2736 402.843 29.1384C407.576 29.1384 410.821 29.0708 412.579 28.9355H418.055C421.3 28.9355 423.464 29.3412 424.546 30.1525C425.357 30.6934 425.898 31.5047 426.168 32.5865C426.439 33.533 426.574 34.9528 426.574 36.8459C426.574 42.1194 426.439 49.2184 426.168 58.1429C425.627 66.7969 425.357 73.7607 425.357 79.0343C425.357 79.8456 425.492 80.5217 425.763 81.0626C425.763 81.6035 425.83 82.0767 425.965 82.4824C426.101 82.7528 426.168 82.9556 426.168 83.0909L421.098 160.166C421.098 160.842 420.624 161.788 419.678 163.005C418.461 164.222 417.379 164.831 416.432 164.831H360.655C360.249 164.831 359.843 164.493 359.438 163.817C359.032 163.141 358.694 162.262 358.423 161.18C358.288 160.504 358.085 159.625 357.815 158.543C357.68 157.326 357.544 155.839 357.409 154.081L355.178 116.558H353.758C350.107 116.558 347.2 116.49 345.037 116.355C339.898 116.084 336.721 115.949 335.504 115.949H333.881C332.664 115.949 332.056 117.099 332.056 119.397C332.056 136.164 331.988 146.847 331.853 151.444C331.853 152.526 331.65 155.095 331.244 159.152C330.974 162.262 329.825 164.155 327.796 164.831L324.754 165.034C314.207 165.575 306.837 165.913 302.645 166.048Z" stroke="black" stroke-width="0.874047"/>
</g>
<path d="M75.9591 173.263C70.454 173.263 66.1919 172.996 63.1729 172.464C58.9108 172.108 55.5367 171.931 53.0505 171.931C51.6298 171.931 49.6764 172.108 47.1901 172.464C45.947 172.819 43.9048 172.996 41.0634 172.996C40.3531 172.996 39.6427 172.908 38.9324 172.73C38.3996 172.552 37.8669 172.464 37.3341 172.464C36.091 171.931 34.9367 171.665 33.8712 171.665L31.4738 171.931C29.8755 171.753 29.0763 170.865 29.0763 169.267L13.8927 98.6765C9.45305 78.4317 5.72373 59.9627 2.70477 43.2696C1.63925 41.6713 1.0177 39.6291 0.84011 37.1429C0.662524 36.2549 0.57373 34.923 0.57373 33.1472V29.4179C0.57373 27.2868 0.928903 25.5998 1.63925 24.3567C2.34959 23.1135 11.3177 16 12.5608 16V22.492C13.8039 22.6696 15.7574 22.7584 18.4212 22.7584L28.5436 23.0248H39.9979C40.3531 23.2023 40.7082 23.2911 41.0634 23.2911C41.4186 23.2911 41.685 23.2911 41.8626 23.2911L42.1289 24.0903C42.8393 24.0903 43.2832 23.8239 43.4608 23.2911L45.3255 23.0248H46.1246C46.3022 23.0248 46.5686 23.0248 46.9238 23.0248C47.2789 23.0248 47.6341 23.1136 47.9893 23.2911C49.2324 23.2911 50.6531 23.3799 52.2514 23.5575C53.8496 23.7351 55.7143 23.8239 57.8453 23.8239C59.0884 24.0015 60.8643 24.0903 63.1729 24.0903C64.0608 26.2213 65.4815 32.1704 67.435 41.9377C68.1453 44.6015 69.0333 49.3075 70.0988 56.0558L73.029 71.7722L73.2953 73.9032C73.4729 74.2584 73.7393 75.7679 74.0945 78.4317L75.16 84.0257L75.9591 89.6196C76.3143 90.6852 76.4919 91.5731 76.4919 92.2834C76.6695 92.8162 76.7583 93.349 76.7583 93.8817C76.7583 94.4145 76.7583 94.8584 76.7583 95.2136C76.9359 95.3912 77.0246 95.5688 77.0246 95.7464V96.5455C77.2022 96.9007 77.291 97.3446 77.291 97.8774C77.6462 97.8774 77.8238 98.3214 77.8238 99.2093L78.0902 97.8774C78.0902 97.1671 78.2677 96.4567 78.6229 95.7464C78.6229 95.2136 78.8005 94.5921 79.1557 93.8817C79.1557 93.1714 79.3333 91.7507 79.6884 89.6196L80.754 84.0257C81.1091 81.5395 81.4643 79.6748 81.8195 78.4317C81.8195 76.8334 81.9971 75.3239 82.3522 73.9032C82.3522 73.1929 82.3522 72.7489 82.3522 72.5713C82.5298 72.2162 82.6186 71.9498 82.6186 71.7722L85.8152 56.0558L87.1471 49.1299C88.3902 41.1386 89.5445 35.1006 90.61 31.0161C90.9652 29.4179 91.7643 27.1092 93.0074 24.0903L102.064 18.2958V23.8239C102.064 23.4687 102.331 23.2023 102.863 23.0248C103.396 22.6696 104.018 22.492 104.728 22.492H115.117L127.637 22.7584H128.436C128.436 22.5808 128.525 22.492 128.702 22.492C129.413 22.492 129.857 22.5808 130.034 22.7584L130.567 23.0248H144.419L146.55 23.2911C146.55 23.4687 146.638 23.6463 146.816 23.8239C146.994 23.8239 147.082 23.9127 147.082 24.0903L148.414 23.2911C148.414 23.2911 148.503 23.2911 148.681 23.2911C149.036 23.1136 149.391 23.0248 149.746 23.0248H150.545C150.723 23.0248 150.989 23.1136 151.345 23.2911C151.7 23.2911 152.232 23.2911 152.943 23.2911C154.363 23.8239 155.518 24.0903 156.406 24.0903C157.826 26.9317 159.247 32.2592 160.668 40.0731C161.378 42.7368 162.266 46.9101 163.332 52.5929L166.262 67.2438L166.528 69.9076C166.706 70.4403 166.883 71.3282 167.061 72.5713C167.239 73.8144 167.327 74.7024 167.327 75.2351C167.505 76.3007 167.682 77.6326 167.86 79.2308C168.215 80.6515 168.393 81.8946 168.393 82.9601L169.725 89.886C169.725 91.6619 169.902 93.4377 170.257 95.2136L170.524 97.8774C170.524 98.7653 170.701 99.4757 171.057 100.008V101.34L171.323 100.008C171.323 99.2981 171.501 98.5877 171.856 97.8774C171.856 97.6998 171.856 97.4334 171.856 97.0783C172.033 96.5455 172.211 95.9239 172.389 95.2136L172.921 89.886L173.987 82.9601C174.697 79.4084 175.052 76.8334 175.052 75.2351L175.851 69.9076C176.207 69.0196 176.384 68.1317 176.384 67.2438C177.45 60.8506 178.338 55.967 179.048 52.5929C180.824 42.4705 182.422 34.923 183.843 29.9506C184.198 28.7075 184.642 27.5532 185.175 26.4877C185.707 25.2446 186.063 24.4454 186.24 24.0903C188.371 24.0903 193.33 18.2546 195.461 17.7219C197.059 17.7219 195.475 23.2023 196.363 23.0248H197.162L197.695 23.2911V24.0903C198.938 24.0903 199.648 23.8239 199.826 23.2911C199.826 23.2911 199.914 23.2911 200.092 23.2911C200.27 23.2911 200.358 23.2023 200.358 23.0248H213.677L223.533 22.7584C226.375 22.7584 228.417 22.6696 229.66 22.492H237.918C240.404 22.492 241.647 24.8006 241.647 29.4179C241.114 30.8386 240.67 32.348 240.315 33.9463C240.138 35.5446 239.96 36.6989 239.783 37.4092C239.605 39.1851 239.516 41.1386 239.516 43.2696C235.609 61.3834 230.548 82.0722 224.333 105.336L217.271 162.932C217.271 168.097 208.662 171.665 206.485 170.865C206.308 171.043 206.219 171.309 206.219 171.665C206.219 171.842 206.219 171.931 206.219 171.931L204.354 171.665C203.289 171.665 202.401 171.931 201.69 172.464C201.335 172.464 200.891 172.552 200.358 172.73C199.826 172.908 199.382 172.996 199.026 172.996C196.363 172.996 194.32 172.819 192.9 172.464C190.414 172.108 188.46 171.931 187.039 171.931C186.329 172.286 185.707 172.464 185.175 172.464C183.399 172.996 181.001 173.263 177.982 173.263H173.72C168.57 173.263 164.397 172.996 161.201 172.464C157.294 172.108 153.92 171.931 151.078 171.931C150.368 171.931 149.125 172.108 147.349 172.464C146.461 172.819 145.218 172.996 143.62 172.996C143.087 172.996 142.554 172.908 142.021 172.73C141.666 172.552 141.222 172.464 140.689 172.464C139.979 171.931 139.091 171.665 138.026 171.665L135.895 171.931C134.474 171.753 133.763 170.865 133.763 169.267L119.113 95.2136L111.09 165.801C109.847 166.157 102.064 170.155 102.064 170.865C101.887 171.043 101.798 171.309 101.798 171.665C101.798 171.842 101.798 171.931 101.798 171.931L99.6669 171.665C99.1342 171.665 98.6902 171.931 98.335 172.464C97.9798 172.464 97.7135 172.552 97.5359 172.73C97.3583 172.908 97.0919 172.996 96.7367 172.996C93.3626 172.996 91.054 172.819 89.8109 172.464C86.6143 172.108 84.0393 171.931 82.0859 171.931C82.0859 172.641 81.3755 172.996 79.9548 172.996C79.4221 173.174 78.0902 173.263 75.9591 173.263Z" fill="#B2651C" stroke="black" stroke-width="1.1479"/>
<g filter="url(#filter6_n_963_14048)">
<path d="M84.8859 166.771C79.3807 166.771 75.1186 166.504 72.0997 165.972C67.8376 165.617 64.4635 165.439 61.9772 165.439C60.5566 165.439 58.6031 165.617 56.1169 165.972C54.8738 166.327 52.8316 166.504 49.9902 166.504C49.2798 166.504 48.5695 166.416 47.8591 166.238C47.3264 166.06 46.7936 165.972 46.2609 165.972C45.0178 165.439 43.8634 165.173 42.7979 165.173L40.4005 165.439C38.8022 165.261 38.0031 164.373 38.0031 162.775L22.8195 92.1846C18.3798 71.9397 14.6505 53.4707 11.6315 36.7776C10.566 35.1793 9.94445 33.1371 9.76687 30.6509C9.58928 29.7629 9.50049 28.431 9.50049 26.6552V22.9259C9.50049 20.7948 9.85566 19.1078 10.566 17.8647C11.2764 16.6216 12.2531 16 13.4962 16H21.4876C22.7307 16.1776 24.6841 16.2664 27.3479 16.2664L37.4703 16.5328H48.9247C49.2798 16.7104 49.635 16.7991 49.9902 16.7991C50.3453 16.7991 50.6117 16.7991 50.7893 16.7991L51.0557 17.5983C51.766 17.5983 52.21 17.3319 52.3876 16.7991L54.2522 16.5328H55.0514C55.229 16.5328 55.4954 16.5328 55.8505 16.5328C56.2057 16.5328 56.5609 16.6216 56.916 16.7991C58.1591 16.7991 59.5798 16.8879 61.1781 17.0655C62.7764 17.2431 64.641 17.3319 66.7721 17.3319C68.0152 17.5095 69.7911 17.5983 72.0997 17.5983C72.9876 19.7293 74.4083 25.6785 76.3617 35.4457C77.0721 38.1095 77.96 42.8155 79.0255 49.5638L81.9557 65.2802L82.2221 67.4113C82.3997 67.7664 82.6661 69.2759 83.0212 71.9397L84.0867 77.5337L84.8859 83.1276C85.2411 84.1932 85.4186 85.0811 85.4186 85.7914C85.5962 86.3242 85.685 86.857 85.685 87.3897C85.685 87.9225 85.685 88.3664 85.685 88.7216C85.8626 88.8992 85.9514 89.0768 85.9514 89.2544V90.0535C86.129 90.4087 86.2178 90.8526 86.2178 91.3854C86.573 91.3854 86.7505 91.8294 86.7505 92.7173L87.0169 91.3854C87.0169 90.6751 87.1945 89.9647 87.5497 89.2544C87.5497 88.7216 87.7273 88.1001 88.0824 87.3897C88.0824 86.6794 88.26 85.2587 88.6152 83.1276L89.6807 77.5337C90.0359 75.0475 90.3911 73.1828 90.7462 71.9397C90.7462 70.3414 90.9238 68.8319 91.279 67.4113C91.279 66.7009 91.279 66.2569 91.279 66.0794C91.4566 65.7242 91.5454 65.4578 91.5454 65.2802L94.7419 49.5638L96.0738 42.638C97.3169 34.6466 98.4712 28.6086 99.5368 24.5241C99.8919 22.9259 100.691 20.6172 101.934 17.5983H106.196L110.991 17.3319C110.991 16.9767 111.257 16.7104 111.79 16.5328C112.323 16.1776 112.945 16 113.655 16H124.044L136.564 16.2664H137.363C137.363 16.0888 137.451 16 137.629 16C138.339 16 138.783 16.0888 138.961 16.2664L139.494 16.5328H153.345L155.476 16.7991C155.476 16.9767 155.565 17.1543 155.743 17.3319C155.92 17.3319 156.009 17.4207 156.009 17.5983L157.341 16.7991C157.341 16.7991 157.43 16.7991 157.607 16.7991C157.963 16.6216 158.318 16.5328 158.673 16.5328H159.472C159.65 16.5328 159.916 16.6216 160.271 16.7991C160.626 16.7991 161.159 16.7991 161.87 16.7991C163.29 17.3319 164.445 17.5983 165.332 17.5983C166.753 20.4397 168.174 25.7673 169.595 33.5811C170.305 36.2449 171.193 40.4181 172.258 46.1009L175.189 60.7518L175.455 63.4156C175.633 63.9483 175.81 64.8362 175.988 66.0794C176.165 67.3225 176.254 68.2104 176.254 68.7431C176.432 69.8087 176.609 71.1406 176.787 72.7388C177.142 74.1595 177.32 75.4026 177.32 76.4682L178.651 83.394C178.651 85.1699 178.829 86.9458 179.184 88.7216L179.451 91.3854C179.451 92.2733 179.628 92.9837 179.983 93.5165V94.8483L180.25 93.5165C180.25 92.8061 180.427 92.0958 180.783 91.3854C180.783 91.2078 180.783 90.9414 180.783 90.5863C180.96 90.0535 181.138 89.432 181.315 88.7216L181.848 83.394L182.914 76.4682C183.624 72.9164 183.979 70.3414 183.979 68.7431L184.778 63.4156C185.133 62.5276 185.311 61.6397 185.311 60.7518C186.376 54.3587 187.264 49.475 187.975 46.1009C189.751 35.9785 191.349 28.431 192.77 23.4586C193.125 22.2155 193.569 21.0612 194.101 19.9957C194.634 18.7526 194.989 17.9535 195.167 17.5983C197.298 17.5983 199.429 17.3319 201.56 16.7991C203.158 16.7991 204.401 16.7104 205.289 16.5328H206.089L206.621 16.7991V17.5983C207.864 17.5983 208.575 17.3319 208.752 16.7991C208.752 16.7991 208.841 16.7991 209.019 16.7991C209.196 16.7991 209.285 16.7104 209.285 16.5328H222.604L232.46 16.2664C235.302 16.2664 237.344 16.1776 238.587 16H246.845C249.331 16 250.574 18.3086 250.574 22.9259C250.041 24.3466 249.597 25.8561 249.242 27.4543C249.064 29.0526 248.887 30.2069 248.709 30.9173C248.532 32.6931 248.443 34.6466 248.443 36.7776C244.536 54.8914 239.475 75.5802 233.259 98.844L217.543 162.775C216.477 162.953 215.767 163.485 215.412 164.373C215.234 164.551 215.145 164.817 215.145 165.173C215.145 165.35 215.145 165.439 215.145 165.439L213.281 165.173C212.215 165.173 211.327 165.439 210.617 165.972C210.262 165.972 209.818 166.06 209.285 166.238C208.752 166.416 208.308 166.504 207.953 166.504C205.289 166.504 203.247 166.327 201.826 165.972C199.34 165.617 197.387 165.439 195.966 165.439C195.256 165.794 194.634 165.972 194.101 165.972C192.326 166.504 189.928 166.771 186.909 166.771H182.647C177.497 166.771 173.324 166.504 170.127 165.972C166.22 165.617 162.846 165.439 160.005 165.439C159.295 165.439 158.051 165.617 156.276 165.972C155.388 166.327 154.145 166.504 152.546 166.504C152.014 166.504 151.481 166.416 150.948 166.238C150.593 166.06 150.149 165.972 149.616 165.972C148.906 165.439 148.018 165.173 146.952 165.173L144.821 165.439C143.401 165.261 142.69 164.373 142.69 162.775L128.039 88.7216L112.856 162.775C111.613 163.13 110.991 163.663 110.991 164.373C110.813 164.551 110.725 164.817 110.725 165.173C110.725 165.35 110.725 165.439 110.725 165.439L108.594 165.173C108.061 165.173 107.617 165.439 107.262 165.972C106.907 165.972 106.64 166.06 106.463 166.238C106.285 166.416 106.019 166.504 105.663 166.504C102.289 166.504 99.9807 166.327 98.7376 165.972C95.5411 165.617 92.9661 165.439 91.0126 165.439C91.0126 166.149 90.3023 166.504 88.8816 166.504C88.3488 166.682 87.0169 166.771 84.8859 166.771Z" fill="#E9C253"/>
<path d="M84.8859 166.771C79.3807 166.771 75.1186 166.504 72.0997 165.972C67.8376 165.617 64.4635 165.439 61.9772 165.439C60.5566 165.439 58.6031 165.617 56.1169 165.972C54.8738 166.327 52.8316 166.504 49.9902 166.504C49.2798 166.504 48.5695 166.416 47.8591 166.238C47.3264 166.06 46.7936 165.972 46.2609 165.972C45.0178 165.439 43.8634 165.173 42.7979 165.173L40.4005 165.439C38.8022 165.261 38.0031 164.373 38.0031 162.775L22.8195 92.1846C18.3798 71.9397 14.6505 53.4707 11.6315 36.7776C10.566 35.1793 9.94445 33.1371 9.76687 30.6509C9.58928 29.7629 9.50049 28.431 9.50049 26.6552V22.9259C9.50049 20.7948 9.85566 19.1078 10.566 17.8647C11.2764 16.6216 12.2531 16 13.4962 16H21.4876C22.7307 16.1776 24.6841 16.2664 27.3479 16.2664L37.4703 16.5328H48.9247C49.2798 16.7104 49.635 16.7991 49.9902 16.7991C50.3453 16.7991 50.6117 16.7991 50.7893 16.7991L51.0557 17.5983C51.766 17.5983 52.21 17.3319 52.3876 16.7991L54.2522 16.5328H55.0514C55.229 16.5328 55.4954 16.5328 55.8505 16.5328C56.2057 16.5328 56.5609 16.6216 56.916 16.7991C58.1591 16.7991 59.5798 16.8879 61.1781 17.0655C62.7764 17.2431 64.641 17.3319 66.7721 17.3319C68.0152 17.5095 69.7911 17.5983 72.0997 17.5983C72.9876 19.7293 74.4083 25.6785 76.3617 35.4457C77.0721 38.1095 77.96 42.8155 79.0255 49.5638L81.9557 65.2802L82.2221 67.4113C82.3997 67.7664 82.6661 69.2759 83.0212 71.9397L84.0867 77.5337L84.8859 83.1276C85.2411 84.1932 85.4186 85.0811 85.4186 85.7914C85.5962 86.3242 85.685 86.857 85.685 87.3897C85.685 87.9225 85.685 88.3664 85.685 88.7216C85.8626 88.8992 85.9514 89.0768 85.9514 89.2544V90.0535C86.129 90.4087 86.2178 90.8526 86.2178 91.3854C86.573 91.3854 86.7505 91.8294 86.7505 92.7173L87.0169 91.3854C87.0169 90.6751 87.1945 89.9647 87.5497 89.2544C87.5497 88.7216 87.7273 88.1001 88.0824 87.3897C88.0824 86.6794 88.26 85.2587 88.6152 83.1276L89.6807 77.5337C90.0359 75.0475 90.3911 73.1828 90.7462 71.9397C90.7462 70.3414 90.9238 68.8319 91.279 67.4113C91.279 66.7009 91.279 66.2569 91.279 66.0794C91.4566 65.7242 91.5454 65.4578 91.5454 65.2802L94.7419 49.5638L96.0738 42.638C97.3169 34.6466 98.4712 28.6086 99.5368 24.5241C99.8919 22.9259 100.691 20.6172 101.934 17.5983H106.196L110.991 17.3319C110.991 16.9767 111.257 16.7104 111.79 16.5328C112.323 16.1776 112.945 16 113.655 16H124.044L136.564 16.2664H137.363C137.363 16.0888 137.451 16 137.629 16C138.339 16 138.783 16.0888 138.961 16.2664L139.494 16.5328H153.345L155.476 16.7991C155.476 16.9767 155.565 17.1543 155.743 17.3319C155.92 17.3319 156.009 17.4207 156.009 17.5983L157.341 16.7991C157.341 16.7991 157.43 16.7991 157.607 16.7991C157.963 16.6216 158.318 16.5328 158.673 16.5328H159.472C159.65 16.5328 159.916 16.6216 160.271 16.7991C160.626 16.7991 161.159 16.7991 161.87 16.7991C163.29 17.3319 164.445 17.5983 165.332 17.5983C166.753 20.4397 168.174 25.7673 169.595 33.5811C170.305 36.2449 171.193 40.4181 172.258 46.1009L175.189 60.7518L175.455 63.4156C175.633 63.9483 175.81 64.8362 175.988 66.0794C176.165 67.3225 176.254 68.2104 176.254 68.7431C176.432 69.8087 176.609 71.1406 176.787 72.7388C177.142 74.1595 177.32 75.4026 177.32 76.4682L178.651 83.394C178.651 85.1699 178.829 86.9458 179.184 88.7216L179.451 91.3854C179.451 92.2733 179.628 92.9837 179.983 93.5165V94.8483L180.25 93.5165C180.25 92.8061 180.427 92.0958 180.783 91.3854C180.783 91.2078 180.783 90.9414 180.783 90.5863C180.96 90.0535 181.138 89.432 181.315 88.7216L181.848 83.394L182.914 76.4682C183.624 72.9164 183.979 70.3414 183.979 68.7431L184.778 63.4156C185.133 62.5276 185.311 61.6397 185.311 60.7518C186.376 54.3587 187.264 49.475 187.975 46.1009C189.751 35.9785 191.349 28.431 192.77 23.4586C193.125 22.2155 193.569 21.0612 194.101 19.9957C194.634 18.7526 194.989 17.9535 195.167 17.5983C197.298 17.5983 199.429 17.3319 201.56 16.7991C203.158 16.7991 204.401 16.7104 205.289 16.5328H206.089L206.621 16.7991V17.5983C207.864 17.5983 208.575 17.3319 208.752 16.7991C208.752 16.7991 208.841 16.7991 209.019 16.7991C209.196 16.7991 209.285 16.7104 209.285 16.5328H222.604L232.46 16.2664C235.302 16.2664 237.344 16.1776 238.587 16H246.845C249.331 16 250.574 18.3086 250.574 22.9259C250.041 24.3466 249.597 25.8561 249.242 27.4543C249.064 29.0526 248.887 30.2069 248.709 30.9173C248.532 32.6931 248.443 34.6466 248.443 36.7776C244.536 54.8914 239.475 75.5802 233.259 98.844L217.543 162.775C216.477 162.953 215.767 163.485 215.412 164.373C215.234 164.551 215.145 164.817 215.145 165.173C215.145 165.35 215.145 165.439 215.145 165.439L213.281 165.173C212.215 165.173 211.327 165.439 210.617 165.972C210.262 165.972 209.818 166.06 209.285 166.238C208.752 166.416 208.308 166.504 207.953 166.504C205.289 166.504 203.247 166.327 201.826 165.972C199.34 165.617 197.387 165.439 195.966 165.439C195.256 165.794 194.634 165.972 194.101 165.972C192.326 166.504 189.928 166.771 186.909 166.771H182.647C177.497 166.771 173.324 166.504 170.127 165.972C166.22 165.617 162.846 165.439 160.005 165.439C159.295 165.439 158.051 165.617 156.276 165.972C155.388 166.327 154.145 166.504 152.546 166.504C152.014 166.504 151.481 166.416 150.948 166.238C150.593 166.06 150.149 165.972 149.616 165.972C148.906 165.439 148.018 165.173 146.952 165.173L144.821 165.439C143.401 165.261 142.69 164.373 142.69 162.775L128.039 88.7216L112.856 162.775C111.613 163.13 110.991 163.663 110.991 164.373C110.813 164.551 110.725 164.817 110.725 165.173C110.725 165.35 110.725 165.439 110.725 165.439L108.594 165.173C108.061 165.173 107.617 165.439 107.262 165.972C106.907 165.972 106.64 166.06 106.463 166.238C106.285 166.416 106.019 166.504 105.663 166.504C102.289 166.504 99.9807 166.327 98.7376 165.972C95.5411 165.617 92.9661 165.439 91.0126 165.439C91.0126 166.149 90.3023 166.504 88.8816 166.504C88.3488 166.682 87.0169 166.771 84.8859 166.771Z" stroke="black" stroke-width="1.1479"/>
</g>
<path d="M733.856 66.8162C733.676 66.7867 733.458 66.7046 733.202 66.5701C733.036 66.4503 732.863 66.3757 732.683 66.3461C732.693 64.5881 732.653 63.4237 732.561 62.853C732.604 62.0264 732.503 60.9448 732.259 59.6082L732.303 59.3376L732.978 58.6146L732.39 57.9625L731.813 53.0056C731.542 52.9613 731.308 52.4135 731.11 51.3622L730.859 50.3486C730.889 50.1683 730.79 49.9206 730.564 49.6057C733.088 49.4636 733.95 48.4433 735.908 46.6688C739.864 47.9158 741.718 45.6912 743.261 44.1845C744.595 42.8285 745.628 41.6087 746.361 40.5248L746.832 39.3515C746.891 38.9908 746.747 38.7357 746.401 38.5864C746.16 38.3617 745.859 38.2197 745.499 38.1606C745.138 38.1015 744.777 38.0424 744.416 37.9832C742.973 37.7467 741.861 37.4718 741.078 37.1584C737.651 36.5967 735.193 36.0549 733.704 35.5331C732.651 35.1753 731.786 34.802 731.109 34.4132C730.446 33.9341 730.145 33.5142 730.204 33.1535C730.319 31.32 730.524 29.5013 730.82 27.6974C730.833 27.0513 730.943 26.0969 731.15 24.8341C731.252 23.6468 731.488 21.9257 731.858 19.6709L732.277 16.2664C732.572 14.4625 732.837 12.2831 733.07 9.72807L733.263 6.00867L734.23 5.19466L740.145 2.16373L751.86 6.97244C752.972 6.96942 753.753 7.00487 754.204 7.07877L757.451 7.61089L758.354 8.03667L759.707 8.25838C760.428 8.37663 760.887 8.40544 761.082 8.34481C761.248 8.46456 761.556 8.56139 762.007 8.6353C762.187 8.66486 762.315 8.73213 762.391 8.8371C762.556 8.95686 762.684 9.02413 762.774 9.03891L768.661 10.4203L769.563 10.8461C769.834 10.8905 769.984 10.8224 770.014 10.642L770.69 10.7529C771.277 11.127 771.781 11.4411 772.203 11.6954C772.714 11.9645 773.173 12.2713 773.58 12.6158C773.942 13.2308 774.02 14.1697 773.813 15.4325C773.443 17.6873 773.179 19.8668 773.019 21.9708C772.549 25.9689 772.496 28.5535 772.86 29.7245C772.397 30.8527 771.996 32.454 771.656 34.5285C770.814 39.6696 769.617 44.4285 768.066 48.8052C766.263 54.1593 771.235 53.7701 766.691 57.1933C760.791 64.516 753.242 64.9455 749.878 65.6909C744.609 67.328 739.719 67.777 735.209 67.0379L733.856 66.8162Z" fill="#B2651C" stroke="black"/>
<g filter="url(#filter7_n_963_14048)">
<path d="M739.71 63.9673C739.53 63.9377 739.312 63.8556 739.056 63.7211C738.89 63.6014 738.717 63.5267 738.537 63.4971C738.547 61.7391 738.506 60.5747 738.415 60.004C738.457 59.1774 738.357 58.0959 738.113 56.7592L738.157 56.4887L738.831 55.7656L738.243 55.1136L737.667 50.1566C737.396 50.1123 737.162 49.5645 736.963 48.5132L736.713 47.4997C736.742 47.3193 736.644 47.0716 736.418 46.7567C738.942 46.6146 741.299 46.0748 743.49 45.1373C745.696 44.1095 747.571 42.8423 749.115 41.3355C750.448 39.9796 751.482 38.7597 752.215 37.6758L752.685 36.5026C752.744 36.1418 752.601 35.8867 752.255 35.7374C752.014 35.5127 751.713 35.3708 751.352 35.3116C750.992 35.2525 750.631 35.1934 750.27 35.1343C748.827 34.8978 747.714 34.6228 746.932 34.3094C743.505 33.7477 741.046 33.2059 739.557 32.6841C738.505 32.3263 737.64 31.953 736.963 31.5642C736.3 31.0852 735.998 30.6653 736.058 30.3045C736.173 28.471 736.378 26.6524 736.674 24.8485C736.687 24.2023 736.797 23.2479 737.004 21.9852C737.106 20.7979 737.342 19.0768 737.711 16.8219L738.13 13.4174C738.426 11.6136 738.691 9.4341 738.924 6.87909L739.117 3.1597L740.084 2.34569L747.296 2.41627L757.714 4.12347C758.826 4.12045 759.607 4.1559 760.058 4.2298L763.305 4.76192L764.208 5.1877L765.561 5.40941C766.282 5.52766 766.741 5.55647 766.936 5.49583C767.101 5.61559 767.41 5.71242 767.861 5.78632C768.041 5.81589 768.169 5.88315 768.244 5.98813C768.41 6.10789 768.538 6.17516 768.628 6.18994L774.514 7.57135L775.417 7.99714C775.688 8.04149 775.838 7.97346 775.867 7.79307L776.544 7.90393C777.131 8.27798 777.635 8.59215 778.056 8.84644C778.568 9.11552 779.027 9.4223 779.434 9.76679C779.796 10.3819 779.874 11.3208 779.667 12.5835C779.297 14.8383 779.033 17.0178 778.873 19.1218C778.403 23.12 778.35 25.7045 778.714 26.8755C778.251 28.0037 777.85 29.6051 777.51 31.6795C776.667 36.8206 775.471 41.5795 773.92 45.9562C772.116 51.3103 768.943 55.6989 764.399 59.1221C761.985 60.8566 759.096 62.0965 755.732 62.8419C750.462 64.479 745.573 64.928 741.063 64.189L739.71 63.9673Z" fill="#E9C253"/>
<path d="M739.71 63.9673C739.53 63.9377 739.312 63.8556 739.056 63.7211C738.89 63.6014 738.717 63.5267 738.537 63.4971C738.547 61.7391 738.506 60.5747 738.415 60.004C738.457 59.1774 738.357 58.0959 738.113 56.7592L738.157 56.4887L738.831 55.7656L738.243 55.1136L737.667 50.1566C737.396 50.1123 737.162 49.5645 736.963 48.5132L736.713 47.4997C736.742 47.3193 736.644 47.0716 736.418 46.7567C738.942 46.6146 741.299 46.0748 743.49 45.1373C745.696 44.1095 747.571 42.8423 749.115 41.3355C750.448 39.9796 751.482 38.7597 752.215 37.6758L752.685 36.5026C752.744 36.1418 752.601 35.8867 752.255 35.7374C752.014 35.5127 751.713 35.3708 751.352 35.3116C750.992 35.2525 750.631 35.1934 750.27 35.1343C748.827 34.8978 747.714 34.6228 746.932 34.3094C743.505 33.7477 741.046 33.2059 739.557 32.6841C738.505 32.3263 737.64 31.953 736.963 31.5642C736.3 31.0852 735.998 30.6653 736.058 30.3045C736.173 28.471 736.378 26.6524 736.674 24.8485C736.687 24.2023 736.797 23.2479 737.004 21.9852C737.106 20.7979 737.342 19.0768 737.711 16.8219L738.13 13.4174C738.426 11.6136 738.691 9.4341 738.924 6.87909L739.117 3.1597L740.084 2.34569L747.296 2.41627L757.714 4.12347C758.826 4.12045 759.607 4.1559 760.058 4.2298L763.305 4.76192L764.208 5.1877L765.561 5.40941C766.282 5.52766 766.741 5.55647 766.936 5.49583C767.101 5.61559 767.41 5.71242 767.861 5.78632C768.041 5.81589 768.169 5.88315 768.244 5.98813C768.41 6.10789 768.538 6.17516 768.628 6.18994L774.514 7.57135L775.417 7.99714C775.688 8.04149 775.838 7.97346 775.867 7.79307L776.544 7.90393C777.131 8.27798 777.635 8.59215 778.056 8.84644C778.568 9.11552 779.027 9.4223 779.434 9.76679C779.796 10.3819 779.874 11.3208 779.667 12.5835C779.297 14.8383 779.033 17.0178 778.873 19.1218C778.403 23.12 778.35 25.7045 778.714 26.8755C778.251 28.0037 777.85 29.6051 777.51 31.6795C776.667 36.8206 775.471 41.5795 773.92 45.9562C772.116 51.3103 768.943 55.6989 764.399 59.1221C761.985 60.8566 759.096 62.0965 755.732 62.8419C750.462 64.479 745.573 64.928 741.063 64.189L739.71 63.9673Z" stroke="black"/>
</g>
<defs>
<filter id="filter0_n_963_14048" x="772.347" y="13.5" width="125.615" height="148.126" filterUnits="userSpaceOnUse" color-interpolation-filters="sRGB">
<feFlood flood-opacity="0" result="BackgroundImageFix"/>
<feBlend mode="normal" in="SourceGraphic" in2="BackgroundImageFix" result="shape"/>
<feTurbulence type="fractalNoise" baseFrequency="0.0099999997764825821 0.0099999997764825821" stitchTiles="stitch" numOctaves="3" result="noise" seed="9207" />
<feColorMatrix in="noise" type="luminanceToAlpha" result="alphaNoise" />
<feComponentTransfer in="alphaNoise" result="coloredNoise1">
<feFuncA type="discrete" tableValues="1 1 1 1 1 1 1 1 1 1 1 1 1 1 1 1 1 1 1 1 1 1 1 1 1 1 1 1 1 1 1 1 1 1 1 1 1 1 1 1 1 1 1 1 1 1 1 1 1 1 1 0 0 0 0 0 0 0 0 0 0 0 0 0 0 0 0 0 0 0 0 0 0 0 0 0 0 0 0 0 0 0 0 0 0 0 0 0 0 0 0 0 0 0 0 0 0 0 0 0 "/>
</feComponentTransfer>
<feComposite operator="in" in2="shape" in="coloredNoise1" result="noise1Clipped" />
<feFlood flood-color="rgba(178, 101, 28, 0.05)" result="color1Flood" />
<feComposite operator="in" in2="noise1Clipped" in="color1Flood" result="color1" />
<feMerge result="effect1_noise_963_14048">
<feMergeNode in="shape" />
<feMergeNode in="color1" />
</feMerge>
</filter>
<filter id="filter1_n_963_14048" x="586.75" y="26.5" width="137.218" height="136.986" filterUnits="userSpaceOnUse" color-interpolation-filters="sRGB">
<feFlood flood-opacity="0" result="BackgroundImageFix"/>
<feBlend mode="normal" in="SourceGraphic" in2="BackgroundImageFix" result="shape"/>
<feTurbulence type="fractalNoise" baseFrequency="0.0099999997764825821 0.0099999997764825821" stitchTiles="stitch" numOctaves="3" result="noise" seed="9207" />
<feColorMatrix in="noise" type="luminanceToAlpha" result="alphaNoise" />
<feComponentTransfer in="alphaNoise" result="coloredNoise1">
<feFuncA type="discrete" tableValues="1 1 1 1 1 1 1 1 1 1 1 1 1 1 1 1 1 1 1 1 1 1 1 1 1 1 1 1 1 1 1 1 1 1 1 1 1 1 1 1 1 1 1 1 1 1 1 1 1 1 1 0 0 0 0 0 0 0 0 0 0 0 0 0 0 0 0 0 0 0 0 0 0 0 0 0 0 0 0 0 0 0 0 0 0 0 0 0 0 0 0 0 0 0 0 0 0 0 0 0 "/>
</feComponentTransfer>
<feComposite operator="in" in2="shape" in="coloredNoise1" result="noise1Clipped" />
<feFlood flood-color="rgba(178, 101, 28, 0.05)" result="color1Flood" />
<feComposite operator="in" in2="noise1Clipped" in="color1Flood" result="color1" />
<feMerge result="effect1_noise_963_14048">
<feMergeNode in="shape" />
<feMergeNode in="color1" />
</feMerge>
</filter>
<filter id="filter2_n_963_14048" x="1132.33" y="25.5" width="151.489" height="137.218" filterUnits="userSpaceOnUse" color-interpolation-filters="sRGB">
<feFlood flood-opacity="0" result="BackgroundImageFix"/>
<feBlend mode="normal" in="SourceGraphic" in2="BackgroundImageFix" result="shape"/>
<feTurbulence type="fractalNoise" baseFrequency="0.0099999997764825821 0.0099999997764825821" stitchTiles="stitch" numOctaves="3" result="noise" seed="9207" />
<feColorMatrix in="noise" type="luminanceToAlpha" result="alphaNoise" />
<feComponentTransfer in="alphaNoise" result="coloredNoise1">
<feFuncA type="discrete" tableValues="1 1 1 1 1 1 1 1 1 1 1 1 1 1 1 1 1 1 1 1 1 1 1 1 1 1 1 1 1 1 1 1 1 1 1 1 1 1 1 1 1 1 1 1 1 1 1 1 1 1 1 0 0 0 0 0 0 0 0 0 0 0 0 0 0 0 0 0 0 0 0 0 0 0 0 0 0 0 0 0 0 0 0 0 0 0 0 0 0 0 0 0 0 0 0 0 0 0 0 0 "/>
</feComponentTransfer>
<feComposite operator="in" in2="shape" in="coloredNoise1" result="noise1Clipped" />
<feFlood flood-color="rgba(178, 101, 28, 0.05)" result="color1Flood" />
<feComposite operator="in" in2="noise1Clipped" in="color1Flood" result="color1" />
<feMerge result="effect1_noise_963_14048">
<feMergeNode in="shape" />
<feMergeNode in="color1" />
</feMerge>
</filter>
<filter id="filter3_n_963_14048" x="966.112" y="27.5" width="156.479" height="145.572" filterUnits="userSpaceOnUse" color-interpolation-filters="sRGB">
<feFlood flood-opacity="0" result="BackgroundImageFix"/>
<feBlend mode="normal" in="SourceGraphic" in2="BackgroundImageFix" result="shape"/>
<feTurbulence type="fractalNoise" baseFrequency="0.0099999997764825821 0.0099999997764825821" stitchTiles="stitch" numOctaves="3" result="noise" seed="9207" />
<feColorMatrix in="noise" type="luminanceToAlpha" result="alphaNoise" />
<feComponentTransfer in="alphaNoise" result="coloredNoise1">
<feFuncA type="discrete" tableValues="1 1 1 1 1 1 1 1 1 1 1 1 1 1 1 1 1 1 1 1 1 1 1 1 1 1 1 1 1 1 1 1 1 1 1 1 1 1 1 1 1 1 1 1 1 1 1 1 1 1 1 0 0 0 0 0 0 0 0 0 0 0 0 0 0 0 0 0 0 0 0 0 0 0 0 0 0 0 0 0 0 0 0 0 0 0 0 0 0 0 0 0 0 0 0 0 0 0 0 0 "/>
</feComponentTransfer>
<feComposite operator="in" in2="shape" in="coloredNoise1" result="noise1Clipped" />
<feFlood flood-color="rgba(178, 101, 28, 0.05)" result="color1Flood" />
<feComposite operator="in" in2="noise1Clipped" in="color1Flood" result="color1" />
<feMerge result="effect1_noise_963_14048">
<feMergeNode in="shape" />
<feMergeNode in="color1" />
</feMerge>
</filter>
<filter id="filter4_n_963_14048" x="436.448" y="26.5" width="164.066" height="134.665" filterUnits="userSpaceOnUse" color-interpolation-filters="sRGB">
<feFlood flood-opacity="0" result="BackgroundImageFix"/>
<feBlend mode="normal" in="SourceGraphic" in2="BackgroundImageFix" result="shape"/>
<feTurbulence type="fractalNoise" baseFrequency="0.0099999997764825821 0.0099999997764825821" stitchTiles="stitch" numOctaves="3" result="noise" seed="9207" />
<feColorMatrix in="noise" type="luminanceToAlpha" result="alphaNoise" />
<feComponentTransfer in="alphaNoise" result="coloredNoise1">
<feFuncA type="discrete" tableValues="1 1 1 1 1 1 1 1 1 1 1 1 1 1 1 1 1 1 1 1 1 1 1 1 1 1 1 1 1 1 1 1 1 1 1 1 1 1 1 1 1 1 1 1 1 1 1 1 1 1 1 0 0 0 0 0 0 0 0 0 0 0 0 0 0 0 0 0 0 0 0 0 0 0 0 0 0 0 0 0 0 0 0 0 0 0 0 0 0 0 0 0 0 0 0 0 0 0 0 0 "/>
</feComponentTransfer>
<feComposite operator="in" in2="shape" in="coloredNoise1" result="noise1Clipped" />
<feFlood flood-color="rgba(178, 101, 28, 0.05)" result="color1Flood" />
<feComposite operator="in" in2="noise1Clipped" in="color1Flood" result="color1" />
<feMerge result="effect1_noise_963_14048">
<feMergeNode in="shape" />
<feMergeNode in="color1" />
</feMerge>
</filter>
<filter id="filter5_n_963_14048" x="260.02" y="28.4985" width="166.991" height="137.987" filterUnits="userSpaceOnUse" color-interpolation-filters="sRGB">
<feFlood flood-opacity="0" result="BackgroundImageFix"/>
<feBlend mode="normal" in="SourceGraphic" in2="BackgroundImageFix" result="shape"/>
<feTurbulence type="fractalNoise" baseFrequency="0.011441037990152836 0.011441037990152836" stitchTiles="stitch" numOctaves="3" result="noise" seed="9207" />
<feColorMatrix in="noise" type="luminanceToAlpha" result="alphaNoise" />
<feComponentTransfer in="alphaNoise" result="coloredNoise1">
<feFuncA type="discrete" tableValues="1 1 1 1 1 1 1 1 1 1 1 1 1 1 1 1 1 1 1 1 1 1 1 1 1 1 1 1 1 1 1 1 1 1 1 1 1 1 1 1 1 1 1 1 1 1 1 1 1 1 1 0 0 0 0 0 0 0 0 0 0 0 0 0 0 0 0 0 0 0 0 0 0 0 0 0 0 0 0 0 0 0 0 0 0 0 0 0 0 0 0 0 0 0 0 0 0 0 0 0 "/>
</feComponentTransfer>
<feComposite operator="in" in2="shape" in="coloredNoise1" result="noise1Clipped" />
<feFlood flood-color="rgba(178, 101, 28, 0.05)" result="color1Flood" />
<feComposite operator="in" in2="noise1Clipped" in="color1Flood" result="color1" />
<feMerge result="effect1_noise_963_14048">
<feMergeNode in="shape" />
<feMergeNode in="color1" />
</feMerge>
</filter>
<filter id="filter6_n_963_14048" x="8.92676" y="15.426" width="242.221" height="151.919" filterUnits="userSpaceOnUse" color-interpolation-filters="sRGB">
<feFlood flood-opacity="0" result="BackgroundImageFix"/>
<feBlend mode="normal" in="SourceGraphic" in2="BackgroundImageFix" result="shape"/>
<feTurbulence type="fractalNoise" baseFrequency="0.0099999997764825821 0.0099999997764825821" stitchTiles="stitch" numOctaves="3" result="noise" seed="9207" />
<feColorMatrix in="noise" type="luminanceToAlpha" result="alphaNoise" />
<feComponentTransfer in="alphaNoise" result="coloredNoise1">
<feFuncA type="discrete" tableValues="1 1 1 1 1 1 1 1 1 1 1 1 1 1 1 1 1 1 1 1 1 1 1 1 1 1 1 1 1 1 1 1 1 1 1 1 1 1 1 1 1 1 1 1 1 1 1 1 1 1 1 0 0 0 0 0 0 0 0 0 0 0 0 0 0 0 0 0 0 0 0 0 0 0 0 0 0 0 0 0 0 0 0 0 0 0 0 0 0 0 0 0 0 0 0 0 0 0 0 0 "/>
</feComponentTransfer>
<feComposite operator="in" in2="shape" in="coloredNoise1" result="noise1Clipped" />
<feFlood flood-color="rgba(178, 101, 28, 0.05)" result="color1Flood" />
<feComposite operator="in" in2="noise1Clipped" in="color1Flood" result="color1" />
<feMerge result="effect1_noise_963_14048">
<feMergeNode in="shape" />
<feMergeNode in="color1" />
</feMerge>
</filter>
<filter id="filter7_n_963_14048" x="735.48" y="1.84387" width="44.7993" height="63.1899" filterUnits="userSpaceOnUse" color-interpolation-filters="sRGB">
<feFlood flood-opacity="0" result="BackgroundImageFix"/>
<feBlend mode="normal" in="SourceGraphic" in2="BackgroundImageFix" result="shape"/>
<feTurbulence type="fractalNoise" baseFrequency="0.0099999997764825821 0.0099999997764825821" stitchTiles="stitch" numOctaves="3" result="noise" seed="9207" />
<feColorMatrix in="noise" type="luminanceToAlpha" result="alphaNoise" />
<feComponentTransfer in="alphaNoise" result="coloredNoise1">
<feFuncA type="discrete" tableValues="1 1 1 1 1 1 1 1 1 1 1 1 1 1 1 1 1 1 1 1 1 1 1 1 1 1 1 1 1 1 1 1 1 1 1 1 1 1 1 1 1 1 1 1 1 1 1 1 1 1 1 0 0 0 0 0 0 0 0 0 0 0 0 0 0 0 0 0 0 0 0 0 0 0 0 0 0 0 0 0 0 0 0 0 0 0 0 0 0 0 0 0 0 0 0 0 0 0 0 0 "/>
</feComponentTransfer>
<feComposite operator="in" in2="shape" in="coloredNoise1" result="noise1Clipped" />
<feFlood flood-color="rgba(178, 101, 28, 0.05)" result="color1Flood" />
<feComposite operator="in" in2="noise1Clipped" in="color1Flood" result="color1" />
<feMerge result="effect1_noise_963_14048">
<feMergeNode in="shape" />
<feMergeNode in="color1" />
</feMerge>
</filter>
</defs>
</svg>
