<svg width="148" height="116" viewBox="0 0 148 116" fill="none" xmlns="http://www.w3.org/2000/svg">
<path d="M80.2268 72.5914C78.8524 71.6752 74.9595 67.4009 73.5479 65.9221C73.3448 65.7094 73.0577 65.6055 72.7646 65.6299L69.122 65.9335C68.3194 66.0004 67.9195 66.9408 68.4242 67.5683C69.9776 69.4999 71.9162 71.9702 72.2268 72.5914C72.7268 73.5914 72.7268 75.0914 72.7268 76.5914C72.7268 78.0914 79.7268 90.5914 82.2268 91.5914C84.7268 92.5914 84.7268 88.0914 85.7268 88.0914C86.7268 88.0914 91.7268 88.0914 92.7268 87.0914C93.7268 86.0914 92.7268 84.0914 93.2268 82.5914C93.7268 81.0914 96.7268 81.0914 96.2268 79.0914C95.7268 77.0914 81.7268 73.5914 80.2268 72.5914Z" fill="#F26C26" stroke="black"/>
<path d="M8.72678 70.5914C8.72678 68.4101 12.5332 66.6095 14.1679 65.8537C14.5117 65.6948 14.7277 65.353 14.7223 64.9742C14.6812 62.065 14.3441 57.6017 13.2268 59.0914C11.7268 61.0914 6.72681 64.5914 4.72681 65.5914C2.72681 66.5914 3.22678 65.5914 1.22678 66.5914C-0.77322 67.5914 1.72678 91.0914 4.22678 91.5914C6.72678 92.0914 6.22678 88.0914 7.72678 88.0914C9.22678 88.0914 10.7268 90.0914 12.7268 89.5914C14.7268 89.0914 13.7268 84.0914 14.7268 83.0914C15.7268 82.0914 18.2268 81.5914 18.2268 80.0914C18.2268 78.5914 8.72678 73.0914 8.72678 70.5914Z" fill="#F26C26" stroke="black"/>
<path d="M30.7268 8.59143C26.7268 7.09143 14.2268 -0.408566 10.7268 0.591434C8.2268 1.59144 9.7268 6.09143 9.7268 11.5914C9.7268 17.0914 17.2268 26.0914 17.7268 28.0914C18.2268 30.0914 19.7268 38.0914 19.2268 41.0914C18.7268 44.0914 14.7268 50.0914 13.7268 51.0914C12.9268 51.8914 12.3935 56.4248 12.2268 58.5914C12.7268 60.7581 14.1268 65.2914 15.7268 66.0914C17.7268 67.0914 40.7268 66.5914 43.7268 66.5914C46.7268 66.5914 55.7268 68.0914 58.2268 68.0914C60.7268 68.0914 62.7268 68.0914 69.2268 66.5914C75.7268 65.0914 84.2268 57.0914 84.2268 53.0914V42.5914C86.5601 41.2581 91.5268 38.4914 92.7268 38.0914C94.2268 37.5914 98.2268 39.5914 100.227 40.0914C102.227 40.5914 115.227 42.5914 117.727 38.0914C120.227 33.5914 112.227 26.0914 106.727 25.0914C102.327 24.2914 100.56 26.0914 100.227 27.0914H92.7268C90.7268 27.0914 82.5601 30.4248 78.7268 32.0914C77.3935 29.2581 72.4268 22.2914 63.2268 17.0914C51.7268 10.5914 34.7268 10.0914 30.7268 8.59143Z" fill="#EEEEEE" stroke="black"/>
<circle cx="107.258" cy="32.1227" r="1.32127" transform="rotate(-10.0341 107.258 32.1227)" fill="black"/>
<circle cx="106.78" cy="31.5799" r="0.37572" transform="rotate(-10.0341 106.78 31.5799)" fill="#A4A3A3"/>
<path d="M105.411 53.0815C105.652 52.9329 105.966 52.9722 106.16 53.1763L106.236 53.2739C106.414 53.5584 106.322 53.9259 106.046 54.0991L106.044 54.1001L45.0441 92.1001C44.7668 92.2728 44.3967 92.1935 44.2189 91.9106L44.2179 91.9087C44.0417 91.6257 44.1309 91.2566 44.4103 91.0825L105.41 53.0825L105.411 53.0815Z" fill="#808080" stroke="black" stroke-linecap="round"/>
<circle cx="118.227" cy="109.091" r="6" fill="white" stroke="black"/>
<path d="M45.4253 92.7362L49.8468 89.6965C50.3588 89.3444 50.552 88.6805 50.3089 88.1087C50.0003 87.3831 49.1242 87.0941 48.4445 87.4937L44.0906 90.0533C42.9487 90.7247 41.488 90.0459 41.2649 88.7401L41.0887 87.7093C40.8797 86.486 39.8193 85.5914 38.5783 85.5914C37.0582 85.5914 35.8766 86.9144 36.0476 88.4248L38.2657 108.018C38.507 110.15 40.6053 111.555 42.6682 110.965C44.3988 110.471 45.4644 108.735 45.1223 106.968L43.3491 97.8065C42.9712 95.8539 43.7864 93.8629 45.4253 92.7362Z" fill="#3D3B8E" stroke="black" stroke-linecap="round"/>
<path d="M143.727 26.0914L83.2268 66.0914L84.2268 68.0914L147.227 30.0914C146.727 28.9248 145.327 26.4914 143.727 26.0914Z" fill="#3D3B8E" stroke="black" stroke-linecap="round"/>
<path d="M126.09 42.465C120.124 36.925 119.295 33.9668 116.767 31.9823C116.449 31.733 116.009 31.7383 115.661 31.9427C115.028 32.314 114.101 32.8 113.227 33.0914C111.897 33.5348 110.96 38.3025 110.416 40.4229C110.312 40.8287 110.444 41.2653 110.771 41.527L114.528 44.5323C114.926 44.8506 115.527 44.8436 115.986 44.6221C116.445 44.4004 117.08 44.1746 117.813 44.1098C118.077 44.0865 118.335 44.1953 118.513 44.3912C119.731 45.7254 119.795 46.6255 120.727 47.0914C121.676 47.5658 126.225 43.9898 126.262 42.7679C126.265 42.6471 126.179 42.5473 126.09 42.465Z" fill="#F26C26" stroke="black"/>
</svg>
