<svg width="505" height="154" viewBox="0 0 505 154" fill="none" xmlns="http://www.w3.org/2000/svg">
<path d="M241.738 140.009L244.928 129.73L265.486 124.768L254.144 139.3L231.813 147.453L241.738 140.009Z" fill="#FF521B"/>
<path d="M369.696 117.324L362 96L381 88.5L369.696 117.324Z" fill="#E2A704"/>
<path d="M340.276 128.774L332.833 105.38L351.619 99L340.276 128.774Z" fill="#59A814"/>
<path d="M309.084 138.237L304.122 114.134L321.844 108.463L309.084 138.237Z" fill="#EDEDED"/>
<path d="M468.234 67.7008L462.208 50.687L480.5 37L468.234 67.7008Z" fill="#FF521B"/>
<path d="M496.59 13.4692C485.248 68.7641 267.258 126.895 231.813 132.211C196.367 137.528 48.9146 113.78 30.8374 122.996C12.7603 132.211 131.857 139.3 108.463 147.453C89.7477 153.975 31.1919 159.622 4.25342 161.631" stroke="#323232" stroke-width="0.708908"/>
<path d="M223.661 133.275L235.358 131.857L189.633 144.263L209.128 133.275H223.661Z" fill="#E2A704"/>
<path d="M270.803 144.972L275.056 122.641L295.615 116.97L275.056 144.972L267.967 147.453L270.803 144.972Z" fill="#2314A8"/>
<g filter="url(#filter0_d_752_12590)">
<path d="M404.161 118.878C404.146 114.166 406.389 105.549 407.594 101.546C407.65 101.36 407.629 101.164 407.533 100.994C404.705 96.0282 399.59 87.4014 400.632 90.6861C401.957 94.8653 401.421 114.786 401.309 118.7C401.222 121.746 402.134 123.184 402.638 123.558C402.665 123.578 402.691 123.598 402.718 123.619C403.23 124.01 404.177 123.584 404.161 118.878Z" fill="#F26C26"/>
<path d="M417.816 128.462C417.165 129.114 403.928 124.672 402.075 123.401C401.891 123.275 401.796 122.992 401.94 122.821C402.503 122.152 405.362 121.373 407.183 121.373C409.309 121.373 421.715 121.728 421.715 122.437C421.715 123.145 418.88 123.145 418.88 123.5C418.88 123.854 421.715 124.563 421.361 125.272C421.006 125.981 417.462 125.627 416.753 125.981C416.044 126.336 418.525 127.753 417.816 128.462Z" fill="#F26C26"/>
<path d="M362.961 100.903C386 87.7886 405.495 59.5544 435.624 54.9465C455.119 44.6674 460.436 3.74777 474.968 0.592906C489.501 -2.56196 494.818 7.68194 495.527 12.2898C494.227 14.6529 490.494 18.1029 484.539 17.2522C477.095 16.1889 472.182 17.6065 470.715 21.1511C462.208 40.2917 468.588 45.7307 466.816 73.3781C465.398 95.4961 443.54 107.406 432.788 110.596C430.544 111.778 424.282 114.708 417.192 116.976C408.331 119.812 383.165 107.993 368.987 106.929V103.385L362.961 100.903Z" fill="#EEEEEE"/>
<path d="M501.319 13.9832L492.28 5.90677C491.829 5.5032 491.112 5.8153 491.099 6.42086L490.934 14.4973C490.926 14.8944 491.245 15.2208 491.642 15.2208L500.847 15.2208C501.498 15.2208 501.804 14.417 501.319 13.9832Z" fill="#F26C26"/>
<circle cx="483.992" cy="6.07223" r="1.36364" transform="rotate(-10.0341 483.992 6.07223)" fill="black"/>
<circle cx="483.499" cy="5.51191" r="0.387771" transform="rotate(-10.0341 483.499 5.51191)" fill="#A4A3A3"/>
<path d="M464.689 109.056C459.977 108.779 444.382 96.5122 440.151 94.6361C439.973 94.5571 439.778 94.5712 439.604 94.6588C434.631 97.1606 430.156 101.384 433.497 100.549C437.725 99.4921 460.162 111.041 464.262 111.529C464.316 111.536 464.361 111.546 464.414 111.562C465.404 111.854 466.076 111.321 466.431 110.868C466.452 110.842 466.472 110.817 466.498 110.795C467.049 110.309 469.398 109.333 464.689 109.056Z" fill="#F26C26"/>
<path d="M476.691 97.7732C477.196 98.6173 467.838 110.717 465.215 111.975C465.12 112.021 465.014 112.031 464.91 112.011C460.204 111.121 465.27 93.804 466.12 93.2947C466.98 92.7795 467.492 98.0239 468.867 98.3689C470.242 98.7138 471.965 94.7606 472.996 95.0193C474.028 95.2781 472.564 98.1998 473.509 98.8023C474.454 99.4048 476.176 96.9131 476.691 97.7732Z" fill="#F26C26"/>
<path d="M427.081 103.387C448.738 95.2054 457.291 83.3731 460.821 68.2937C456.488 76.2549 450.629 82.6991 445.529 88.309L445.386 88.4667C442.512 91.6277 432.947 97.2833 426.918 100.967L427.081 103.387Z" fill="#D9D9D9"/>
<path d="M394.655 102.127C412.621 103.559 421.772 97.8874 429.265 88.4419C423.57 92.6086 417.305 95.2004 411.851 97.4567L411.697 97.5201C408.614 98.7956 400.952 99.4085 395.477 100.001L394.655 102.127Z" fill="#D9D9D9"/>
</g>
<path d="M496.945 13.4692C501.198 12.7603 497.654 23.3939 496.945 25.5206C496.236 27.6473 498.363 31.5463 497.654 32.6097C497.087 33.4604 496.709 34.6183 496.59 35.0909" stroke="#323232" stroke-width="0.708908"/>
<path d="M142.845 141.073L185.379 131.857L157.378 129.376L142.845 141.073Z" fill="#59A814"/>
<path d="M90.3857 133.984L138.592 127.958L105.273 124.413L90.3857 133.984Z" fill="#EDEDED"/>
<path d="M46.4336 127.958L85.0691 122.996L53.5227 120.869L46.4336 127.958Z" fill="#2314A8"/>
<path d="M0 120.869L38.281 121.223C25.1662 123.35 25.8751 126.186 38.99 129.73L0 120.869Z" fill="#FF521B"/>
<path d="M41.4712 137.174L64.1563 134.338L81.1701 137.174H41.4712Z" fill="#E2A704"/>
<path d="M73.0176 143.199L97.8294 140.718C111.653 142.491 114.489 145.326 108.109 147.453L73.0176 143.199Z" fill="#59A814"/>
<path d="M41.1167 149.58L83.2967 152.77L57.4216 156.669L41.1167 149.58Z" fill="#EDEDED"/>
<defs>
<filter id="filter0_d_752_12590" x="360.125" y="0" width="144.267" height="134.198" filterUnits="userSpaceOnUse" color-interpolation-filters="sRGB">
<feFlood flood-opacity="0" result="BackgroundImageFix"/>
<feColorMatrix in="SourceAlpha" type="matrix" values="0 0 0 0 0 0 0 0 0 0 0 0 0 0 0 0 0 0 127 0" result="hardAlpha"/>
<feOffset dy="2.83563"/>
<feGaussianBlur stdDeviation="1.41782"/>
<feComposite in2="hardAlpha" operator="out"/>
<feColorMatrix type="matrix" values="0 0 0 0 0 0 0 0 0 0 0 0 0 0 0 0 0 0 0.25 0"/>
<feBlend mode="normal" in2="BackgroundImageFix" result="effect1_dropShadow_752_12590"/>
<feBlend mode="normal" in="SourceGraphic" in2="effect1_dropShadow_752_12590" result="shape"/>
</filter>
</defs>
</svg>
