<svg width="531" height="349" viewBox="0 0 531 349" fill="none" xmlns="http://www.w3.org/2000/svg">
<path d="M244.351 153L165.851 199.071L244.351 244.5L323.351 199.071L244.351 153Z" stroke="black" stroke-width="1.70126" stroke-linejoin="round" stroke-dasharray="3.4 3.4"/>
<path d="M402.351 256L323.851 302.071L402.351 347.5L481.351 302.071L402.351 256Z" stroke="black" stroke-width="1.70126" stroke-linejoin="round" stroke-dasharray="3.4 3.4"/>
<path d="M79.3506 61.0002L0.850586 107.071L79.3506 152.5L158.351 107.071L79.3506 61.0002Z" stroke="black" stroke-width="1.70126" stroke-linejoin="round" stroke-dasharray="3.4 3.4"/>
<path d="M108.987 94.6978L134.483 109.418L135.608 108.757L123.851 101.97V96.2743L122.663 95.588V101.283L110.121 94.0427L108.987 94.6978Z" fill="#53442E"/>
<path d="M109.581 41.7285L135.307 56.5814V108.371C127.086 103.42 109.581 93.5176 109.581 93.5176C109.581 93.5176 109.226 58.9915 109.581 41.7285Z" fill="#AEAEAE"/>
<path d="M113.729 55.7239L120.522 59.6455V71.8818L113.729 67.9599V55.7239Z" fill="#D3D3D3"/>
<path d="M80.9152 136.901V113.582L105.248 99.7383L106.231 122.656C105.838 122.837 104.852 123.654 104.053 125.469C103.055 127.737 99.4256 126.285 97.0665 127.011C94.7073 127.737 95.161 130.187 94.0722 131.276C92.9833 132.365 88.4465 132.092 87.9021 132.455C87.3576 132.818 83.3652 136.901 80.9152 136.901Z" fill="#B9B9B9"/>
<path d="M80.9152 136.901V113.582L105.248 99.7383L106.231 122.656C105.838 122.837 104.852 123.654 104.053 125.469C103.055 127.737 99.4256 126.285 97.0665 127.011C94.7073 127.737 95.161 130.187 94.0722 131.276C92.9833 132.365 88.4465 132.092 87.9021 132.455C87.3576 132.818 83.3652 136.901 80.9152 136.901Z" fill="#929292"/>
<path d="M72.3857 131.91C73.4745 132.182 72.2042 134.088 76.2874 136.175C77.5941 136.756 79.9264 136.901 80.9292 136.901V113.763L18.8507 77.9219V101.695C19.3951 103.056 24.3856 102.965 25.3838 103.419C26.3819 103.873 25.5652 106.686 26.9263 107.775C28.2873 108.863 32.3705 109.135 33.0964 109.317C33.8223 109.498 33.8223 111.948 35.4556 113.218C37.0889 114.489 39.5388 113.309 40.4462 113.763C41.3535 114.217 41.4443 116.667 42.4424 117.574C43.4405 118.481 47.3422 117.12 48.3403 117.574C49.3384 118.028 49.2477 121.566 50.6995 121.839C52.1513 122.111 55.5086 122.383 56.053 122.655C56.5974 122.927 56.6882 124.833 58.5029 126.103C60.3176 127.373 62.4953 126.285 63.9471 126.648C65.3989 127.011 65.5804 130.277 67.3044 131.275C69.0284 132.274 71.2969 131.638 72.3857 131.91Z" fill="#B9B9B9"/>
<path d="M72.3857 131.91C73.4745 132.182 72.2042 134.088 76.2874 136.175C77.5941 136.756 79.9264 136.901 80.9292 136.901V113.763L18.8507 77.9219V101.695C19.3951 103.056 24.3856 102.965 25.3838 103.419C26.3819 103.873 25.5652 106.686 26.9263 107.775C28.2873 108.863 32.3705 109.135 33.0964 109.317C33.8223 109.498 33.8223 111.948 35.4556 113.218C37.0889 114.489 39.5388 113.309 40.4462 113.763C41.3535 114.217 41.4443 116.667 42.4424 117.574C43.4405 118.481 47.3422 117.12 48.3403 117.574C49.3384 118.028 49.2477 121.566 50.6995 121.839C52.1513 122.111 55.5086 122.383 56.053 122.655C56.5974 122.927 56.6882 124.833 58.5029 126.103C60.3176 127.373 62.4953 126.285 63.9471 126.648C65.3989 127.011 65.5804 130.277 67.3044 131.275C69.0284 132.274 71.2969 131.638 72.3857 131.91Z" fill="#969696" fill-opacity="0.5"/>
<path d="M19.3708 78.0818L81.065 113.701L105.264 99.7294L43.5701 64.1104L19.3708 78.0818Z" fill="#B9B9B9"/>
<path d="M18.8509 104.745V40.8916H23.4495V104.745L21.1502 106.073L18.8509 104.745Z" fill="#53442E"/>
<g filter="url(#filter0_d_795_6258)">
<path d="M42.7248 82.6062L37.6596 79.6818L44.8247 75.5447L49.8901 78.4692L42.7248 82.6062Z" fill="#F9F9F9"/>
</g>
<g filter="url(#filter1_d_795_6258)">
<path d="M40.1735 82.1301L35.1083 79.2057L42.2734 75.0686L47.3389 77.9932L40.1735 82.1301Z" fill="#F9F9F9"/>
</g>
<g filter="url(#filter2_d_795_6258)">
<path d="M69.9989 95.967L64.9337 93.0426L72.0988 88.9055L77.1643 91.8301L69.9989 95.967Z" fill="#F9F9F9"/>
</g>
<g filter="url(#filter3_d_795_6258)">
<path d="M69.9989 100.729L64.9337 97.8046L72.0988 93.6675L77.1643 96.592L69.9989 100.729Z" fill="#F9F9F9"/>
</g>
<g filter="url(#filter4_d_795_6258)">
<path d="M61.2675 96.613L56.2023 93.6886L63.3674 89.5515L68.4329 92.4761L61.2675 96.613Z" fill="#F9F9F9"/>
</g>
<path d="M25.4487 74.0488V78.9814H25.4663C25.5694 79.3014 26.153 79.5468 26.8599 79.5469C27.5667 79.5469 28.1502 79.3013 28.2534 78.9814H28.272V74.0488H25.4487Z" fill="url(#paint0_linear_795_6258)"/>
<ellipse cx="1.41165" cy="0.666031" rx="1.41165" ry="0.666031" transform="matrix(-1 0 0 1 28.2717 73.4824)" fill="#D9D9D9"/>
<path d="M125.678 62.4414L132.471 66.3631V78.5994L125.678 74.6775V62.4414Z" fill="#D3D3D3"/>
<ellipse cx="0.17029" cy="0.252494" rx="0.17029" ry="0.252494" transform="matrix(-1 0 0 1 129.571 65.1426)" fill="#696969"/>
<path d="M113.333 70.7998L117.502 73.2065V80.7157L113.333 78.3089V70.7998Z" fill="#D3D3D3"/>
<ellipse cx="0.17029" cy="0.252494" rx="0.17029" ry="0.252494" transform="matrix(-1 0 0 1 115.968 72.7681)" fill="#696969"/>
<path d="M124.9 78.7346L127.822 80.4215V92.6578L124.9 90.9707V78.7346Z" fill="#D3D3D3"/>
<ellipse cx="0.17029" cy="0.252494" rx="0.17029" ry="0.252494" transform="matrix(-1 0 0 1 126.671 80.2107)" fill="#696969"/>
<path d="M19.4964 48.0012C30.4361 67.4066 65.079 82.9047 80.5772 81.2117C96.3358 85.7699 138.402 57.8991 141.919 48.0012" stroke="black" stroke-width="0.247125"/>
<path d="M26.8601 57.4526L24.9306 61.1713L23.067 53.1895L26.8601 57.4526Z" fill="#F2F2F2"/>
<path d="M32.3447 62.4012L30.514 66.4914L28.3234 58.7341L32.3447 62.4012Z" fill="#F2F2F2"/>
<path d="M37.5991 66.2555L35.518 70.9162L33.238 63.0596L37.5991 66.2555Z" fill="#F2F2F2"/>
<path d="M44.2004 70.2828L41.8914 74.3397L39.3535 67.4263L44.2004 70.2828Z" fill="#F2F2F2"/>
<path d="M49.8015 73.4302L47.5276 77.711L45.1976 70.8081L49.8015 73.4302Z" fill="#F2F2F2"/>
<path d="M55.9644 76.1086L53.1698 81.2212L51.263 74.3377L55.9644 76.1086Z" fill="#F2F2F2"/>
<path d="M62.6309 78.4978L59.8003 84.0317L57.3375 76.9119L62.6309 78.4978Z" fill="#F2F2F2"/>
<path d="M69.3989 80.4677L67.4382 85.7701L64.6434 79.3628L69.3989 80.4677Z" fill="#F2F2F2"/>
<path d="M76.0737 81.3252L73.9697 86.9289L71.0495 80.6718L76.0737 81.3252Z" fill="#F2F2F2"/>
<g style="mix-blend-mode:plus-darker" opacity="0.1" filter="url(#filter5_f_795_6258)">
<path d="M158.504 138.417H79.6814L21.5445 101.081V80.1934L55.5323 72.1795H56.391L110.771 46.7065L134.812 56.5807L135.528 67.5153H162.275L195.84 101.081L158.504 138.417Z" fill="black"/>
</g>
<path d="M78.4158 138.415V74.5613H83.0144V138.415L80.7151 139.742L78.4158 138.415Z" fill="#53442E"/>
<path d="M137.981 110.641V46.7874H142.579V110.641L140.28 111.968L137.981 110.641Z" fill="#53442E"/>
<path d="M81.0711 74.5612L142.597 37.2911L81.0711 22.3921V0.00634766L18.8509 37.3104L81.0711 22.3921V74.5612Z" fill="#B9B9B9"/>
<path d="M81.0711 74.5612L142.597 37.2911L81.0711 22.3921V0.00634766L18.8509 37.3104L81.0711 22.3921V74.5612Z" fill="black" fill-opacity="0.2"/>
<path d="M81.1417 22.4132L81.3401 22.3657L142.568 37.31L81.1417 0V22.4132L18.8508 37.31L81.1417 74.5612V22.4132Z" fill="#B9B9B9"/>
<path d="M142.579 48.7411V37.2808L80.715 72.9982L18.8506 37.2808V48.7411L80.715 84.4585L142.579 48.7411Z" fill="#AEAEAE"/>
<path d="M142.579 48.7411V37.2808L80.715 72.9982V84.4585L142.579 48.7411Z" fill="#AEAEAE"/>
<path d="M142.579 48.7411V37.2808L80.715 72.9982V84.4585L142.579 48.7411Z" fill="black" fill-opacity="0.2"/>
<path d="M431.987 291.698L457.483 306.418L458.608 305.757L446.851 298.97V293.274L445.663 292.588V298.283L433.121 291.043L431.987 291.698Z" fill="#53442E"/>
<path d="M432.581 238.729L458.307 253.581V305.371C450.086 300.42 432.581 290.518 432.581 290.518C432.581 290.518 432.226 255.992 432.581 238.729Z" fill="#AEAEAE"/>
<path d="M436.729 252.724L443.522 256.646V268.882L436.729 264.96V252.724Z" fill="#D3D3D3"/>
<path d="M403.915 333.901V310.582L428.248 296.738L429.231 319.656C428.838 319.837 427.852 320.654 427.053 322.469C426.055 324.737 422.426 323.285 420.066 324.011C417.707 324.737 418.161 327.187 417.072 328.276C415.983 329.365 411.446 329.092 410.902 329.455C410.358 329.818 406.365 333.901 403.915 333.901Z" fill="#B9B9B9"/>
<path d="M403.915 333.901V310.582L428.248 296.738L429.231 319.656C428.838 319.837 427.852 320.654 427.053 322.469C426.055 324.737 422.426 323.285 420.066 324.011C417.707 324.737 418.161 327.187 417.072 328.276C415.983 329.365 411.446 329.092 410.902 329.455C410.358 329.818 406.365 333.901 403.915 333.901Z" fill="#929292"/>
<path d="M395.386 328.91C396.474 329.182 395.204 331.088 399.287 333.175C400.594 333.756 402.926 333.901 403.929 333.901V310.763L341.851 274.922V298.695C342.395 300.056 347.386 299.965 348.384 300.419C349.382 300.873 348.565 303.686 349.926 304.775C351.287 305.863 355.371 306.135 356.096 306.317C356.822 306.498 356.822 308.948 358.456 310.218C360.089 311.489 362.539 310.309 363.446 310.763C364.354 311.217 364.444 313.667 365.442 314.574C366.44 315.481 370.342 314.12 371.34 314.574C372.338 315.028 372.248 318.566 373.699 318.839C375.151 319.111 378.509 319.383 379.053 319.655C379.597 319.927 379.688 321.833 381.503 323.103C383.318 324.373 385.495 323.285 386.947 323.648C388.399 324.011 388.58 327.277 390.304 328.275C392.028 329.274 394.297 328.638 395.386 328.91Z" fill="#B9B9B9"/>
<path d="M395.386 328.91C396.474 329.182 395.204 331.088 399.287 333.175C400.594 333.756 402.926 333.901 403.929 333.901V310.763L341.851 274.922V298.695C342.395 300.056 347.386 299.965 348.384 300.419C349.382 300.873 348.565 303.686 349.926 304.775C351.287 305.863 355.371 306.135 356.096 306.317C356.822 306.498 356.822 308.948 358.456 310.218C360.089 311.489 362.539 310.309 363.446 310.763C364.354 311.217 364.444 313.667 365.442 314.574C366.44 315.481 370.342 314.12 371.34 314.574C372.338 315.028 372.248 318.566 373.699 318.839C375.151 319.111 378.509 319.383 379.053 319.655C379.597 319.927 379.688 321.833 381.503 323.103C383.318 324.373 385.495 323.285 386.947 323.648C388.399 324.011 388.58 327.277 390.304 328.275C392.028 329.274 394.297 328.638 395.386 328.91Z" fill="#969696" fill-opacity="0.5"/>
<path d="M342.371 275.082L404.065 310.701L428.264 296.729L366.57 261.11L342.371 275.082Z" fill="#B9B9B9"/>
<path d="M341.851 301.745V237.892H346.449V301.745L344.15 303.073L341.851 301.745Z" fill="#53442E"/>
<g filter="url(#filter6_d_795_6258)">
<path d="M365.725 279.606L360.66 276.682L367.825 272.545L372.89 275.469L365.725 279.606Z" fill="#F9F9F9"/>
</g>
<g filter="url(#filter7_d_795_6258)">
<path d="M363.173 279.13L358.108 276.206L365.273 272.069L370.339 274.993L363.173 279.13Z" fill="#F9F9F9"/>
</g>
<g filter="url(#filter8_d_795_6258)">
<path d="M392.999 292.967L387.934 290.043L395.099 285.906L400.164 288.83L392.999 292.967Z" fill="#F9F9F9"/>
</g>
<g filter="url(#filter9_d_795_6258)">
<path d="M392.999 297.729L387.934 294.805L395.099 290.667L400.164 293.592L392.999 297.729Z" fill="#F9F9F9"/>
</g>
<g filter="url(#filter10_d_795_6258)">
<path d="M384.267 293.613L379.202 290.689L386.367 286.552L391.433 289.476L384.267 293.613Z" fill="#F9F9F9"/>
</g>
<path d="M348.449 271.049V275.981H348.466C348.569 276.301 349.153 276.547 349.86 276.547C350.567 276.547 351.15 276.301 351.253 275.981H351.272V271.049H348.449Z" fill="url(#paint1_linear_795_6258)"/>
<ellipse cx="1.41165" cy="0.666031" rx="1.41165" ry="0.666031" transform="matrix(-1 0 0 1 351.272 270.482)" fill="#D9D9D9"/>
<path d="M448.678 259.441L455.471 263.363V275.599L448.678 271.677V259.441Z" fill="#D3D3D3"/>
<ellipse cx="0.17029" cy="0.252494" rx="0.17029" ry="0.252494" transform="matrix(-1 0 0 1 452.571 262.143)" fill="#696969"/>
<path d="M436.333 267.8L440.502 270.206V277.716L436.333 275.309V267.8Z" fill="#D3D3D3"/>
<ellipse cx="0.17029" cy="0.252494" rx="0.17029" ry="0.252494" transform="matrix(-1 0 0 1 438.968 269.768)" fill="#696969"/>
<path d="M447.9 275.735L450.822 277.421V289.658L447.9 287.971V275.735Z" fill="#D3D3D3"/>
<ellipse cx="0.17029" cy="0.252494" rx="0.17029" ry="0.252494" transform="matrix(-1 0 0 1 449.671 277.211)" fill="#696969"/>
<path d="M342.496 245.001C353.436 264.407 388.079 279.905 403.577 278.212C419.336 282.77 461.402 254.899 464.919 245.001" stroke="black" stroke-width="0.247125"/>
<path d="M349.86 254.453L347.931 258.171L346.067 250.189L349.86 254.453Z" fill="#F2F2F2"/>
<path d="M355.345 259.401L353.514 263.491L351.323 255.734L355.345 259.401Z" fill="#F2F2F2"/>
<path d="M360.599 263.255L358.518 267.916L356.238 260.06L360.599 263.255Z" fill="#F2F2F2"/>
<path d="M367.2 267.283L364.891 271.34L362.353 264.426L367.2 267.283Z" fill="#F2F2F2"/>
<path d="M372.802 270.43L370.528 274.711L368.198 267.808L372.802 270.43Z" fill="#F2F2F2"/>
<path d="M378.964 273.109L376.17 278.221L374.263 271.338L378.964 273.109Z" fill="#F2F2F2"/>
<path d="M385.631 275.498L382.8 281.032L380.337 273.912L385.631 275.498Z" fill="#F2F2F2"/>
<path d="M392.399 277.468L390.438 282.77L387.643 276.363L392.399 277.468Z" fill="#F2F2F2"/>
<path d="M399.074 278.325L396.97 283.929L394.05 277.672L399.074 278.325Z" fill="#F2F2F2"/>
<g style="mix-blend-mode:plus-darker" opacity="0.1" filter="url(#filter11_f_795_6258)">
<path d="M481.504 335.417H402.681L344.545 298.081V277.193L378.532 269.18H379.391L433.771 243.707L457.812 253.581L458.528 264.515H485.275L518.84 298.081L481.504 335.417Z" fill="black"/>
</g>
<path d="M401.416 335.415V271.561H406.014V335.415L403.715 336.742L401.416 335.415Z" fill="#53442E"/>
<path d="M460.981 307.641V243.787H465.579V307.641L463.28 308.968L460.981 307.641Z" fill="#53442E"/>
<path d="M404.071 271.561L465.597 234.291L404.071 219.392V197.006L341.851 234.31L404.071 219.392V271.561Z" fill="#B9B9B9"/>
<path d="M404.071 271.561L465.597 234.291L404.071 219.392V197.006L341.851 234.31L404.071 219.392V271.561Z" fill="black" fill-opacity="0.2"/>
<path d="M404.142 219.413L404.34 219.366L465.568 234.31L404.142 197V219.413L341.851 234.31L404.142 271.561V219.413Z" fill="#B9B9B9"/>
<path d="M465.579 245.741V234.281L403.715 269.998L341.851 234.281V245.741L403.715 281.458L465.579 245.741Z" fill="#AEAEAE"/>
<path d="M465.579 245.741V234.281L403.715 269.998V281.458L465.579 245.741Z" fill="#AEAEAE"/>
<path d="M465.579 245.741V234.281L403.715 269.998V281.458L465.579 245.741Z" fill="black" fill-opacity="0.2"/>
<path d="M293.484 228.171L293.861 227.953C293.96 227.896 294.033 227.838 294.078 227.782C294.122 227.723 294.142 227.667 294.137 227.612C294.136 227.563 294.114 227.515 294.073 227.468C294.031 227.419 293.974 227.373 293.901 227.331C293.829 227.29 293.753 227.259 293.674 227.238C293.594 227.215 293.512 227.203 293.427 227.202C293.344 227.202 293.258 227.214 293.17 227.238C293.084 227.261 292.998 227.297 292.913 227.346C292.843 227.386 292.788 227.43 292.746 227.477C292.706 227.523 292.682 227.569 292.674 227.616C292.665 227.665 292.675 227.713 292.701 227.759C292.728 227.805 292.774 227.847 292.841 227.885L292.148 228.286C292 228.2 291.895 228.105 291.833 228.001C291.774 227.895 291.753 227.786 291.771 227.674C291.791 227.563 291.848 227.452 291.943 227.341C292.04 227.23 292.171 227.126 292.337 227.03C292.517 226.927 292.704 226.845 292.898 226.784C293.091 226.723 293.284 226.686 293.477 226.675C293.671 226.664 293.862 226.68 294.05 226.721C294.238 226.76 294.417 226.829 294.586 226.927C294.664 226.972 294.73 227.023 294.783 227.081C294.835 227.137 294.872 227.198 294.895 227.264C294.919 227.329 294.926 227.397 294.918 227.469C294.908 227.54 294.88 227.613 294.836 227.687C294.974 227.649 295.107 227.626 295.237 227.616C295.368 227.606 295.494 227.607 295.614 227.621C295.735 227.635 295.85 227.66 295.96 227.697C296.07 227.733 296.173 227.779 296.269 227.835C296.439 227.933 296.558 228.039 296.626 228.153C296.694 228.267 296.716 228.383 296.693 228.5C296.672 228.618 296.607 228.736 296.499 228.854C296.391 228.97 296.247 229.08 296.067 229.184C295.913 229.273 295.741 229.349 295.551 229.41C295.362 229.47 295.166 229.507 294.965 229.524C294.766 229.541 294.566 229.532 294.367 229.498C294.169 229.462 293.982 229.394 293.806 229.292L294.499 228.892C294.569 228.932 294.647 228.962 294.733 228.981C294.818 228.999 294.906 229.006 294.998 229.001C295.089 228.998 295.181 228.985 295.272 228.961C295.362 228.936 295.446 228.9 295.526 228.854C295.616 228.803 295.684 228.749 295.731 228.693C295.777 228.637 295.801 228.582 295.801 228.526C295.804 228.474 295.786 228.423 295.746 228.374C295.707 228.323 295.649 228.275 295.571 228.23C295.473 228.173 295.375 228.133 295.277 228.109C295.179 228.085 295.081 228.075 294.983 228.08C294.883 228.086 294.784 228.104 294.686 228.136C294.59 228.167 294.494 228.209 294.399 228.264L294.023 228.481L293.484 228.171ZM295.706 226.22L296.052 226.397C295.988 226.3 295.967 226.206 295.99 226.116C296.013 226.024 296.09 225.941 296.219 225.866C296.283 225.829 296.347 225.801 296.411 225.781C296.476 225.761 296.543 225.749 296.611 225.746C296.662 225.743 296.715 225.746 296.768 225.753C296.821 225.759 296.876 225.77 296.933 225.785C296.916 225.749 296.906 225.713 296.903 225.679C296.899 225.642 296.903 225.607 296.915 225.574C296.928 225.531 296.954 225.49 296.992 225.448C297.031 225.407 297.082 225.368 297.147 225.33C297.228 225.283 297.319 225.248 297.419 225.225C297.52 225.201 297.63 225.193 297.748 225.199C297.866 225.208 297.991 225.234 298.124 225.278C298.257 225.321 298.399 225.385 298.548 225.471L300.473 226.583L299.842 226.947L297.915 225.834C297.863 225.804 297.815 225.783 297.77 225.771C297.727 225.757 297.686 225.75 297.648 225.749C297.612 225.749 297.578 225.754 297.546 225.765C297.514 225.774 297.486 225.785 297.461 225.8C297.435 225.815 297.414 225.831 297.399 225.847C297.386 225.862 297.376 225.879 297.369 225.896C297.366 225.911 297.366 225.927 297.369 225.942C297.371 225.956 297.376 225.971 297.386 225.987C297.39 225.989 297.397 225.993 297.409 226C297.42 226.006 297.436 226.015 297.456 226.027L299.446 227.176L298.835 227.528L296.905 226.414C296.854 226.384 296.806 226.363 296.763 226.349C296.72 226.336 296.681 226.329 296.646 226.328C296.609 226.328 296.576 226.333 296.546 226.342C296.514 226.351 296.485 226.363 296.459 226.378C296.429 226.396 296.407 226.414 296.394 226.433C296.381 226.452 296.374 226.472 296.374 226.493C296.374 226.509 296.378 226.525 296.386 226.541C296.395 226.557 296.406 226.574 296.419 226.591L298.439 227.757L297.808 228.122L295.11 226.564L295.706 226.22Z" fill="black"/>
<path d="M290.657 230.75L291.09 230.5L290.224 230L289.791 230.25L290.224 230.5L290.657 230.75ZM257.315 249.5L264.145 248.444L259.145 245.557L257.315 249.5ZM290.224 230.5L289.791 230.25L260.779 247L261.212 247.25L261.645 247.5L290.657 230.75L290.224 230.5Z" fill="black"/>
<path d="M301.915 224.25L301.482 224.5L300.616 224L301.049 223.75L301.482 224L301.915 224.25ZM334.391 205L332.561 208.944L327.561 206.057L334.391 205ZM301.482 224L301.049 223.75L330.061 207L330.494 207.25L330.927 207.5L301.915 224.25L301.482 224Z" fill="black"/>
<path d="M193.259 228.883L193.635 229.1C193.735 229.158 193.834 229.199 193.932 229.225C194.034 229.251 194.132 229.263 194.226 229.26C194.311 229.259 194.394 229.246 194.476 229.222C194.56 229.198 194.639 229.165 194.713 229.123C194.784 229.082 194.838 229.038 194.875 228.992C194.915 228.946 194.935 228.898 194.937 228.85C194.937 228.802 194.916 228.752 194.875 228.701C194.835 228.651 194.772 228.602 194.688 228.553C194.618 228.513 194.542 228.481 194.461 228.457C194.381 228.434 194.3 228.42 194.219 228.415C194.134 228.41 194.052 228.415 193.972 228.431C193.892 228.446 193.819 228.473 193.753 228.511L193.059 228.111C193.207 228.026 193.372 227.965 193.553 227.93C193.736 227.895 193.925 227.883 194.119 227.894C194.312 227.905 194.504 227.938 194.695 227.993C194.888 228.049 195.067 228.124 195.234 228.22C195.413 228.324 195.555 228.432 195.66 228.544C195.766 228.656 195.83 228.767 195.85 228.878C195.868 228.991 195.841 229.101 195.77 229.209C195.702 229.318 195.583 229.421 195.413 229.519C195.335 229.564 195.246 229.602 195.146 229.633C195.048 229.662 194.943 229.684 194.83 229.697C194.717 229.711 194.598 229.715 194.473 229.71C194.35 229.705 194.225 229.689 194.097 229.663C194.162 229.743 194.202 229.82 194.219 229.895C194.237 229.971 194.235 230.043 194.211 230.112C194.186 230.182 194.142 230.249 194.079 230.312C194.016 230.376 193.936 230.435 193.84 230.491C193.67 230.589 193.487 230.657 193.289 230.697C193.091 230.736 192.891 230.749 192.688 230.735C192.483 230.723 192.279 230.686 192.075 230.623C191.873 230.561 191.683 230.478 191.504 230.374C191.349 230.285 191.218 230.185 191.112 230.076C191.009 229.967 190.943 229.854 190.915 229.738C190.885 229.623 190.9 229.507 190.96 229.392C191.021 229.278 191.14 229.17 191.317 229.068L192.01 229.469C191.94 229.509 191.888 229.554 191.855 229.604C191.824 229.653 191.812 229.704 191.82 229.756C191.825 229.809 191.848 229.862 191.89 229.915C191.933 229.967 191.995 230.016 192.075 230.062C192.164 230.114 192.257 230.153 192.354 230.18C192.45 230.207 192.547 230.22 192.643 230.22C192.733 230.222 192.821 230.211 192.907 230.188C192.995 230.166 193.079 230.133 193.157 230.088C193.255 230.031 193.325 229.974 193.366 229.918C193.408 229.861 193.424 229.804 193.416 229.748C193.406 229.69 193.374 229.633 193.319 229.577C193.266 229.521 193.192 229.466 193.097 229.411L192.72 229.194L193.259 228.883ZM196.638 230.165L196.331 230.365C196.499 230.328 196.661 230.316 196.817 230.329C196.977 230.343 197.121 230.387 197.251 230.462C197.314 230.498 197.363 230.535 197.398 230.573C197.433 230.61 197.453 230.649 197.458 230.688C197.463 230.718 197.459 230.748 197.445 230.779C197.435 230.809 197.417 230.841 197.391 230.874C197.454 230.864 197.515 230.858 197.575 230.856C197.638 230.854 197.699 230.857 197.757 230.864C197.83 230.871 197.903 230.886 197.974 230.908C198.045 230.93 198.114 230.96 198.178 230.997C198.26 231.044 198.321 231.097 198.36 231.154C198.402 231.213 198.417 231.276 198.405 231.344C198.39 231.412 198.345 231.485 198.268 231.562C198.195 231.639 198.084 231.72 197.934 231.806L196.009 232.918L195.378 232.554L197.306 231.441C197.357 231.411 197.394 231.383 197.415 231.357C197.439 231.332 197.451 231.309 197.453 231.287C197.453 231.266 197.444 231.246 197.425 231.228C197.41 231.21 197.391 231.193 197.366 231.179C197.339 231.163 197.312 231.151 197.283 231.143C197.257 231.135 197.228 231.129 197.199 231.126C197.172 231.124 197.145 231.124 197.119 231.126C197.094 231.126 197.068 231.13 197.041 231.136C197.038 231.138 197.031 231.142 197.019 231.149C197.007 231.155 196.992 231.164 196.972 231.176L194.982 232.325L194.371 231.972L196.301 230.858C196.352 230.828 196.39 230.801 196.413 230.776C196.436 230.751 196.449 230.728 196.45 230.708C196.45 230.687 196.442 230.668 196.426 230.65C196.411 230.632 196.39 230.615 196.363 230.6C196.333 230.583 196.302 230.57 196.268 230.563C196.235 230.555 196.2 230.551 196.164 230.551C196.137 230.551 196.11 230.554 196.081 230.558C196.053 230.563 196.024 230.569 195.994 230.577L193.975 231.743L193.344 231.379L196.042 229.821L196.638 230.165Z" fill="black"/>
<path d="M188.791 227.25L189.224 227.5L190.09 227L189.657 226.75L189.224 227L188.791 227.25ZM156.315 208L158.145 211.944L163.145 209.057L156.315 208ZM189.224 227L189.657 226.75L160.645 210L160.212 210.25L159.779 210.5L188.791 227.25L189.224 227Z" fill="black"/>
<path d="M200.049 233.75L199.616 233.5L200.482 233L200.915 233.25L200.482 233.5L200.049 233.75ZM233.391 252.5L226.561 251.444L231.561 248.557L233.391 252.5ZM200.482 233.5L200.915 233.25L229.927 250L229.494 250.25L229.061 250.5L200.049 233.75L200.482 233.5Z" fill="black"/>
<path d="M109.259 177.883L109.635 178.1C109.735 178.158 109.834 178.199 109.932 178.225C110.034 178.251 110.132 178.263 110.226 178.26C110.311 178.259 110.394 178.246 110.476 178.222C110.56 178.198 110.639 178.165 110.713 178.123C110.784 178.082 110.838 178.038 110.875 177.992C110.915 177.946 110.935 177.898 110.937 177.85C110.937 177.802 110.916 177.752 110.875 177.701C110.835 177.651 110.772 177.602 110.688 177.553C110.618 177.513 110.542 177.481 110.461 177.457C110.381 177.434 110.3 177.42 110.219 177.415C110.134 177.41 110.052 177.415 109.972 177.431C109.892 177.446 109.819 177.473 109.753 177.511L109.059 177.111C109.207 177.026 109.372 176.965 109.553 176.93C109.736 176.895 109.925 176.883 110.119 176.894C110.312 176.905 110.504 176.938 110.695 176.993C110.888 177.049 111.067 177.124 111.234 177.22C111.413 177.324 111.555 177.432 111.66 177.544C111.766 177.656 111.83 177.767 111.85 177.878C111.868 177.991 111.841 178.101 111.77 178.209C111.702 178.318 111.583 178.421 111.413 178.519C111.335 178.564 111.246 178.602 111.146 178.633C111.048 178.662 110.943 178.684 110.83 178.697C110.717 178.711 110.598 178.715 110.473 178.71C110.35 178.705 110.225 178.689 110.097 178.663C110.162 178.743 110.202 178.82 110.219 178.895C110.237 178.971 110.235 179.043 110.211 179.112C110.186 179.182 110.142 179.249 110.079 179.312C110.016 179.376 109.936 179.435 109.84 179.491C109.67 179.589 109.487 179.657 109.289 179.697C109.091 179.736 108.891 179.749 108.688 179.735C108.483 179.723 108.279 179.686 108.075 179.623C107.873 179.561 107.683 179.478 107.504 179.374C107.349 179.285 107.218 179.185 107.112 179.076C107.009 178.967 106.943 178.854 106.915 178.738C106.885 178.623 106.9 178.507 106.96 178.392C107.021 178.278 107.14 178.17 107.317 178.068L108.01 178.469C107.94 178.509 107.888 178.554 107.855 178.604C107.824 178.653 107.812 178.704 107.82 178.756C107.825 178.809 107.848 178.862 107.89 178.915C107.933 178.967 107.995 179.016 108.075 179.062C108.164 179.114 108.257 179.153 108.354 179.18C108.45 179.207 108.547 179.22 108.643 179.22C108.733 179.222 108.821 179.211 108.907 179.188C108.995 179.166 109.079 179.133 109.157 179.088C109.255 179.031 109.325 178.974 109.366 178.918C109.408 178.861 109.424 178.804 109.416 178.748C109.406 178.69 109.374 178.633 109.319 178.577C109.266 178.521 109.192 178.466 109.097 178.411L108.72 178.194L109.259 177.883ZM112.638 179.165L112.331 179.365C112.499 179.328 112.661 179.316 112.817 179.329C112.977 179.343 113.121 179.387 113.251 179.462C113.314 179.498 113.363 179.535 113.398 179.573C113.433 179.61 113.453 179.649 113.458 179.688C113.463 179.718 113.459 179.748 113.445 179.779C113.435 179.809 113.417 179.841 113.391 179.874C113.454 179.864 113.515 179.858 113.575 179.856C113.638 179.854 113.699 179.857 113.757 179.864C113.83 179.871 113.903 179.886 113.974 179.908C114.045 179.93 114.114 179.96 114.178 179.997C114.26 180.044 114.321 180.097 114.36 180.154C114.402 180.213 114.417 180.276 114.405 180.344C114.39 180.412 114.345 180.485 114.268 180.562C114.195 180.639 114.084 180.72 113.934 180.806L112.009 181.918L111.378 181.554L113.306 180.441C113.357 180.411 113.394 180.383 113.415 180.357C113.439 180.332 113.451 180.309 113.453 180.287C113.453 180.266 113.444 180.246 113.425 180.228C113.41 180.21 113.391 180.193 113.366 180.179C113.339 180.163 113.312 180.151 113.283 180.143C113.257 180.135 113.228 180.129 113.199 180.126C113.172 180.124 113.145 180.124 113.119 180.126C113.094 180.126 113.068 180.13 113.041 180.136C113.038 180.138 113.031 180.142 113.019 180.149C113.007 180.155 112.992 180.164 112.972 180.176L110.982 181.325L110.371 180.972L112.301 179.858C112.352 179.828 112.39 179.801 112.413 179.776C112.436 179.751 112.449 179.728 112.45 179.708C112.45 179.687 112.442 179.668 112.426 179.65C112.411 179.632 112.39 179.615 112.363 179.6C112.333 179.583 112.302 179.57 112.268 179.563C112.235 179.555 112.2 179.551 112.164 179.551C112.137 179.551 112.11 179.554 112.081 179.558C112.053 179.563 112.024 179.569 111.994 179.577L109.975 180.743L109.344 180.379L112.042 178.821L112.638 179.165Z" fill="black"/>
<path d="M104.791 176.25L105.224 176.5L106.09 176L105.657 175.75L105.224 176L104.791 176.25ZM72.3147 157L74.1448 160.944L79.1448 158.057L72.3147 157ZM105.224 176L105.657 175.75L76.6448 159L76.2118 159.25L75.7788 159.5L104.791 176.25L105.224 176Z" fill="black"/>
<path d="M116.049 182.75L115.616 182.5L116.482 182L116.915 182.25L116.482 182.5L116.049 182.75ZM149.391 201.5L142.561 200.444L147.561 197.557L149.391 201.5ZM116.482 182.5L116.915 182.25L145.927 199L145.494 199.25L145.061 199.5L116.049 182.75L116.482 182.5Z" fill="black"/>
<path d="M277.259 276.883L277.635 277.1C277.735 277.158 277.834 277.199 277.932 277.225C278.034 277.251 278.132 277.263 278.226 277.26C278.311 277.259 278.394 277.246 278.476 277.222C278.56 277.198 278.639 277.165 278.713 277.123C278.784 277.082 278.838 277.038 278.875 276.992C278.915 276.946 278.935 276.898 278.937 276.85C278.937 276.802 278.916 276.752 278.875 276.701C278.835 276.651 278.772 276.602 278.688 276.553C278.618 276.513 278.542 276.481 278.461 276.457C278.381 276.434 278.3 276.42 278.219 276.415C278.134 276.41 278.052 276.415 277.972 276.431C277.892 276.446 277.819 276.473 277.753 276.511L277.059 276.111C277.207 276.026 277.372 275.965 277.553 275.93C277.736 275.895 277.925 275.883 278.119 275.894C278.312 275.905 278.504 275.938 278.695 275.993C278.888 276.049 279.067 276.124 279.234 276.22C279.413 276.324 279.555 276.432 279.66 276.544C279.766 276.656 279.83 276.767 279.85 276.878C279.868 276.991 279.841 277.101 279.77 277.209C279.702 277.318 279.583 277.421 279.413 277.519C279.335 277.564 279.246 277.602 279.146 277.633C279.048 277.662 278.943 277.684 278.83 277.697C278.717 277.711 278.598 277.715 278.473 277.71C278.35 277.705 278.225 277.689 278.097 277.663C278.162 277.743 278.202 277.82 278.219 277.895C278.237 277.971 278.235 278.043 278.211 278.112C278.186 278.182 278.142 278.249 278.079 278.312C278.016 278.376 277.936 278.435 277.84 278.491C277.67 278.589 277.487 278.657 277.289 278.697C277.091 278.736 276.891 278.749 276.688 278.735C276.483 278.723 276.279 278.686 276.075 278.623C275.873 278.561 275.683 278.478 275.504 278.374C275.349 278.285 275.218 278.185 275.112 278.076C275.009 277.967 274.943 277.854 274.915 277.738C274.885 277.623 274.9 277.507 274.96 277.392C275.021 277.278 275.14 277.17 275.317 277.068L276.01 277.469C275.94 277.509 275.888 277.554 275.855 277.604C275.824 277.653 275.812 277.704 275.82 277.756C275.825 277.809 275.848 277.862 275.89 277.915C275.933 277.967 275.995 278.016 276.075 278.062C276.164 278.114 276.257 278.153 276.354 278.18C276.45 278.207 276.547 278.22 276.643 278.22C276.733 278.222 276.821 278.211 276.907 278.188C276.995 278.166 277.079 278.133 277.157 278.088C277.255 278.031 277.325 277.974 277.366 277.918C277.408 277.861 277.424 277.804 277.416 277.748C277.406 277.69 277.374 277.633 277.319 277.577C277.266 277.521 277.192 277.466 277.097 277.411L276.72 277.194L277.259 276.883ZM280.638 278.165L280.331 278.365C280.499 278.328 280.661 278.316 280.817 278.329C280.977 278.343 281.121 278.387 281.251 278.462C281.314 278.498 281.363 278.535 281.398 278.573C281.433 278.61 281.453 278.649 281.458 278.688C281.463 278.718 281.459 278.748 281.445 278.779C281.435 278.809 281.417 278.841 281.391 278.874C281.454 278.864 281.515 278.858 281.575 278.856C281.638 278.854 281.699 278.857 281.757 278.864C281.83 278.871 281.903 278.886 281.974 278.908C282.045 278.93 282.114 278.96 282.178 278.997C282.26 279.044 282.321 279.097 282.36 279.154C282.402 279.213 282.417 279.276 282.405 279.344C282.39 279.412 282.345 279.485 282.268 279.562C282.195 279.639 282.084 279.72 281.934 279.806L280.009 280.918L279.378 280.554L281.306 279.441C281.357 279.411 281.394 279.383 281.415 279.357C281.439 279.332 281.451 279.309 281.453 279.287C281.453 279.266 281.444 279.246 281.425 279.228C281.41 279.21 281.391 279.193 281.366 279.179C281.339 279.163 281.312 279.151 281.283 279.143C281.257 279.135 281.228 279.129 281.199 279.126C281.172 279.124 281.145 279.124 281.119 279.126C281.094 279.126 281.068 279.13 281.041 279.136C281.038 279.138 281.031 279.142 281.019 279.149C281.007 279.155 280.992 279.164 280.972 279.176L278.982 280.325L278.371 279.972L280.301 278.858C280.352 278.828 280.39 278.801 280.413 278.776C280.436 278.751 280.449 278.728 280.45 278.708C280.45 278.687 280.442 278.668 280.426 278.65C280.411 278.632 280.39 278.615 280.363 278.6C280.333 278.583 280.302 278.57 280.268 278.563C280.235 278.555 280.2 278.551 280.164 278.551C280.137 278.551 280.11 278.554 280.081 278.558C280.053 278.563 280.024 278.569 279.994 278.577L277.975 279.743L277.344 279.379L280.042 277.821L280.638 278.165Z" fill="black"/>
<path d="M272.791 275.25L273.224 275.5L274.09 275L273.657 274.75L273.224 275L272.791 275.25ZM240.315 256L242.145 259.944L247.145 257.057L240.315 256ZM273.224 275L273.657 274.75L244.645 258L244.212 258.25L243.779 258.5L272.791 275.25L273.224 275Z" fill="black"/>
<path d="M284.049 281.75L283.616 281.5L284.482 281L284.915 281.25L284.482 281.5L284.049 281.75ZM317.391 300.5L310.561 299.444L315.561 296.557L317.391 300.5ZM284.482 281.5L284.915 281.25L313.927 298L313.494 298.25L313.061 298.5L284.049 281.75L284.482 281.5Z" fill="black"/>
<path d="M272.987 197.698L298.483 212.418L299.608 211.757L287.851 204.97V199.274L286.663 198.588V204.283L274.121 197.043L272.987 197.698Z" fill="#53442E"/>
<path d="M273.581 144.729L299.307 159.581V211.371C291.086 206.42 273.581 196.518 273.581 196.518C273.581 196.518 273.226 161.992 273.581 144.729Z" fill="#AEAEAE"/>
<path d="M277.729 158.724L284.522 162.646V174.882L277.729 170.96V158.724Z" fill="#D3D3D3"/>
<path d="M244.915 239.901V216.582L269.248 202.738L270.231 225.656C269.838 225.837 268.852 226.654 268.053 228.469C267.055 230.737 263.426 229.285 261.066 230.011C258.707 230.737 259.161 233.187 258.072 234.276C256.983 235.365 252.446 235.092 251.902 235.455C251.358 235.818 247.365 239.901 244.915 239.901Z" fill="#B9B9B9"/>
<path d="M244.915 239.901V216.582L269.248 202.738L270.231 225.656C269.838 225.837 268.852 226.654 268.053 228.469C267.055 230.737 263.426 229.285 261.066 230.011C258.707 230.737 259.161 233.187 258.072 234.276C256.983 235.365 252.446 235.092 251.902 235.455C251.358 235.818 247.365 239.901 244.915 239.901Z" fill="#929292"/>
<path d="M236.386 234.91C237.474 235.182 236.204 237.088 240.287 239.175C241.594 239.756 243.926 239.901 244.929 239.901V216.763L182.851 180.922V204.695C183.395 206.056 188.386 205.965 189.384 206.419C190.382 206.873 189.565 209.686 190.926 210.775C192.287 211.863 196.371 212.135 197.096 212.317C197.822 212.498 197.822 214.948 199.456 216.218C201.089 217.489 203.539 216.309 204.446 216.763C205.354 217.217 205.444 219.667 206.442 220.574C207.44 221.481 211.342 220.12 212.34 220.574C213.338 221.028 213.248 224.566 214.699 224.839C216.151 225.111 219.509 225.383 220.053 225.655C220.597 225.927 220.688 227.833 222.503 229.103C224.318 230.373 226.495 229.285 227.947 229.648C229.399 230.011 229.58 233.277 231.304 234.275C233.028 235.274 235.297 234.638 236.386 234.91Z" fill="#B9B9B9"/>
<path d="M236.386 234.91C237.474 235.182 236.204 237.088 240.287 239.175C241.594 239.756 243.926 239.901 244.929 239.901V216.763L182.851 180.922V204.695C183.395 206.056 188.386 205.965 189.384 206.419C190.382 206.873 189.565 209.686 190.926 210.775C192.287 211.863 196.371 212.135 197.096 212.317C197.822 212.498 197.822 214.948 199.456 216.218C201.089 217.489 203.539 216.309 204.446 216.763C205.354 217.217 205.444 219.667 206.442 220.574C207.44 221.481 211.342 220.12 212.34 220.574C213.338 221.028 213.248 224.566 214.699 224.839C216.151 225.111 219.509 225.383 220.053 225.655C220.597 225.927 220.688 227.833 222.503 229.103C224.318 230.373 226.495 229.285 227.947 229.648C229.399 230.011 229.58 233.277 231.304 234.275C233.028 235.274 235.297 234.638 236.386 234.91Z" fill="#969696" fill-opacity="0.5"/>
<path d="M183.371 181.082L245.065 216.701L269.264 202.729L207.57 167.11L183.371 181.082Z" fill="#B9B9B9"/>
<path d="M182.851 207.745V143.892H187.449V207.745L185.15 209.073L182.851 207.745Z" fill="#53442E"/>
<g filter="url(#filter12_d_795_6258)">
<path d="M206.725 185.606L201.66 182.682L208.825 178.545L213.89 181.469L206.725 185.606Z" fill="#F9F9F9"/>
</g>
<g filter="url(#filter13_d_795_6258)">
<path d="M204.173 185.13L199.108 182.206L206.273 178.069L211.339 180.993L204.173 185.13Z" fill="#F9F9F9"/>
</g>
<g filter="url(#filter14_d_795_6258)">
<path d="M233.999 198.967L228.934 196.043L236.099 191.906L241.164 194.83L233.999 198.967Z" fill="#F9F9F9"/>
</g>
<g filter="url(#filter15_d_795_6258)">
<path d="M233.999 203.729L228.934 200.805L236.099 196.667L241.164 199.592L233.999 203.729Z" fill="#F9F9F9"/>
</g>
<g filter="url(#filter16_d_795_6258)">
<path d="M225.267 199.613L220.202 196.689L227.367 192.552L232.433 195.476L225.267 199.613Z" fill="#F9F9F9"/>
</g>
<path d="M189.449 177.049V181.981H189.466C189.569 182.301 190.153 182.547 190.86 182.547C191.567 182.547 192.15 182.301 192.253 181.981H192.272V177.049H189.449Z" fill="url(#paint2_linear_795_6258)"/>
<ellipse cx="1.41165" cy="0.666031" rx="1.41165" ry="0.666031" transform="matrix(-1 0 0 1 192.272 176.482)" fill="#D9D9D9"/>
<path d="M289.678 165.441L296.471 169.363V181.599L289.678 177.677V165.441Z" fill="#D3D3D3"/>
<ellipse cx="0.17029" cy="0.252494" rx="0.17029" ry="0.252494" transform="matrix(-1 0 0 1 293.571 168.143)" fill="#696969"/>
<path d="M277.333 173.8L281.502 176.206V183.716L277.333 181.309V173.8Z" fill="#D3D3D3"/>
<ellipse cx="0.17029" cy="0.252494" rx="0.17029" ry="0.252494" transform="matrix(-1 0 0 1 279.968 175.768)" fill="#696969"/>
<path d="M288.9 181.735L291.822 183.421V195.658L288.9 193.971V181.735Z" fill="#D3D3D3"/>
<ellipse cx="0.17029" cy="0.252494" rx="0.17029" ry="0.252494" transform="matrix(-1 0 0 1 290.671 183.211)" fill="#696969"/>
<path d="M183.496 151.001C194.436 170.407 229.079 185.905 244.577 184.212C260.336 188.77 302.402 160.899 305.919 151.001" stroke="black" stroke-width="0.247125"/>
<path d="M190.86 160.453L188.931 164.171L187.067 156.189L190.86 160.453Z" fill="#F2F2F2"/>
<path d="M196.345 165.401L194.514 169.491L192.323 161.734L196.345 165.401Z" fill="#F2F2F2"/>
<path d="M201.599 169.255L199.518 173.916L197.238 166.06L201.599 169.255Z" fill="#F2F2F2"/>
<path d="M208.2 173.283L205.891 177.34L203.353 170.426L208.2 173.283Z" fill="#F2F2F2"/>
<path d="M213.802 176.43L211.528 180.711L209.198 173.808L213.802 176.43Z" fill="#F2F2F2"/>
<path d="M219.964 179.109L217.17 184.221L215.263 177.338L219.964 179.109Z" fill="#F2F2F2"/>
<path d="M226.631 181.498L223.8 187.032L221.337 179.912L226.631 181.498Z" fill="#F2F2F2"/>
<path d="M233.399 183.468L231.438 188.77L228.643 182.363L233.399 183.468Z" fill="#F2F2F2"/>
<path d="M240.074 184.325L237.97 189.929L235.05 183.672L240.074 184.325Z" fill="#F2F2F2"/>
<g style="mix-blend-mode:plus-darker" opacity="0.1" filter="url(#filter17_f_795_6258)">
<path d="M322.504 241.417H243.681L185.545 204.081V183.193L219.532 175.18H220.391L274.771 149.707L298.812 159.581L299.528 170.515H326.275L359.84 204.081L322.504 241.417Z" fill="black"/>
</g>
<path d="M242.416 241.415V177.561H247.014V241.415L244.715 242.742L242.416 241.415Z" fill="#53442E"/>
<path d="M301.981 213.641V149.787H306.579V213.641L304.28 214.968L301.981 213.641Z" fill="#53442E"/>
<path d="M245.071 177.561L306.597 140.291L245.071 125.392V103.006L182.851 140.31L245.071 125.392V177.561Z" fill="#B9B9B9"/>
<path d="M245.071 177.561L306.597 140.291L245.071 125.392V103.006L182.851 140.31L245.071 125.392V177.561Z" fill="black" fill-opacity="0.2"/>
<path d="M245.142 125.413L245.34 125.366L306.568 140.31L245.142 103V125.413L182.851 140.31L245.142 177.561V125.413Z" fill="#B9B9B9"/>
<path d="M306.579 151.741V140.281L244.715 175.998L182.851 140.281V151.741L244.715 187.458L306.579 151.741Z" fill="#AEAEAE"/>
<path d="M306.579 151.741V140.281L244.715 175.998V187.458L306.579 151.741Z" fill="#AEAEAE"/>
<path d="M306.579 151.741V140.281L244.715 175.998V187.458L306.579 151.741Z" fill="black" fill-opacity="0.2"/>
<defs>
<filter id="filter0_d_795_6258" x="37.4125" y="75.5447" width="12.7247" height="7.55577" filterUnits="userSpaceOnUse" color-interpolation-filters="sRGB">
<feFlood flood-opacity="0" result="BackgroundImageFix"/>
<feColorMatrix in="SourceAlpha" type="matrix" values="0 0 0 0 0 0 0 0 0 0 0 0 0 0 0 0 0 0 127 0" result="hardAlpha"/>
<feOffset dy="0.247125"/>
<feGaussianBlur stdDeviation="0.123562"/>
<feComposite in2="hardAlpha" operator="out"/>
<feColorMatrix type="matrix" values="0 0 0 0 0 0 0 0 0 0 0 0 0 0 0 0 0 0 0.25 0"/>
<feBlend mode="normal" in2="BackgroundImageFix" result="effect1_dropShadow_795_6258"/>
<feBlend mode="normal" in="SourceGraphic" in2="effect1_dropShadow_795_6258" result="shape"/>
</filter>
<filter id="filter1_d_795_6258" x="34.8613" y="75.0686" width="12.7247" height="7.55577" filterUnits="userSpaceOnUse" color-interpolation-filters="sRGB">
<feFlood flood-opacity="0" result="BackgroundImageFix"/>
<feColorMatrix in="SourceAlpha" type="matrix" values="0 0 0 0 0 0 0 0 0 0 0 0 0 0 0 0 0 0 127 0" result="hardAlpha"/>
<feOffset dy="0.247125"/>
<feGaussianBlur stdDeviation="0.123562"/>
<feComposite in2="hardAlpha" operator="out"/>
<feColorMatrix type="matrix" values="0 0 0 0 0 0 0 0 0 0 0 0 0 0 0 0 0 0 0.25 0"/>
<feBlend mode="normal" in2="BackgroundImageFix" result="effect1_dropShadow_795_6258"/>
<feBlend mode="normal" in="SourceGraphic" in2="effect1_dropShadow_795_6258" result="shape"/>
</filter>
<filter id="filter2_d_795_6258" x="64.6867" y="88.9055" width="12.7247" height="7.55577" filterUnits="userSpaceOnUse" color-interpolation-filters="sRGB">
<feFlood flood-opacity="0" result="BackgroundImageFix"/>
<feColorMatrix in="SourceAlpha" type="matrix" values="0 0 0 0 0 0 0 0 0 0 0 0 0 0 0 0 0 0 127 0" result="hardAlpha"/>
<feOffset dy="0.247125"/>
<feGaussianBlur stdDeviation="0.123562"/>
<feComposite in2="hardAlpha" operator="out"/>
<feColorMatrix type="matrix" values="0 0 0 0 0 0 0 0 0 0 0 0 0 0 0 0 0 0 0.25 0"/>
<feBlend mode="normal" in2="BackgroundImageFix" result="effect1_dropShadow_795_6258"/>
<feBlend mode="normal" in="SourceGraphic" in2="effect1_dropShadow_795_6258" result="shape"/>
</filter>
<filter id="filter3_d_795_6258" x="64.6867" y="93.6675" width="12.7247" height="7.55577" filterUnits="userSpaceOnUse" color-interpolation-filters="sRGB">
<feFlood flood-opacity="0" result="BackgroundImageFix"/>
<feColorMatrix in="SourceAlpha" type="matrix" values="0 0 0 0 0 0 0 0 0 0 0 0 0 0 0 0 0 0 127 0" result="hardAlpha"/>
<feOffset dy="0.247125"/>
<feGaussianBlur stdDeviation="0.123562"/>
<feComposite in2="hardAlpha" operator="out"/>
<feColorMatrix type="matrix" values="0 0 0 0 0 0 0 0 0 0 0 0 0 0 0 0 0 0 0.25 0"/>
<feBlend mode="normal" in2="BackgroundImageFix" result="effect1_dropShadow_795_6258"/>
<feBlend mode="normal" in="SourceGraphic" in2="effect1_dropShadow_795_6258" result="shape"/>
</filter>
<filter id="filter4_d_795_6258" x="55.9553" y="89.5515" width="12.7247" height="7.55577" filterUnits="userSpaceOnUse" color-interpolation-filters="sRGB">
<feFlood flood-opacity="0" result="BackgroundImageFix"/>
<feColorMatrix in="SourceAlpha" type="matrix" values="0 0 0 0 0 0 0 0 0 0 0 0 0 0 0 0 0 0 127 0" result="hardAlpha"/>
<feOffset dy="0.247125"/>
<feGaussianBlur stdDeviation="0.123562"/>
<feComposite in2="hardAlpha" operator="out"/>
<feColorMatrix type="matrix" values="0 0 0 0 0 0 0 0 0 0 0 0 0 0 0 0 0 0 0.25 0"/>
<feBlend mode="normal" in2="BackgroundImageFix" result="effect1_dropShadow_795_6258"/>
<feBlend mode="normal" in="SourceGraphic" in2="effect1_dropShadow_795_6258" result="shape"/>
</filter>
<filter id="filter5_f_795_6258" x="10.2683" y="35.4304" width="196.848" height="114.263" filterUnits="userSpaceOnUse" color-interpolation-filters="sRGB">
<feFlood flood-opacity="0" result="BackgroundImageFix"/>
<feBlend mode="normal" in="SourceGraphic" in2="BackgroundImageFix" result="shape"/>
<feGaussianBlur stdDeviation="5.63809" result="effect1_foregroundBlur_795_6258"/>
</filter>
<filter id="filter6_d_795_6258" x="360.413" y="272.545" width="12.7247" height="7.55577" filterUnits="userSpaceOnUse" color-interpolation-filters="sRGB">
<feFlood flood-opacity="0" result="BackgroundImageFix"/>
<feColorMatrix in="SourceAlpha" type="matrix" values="0 0 0 0 0 0 0 0 0 0 0 0 0 0 0 0 0 0 127 0" result="hardAlpha"/>
<feOffset dy="0.247125"/>
<feGaussianBlur stdDeviation="0.123562"/>
<feComposite in2="hardAlpha" operator="out"/>
<feColorMatrix type="matrix" values="0 0 0 0 0 0 0 0 0 0 0 0 0 0 0 0 0 0 0.25 0"/>
<feBlend mode="normal" in2="BackgroundImageFix" result="effect1_dropShadow_795_6258"/>
<feBlend mode="normal" in="SourceGraphic" in2="effect1_dropShadow_795_6258" result="shape"/>
</filter>
<filter id="filter7_d_795_6258" x="357.861" y="272.069" width="12.7247" height="7.55577" filterUnits="userSpaceOnUse" color-interpolation-filters="sRGB">
<feFlood flood-opacity="0" result="BackgroundImageFix"/>
<feColorMatrix in="SourceAlpha" type="matrix" values="0 0 0 0 0 0 0 0 0 0 0 0 0 0 0 0 0 0 127 0" result="hardAlpha"/>
<feOffset dy="0.247125"/>
<feGaussianBlur stdDeviation="0.123562"/>
<feComposite in2="hardAlpha" operator="out"/>
<feColorMatrix type="matrix" values="0 0 0 0 0 0 0 0 0 0 0 0 0 0 0 0 0 0 0.25 0"/>
<feBlend mode="normal" in2="BackgroundImageFix" result="effect1_dropShadow_795_6258"/>
<feBlend mode="normal" in="SourceGraphic" in2="effect1_dropShadow_795_6258" result="shape"/>
</filter>
<filter id="filter8_d_795_6258" x="387.687" y="285.906" width="12.7247" height="7.55577" filterUnits="userSpaceOnUse" color-interpolation-filters="sRGB">
<feFlood flood-opacity="0" result="BackgroundImageFix"/>
<feColorMatrix in="SourceAlpha" type="matrix" values="0 0 0 0 0 0 0 0 0 0 0 0 0 0 0 0 0 0 127 0" result="hardAlpha"/>
<feOffset dy="0.247125"/>
<feGaussianBlur stdDeviation="0.123562"/>
<feComposite in2="hardAlpha" operator="out"/>
<feColorMatrix type="matrix" values="0 0 0 0 0 0 0 0 0 0 0 0 0 0 0 0 0 0 0.25 0"/>
<feBlend mode="normal" in2="BackgroundImageFix" result="effect1_dropShadow_795_6258"/>
<feBlend mode="normal" in="SourceGraphic" in2="effect1_dropShadow_795_6258" result="shape"/>
</filter>
<filter id="filter9_d_795_6258" x="387.687" y="290.667" width="12.7247" height="7.55577" filterUnits="userSpaceOnUse" color-interpolation-filters="sRGB">
<feFlood flood-opacity="0" result="BackgroundImageFix"/>
<feColorMatrix in="SourceAlpha" type="matrix" values="0 0 0 0 0 0 0 0 0 0 0 0 0 0 0 0 0 0 127 0" result="hardAlpha"/>
<feOffset dy="0.247125"/>
<feGaussianBlur stdDeviation="0.123562"/>
<feComposite in2="hardAlpha" operator="out"/>
<feColorMatrix type="matrix" values="0 0 0 0 0 0 0 0 0 0 0 0 0 0 0 0 0 0 0.25 0"/>
<feBlend mode="normal" in2="BackgroundImageFix" result="effect1_dropShadow_795_6258"/>
<feBlend mode="normal" in="SourceGraphic" in2="effect1_dropShadow_795_6258" result="shape"/>
</filter>
<filter id="filter10_d_795_6258" x="378.955" y="286.552" width="12.7247" height="7.55577" filterUnits="userSpaceOnUse" color-interpolation-filters="sRGB">
<feFlood flood-opacity="0" result="BackgroundImageFix"/>
<feColorMatrix in="SourceAlpha" type="matrix" values="0 0 0 0 0 0 0 0 0 0 0 0 0 0 0 0 0 0 127 0" result="hardAlpha"/>
<feOffset dy="0.247125"/>
<feGaussianBlur stdDeviation="0.123562"/>
<feComposite in2="hardAlpha" operator="out"/>
<feColorMatrix type="matrix" values="0 0 0 0 0 0 0 0 0 0 0 0 0 0 0 0 0 0 0.25 0"/>
<feBlend mode="normal" in2="BackgroundImageFix" result="effect1_dropShadow_795_6258"/>
<feBlend mode="normal" in="SourceGraphic" in2="effect1_dropShadow_795_6258" result="shape"/>
</filter>
<filter id="filter11_f_795_6258" x="333.268" y="232.43" width="196.848" height="114.263" filterUnits="userSpaceOnUse" color-interpolation-filters="sRGB">
<feFlood flood-opacity="0" result="BackgroundImageFix"/>
<feBlend mode="normal" in="SourceGraphic" in2="BackgroundImageFix" result="shape"/>
<feGaussianBlur stdDeviation="5.63809" result="effect1_foregroundBlur_795_6258"/>
</filter>
<filter id="filter12_d_795_6258" x="201.413" y="178.545" width="12.7247" height="7.55577" filterUnits="userSpaceOnUse" color-interpolation-filters="sRGB">
<feFlood flood-opacity="0" result="BackgroundImageFix"/>
<feColorMatrix in="SourceAlpha" type="matrix" values="0 0 0 0 0 0 0 0 0 0 0 0 0 0 0 0 0 0 127 0" result="hardAlpha"/>
<feOffset dy="0.247125"/>
<feGaussianBlur stdDeviation="0.123562"/>
<feComposite in2="hardAlpha" operator="out"/>
<feColorMatrix type="matrix" values="0 0 0 0 0 0 0 0 0 0 0 0 0 0 0 0 0 0 0.25 0"/>
<feBlend mode="normal" in2="BackgroundImageFix" result="effect1_dropShadow_795_6258"/>
<feBlend mode="normal" in="SourceGraphic" in2="effect1_dropShadow_795_6258" result="shape"/>
</filter>
<filter id="filter13_d_795_6258" x="198.861" y="178.069" width="12.7247" height="7.55577" filterUnits="userSpaceOnUse" color-interpolation-filters="sRGB">
<feFlood flood-opacity="0" result="BackgroundImageFix"/>
<feColorMatrix in="SourceAlpha" type="matrix" values="0 0 0 0 0 0 0 0 0 0 0 0 0 0 0 0 0 0 127 0" result="hardAlpha"/>
<feOffset dy="0.247125"/>
<feGaussianBlur stdDeviation="0.123562"/>
<feComposite in2="hardAlpha" operator="out"/>
<feColorMatrix type="matrix" values="0 0 0 0 0 0 0 0 0 0 0 0 0 0 0 0 0 0 0.25 0"/>
<feBlend mode="normal" in2="BackgroundImageFix" result="effect1_dropShadow_795_6258"/>
<feBlend mode="normal" in="SourceGraphic" in2="effect1_dropShadow_795_6258" result="shape"/>
</filter>
<filter id="filter14_d_795_6258" x="228.687" y="191.906" width="12.7247" height="7.55577" filterUnits="userSpaceOnUse" color-interpolation-filters="sRGB">
<feFlood flood-opacity="0" result="BackgroundImageFix"/>
<feColorMatrix in="SourceAlpha" type="matrix" values="0 0 0 0 0 0 0 0 0 0 0 0 0 0 0 0 0 0 127 0" result="hardAlpha"/>
<feOffset dy="0.247125"/>
<feGaussianBlur stdDeviation="0.123562"/>
<feComposite in2="hardAlpha" operator="out"/>
<feColorMatrix type="matrix" values="0 0 0 0 0 0 0 0 0 0 0 0 0 0 0 0 0 0 0.25 0"/>
<feBlend mode="normal" in2="BackgroundImageFix" result="effect1_dropShadow_795_6258"/>
<feBlend mode="normal" in="SourceGraphic" in2="effect1_dropShadow_795_6258" result="shape"/>
</filter>
<filter id="filter15_d_795_6258" x="228.687" y="196.667" width="12.7247" height="7.55577" filterUnits="userSpaceOnUse" color-interpolation-filters="sRGB">
<feFlood flood-opacity="0" result="BackgroundImageFix"/>
<feColorMatrix in="SourceAlpha" type="matrix" values="0 0 0 0 0 0 0 0 0 0 0 0 0 0 0 0 0 0 127 0" result="hardAlpha"/>
<feOffset dy="0.247125"/>
<feGaussianBlur stdDeviation="0.123562"/>
<feComposite in2="hardAlpha" operator="out"/>
<feColorMatrix type="matrix" values="0 0 0 0 0 0 0 0 0 0 0 0 0 0 0 0 0 0 0.25 0"/>
<feBlend mode="normal" in2="BackgroundImageFix" result="effect1_dropShadow_795_6258"/>
<feBlend mode="normal" in="SourceGraphic" in2="effect1_dropShadow_795_6258" result="shape"/>
</filter>
<filter id="filter16_d_795_6258" x="219.955" y="192.552" width="12.7247" height="7.55577" filterUnits="userSpaceOnUse" color-interpolation-filters="sRGB">
<feFlood flood-opacity="0" result="BackgroundImageFix"/>
<feColorMatrix in="SourceAlpha" type="matrix" values="0 0 0 0 0 0 0 0 0 0 0 0 0 0 0 0 0 0 127 0" result="hardAlpha"/>
<feOffset dy="0.247125"/>
<feGaussianBlur stdDeviation="0.123562"/>
<feComposite in2="hardAlpha" operator="out"/>
<feColorMatrix type="matrix" values="0 0 0 0 0 0 0 0 0 0 0 0 0 0 0 0 0 0 0.25 0"/>
<feBlend mode="normal" in2="BackgroundImageFix" result="effect1_dropShadow_795_6258"/>
<feBlend mode="normal" in="SourceGraphic" in2="effect1_dropShadow_795_6258" result="shape"/>
</filter>
<filter id="filter17_f_795_6258" x="174.268" y="138.43" width="196.848" height="114.263" filterUnits="userSpaceOnUse" color-interpolation-filters="sRGB">
<feFlood flood-opacity="0" result="BackgroundImageFix"/>
<feBlend mode="normal" in="SourceGraphic" in2="BackgroundImageFix" result="shape"/>
<feGaussianBlur stdDeviation="5.63809" result="effect1_foregroundBlur_795_6258"/>
</filter>
<linearGradient id="paint0_linear_795_6258" x1="26.1531" y1="77.4158" x2="27.9115" y2="77.3028" gradientUnits="userSpaceOnUse">
<stop stop-color="#D9D9D9"/>
<stop offset="1" stop-color="#737373"/>
</linearGradient>
<linearGradient id="paint1_linear_795_6258" x1="349.153" y1="274.416" x2="350.911" y2="274.303" gradientUnits="userSpaceOnUse">
<stop stop-color="#D9D9D9"/>
<stop offset="1" stop-color="#737373"/>
</linearGradient>
<linearGradient id="paint2_linear_795_6258" x1="190.153" y1="180.416" x2="191.911" y2="180.303" gradientUnits="userSpaceOnUse">
<stop stop-color="#D9D9D9"/>
<stop offset="1" stop-color="#737373"/>
</linearGradient>
</defs>
</svg>
