<svg width="39" height="48" viewBox="0 0 39 48" fill="none" xmlns="http://www.w3.org/2000/svg">
<g filter="url(#filter0_n_1069_12837)">
<path d="M31.602 46.9218C28.0038 46.9218 25.4851 46.8961 24.0458 46.8447H21.193C19.9593 46.7419 18.1088 46.6905 15.6415 46.6905H12.4032C10.8611 46.6905 9.83304 46.4849 9.31902 46.0737C8.59939 45.5082 8.23957 44.4031 8.23957 42.7582L8.31667 42.0643C8.31667 41.9101 8.34237 41.7559 8.39378 41.6017C8.44518 41.3961 8.47088 41.1647 8.47088 40.9077L8.62509 39.2114L8.47088 37.0525C8.47088 36.8469 8.44518 36.667 8.39378 36.5128C8.34237 36.3072 8.31667 36.1016 8.31667 35.896L8.23957 35.3563C8.18817 34.8422 8.16247 33.8656 8.16247 32.4263V25.487C8.11106 23.8935 8.08536 22.043 8.08536 19.9355C8.08536 19.3701 8.00826 19.0874 7.85405 19.0874C7.64844 19.0874 7.34003 19.293 6.92881 19.7042C6.00356 20.8351 9.1141 19.705 8.08605 20.5275C7.57203 20.8873 2.91942 23.1739 2.30259 23.1739C1.73716 23.1739 1.27454 23.0197 0.914725 22.7113C0.554908 22.4029 0.375 22.043 0.375 21.6318V6.90503C0.375 6.69942 0.426402 6.57092 0.529207 6.51951C0.632012 6.46811 0.734817 6.39101 0.837622 6.2882C0.940427 6.1854 1.06893 6.10829 1.22314 6.05689C1.53155 5.90268 1.91707 5.67137 2.37969 5.36296C2.89372 5.05454 3.51055 4.69473 4.23018 4.28351C5.66945 3.30686 6.7489 2.71573 7.46853 2.51012C8.18817 2.30451 11.1592 0.460449 11.6733 0.460449C16.9163 0.460449 18.2887 2.15031 20.6533 2.20171L32.0646 2.27881C32.63 2.27881 33.1183 2.48442 33.5296 2.89564C33.9408 3.30686 34.1464 3.76948 34.1464 4.28351V29.959C34.1464 32.2207 34.0693 34.3282 33.9151 36.2815C33.7609 38.3376 33.6838 40.3166 33.6838 42.2185C33.6838 43.6578 37.0078 43.5933 36.8022 44.2101C36.5452 45.2895 32.5272 46.9218 31.602 46.9218Z" fill="#B2651C"/>
<path d="M31.602 46.9218C28.0038 46.9218 25.4851 46.8961 24.0458 46.8447H21.193C19.9593 46.7419 18.1088 46.6905 15.6415 46.6905H12.4032C10.8611 46.6905 9.83304 46.4849 9.31902 46.0737C8.59939 45.5082 8.23957 44.4031 8.23957 42.7582L8.31667 42.0643C8.31667 41.9101 8.34237 41.7559 8.39378 41.6017C8.44518 41.3961 8.47088 41.1647 8.47088 40.9077L8.62509 39.2114L8.47088 37.0525C8.47088 36.8469 8.44518 36.667 8.39378 36.5128C8.34237 36.3072 8.31667 36.1016 8.31667 35.896L8.23957 35.3563C8.18817 34.8422 8.16247 33.8656 8.16247 32.4263V25.487C8.11106 23.8935 8.08536 22.043 8.08536 19.9355C8.08536 19.3701 8.00826 19.0874 7.85405 19.0874C7.64844 19.0874 7.34003 19.293 6.92881 19.7042C6.00356 20.8351 9.1141 19.705 8.08605 20.5275C7.57203 20.8873 2.91942 23.1739 2.30259 23.1739C1.73716 23.1739 1.27454 23.0197 0.914725 22.7113C0.554908 22.4029 0.375 22.043 0.375 21.6318V6.90503C0.375 6.69942 0.426402 6.57092 0.529207 6.51951C0.632012 6.46811 0.734817 6.39101 0.837622 6.2882C0.940427 6.1854 1.06893 6.10829 1.22314 6.05689C1.53155 5.90268 1.91707 5.67137 2.37969 5.36296C2.89372 5.05454 3.51055 4.69473 4.23018 4.28351C5.66945 3.30686 6.7489 2.71573 7.46853 2.51012C8.18817 2.30451 11.1592 0.460449 11.6733 0.460449C16.9163 0.460449 18.2887 2.15031 20.6533 2.20171L32.0646 2.27881C32.63 2.27881 33.1183 2.48442 33.5296 2.89564C33.9408 3.30686 34.1464 3.76948 34.1464 4.28351V29.959C34.1464 32.2207 34.0693 34.3282 33.9151 36.2815C33.7609 38.3376 33.6838 40.3166 33.6838 42.2185C33.6838 43.6578 37.0078 43.5933 36.8022 44.2101C36.5452 45.2895 32.5272 46.9218 31.602 46.9218Z" stroke="black" stroke-width="0.75"/>
</g>
<g filter="url(#filter1_n_1069_12837)">
<path d="M35.0917 45.1722C31.4935 45.1722 28.9748 45.1465 27.5356 45.0951H24.6827C23.4491 44.9923 21.5986 44.9409 19.1313 44.9409H15.8929C14.3508 44.9409 13.3228 44.7353 12.8088 44.3241C12.0891 43.7586 11.7293 42.6535 11.7293 41.0086L11.8064 40.3147C11.8064 40.1605 11.8321 40.0063 11.8835 39.8521C11.9349 39.6464 11.9606 39.4151 11.9606 39.1581L12.1148 37.4618L11.9606 35.3029C11.9606 35.0973 11.9349 34.9174 11.8835 34.7632C11.8321 34.5576 11.8064 34.352 11.8064 34.1464L11.7293 33.6067C11.6779 33.0926 11.6522 32.116 11.6522 30.6767V23.7374C11.6008 22.1439 11.5751 20.2934 11.5751 18.1859C11.5751 17.6205 11.498 17.3378 11.3438 17.3378C11.1382 17.3378 10.8298 17.5434 10.4186 17.9546C9.49331 19.0855 8.51666 20.0621 7.48862 20.8846C6.97459 21.2444 6.40917 21.4243 5.79234 21.4243C5.22691 21.4243 4.76429 21.2701 4.40447 20.9617C4.04465 20.6533 3.86475 20.2934 3.86475 19.8822V5.15542C3.86475 4.94982 3.91615 4.82131 4.01895 4.7699C4.12176 4.7185 4.22456 4.6414 4.32737 4.5386C4.43017 4.43579 4.55868 4.35869 4.71289 4.30728C5.0213 4.15308 5.40682 3.92177 5.86944 3.61335C6.38346 3.30494 7.00029 2.94512 7.71993 2.5339C9.1592 1.55726 10.2386 0.966128 10.9583 0.760518C11.6265 0.503506 12.2176 0.375 12.7317 0.375C17.9747 0.375 21.7785 0.400701 24.143 0.452103L35.5543 0.529205C36.1198 0.529205 36.6081 0.734815 37.0193 1.14604C37.4305 1.55726 37.6361 2.01988 37.6361 2.5339V28.2094C37.6361 30.4711 37.559 32.5786 37.4048 34.5319C37.2506 36.588 37.1735 38.567 37.1735 40.4689C37.1735 41.9082 37.0707 42.9362 36.8651 43.553C36.6081 44.6325 36.017 45.1722 35.0917 45.1722Z" fill="#E9C253"/>
<path d="M35.0917 45.1722C31.4935 45.1722 28.9748 45.1465 27.5356 45.0951H24.6827C23.4491 44.9923 21.5986 44.9409 19.1313 44.9409H15.8929C14.3508 44.9409 13.3228 44.7353 12.8088 44.3241C12.0891 43.7586 11.7293 42.6535 11.7293 41.0086L11.8064 40.3147C11.8064 40.1605 11.8321 40.0063 11.8835 39.8521C11.9349 39.6464 11.9606 39.4151 11.9606 39.1581L12.1148 37.4618L11.9606 35.3029C11.9606 35.0973 11.9349 34.9174 11.8835 34.7632C11.8321 34.5576 11.8064 34.352 11.8064 34.1464L11.7293 33.6067C11.6779 33.0926 11.6522 32.116 11.6522 30.6767V23.7374C11.6008 22.1439 11.5751 20.2934 11.5751 18.1859C11.5751 17.6205 11.498 17.3378 11.3438 17.3378C11.1382 17.3378 10.8298 17.5434 10.4186 17.9546C9.49331 19.0855 8.51666 20.0621 7.48862 20.8846C6.97459 21.2444 6.40917 21.4243 5.79234 21.4243C5.22691 21.4243 4.76429 21.2701 4.40447 20.9617C4.04465 20.6533 3.86475 20.2934 3.86475 19.8822V5.15542C3.86475 4.94982 3.91615 4.82131 4.01895 4.7699C4.12176 4.7185 4.22456 4.6414 4.32737 4.5386C4.43017 4.43579 4.55868 4.35869 4.71289 4.30728C5.0213 4.15308 5.40682 3.92177 5.86944 3.61335C6.38346 3.30494 7.00029 2.94512 7.71993 2.5339C9.1592 1.55726 10.2386 0.966128 10.9583 0.760518C11.6265 0.503506 12.2176 0.375 12.7317 0.375C17.9747 0.375 21.7785 0.400701 24.143 0.452103L35.5543 0.529205C36.1198 0.529205 36.6081 0.734815 37.0193 1.14604C37.4305 1.55726 37.6361 2.01988 37.6361 2.5339V28.2094C37.6361 30.4711 37.559 32.5786 37.4048 34.5319C37.2506 36.588 37.1735 38.567 37.1735 40.4689C37.1735 41.9082 37.0707 42.9362 36.8651 43.553C36.6081 44.6325 36.017 45.1722 35.0917 45.1722Z" stroke="black" stroke-width="0.75"/>
</g>
<defs>
<filter id="filter0_n_1069_12837" x="0" y="0.0854492" width="37.1865" height="47.2114" filterUnits="userSpaceOnUse" color-interpolation-filters="sRGB">
<feFlood flood-opacity="0" result="BackgroundImageFix"/>
<feBlend mode="normal" in="SourceGraphic" in2="BackgroundImageFix" result="shape"/>
<feTurbulence type="fractalNoise" baseFrequency="0.027657391503453255 0.027657391503453255" stitchTiles="stitch" numOctaves="3" result="noise" seed="9207" />
<feColorMatrix in="noise" type="luminanceToAlpha" result="alphaNoise" />
<feComponentTransfer in="alphaNoise" result="coloredNoise1">
<feFuncA type="discrete" tableValues="1 1 1 1 1 1 1 1 1 1 1 1 1 1 1 1 1 1 1 1 1 1 1 1 1 1 1 1 1 1 1 1 1 1 1 1 1 1 1 1 1 1 1 1 1 1 1 1 1 1 1 0 0 0 0 0 0 0 0 0 0 0 0 0 0 0 0 0 0 0 0 0 0 0 0 0 0 0 0 0 0 0 0 0 0 0 0 0 0 0 0 0 0 0 0 0 0 0 0 0 "/>
</feComponentTransfer>
<feComposite operator="in" in2="shape" in="coloredNoise1" result="noise1Clipped" />
<feFlood flood-color="rgba(178, 101, 28, 0.05)" result="color1Flood" />
<feComposite operator="in" in2="noise1Clipped" in="color1Flood" result="color1" />
<feMerge result="effect1_noise_1069_12837">
<feMergeNode in="shape" />
<feMergeNode in="color1" />
</feMerge>
</filter>
<filter id="filter1_n_1069_12837" x="3.48975" y="0" width="34.5215" height="45.5474" filterUnits="userSpaceOnUse" color-interpolation-filters="sRGB">
<feFlood flood-opacity="0" result="BackgroundImageFix"/>
<feBlend mode="normal" in="SourceGraphic" in2="BackgroundImageFix" result="shape"/>
<feTurbulence type="fractalNoise" baseFrequency="0.027657391503453255 0.027657391503453255" stitchTiles="stitch" numOctaves="3" result="noise" seed="9207" />
<feColorMatrix in="noise" type="luminanceToAlpha" result="alphaNoise" />
<feComponentTransfer in="alphaNoise" result="coloredNoise1">
<feFuncA type="discrete" tableValues="1 1 1 1 1 1 1 1 1 1 1 1 1 1 1 1 1 1 1 1 1 1 1 1 1 1 1 1 1 1 1 1 1 1 1 1 1 1 1 1 1 1 1 1 1 1 1 1 1 1 1 0 0 0 0 0 0 0 0 0 0 0 0 0 0 0 0 0 0 0 0 0 0 0 0 0 0 0 0 0 0 0 0 0 0 0 0 0 0 0 0 0 0 0 0 0 0 0 0 0 "/>
</feComponentTransfer>
<feComposite operator="in" in2="shape" in="coloredNoise1" result="noise1Clipped" />
<feFlood flood-color="rgba(178, 101, 28, 0.05)" result="color1Flood" />
<feComposite operator="in" in2="noise1Clipped" in="color1Flood" result="color1" />
<feMerge result="effect1_noise_1069_12837">
<feMergeNode in="shape" />
<feMergeNode in="color1" />
</feMerge>
</filter>
</defs>
</svg>
