<svg width="46" height="55" viewBox="0 0 46 55" fill="none" xmlns="http://www.w3.org/2000/svg">
<g filter="url(#filter0_n_1069_12819)">
<path d="M21.193 54.2464C20.5247 54.2464 19.5995 54.0408 18.4172 53.6296C17.2864 53.2183 16.1298 52.6529 14.9476 51.9333C12.1205 50.3912 9.83304 48.8491 8.08536 47.3071C5.97786 45.5594 4.92411 44.2486 4.92411 43.3748C4.92411 43.3234 4.94982 43.2206 5.00122 43.0664C5.10402 42.9122 5.20683 42.6551 5.30963 42.2953C5.66945 41.5757 5.95216 40.9589 6.15777 40.4448C6.7746 38.9542 7.39143 37.6434 8.00826 36.5126L8.9335 34.585C9.08771 34.1223 9.37042 33.4798 9.78164 32.6574C9.93585 32.4004 10.3214 31.655 10.9382 30.4214C11.3494 29.4961 11.6064 28.9307 11.7092 28.7251L14.8705 22.0942C15.0247 21.7858 15.1789 21.4773 15.3331 21.1689C15.4873 20.8091 15.5901 20.5007 15.6415 20.2437C15.2303 20.2437 14.6135 20.218 13.791 20.1666C13.02 20.1152 12.3775 20.0638 11.8634 20.0124H3.30494C2.07128 20.0124 1.22314 18.5731 0.760518 15.6946C0.503506 14.1011 0.375 11.8908 0.375 9.06366C0.375 8.65244 0.426402 8.26692 0.529207 7.90711V6.05662C0.529207 5.28558 0.554908 4.72016 0.606311 4.36034C0.606311 3.89772 0.632012 3.61501 0.683415 3.5122C0.786219 3.35799 4.54808 1.49148 4.85649 1.33727C5.16491 1.28587 5.52472 1.23446 5.93594 1.18306C6.34716 1.13166 6.68128 1.10596 6.93829 1.10596H7.94064C8.14625 1.10596 6.08067 2.74116 8.8564 2.58696C10.8097 2.38135 12.3004 2.27854 13.3284 2.27854C23.8659 2.27854 31.9361 2.22714 37.5389 2.12433C38.9268 2.17574 39.9549 2.40705 40.6231 2.81827C41.1371 3.17808 41.3941 3.5122 41.3941 3.82061V16.1572C41.3941 16.774 41.2399 17.4423 40.9315 18.1619C40.6745 18.8815 40.2376 19.8839 39.6207 21.1689L37.6932 25.1783L35.0716 30.6527C35.0202 30.8069 34.9431 31.0125 34.8403 31.2695C34.7889 31.4751 34.6861 31.7578 34.5319 32.1176C34.1721 33.2485 33.1183 35.5873 31.3707 39.1341C30.651 40.6761 29.6487 42.6294 28.3636 44.994L26.436 48.6178C26.0762 49.3375 25.408 50.3655 24.4313 51.702C24.0715 52.216 27.186 50.4599 26.1013 52.0869C25.9985 52.2925 22.4266 53.9894 22.1182 54.0922C21.8098 54.195 21.5014 54.2464 21.193 54.2464Z" fill="#B2651C"/>
<path d="M21.193 54.2464C20.5247 54.2464 19.5995 54.0408 18.4172 53.6296C17.2864 53.2183 16.1298 52.6529 14.9476 51.9333C12.1205 50.3912 9.83304 48.8491 8.08536 47.3071C5.97786 45.5594 4.92411 44.2486 4.92411 43.3748C4.92411 43.3234 4.94982 43.2206 5.00122 43.0664C5.10402 42.9122 5.20683 42.6551 5.30963 42.2953C5.66945 41.5757 5.95216 40.9589 6.15777 40.4448C6.7746 38.9542 7.39143 37.6434 8.00826 36.5126L8.9335 34.585C9.08771 34.1223 9.37042 33.4798 9.78164 32.6574C9.93585 32.4004 10.3214 31.655 10.9382 30.4214C11.3494 29.4961 11.6064 28.9307 11.7092 28.7251L14.8705 22.0942C15.0247 21.7858 15.1789 21.4773 15.3331 21.1689C15.4873 20.8091 15.5901 20.5007 15.6415 20.2437C15.2303 20.2437 14.6135 20.218 13.791 20.1666C13.02 20.1152 12.3775 20.0638 11.8634 20.0124H3.30494C2.07128 20.0124 1.22314 18.5731 0.760518 15.6946C0.503506 14.1011 0.375 11.8908 0.375 9.06366C0.375 8.65244 0.426402 8.26692 0.529207 7.90711V6.05662C0.529207 5.28558 0.554908 4.72016 0.606311 4.36034C0.606311 3.89772 0.632012 3.61501 0.683415 3.5122C0.786219 3.35799 4.54808 1.49148 4.85649 1.33727C5.16491 1.28587 5.52472 1.23446 5.93594 1.18306C6.34716 1.13166 6.68128 1.10596 6.93829 1.10596H7.94064C8.14625 1.10596 6.08067 2.74116 8.8564 2.58696C10.8097 2.38135 12.3004 2.27854 13.3284 2.27854C23.8659 2.27854 31.9361 2.22714 37.5389 2.12433C38.9268 2.17574 39.9549 2.40705 40.6231 2.81827C41.1371 3.17808 41.3941 3.5122 41.3941 3.82061V16.1572C41.3941 16.774 41.2399 17.4423 40.9315 18.1619C40.6745 18.8815 40.2376 19.8839 39.6207 21.1689L37.6932 25.1783L35.0716 30.6527C35.0202 30.8069 34.9431 31.0125 34.8403 31.2695C34.7889 31.4751 34.6861 31.7578 34.5319 32.1176C34.1721 33.2485 33.1183 35.5873 31.3707 39.1341C30.651 40.6761 29.6487 42.6294 28.3636 44.994L26.436 48.6178C26.0762 49.3375 25.408 50.3655 24.4313 51.702C24.0715 52.216 27.186 50.4599 26.1013 52.0869C25.9985 52.2925 22.4266 53.9894 22.1182 54.0922C21.8098 54.195 21.5014 54.2464 21.193 54.2464Z" stroke="black" stroke-width="0.75"/>
</g>
<g filter="url(#filter1_n_1069_12819)">
<path d="M24.6832 52.497C24.015 52.497 23.0897 52.2914 21.9075 51.8802C20.7766 51.469 19.6201 50.9036 18.4378 50.1839C15.6107 48.6419 13.3233 47.0998 11.5756 45.5577C9.4681 43.81 8.41435 42.4993 8.41435 41.6254C8.41435 41.574 8.44005 41.4712 8.49145 41.317C8.59426 41.1628 8.69706 40.9058 8.79987 40.546C9.15968 39.8264 9.4424 39.2095 9.64801 38.6955C10.2648 37.2048 10.8817 35.8941 11.4985 34.7632L12.4237 32.8356C12.5779 32.373 12.8607 31.7305 13.2719 30.908C13.4261 30.651 13.8116 29.9057 14.4284 28.672C14.8397 27.7468 15.0967 27.1814 15.1995 26.9757L18.3607 20.3448C18.5149 20.0364 18.6691 19.728 18.8233 19.4196C18.9775 19.0598 19.0804 18.7514 19.1318 18.4944C18.7205 18.4944 18.1037 18.4687 17.2813 18.4172C16.5102 18.3658 15.8677 18.3144 15.3537 18.263H6.79517C5.56151 18.263 4.71337 16.8238 4.25075 13.9452C3.99374 12.3518 3.86523 10.1415 3.86523 7.31433C3.86523 6.90311 3.91664 6.51759 4.01944 6.15777V4.30728C4.01944 3.53625 4.04514 2.97082 4.09655 2.61101C4.09655 2.14839 4.12225 1.86567 4.17365 1.76287C4.27645 1.60866 4.48206 1.45445 4.79048 1.30025C5.09889 1.24884 5.45871 1.19744 5.86993 1.14604C6.28115 1.09463 6.61526 1.06893 6.87228 1.06893H7.87462C8.08023 1.06893 9.5709 0.99183 12.3466 0.837625C14.2999 0.632015 15.7906 0.52921 16.8186 0.52921C27.3561 0.52921 35.4263 0.477807 41.0292 0.375C42.417 0.426402 43.4451 0.657713 44.1133 1.06893C44.6274 1.42875 44.8844 1.76287 44.8844 2.07128V14.4079C44.8844 15.0247 44.7302 15.6929 44.4217 16.4126C44.1647 17.1322 43.7278 18.1345 43.111 19.4196L41.1834 23.429L38.5619 28.9033C38.5105 29.0575 38.4334 29.2632 38.3306 29.5202C38.2792 29.7258 38.1763 30.0085 38.0221 30.3683C37.6623 31.4992 36.6086 33.838 34.8609 37.3847C34.1413 38.9268 33.1389 40.8801 31.8539 43.2446L29.9263 46.8685C29.5664 47.5881 28.8982 48.6162 27.9216 49.9526C27.5617 50.4667 26.9963 51.1092 26.2253 51.8802C26.1225 52.0858 25.9169 52.24 25.6085 52.3428C25.3 52.4456 24.9916 52.497 24.6832 52.497Z" fill="#E9C253"/>
<path d="M24.6832 52.497C24.015 52.497 23.0897 52.2914 21.9075 51.8802C20.7766 51.469 19.6201 50.9036 18.4378 50.1839C15.6107 48.6419 13.3233 47.0998 11.5756 45.5577C9.4681 43.81 8.41435 42.4993 8.41435 41.6254C8.41435 41.574 8.44005 41.4712 8.49145 41.317C8.59426 41.1628 8.69706 40.9058 8.79987 40.546C9.15968 39.8264 9.4424 39.2095 9.64801 38.6955C10.2648 37.2048 10.8817 35.8941 11.4985 34.7632L12.4237 32.8356C12.5779 32.373 12.8607 31.7305 13.2719 30.908C13.4261 30.651 13.8116 29.9057 14.4284 28.672C14.8397 27.7468 15.0967 27.1814 15.1995 26.9757L18.3607 20.3448C18.5149 20.0364 18.6691 19.728 18.8233 19.4196C18.9775 19.0598 19.0804 18.7514 19.1318 18.4944C18.7205 18.4944 18.1037 18.4687 17.2813 18.4172C16.5102 18.3658 15.8677 18.3144 15.3537 18.263H6.79517C5.56151 18.263 4.71337 16.8238 4.25075 13.9452C3.99374 12.3518 3.86523 10.1415 3.86523 7.31433C3.86523 6.90311 3.91664 6.51759 4.01944 6.15777V4.30728C4.01944 3.53625 4.04514 2.97082 4.09655 2.61101C4.09655 2.14839 4.12225 1.86567 4.17365 1.76287C4.27645 1.60866 4.48206 1.45445 4.79048 1.30025C5.09889 1.24884 5.45871 1.19744 5.86993 1.14604C6.28115 1.09463 6.61526 1.06893 6.87228 1.06893H7.87462C8.08023 1.06893 9.5709 0.99183 12.3466 0.837625C14.2999 0.632015 15.7906 0.52921 16.8186 0.52921C27.3561 0.52921 35.4263 0.477807 41.0292 0.375C42.417 0.426402 43.4451 0.657713 44.1133 1.06893C44.6274 1.42875 44.8844 1.76287 44.8844 2.07128V14.4079C44.8844 15.0247 44.7302 15.6929 44.4217 16.4126C44.1647 17.1322 43.7278 18.1345 43.111 19.4196L41.1834 23.429L38.5619 28.9033C38.5105 29.0575 38.4334 29.2632 38.3306 29.5202C38.2792 29.7258 38.1763 30.0085 38.0221 30.3683C37.6623 31.4992 36.6086 33.838 34.8609 37.3847C34.1413 38.9268 33.1389 40.8801 31.8539 43.2446L29.9263 46.8685C29.5664 47.5881 28.8982 48.6162 27.9216 49.9526C27.5617 50.4667 26.9963 51.1092 26.2253 51.8802C26.1225 52.0858 25.9169 52.24 25.6085 52.3428C25.3 52.4456 24.9916 52.497 24.6832 52.497Z" stroke="black" stroke-width="0.75"/>
</g>
<defs>
<filter id="filter0_n_1069_12819" x="0" y="0.730957" width="41.7695" height="53.8906" filterUnits="userSpaceOnUse" color-interpolation-filters="sRGB">
<feFlood flood-opacity="0" result="BackgroundImageFix"/>
<feBlend mode="normal" in="SourceGraphic" in2="BackgroundImageFix" result="shape"/>
<feTurbulence type="fractalNoise" baseFrequency="0.027657391503453255 0.027657391503453255" stitchTiles="stitch" numOctaves="3" result="noise" seed="9207" />
<feColorMatrix in="noise" type="luminanceToAlpha" result="alphaNoise" />
<feComponentTransfer in="alphaNoise" result="coloredNoise1">
<feFuncA type="discrete" tableValues="1 1 1 1 1 1 1 1 1 1 1 1 1 1 1 1 1 1 1 1 1 1 1 1 1 1 1 1 1 1 1 1 1 1 1 1 1 1 1 1 1 1 1 1 1 1 1 1 1 1 1 0 0 0 0 0 0 0 0 0 0 0 0 0 0 0 0 0 0 0 0 0 0 0 0 0 0 0 0 0 0 0 0 0 0 0 0 0 0 0 0 0 0 0 0 0 0 0 0 0 "/>
</feComponentTransfer>
<feComposite operator="in" in2="shape" in="coloredNoise1" result="noise1Clipped" />
<feFlood flood-color="rgba(178, 101, 28, 0.05)" result="color1Flood" />
<feComposite operator="in" in2="noise1Clipped" in="color1Flood" result="color1" />
<feMerge result="effect1_noise_1069_12819">
<feMergeNode in="shape" />
<feMergeNode in="color1" />
</feMerge>
</filter>
<filter id="filter1_n_1069_12819" x="3.49023" y="0" width="41.7695" height="52.8721" filterUnits="userSpaceOnUse" color-interpolation-filters="sRGB">
<feFlood flood-opacity="0" result="BackgroundImageFix"/>
<feBlend mode="normal" in="SourceGraphic" in2="BackgroundImageFix" result="shape"/>
<feTurbulence type="fractalNoise" baseFrequency="0.027657391503453255 0.027657391503453255" stitchTiles="stitch" numOctaves="3" result="noise" seed="9207" />
<feColorMatrix in="noise" type="luminanceToAlpha" result="alphaNoise" />
<feComponentTransfer in="alphaNoise" result="coloredNoise1">
<feFuncA type="discrete" tableValues="1 1 1 1 1 1 1 1 1 1 1 1 1 1 1 1 1 1 1 1 1 1 1 1 1 1 1 1 1 1 1 1 1 1 1 1 1 1 1 1 1 1 1 1 1 1 1 1 1 1 1 0 0 0 0 0 0 0 0 0 0 0 0 0 0 0 0 0 0 0 0 0 0 0 0 0 0 0 0 0 0 0 0 0 0 0 0 0 0 0 0 0 0 0 0 0 0 0 0 0 "/>
</feComponentTransfer>
<feComposite operator="in" in2="shape" in="coloredNoise1" result="noise1Clipped" />
<feFlood flood-color="rgba(178, 101, 28, 0.05)" result="color1Flood" />
<feComposite operator="in" in2="noise1Clipped" in="color1Flood" result="color1" />
<feMerge result="effect1_noise_1069_12819">
<feMergeNode in="shape" />
<feMergeNode in="color1" />
</feMerge>
</filter>
</defs>
</svg>
