<svg width="55" height="50" viewBox="0 0 55 50" fill="none" xmlns="http://www.w3.org/2000/svg">
<g filter="url(#filter0_n_1069_12816)">
<path d="M25.9734 49.4657C23.0949 49.4657 20.3705 49.2857 17.8004 48.9259C13.3284 48.3605 9.57603 47.1525 6.54329 45.3021L5.46384 44.9165C5.00122 44.7623 4.7185 44.5824 4.6157 44.3768C2.76521 43.246 1.60866 41.8324 1.14604 40.1361C0.632012 38.6454 0.375 36.6407 0.375 34.122C0.375 31.8603 0.657713 29.9841 1.22314 28.4935C1.89137 26.7972 3.15073 25.4093 5.00122 24.3299C3.76756 23.4046 2.73951 22.1453 1.91707 20.5518C1.14604 19.0611 0.760518 17.5448 0.760518 16.0027C0.760518 13.1241 1.55726 10.6054 3.15073 8.44652C3.30494 8.18951 3.66475 7.82969 4.23018 7.36707C4.43579 7.26427 4.6157 7.13576 4.76991 6.98155C4.97552 6.77594 5.18113 6.62174 5.38674 6.51893C6.7232 5.38808 7.77695 4.69415 8.54798 4.43713C10.8611 3.25488 13.9195 2.48384 17.7233 2.12402H27.7468C29.7515 2.12402 31.8333 2.32963 33.9922 2.74085C36.0483 3.04927 37.8988 3.61469 39.5436 4.43713C41.2399 5.10537 42.6792 5.9021 43.8614 6.82734C45.0951 7.70119 45.9689 8.54933 46.483 9.37177C47.6652 11.4793 48.2563 13.6382 48.2563 15.8485C48.2563 17.3905 47.9736 18.9326 47.4082 20.4747C46.5858 22.0682 45.5577 23.3532 44.3241 24.3299C48.4363 26.6944 50.4923 29.9584 50.4923 34.122C50.4923 37.7716 49.6185 40.6758 47.8708 42.8347C46.74 44.1712 45.5577 45.1736 44.3241 45.8418C43.1932 46.5614 41.5483 47.281 39.3894 48.0007L37.1534 48.5404C36.5366 48.6432 36.0226 48.6946 35.6114 48.6946C34.8917 48.6946 33.8637 48.7974 32.5272 49.003C31.345 49.26 30.0085 49.3885 28.5178 49.3885C28.0038 49.4399 27.1557 49.4657 25.9734 49.4657ZM24.7397 22.0168C25.8706 22.0168 26.6416 21.6826 27.0529 21.0144C27.6183 20.1406 27.901 18.6756 27.901 16.6195C27.901 14.3064 27.5412 12.6615 26.8215 11.6849C26.4617 11.2737 26.0505 11.0166 25.5879 10.9138C25.1253 10.7596 24.8168 10.6568 24.6626 10.6054C24.5598 10.6568 24.2771 10.7339 23.8145 10.8367C23.3519 10.8881 22.9407 11.1194 22.5808 11.5307C22.221 11.8905 21.9383 12.4816 21.7327 13.304C21.5271 14.3321 21.4243 15.4373 21.4243 16.6195C21.4243 18.7784 21.7327 20.2948 22.3495 21.1686C22.915 21.734 23.7117 22.0168 24.7397 22.0168ZM25.8192 41.0614C26.2818 41.0614 26.6673 40.9843 26.9757 40.83C27.3356 40.6758 27.644 40.3674 27.901 39.9048C28.158 39.4936 28.3636 38.7225 28.5178 37.5917C28.672 36.7179 28.7491 35.4071 28.7491 33.6594C28.7491 31.6547 28.4921 30.2154 27.9781 29.3416C27.3099 28.4164 26.5902 27.9537 25.8192 27.9537H24.6626C24.0458 27.9537 23.5318 28.4164 23.1206 29.3416C22.6579 30.4725 22.4266 31.9117 22.4266 33.6594C22.4266 36.8464 22.7865 38.9282 23.5061 39.9048C23.7117 40.3674 23.9944 40.6758 24.3542 40.83C24.7654 40.9843 25.2538 41.0614 25.8192 41.0614Z" fill="#B2651C"/>
<path d="M25.9734 49.4657C23.0949 49.4657 20.3705 49.2857 17.8004 48.9259C13.3284 48.3605 9.57603 47.1525 6.54329 45.3021L5.46384 44.9165C5.00122 44.7623 4.7185 44.5824 4.6157 44.3768C2.76521 43.246 1.60866 41.8324 1.14604 40.1361C0.632012 38.6454 0.375 36.6407 0.375 34.122C0.375 31.8603 0.657713 29.9841 1.22314 28.4935C1.89137 26.7972 3.15073 25.4093 5.00122 24.3299C3.76756 23.4046 2.73951 22.1453 1.91707 20.5518C1.14604 19.0611 0.760518 17.5448 0.760518 16.0027C0.760518 13.1241 1.55726 10.6054 3.15073 8.44652C3.30494 8.18951 3.66475 7.82969 4.23018 7.36707C4.43579 7.26427 4.6157 7.13576 4.76991 6.98155C4.97552 6.77594 5.18113 6.62174 5.38674 6.51893C6.7232 5.38808 7.77695 4.69415 8.54798 4.43713C10.8611 3.25488 13.9195 2.48384 17.7233 2.12402H27.7468C29.7515 2.12402 31.8333 2.32963 33.9922 2.74085C36.0483 3.04927 37.8988 3.61469 39.5436 4.43713C41.2399 5.10537 42.6792 5.9021 43.8614 6.82734C45.0951 7.70119 45.9689 8.54933 46.483 9.37177C47.6652 11.4793 48.2563 13.6382 48.2563 15.8485C48.2563 17.3905 47.9736 18.9326 47.4082 20.4747C46.5858 22.0682 45.5577 23.3532 44.3241 24.3299C48.4363 26.6944 50.4923 29.9584 50.4923 34.122C50.4923 37.7716 49.6185 40.6758 47.8708 42.8347C46.74 44.1712 45.5577 45.1736 44.3241 45.8418C43.1932 46.5614 41.5483 47.281 39.3894 48.0007L37.1534 48.5404C36.5366 48.6432 36.0226 48.6946 35.6114 48.6946C34.8917 48.6946 33.8637 48.7974 32.5272 49.003C31.345 49.26 30.0085 49.3885 28.5178 49.3885C28.0038 49.4399 27.1557 49.4657 25.9734 49.4657ZM24.7397 22.0168C25.8706 22.0168 26.6416 21.6826 27.0529 21.0144C27.6183 20.1406 27.901 18.6756 27.901 16.6195C27.901 14.3064 27.5412 12.6615 26.8215 11.6849C26.4617 11.2737 26.0505 11.0166 25.5879 10.9138C25.1253 10.7596 24.8168 10.6568 24.6626 10.6054C24.5598 10.6568 24.2771 10.7339 23.8145 10.8367C23.3519 10.8881 22.9407 11.1194 22.5808 11.5307C22.221 11.8905 21.9383 12.4816 21.7327 13.304C21.5271 14.3321 21.4243 15.4373 21.4243 16.6195C21.4243 18.7784 21.7327 20.2948 22.3495 21.1686C22.915 21.734 23.7117 22.0168 24.7397 22.0168ZM25.8192 41.0614C26.2818 41.0614 26.6673 40.9843 26.9757 40.83C27.3356 40.6758 27.644 40.3674 27.901 39.9048C28.158 39.4936 28.3636 38.7225 28.5178 37.5917C28.672 36.7179 28.7491 35.4071 28.7491 33.6594C28.7491 31.6547 28.4921 30.2154 27.9781 29.3416C27.3099 28.4164 26.5902 27.9537 25.8192 27.9537H24.6626C24.0458 27.9537 23.5318 28.4164 23.1206 29.3416C22.6579 30.4725 22.4266 31.9117 22.4266 33.6594C22.4266 36.8464 22.7865 38.9282 23.5061 39.9048C23.7117 40.3674 23.9944 40.6758 24.3542 40.83C24.7654 40.9843 25.2538 41.0614 25.8192 41.0614Z" stroke="black" stroke-width="0.75"/>
</g>
<g filter="url(#filter1_n_1069_12816)">
<path d="M29.4636 47.7166C26.5851 47.7166 23.8608 47.5367 21.2907 47.1769C16.8186 46.6115 13.0663 45.4035 10.0335 43.553L8.95407 43.1675C8.49145 43.0133 8.20874 42.8334 8.10593 42.6278C6.25545 41.4969 5.09889 40.0834 4.63627 38.3871C4.12225 36.8964 3.86523 34.8917 3.86523 32.373C3.86523 30.1113 4.14795 28.2351 4.71337 26.7444C5.38161 25.0482 6.64096 23.6603 8.49145 22.5808C7.25779 21.6556 6.22975 20.3962 5.40731 18.8028C4.63627 17.3121 4.25075 15.7957 4.25075 14.2537C4.25075 11.3751 5.04749 8.8564 6.64096 6.6975C6.79517 6.44049 7.15499 6.08067 7.72042 5.61805C7.92603 5.51524 8.10593 5.38674 8.26014 5.23253C8.46575 5.02692 8.67136 4.87271 8.87697 4.76991C10.2134 3.63906 11.2672 2.94512 12.0382 2.68811C14.3513 1.50586 17.4098 0.734818 21.2135 0.375H31.237C33.2417 0.375 35.3235 0.58061 37.4824 0.99183C39.5385 1.30024 41.389 1.86567 43.0339 2.68811C44.7302 3.35634 46.1694 4.15308 47.3517 5.07832C48.5853 5.95216 49.4592 6.8003 49.9732 7.62274C51.1555 9.73024 51.7466 11.8891 51.7466 14.0994C51.7466 15.6415 51.4639 17.1836 50.8984 18.7257C50.076 20.3191 49.048 21.6042 47.8143 22.5808C51.9265 24.9454 53.9826 28.2094 53.9826 32.373C53.9826 36.0226 53.1087 38.9268 51.3611 41.0857C50.2302 42.4222 49.048 43.4245 47.8143 44.0928C46.6834 44.8124 45.0386 45.532 42.8797 46.2517L40.6437 46.7914C40.0268 46.8942 39.5128 46.9456 39.1016 46.9456C38.382 46.9456 37.3539 47.0484 36.0174 47.254C34.8352 47.511 33.4987 47.6395 32.0081 47.6395C31.494 47.6909 30.6459 47.7166 29.4636 47.7166ZM28.23 20.2677C29.3608 20.2677 30.1319 19.9336 30.5431 19.2654C31.1085 18.3915 31.3912 16.9266 31.3912 14.8705C31.3912 12.5574 31.0314 10.9125 30.3118 9.93585C29.952 9.52463 29.5407 9.26762 29.0781 9.16481C28.6155 9.01061 28.3071 8.9078 28.1529 8.8564C28.0501 8.9078 27.7674 8.98491 27.3047 9.08771C26.8421 9.13911 26.4309 9.37042 26.0711 9.78164C25.7113 10.1415 25.4285 10.7326 25.2229 11.555C25.0173 12.5831 24.9145 13.6882 24.9145 14.8705C24.9145 17.0294 25.2229 18.5458 25.8398 19.4196C26.4052 19.985 27.2019 20.2677 28.23 20.2677ZM29.3094 39.3123C29.7721 39.3123 30.1576 39.2352 30.466 39.081C30.8258 38.9268 31.1342 38.6184 31.3912 38.1558C31.6482 37.7446 31.8538 36.9735 32.0081 35.8427C32.1623 34.9688 32.2394 33.6581 32.2394 31.9104C32.2394 29.9057 31.9824 28.4664 31.4683 27.5926C30.8001 26.6673 30.0805 26.2047 29.3094 26.2047H28.1529C27.536 26.2047 27.022 26.6673 26.6108 27.5926C26.1482 28.7234 25.9169 30.1627 25.9169 31.9104C25.9169 35.0973 26.2767 37.1791 26.9963 38.1558C27.2019 38.6184 27.4846 38.9268 27.8445 39.081C28.2557 39.2352 28.744 39.3123 29.3094 39.3123Z" fill="#E9C253"/>
<path d="M29.4636 47.7166C26.5851 47.7166 23.8608 47.5367 21.2907 47.1769C16.8186 46.6115 13.0663 45.4035 10.0335 43.553L8.95407 43.1675C8.49145 43.0133 8.20874 42.8334 8.10593 42.6278C6.25545 41.4969 5.09889 40.0834 4.63627 38.3871C4.12225 36.8964 3.86523 34.8917 3.86523 32.373C3.86523 30.1113 4.14795 28.2351 4.71337 26.7444C5.38161 25.0482 6.64096 23.6603 8.49145 22.5808C7.25779 21.6556 6.22975 20.3962 5.40731 18.8028C4.63627 17.3121 4.25075 15.7957 4.25075 14.2537C4.25075 11.3751 5.04749 8.8564 6.64096 6.6975C6.79517 6.44049 7.15499 6.08067 7.72042 5.61805C7.92603 5.51524 8.10593 5.38674 8.26014 5.23253C8.46575 5.02692 8.67136 4.87271 8.87697 4.76991C10.2134 3.63906 11.2672 2.94512 12.0382 2.68811C14.3513 1.50586 17.4098 0.734818 21.2135 0.375H31.237C33.2417 0.375 35.3235 0.58061 37.4824 0.99183C39.5385 1.30024 41.389 1.86567 43.0339 2.68811C44.7302 3.35634 46.1694 4.15308 47.3517 5.07832C48.5853 5.95216 49.4592 6.8003 49.9732 7.62274C51.1555 9.73024 51.7466 11.8891 51.7466 14.0994C51.7466 15.6415 51.4639 17.1836 50.8984 18.7257C50.076 20.3191 49.048 21.6042 47.8143 22.5808C51.9265 24.9454 53.9826 28.2094 53.9826 32.373C53.9826 36.0226 53.1087 38.9268 51.3611 41.0857C50.2302 42.4222 49.048 43.4245 47.8143 44.0928C46.6834 44.8124 45.0386 45.532 42.8797 46.2517L40.6437 46.7914C40.0268 46.8942 39.5128 46.9456 39.1016 46.9456C38.382 46.9456 37.3539 47.0484 36.0174 47.254C34.8352 47.511 33.4987 47.6395 32.0081 47.6395C31.494 47.6909 30.6459 47.7166 29.4636 47.7166ZM28.23 20.2677C29.3608 20.2677 30.1319 19.9336 30.5431 19.2654C31.1085 18.3915 31.3912 16.9266 31.3912 14.8705C31.3912 12.5574 31.0314 10.9125 30.3118 9.93585C29.952 9.52463 29.5407 9.26762 29.0781 9.16481C28.6155 9.01061 28.3071 8.9078 28.1529 8.8564C28.0501 8.9078 27.7674 8.98491 27.3047 9.08771C26.8421 9.13911 26.4309 9.37042 26.0711 9.78164C25.7113 10.1415 25.4285 10.7326 25.2229 11.555C25.0173 12.5831 24.9145 13.6882 24.9145 14.8705C24.9145 17.0294 25.2229 18.5458 25.8398 19.4196C26.4052 19.985 27.2019 20.2677 28.23 20.2677ZM29.3094 39.3123C29.7721 39.3123 30.1576 39.2352 30.466 39.081C30.8258 38.9268 31.1342 38.6184 31.3912 38.1558C31.6482 37.7446 31.8538 36.9735 32.0081 35.8427C32.1623 34.9688 32.2394 33.6581 32.2394 31.9104C32.2394 29.9057 31.9824 28.4664 31.4683 27.5926C30.8001 26.6673 30.0805 26.2047 29.3094 26.2047H28.1529C27.536 26.2047 27.022 26.6673 26.6108 27.5926C26.1482 28.7234 25.9169 30.1627 25.9169 31.9104C25.9169 35.0973 26.2767 37.1791 26.9963 38.1558C27.2019 38.6184 27.4846 38.9268 27.8445 39.081C28.2557 39.2352 28.744 39.3123 29.3094 39.3123Z" stroke="black" stroke-width="0.75"/>
</g>
<defs>
<filter id="filter0_n_1069_12816" x="0" y="1.74902" width="50.8672" height="48.0918" filterUnits="userSpaceOnUse" color-interpolation-filters="sRGB">
<feFlood flood-opacity="0" result="BackgroundImageFix"/>
<feBlend mode="normal" in="SourceGraphic" in2="BackgroundImageFix" result="shape"/>
<feTurbulence type="fractalNoise" baseFrequency="0.027657391503453255 0.027657391503453255" stitchTiles="stitch" numOctaves="3" result="noise" seed="9207" />
<feColorMatrix in="noise" type="luminanceToAlpha" result="alphaNoise" />
<feComponentTransfer in="alphaNoise" result="coloredNoise1">
<feFuncA type="discrete" tableValues="1 1 1 1 1 1 1 1 1 1 1 1 1 1 1 1 1 1 1 1 1 1 1 1 1 1 1 1 1 1 1 1 1 1 1 1 1 1 1 1 1 1 1 1 1 1 1 1 1 1 1 0 0 0 0 0 0 0 0 0 0 0 0 0 0 0 0 0 0 0 0 0 0 0 0 0 0 0 0 0 0 0 0 0 0 0 0 0 0 0 0 0 0 0 0 0 0 0 0 0 "/>
</feComponentTransfer>
<feComposite operator="in" in2="shape" in="coloredNoise1" result="noise1Clipped" />
<feFlood flood-color="rgba(178, 101, 28, 0.05)" result="color1Flood" />
<feComposite operator="in" in2="noise1Clipped" in="color1Flood" result="color1" />
<feMerge result="effect1_noise_1069_12816">
<feMergeNode in="shape" />
<feMergeNode in="color1" />
</feMerge>
</filter>
<filter id="filter1_n_1069_12816" x="3.49023" y="0" width="50.8672" height="48.0918" filterUnits="userSpaceOnUse" color-interpolation-filters="sRGB">
<feFlood flood-opacity="0" result="BackgroundImageFix"/>
<feBlend mode="normal" in="SourceGraphic" in2="BackgroundImageFix" result="shape"/>
<feTurbulence type="fractalNoise" baseFrequency="0.027657391503453255 0.027657391503453255" stitchTiles="stitch" numOctaves="3" result="noise" seed="9207" />
<feColorMatrix in="noise" type="luminanceToAlpha" result="alphaNoise" />
<feComponentTransfer in="alphaNoise" result="coloredNoise1">
<feFuncA type="discrete" tableValues="1 1 1 1 1 1 1 1 1 1 1 1 1 1 1 1 1 1 1 1 1 1 1 1 1 1 1 1 1 1 1 1 1 1 1 1 1 1 1 1 1 1 1 1 1 1 1 1 1 1 1 0 0 0 0 0 0 0 0 0 0 0 0 0 0 0 0 0 0 0 0 0 0 0 0 0 0 0 0 0 0 0 0 0 0 0 0 0 0 0 0 0 0 0 0 0 0 0 0 0 "/>
</feComponentTransfer>
<feComposite operator="in" in2="shape" in="coloredNoise1" result="noise1Clipped" />
<feFlood flood-color="rgba(178, 101, 28, 0.05)" result="color1Flood" />
<feComposite operator="in" in2="noise1Clipped" in="color1Flood" result="color1" />
<feMerge result="effect1_noise_1069_12816">
<feMergeNode in="shape" />
<feMergeNode in="color1" />
</feMerge>
</filter>
</defs>
</svg>
