<svg width="4" height="3" viewBox="0 0 4 3" fill="none" xmlns="http://www.w3.org/2000/svg">
<path d="M2.341 0C1.825 0 1.386 0.236001 1.14 0.598001C1.12 0.628001 1.085 0.693001 1.038 0.693001C0.812 0.695001 0.798 0.417001 0.791 0.169001C0.789989 0.151309 0.782305 0.134659 0.7695 0.12241C0.756694 0.110161 0.739719 0.103225 0.722 0.103001L0.069 0.099C0.0506087 0.0992627 0.0330598 0.106754 0.0201477 0.119853C0.00723567 0.132952 -1.87659e-06 0.150607 3.64978e-10 0.169001C0.014 0.775001 0.126 1.187 0.86 1.35C0.9 1.36 0.928 1.395 0.928 1.437V2.797C0.928 2.834 0.958 2.865 0.997 2.865H1.631C1.64939 2.86474 1.66694 2.85725 1.67985 2.84415C1.69276 2.83105 1.7 2.81339 1.7 2.795V1.393C1.7 1.081 1.921 0.726001 2.34 0.726001C2.74 0.726001 2.982 1.081 2.982 1.393V2.797C2.982 2.835 3.012 2.866 3.051 2.866H3.685C3.70339 2.86574 3.72094 2.85825 3.73385 2.84515C3.74676 2.83205 3.754 2.81439 3.754 2.796V1.288C3.754 0.568 3.138 0.0010004 2.341 0.0010004V0Z" fill="white"/>
</svg>
