<svg width="125" height="114" viewBox="0 0 125 114" fill="none" xmlns="http://www.w3.org/2000/svg">
<g filter="url(#filter0_d_772_6038)">
<path d="M85.7424 44.9094C85.7424 57.8965 41.5659 91.6677 4 115.956H103.281C100.598 105.161 101.49 81.7495 103.281 67.3789C106.868 38.6012 122.064 38.6012 119.912 22.7549L85.7424 44.9094Z" fill="#F4F4F4"/>
<path d="M111.082 2.12828C108.026 0.600384 93.5111 -2.45539 85.8716 3.65619C83.5146 5.18409 83.5795 13.5875 83.5795 17.4072C83.5795 21.227 78.9961 27.3386 78.9961 32.6862C78.9961 38.0338 80.3949 49.1602 99.6227 51.0209C114.773 52.4871 120.885 36.5059 120.885 30.3943C120.885 24.2828 119.485 19.6991 116.429 17.4072C113.373 15.1154 114.137 3.65617 111.082 2.12828Z" fill="#FAFAFA"/>
<path d="M105.987 10.5318C103.872 9.82699 96.5554 9.77246 92.4359 10.9682C91.7891 11.156 91.2224 11.5562 91.0398 12.2044C90.086 15.5886 90.5375 26.0664 89.1801 28.1025C87.6522 30.3944 87.6522 31.9223 89.1801 31.9223C90.708 31.9223 90.708 34.9781 91.4719 35.742C92.2359 36.506 108.279 34.2141 109.807 34.2141C111.335 34.2141 109.807 31.1583 111.335 30.3944C112.862 29.6304 112.862 25.8107 111.335 25.8107C109.807 25.8107 108.279 11.2958 105.987 10.5318Z" fill="#F26C26"/>
<path d="M90.3257 32.6863C91.8536 31.1584 91.8536 29.6305 93.3815 29.6305C94.9094 29.6305 95.6733 32.6863 101.021 31.1584C106.369 29.6305 107.896 28.1026 108.66 28.8665C109.272 29.4777 110.443 30.6491 110.952 31.1584" stroke="#C95B21" stroke-width="1.5279"/>
<ellipse cx="87.0787" cy="11.9252" rx="1.65984" ry="2.67297" transform="rotate(-10.0341 87.0787 11.9252)" fill="black"/>
<ellipse cx="86.3956" cy="10.7771" rx="0.471999" ry="0.760095" transform="rotate(-10.0341 86.3956 10.7771)" fill="#A4A3A3"/>
<ellipse cx="111.525" cy="10.3973" rx="1.65984" ry="2.67297" transform="rotate(-10.0341 111.525 10.3973)" fill="black"/>
<ellipse cx="110.842" cy="9.24899" rx="0.471999" ry="0.760095" transform="rotate(-10.0341 110.842 9.24899)" fill="#A4A3A3"/>
</g>
<defs>
<filter id="filter0_d_772_6038" x="0" y="0" width="124.885" height="123.957" filterUnits="userSpaceOnUse" color-interpolation-filters="sRGB">
<feFlood flood-opacity="0" result="BackgroundImageFix"/>
<feColorMatrix in="SourceAlpha" type="matrix" values="0 0 0 0 0 0 0 0 0 0 0 0 0 0 0 0 0 0 127 0" result="hardAlpha"/>
<feOffset dy="4"/>
<feGaussianBlur stdDeviation="2"/>
<feComposite in2="hardAlpha" operator="out"/>
<feColorMatrix type="matrix" values="0 0 0 0 0 0 0 0 0 0 0 0 0 0 0 0 0 0 0.25 0"/>
<feBlend mode="normal" in2="BackgroundImageFix" result="effect1_dropShadow_772_6038"/>
<feBlend mode="normal" in="SourceGraphic" in2="effect1_dropShadow_772_6038" result="shape"/>
</filter>
</defs>
</svg>
