<svg width="72" height="57" viewBox="0 0 72 57" fill="none" xmlns="http://www.w3.org/2000/svg">
<path d="M35.1456 38.3198L24.8285 44.2763L24.3733 44.009L29.1305 41.2624V38.9577L29.6116 38.68V40.9847L34.6864 38.0547L35.1456 38.3198Z" fill="#53442E"/>
<path d="M34.9052 16.8855L24.4951 22.8958V43.8524C27.8215 41.849 34.9052 37.8422 34.9052 37.8422C34.9052 37.8422 35.0488 23.8711 34.9052 16.8855Z" fill="#6883BA"/>
<path d="M34.9052 16.8855L24.4951 22.8958V43.8524C27.8215 41.849 34.9052 37.8422 34.9052 37.8422C34.9052 37.8422 35.0488 23.8711 34.9052 16.8855Z" fill="black" fill-opacity="0.2"/>
<path d="M33.2266 22.5488L30.4778 24.1357V29.0872L33.2266 27.5002V22.5488Z" fill="#D3D3D3"/>
<path d="M46.5049 55.3976V45.9613L36.6585 40.3594L36.2607 49.633C36.4199 49.7064 36.8189 50.0369 37.142 50.7712C37.5459 51.6892 39.0145 51.1017 39.9692 51.3954C40.9238 51.6892 40.7402 52.6805 41.1808 53.1212C41.6215 53.5618 43.4573 53.4516 43.6776 53.5985C43.8979 53.7453 45.5135 55.3976 46.5049 55.3976Z" fill="#6883BA"/>
<path d="M46.5049 55.3976V45.9613L36.6585 40.3594L36.2607 49.633C36.4199 49.7064 36.8189 50.0369 37.142 50.7712C37.5459 51.6892 39.0145 51.1017 39.9692 51.3954C40.9238 51.6892 40.7402 52.6805 41.1808 53.1212C41.6215 53.5618 43.4573 53.4516 43.6776 53.5985C43.8979 53.7453 45.5135 55.3976 46.5049 55.3976Z" fill="black" fill-opacity="0.2"/>
<path d="M46.5049 55.3976V45.9613L36.6585 40.3594L36.2607 49.633C36.4199 49.7064 36.8189 50.0369 37.142 50.7712C37.5459 51.6892 39.0145 51.1017 39.9692 51.3954C40.9238 51.6892 40.7402 52.6805 41.1808 53.1212C41.6215 53.5618 43.4573 53.4516 43.6776 53.5985C43.8979 53.7453 45.5135 55.3976 46.5049 55.3976Z" fill="black" fill-opacity="0.2"/>
<path d="M49.9564 53.3779C49.5159 53.4879 50.0299 54.2592 48.3776 55.1037C47.8488 55.3387 46.9051 55.3975 46.4993 55.3975V46.0345L71.6196 31.5312V41.1511C71.3993 41.7018 69.3798 41.6652 68.976 41.8488C68.5721 42.0323 68.9025 43.1706 68.3518 43.6113C67.801 44.0519 66.1487 44.1619 65.855 44.2353C65.5612 44.3088 65.5612 45.3001 64.9003 45.8141C64.2394 46.3281 63.2481 45.8509 62.8809 46.0345C62.5137 46.2181 62.477 47.2095 62.0731 47.5766C61.6692 47.9437 60.0904 47.393 59.6865 47.5766C59.2826 47.7602 59.3193 49.1922 58.7318 49.3024C58.1444 49.4125 56.7858 49.5226 56.5655 49.6327C56.3452 49.7429 56.3085 50.5139 55.5742 51.0279C54.8398 51.542 53.9586 51.1014 53.3711 51.2483C52.7836 51.3952 52.7102 52.7171 52.0126 53.121C51.315 53.5249 50.397 53.2678 49.9564 53.3779Z" fill="#6883BA"/>
<path d="M71.4091 31.596L46.4443 46.0094L36.652 40.3558L61.6167 25.9424L71.4091 31.596Z" fill="#6883BA"/>
<path d="M71.4091 31.596L46.4443 46.0094L36.652 40.3558L61.6167 25.9424L71.4091 31.596Z" fill="black" fill-opacity="0.2"/>
<path d="M71.6195 42.3855V16.5469H69.7587V42.3855L70.6891 42.9227L71.6195 42.3855Z" fill="#53442E"/>
<g filter="url(#filter0_d_874_14125)">
<path d="M61.9588 33.4268L64.0085 32.2434L61.1091 30.5693L59.0593 31.7528L61.9588 33.4268Z" fill="#F9F9F9"/>
</g>
<g filter="url(#filter1_d_874_14125)">
<path d="M62.9912 33.2342L65.0408 32.0508L62.1414 30.3767L60.0917 31.5601L62.9912 33.2342Z" fill="#F9F9F9"/>
</g>
<g filter="url(#filter2_d_874_14125)">
<path d="M50.9222 38.8333L52.9719 37.6499L50.0725 35.9758L48.0227 37.1593L50.9222 38.8333Z" fill="#F9F9F9"/>
</g>
<g filter="url(#filter3_d_874_14125)">
<path d="M50.9222 40.7603L52.9719 39.5769L50.0725 37.9028L48.0227 39.0863L50.9222 40.7603Z" fill="#F9F9F9"/>
</g>
<g filter="url(#filter4_d_874_14125)">
<path d="M54.4554 39.0948L56.5051 37.9114L53.6057 36.2373L51.5559 37.4207L54.4554 39.0948Z" fill="#F9F9F9"/>
</g>
<path d="M68.9493 29.9636V31.9597H68.9406C68.8986 32.089 68.6639 32.1892 68.3781 32.1892C68.0922 32.1891 67.8573 32.0891 67.8156 31.9597H67.8068V29.9636H68.9493Z" fill="url(#paint0_linear_874_14125)"/>
<ellipse cx="68.3785" cy="30.0044" rx="0.571228" ry="0.269512" fill="#D9D9D9"/>
<path d="M28.3916 25.2671L25.6428 26.854V31.8055L28.3916 30.2185V25.2671Z" fill="#D3D3D3"/>
<ellipse cx="26.8853" cy="26.4623" rx="0.0689087" ry="0.102173" fill="#31603A"/>
<path d="M33.387 28.6494L31.7001 29.6233V32.6619L33.387 31.688V28.6494Z" fill="#D3D3D3"/>
<ellipse cx="32.3897" cy="29.548" rx="0.0689087" ry="0.102173" fill="#31603A"/>
<path d="M28.7065 31.8601L27.5242 32.5427V37.4942L28.7065 36.8115V31.8601Z" fill="#D3D3D3"/>
<ellipse cx="28.0588" cy="32.5597" rx="0.0689087" ry="0.102173" fill="#31603A"/>
<path d="M71.3583 19.4238C66.9314 27.2763 52.9131 33.5477 46.6417 32.8626C40.2649 34.7071 23.2425 23.4291 21.8196 19.4238" stroke="black" stroke-width="0.1"/>
<path d="M68.3785 23.2484L69.1593 24.7532L69.9134 21.5233L68.3785 23.2484Z" fill="#F2F2F2"/>
<path d="M66.1592 25.2508L66.9 26.9059L67.7864 23.7669L66.1592 25.2508Z" fill="#F2F2F2"/>
<path d="M64.033 26.8104L64.8751 28.6964L65.7977 25.5172L64.033 26.8104Z" fill="#F2F2F2"/>
<path d="M61.3617 28.4401L62.296 30.0818L63.323 27.2843L61.3617 28.4401Z" fill="#F2F2F2"/>
<path d="M59.0952 29.7137L60.0154 31.4459L60.9582 28.6527L59.0952 29.7137Z" fill="#F2F2F2"/>
<path d="M56.6013 30.7975L57.7322 32.8663L58.5037 30.0809L56.6013 30.7975Z" fill="#F2F2F2"/>
<path d="M53.9037 31.7644L55.0491 34.0037L56.0457 31.1226L53.9037 31.7644Z" fill="#F2F2F2"/>
<path d="M51.165 32.5614L51.9585 34.7071L53.0894 32.1143L51.165 32.5614Z" fill="#F2F2F2"/>
<path d="M48.4641 32.9084L49.3155 35.176L50.4972 32.644L48.4641 32.9084Z" fill="#F2F2F2"/>
<path d="M47.5164 56.01V30.1714H45.6555V56.01L46.5859 56.5472L47.5164 56.01Z" fill="#53442E"/>
<path d="M23.4131 44.7712V18.9326H21.5522V44.7712L22.4827 45.3084L23.4131 44.7712Z" fill="#53442E"/>
<path d="M46.4419 30.1714L21.5453 15.0898L46.4419 9.06094V0.00244141L71.6195 15.0977L46.4419 9.06094V30.1714Z" fill="#6883BA"/>
<path d="M46.4419 30.1714L21.5453 15.0898L46.4419 9.06094V0.00244141L71.6195 15.0977L46.4419 9.06094V30.1714Z" fill="black" fill-opacity="0.2"/>
<path d="M46.4133 9.06958L46.333 9.05037L21.557 15.0977L46.4133 0V9.06958L71.6195 15.0977L46.4133 30.1715V9.06958Z" fill="#6883BA"/>
<path d="M21.5522 19.7231V15.0857L46.5859 29.5389L71.6196 15.0857V19.7231L46.5859 34.1763L21.5522 19.7231Z" fill="#6883BA"/>
<path d="M21.5522 19.7231V15.0857L46.5859 29.5389V34.1763L21.5522 19.7231Z" fill="#6883BA"/>
<path d="M21.5522 19.7231V15.0857L46.5859 29.5389V34.1763L21.5522 19.7231Z" fill="black" fill-opacity="0.2"/>
<path d="M21.5522 19.7231V15.0857L46.5859 29.5389V34.1763L21.5522 19.7231Z" fill="black" fill-opacity="0.2"/>
<defs>
<filter id="filter0_d_874_14125" x="58.9593" y="30.5693" width="5.1491" height="3.05742" filterUnits="userSpaceOnUse" color-interpolation-filters="sRGB">
<feFlood flood-opacity="0" result="BackgroundImageFix"/>
<feColorMatrix in="SourceAlpha" type="matrix" values="0 0 0 0 0 0 0 0 0 0 0 0 0 0 0 0 0 0 127 0" result="hardAlpha"/>
<feOffset dy="0.1"/>
<feGaussianBlur stdDeviation="0.05"/>
<feComposite in2="hardAlpha" operator="out"/>
<feColorMatrix type="matrix" values="0 0 0 0 0 0 0 0 0 0 0 0 0 0 0 0 0 0 0.25 0"/>
<feBlend mode="normal" in2="BackgroundImageFix" result="effect1_dropShadow_874_14125"/>
<feBlend mode="normal" in="SourceGraphic" in2="effect1_dropShadow_874_14125" result="shape"/>
</filter>
<filter id="filter1_d_874_14125" x="59.9917" y="30.3767" width="5.1491" height="3.05742" filterUnits="userSpaceOnUse" color-interpolation-filters="sRGB">
<feFlood flood-opacity="0" result="BackgroundImageFix"/>
<feColorMatrix in="SourceAlpha" type="matrix" values="0 0 0 0 0 0 0 0 0 0 0 0 0 0 0 0 0 0 127 0" result="hardAlpha"/>
<feOffset dy="0.1"/>
<feGaussianBlur stdDeviation="0.05"/>
<feComposite in2="hardAlpha" operator="out"/>
<feColorMatrix type="matrix" values="0 0 0 0 0 0 0 0 0 0 0 0 0 0 0 0 0 0 0.25 0"/>
<feBlend mode="normal" in2="BackgroundImageFix" result="effect1_dropShadow_874_14125"/>
<feBlend mode="normal" in="SourceGraphic" in2="effect1_dropShadow_874_14125" result="shape"/>
</filter>
<filter id="filter2_d_874_14125" x="47.9227" y="35.9758" width="5.1491" height="3.05742" filterUnits="userSpaceOnUse" color-interpolation-filters="sRGB">
<feFlood flood-opacity="0" result="BackgroundImageFix"/>
<feColorMatrix in="SourceAlpha" type="matrix" values="0 0 0 0 0 0 0 0 0 0 0 0 0 0 0 0 0 0 127 0" result="hardAlpha"/>
<feOffset dy="0.1"/>
<feGaussianBlur stdDeviation="0.05"/>
<feComposite in2="hardAlpha" operator="out"/>
<feColorMatrix type="matrix" values="0 0 0 0 0 0 0 0 0 0 0 0 0 0 0 0 0 0 0.25 0"/>
<feBlend mode="normal" in2="BackgroundImageFix" result="effect1_dropShadow_874_14125"/>
<feBlend mode="normal" in="SourceGraphic" in2="effect1_dropShadow_874_14125" result="shape"/>
</filter>
<filter id="filter3_d_874_14125" x="47.9227" y="37.9028" width="5.1491" height="3.05742" filterUnits="userSpaceOnUse" color-interpolation-filters="sRGB">
<feFlood flood-opacity="0" result="BackgroundImageFix"/>
<feColorMatrix in="SourceAlpha" type="matrix" values="0 0 0 0 0 0 0 0 0 0 0 0 0 0 0 0 0 0 127 0" result="hardAlpha"/>
<feOffset dy="0.1"/>
<feGaussianBlur stdDeviation="0.05"/>
<feComposite in2="hardAlpha" operator="out"/>
<feColorMatrix type="matrix" values="0 0 0 0 0 0 0 0 0 0 0 0 0 0 0 0 0 0 0.25 0"/>
<feBlend mode="normal" in2="BackgroundImageFix" result="effect1_dropShadow_874_14125"/>
<feBlend mode="normal" in="SourceGraphic" in2="effect1_dropShadow_874_14125" result="shape"/>
</filter>
<filter id="filter4_d_874_14125" x="51.4559" y="36.2373" width="5.1491" height="3.05742" filterUnits="userSpaceOnUse" color-interpolation-filters="sRGB">
<feFlood flood-opacity="0" result="BackgroundImageFix"/>
<feColorMatrix in="SourceAlpha" type="matrix" values="0 0 0 0 0 0 0 0 0 0 0 0 0 0 0 0 0 0 127 0" result="hardAlpha"/>
<feOffset dy="0.1"/>
<feGaussianBlur stdDeviation="0.05"/>
<feComposite in2="hardAlpha" operator="out"/>
<feColorMatrix type="matrix" values="0 0 0 0 0 0 0 0 0 0 0 0 0 0 0 0 0 0 0.25 0"/>
<feBlend mode="normal" in2="BackgroundImageFix" result="effect1_dropShadow_874_14125"/>
<feBlend mode="normal" in="SourceGraphic" in2="effect1_dropShadow_874_14125" result="shape"/>
</filter>
<linearGradient id="paint0_linear_874_14125" x1="68.6645" y1="31.3269" x2="67.9535" y2="31.2813" gradientUnits="userSpaceOnUse">
<stop stop-color="#D9D9D9"/>
<stop offset="1" stop-color="#737373"/>
</linearGradient>
</defs>
</svg>
