<svg width="132" height="106" viewBox="0 0 132 106" fill="none" xmlns="http://www.w3.org/2000/svg">
<path d="M82.4443 96.6361V80.1754L65.2682 70.4033L64.5743 86.5803C64.8519 86.7084 65.5479 87.2849 66.1116 88.5659C66.8161 90.1671 69.3781 89.1423 71.0434 89.6547C72.7087 90.1671 72.3884 91.8965 73.157 92.6651C73.9256 93.4337 77.1281 93.2415 77.5124 93.4977C77.8967 93.7539 80.7149 96.6361 82.4443 96.6361Z" fill="#7EB373"/>
<path d="M82.4443 96.6361V80.1754L65.2682 70.4033L64.5743 86.5803C64.8519 86.7084 65.5479 87.2849 66.1116 88.5659C66.8161 90.1671 69.3781 89.1423 71.0434 89.6547C72.7087 90.1671 72.3884 91.8965 73.157 92.6651C73.9256 93.4337 77.1281 93.2415 77.5124 93.4977C77.8967 93.7539 80.7149 96.6361 82.4443 96.6361Z" fill="#63874D"/>
<path d="M88.4652 93.1129C87.6966 93.3048 88.5932 94.6503 85.711 96.1234C84.7886 96.5334 83.1423 96.6359 82.4344 96.6359V80.303L126.137 54.8L126.255 71.7844C125.87 72.7451 122.347 72.6812 121.643 73.0014C120.938 73.3217 121.515 75.3073 120.554 76.0759C119.593 76.8445 116.711 77.0365 116.199 77.1646C115.686 77.2927 115.686 79.0219 114.533 79.9186C113.381 80.8153 111.651 79.9828 111.011 80.303C110.37 80.6233 110.306 82.3527 109.602 82.9931C108.897 83.6335 106.143 82.6728 105.438 82.9931C104.734 83.3133 104.798 85.8114 103.773 86.0035C102.748 86.1957 100.378 86.3877 99.9941 86.5798C99.6098 86.772 99.5458 88.1169 98.2648 89.0136C96.9838 89.9103 95.4466 89.1419 94.4218 89.3981C93.397 89.6543 93.2689 91.9602 92.0519 92.6647C90.835 93.3693 89.2337 92.9209 88.4652 93.1129Z" fill="#7EB373"/>
<path d="M88.4652 93.1129C87.6966 93.3048 88.5932 94.6503 85.711 96.1234C84.7886 96.5334 83.1423 96.6359 82.4344 96.6359V80.303L126.137 54.8L126.255 71.7844C125.87 72.7451 122.347 72.6812 121.643 73.0014C120.938 73.3217 121.515 75.3073 120.554 76.0759C119.593 76.8445 116.711 77.0365 116.199 77.1646C115.686 77.2927 115.686 79.0219 114.533 79.9186C113.381 80.8153 111.651 79.9828 111.011 80.303C110.37 80.6233 110.306 82.3527 109.602 82.9931C108.897 83.6335 106.143 82.6728 105.438 82.9931C104.734 83.3133 104.798 85.8114 103.773 86.0035C102.748 86.1957 100.378 86.3877 99.9941 86.5798C99.6098 86.772 99.5458 88.1169 98.2648 89.0136C96.9838 89.9103 95.4466 89.1419 94.4218 89.3981C93.397 89.6543 93.2689 91.9602 92.0519 92.6647C90.835 93.3693 89.2337 92.9209 88.4652 93.1129Z" fill="#60844D" fill-opacity="0.5"/>
<path d="M125.887 55.1164L82.3386 80.2593L65.2568 70.397L108.806 45.2542L125.887 55.1164Z" fill="#7EB373"/>
<path d="M126.254 73.9376V28.8645H123.008V73.9376L124.631 74.8747L126.254 73.9376Z" fill="#523C49"/>
<g filter="url(#filter0_d_51_3678)">
<path d="M109.402 58.31L112.978 56.2457L107.92 53.3254L104.344 55.3898L109.402 58.31Z" fill="#F9F9F9"/>
</g>
<g filter="url(#filter1_d_51_3678)">
<path d="M111.203 57.9741L114.778 55.9098L109.721 52.9895L106.145 55.0539L111.203 57.9741Z" fill="#F9F9F9"/>
</g>
<g filter="url(#filter2_d_51_3678)">
<path d="M90.15 67.7412L93.7254 65.6769L88.6677 62.7566L85.092 64.821L90.15 67.7412Z" fill="#F9F9F9"/>
</g>
<g filter="url(#filter3_d_51_3678)">
<path d="M90.15 71.1027L93.7254 69.0385L88.6677 66.1182L85.092 68.1825L90.15 71.1027Z" fill="#F9F9F9"/>
</g>
<g filter="url(#filter4_d_51_3678)">
<path d="M96.3133 68.1972L99.8887 66.1329L94.831 63.2126L91.2554 65.277L96.3133 68.1972Z" fill="#F9F9F9"/>
</g>
<path d="M121.597 52.2698V55.6721C121.597 55.6749 121.598 55.6781 121.598 55.6809C121.598 55.6835 121.597 55.6861 121.597 55.6887V55.7512H121.585C121.512 55.9772 121.1 56.1506 120.6 56.1506C120.101 56.1506 119.69 55.9771 119.617 55.7512H119.604V52.2698H121.597Z" fill="url(#paint0_linear_51_3678)"/>
<ellipse cx="120.601" cy="52.34" rx="0.996455" ry="0.470139" fill="#D9D9D9"/>
<path d="M62.6291 66.8455L44.6319 77.2362L43.8378 76.7698L52.1364 71.9786V67.9583L52.9754 67.4738V71.4942L61.8281 66.3831L62.6291 66.8455Z" fill="#523C49"/>
<path d="M62.2098 29.4553L44.0503 39.9397V76.4967C49.8529 73.0019 62.2098 66.0123 62.2098 66.0123C62.2098 66.0123 62.4603 41.641 62.2098 29.4553Z" fill="#728B69"/>
<path d="M59.2814 39.3345L54.4865 42.1027V50.7401L59.2814 47.9717V39.3345Z" fill="#D3D3D3"/>
<path d="M50.8474 44.0762L46.0524 46.8444V55.4818L50.8474 52.7134V44.0762Z" fill="#D3D3D3"/>
<ellipse cx="48.2198" cy="46.1611" rx="0.120205" ry="0.178231" fill="#31603A"/>
<path d="M59.5613 49.9763L56.6187 51.6751V56.9758L59.5613 55.2769V49.9763Z" fill="#D3D3D3"/>
<ellipse cx="57.8216" cy="51.5437" rx="0.120205" ry="0.178231" fill="#31603A"/>
<path d="M51.3966 55.5771L49.3342 56.7679V65.4052L51.3966 64.2144V55.5771Z" fill="#D3D3D3"/>
<ellipse cx="50.2668" cy="56.7974" rx="0.120205" ry="0.178231" fill="#31603A"/>
<path d="M125.799 33.8831C118.077 47.5809 93.6228 58.5208 82.6829 57.3257C71.5592 60.5433 41.8652 40.8698 39.3831 33.8831" stroke="black" stroke-width="0.174441"/>
<path d="M120.601 40.5547L121.963 43.1796L123.278 37.5454L120.601 40.5547Z" fill="#F2F2F2"/>
<path d="M116.729 44.0477L118.022 46.9349L119.568 41.4592L116.729 44.0477Z" fill="#F2F2F2"/>
<path d="M113.02 46.7683L114.489 50.0582L116.099 44.5124L113.02 46.7683Z" fill="#F2F2F2"/>
<path d="M108.361 49.6113L109.99 52.475L111.782 47.5949L108.361 49.6113Z" fill="#F2F2F2"/>
<path d="M104.407 51.8328L106.012 54.8545L107.657 49.9819L104.407 51.8328Z" fill="#F2F2F2"/>
<path d="M100.057 53.7234L102.029 57.3323L103.375 52.4734L100.057 53.7234Z" fill="#F2F2F2"/>
<path d="M95.3508 55.4102L97.3489 59.3165L99.0873 54.2907L95.3508 55.4102Z" fill="#F2F2F2"/>
<path d="M90.5735 56.8004L91.9575 60.5433L93.9303 56.0205L90.5735 56.8004Z" fill="#F2F2F2"/>
<path d="M85.8619 57.4058L87.3471 61.3613L89.4084 56.9446L85.8619 57.4058Z" fill="#F2F2F2"/>
<g style="mix-blend-mode:plus-darker" opacity="0.1" filter="url(#filter5_f_51_3678)">
<path d="M27.6761 97.7062H83.3152L123.746 73.6175L123.645 58.4565L100.362 50.9501H99.7555L61.3698 32.9692L44.3993 39.9392L43.8942 47.6578H25.014L1.3208 71.3509L27.6761 97.7062Z" fill="black"/>
</g>
<path d="M84.2087 97.7044V52.6313H80.9626V97.7044L82.5857 98.6415L84.2087 97.7044Z" fill="#523C49"/>
<path d="M42.1628 78.0995V33.0264H38.9167V78.0995L40.5398 79.0365L42.1628 78.0995Z" fill="#523C49"/>
<path d="M82.3343 52.6313L38.9045 26.323L82.3343 15.8061V0.00439453L126.254 26.3366L82.3343 15.8061V52.6313Z" fill="#7EB373"/>
<path d="M82.3343 52.6313L38.9045 26.323L82.3343 15.8061V0.00439453L126.254 26.3366L82.3343 15.8061V52.6313Z" fill="black" fill-opacity="0.2"/>
<path d="M82.2845 15.821L82.1444 15.7875L38.925 26.3365L82.2845 0V15.821L126.254 26.3365L82.2845 52.6314V15.821Z" fill="#7EB373"/>
<path d="M38.9167 34.4053V26.3157L82.5857 51.5279L126.255 26.3157V34.4053L82.5857 59.6175L38.9167 34.4053Z" fill="#6F9C60"/>
<path d="M38.9167 34.4053V26.3157L82.5857 51.5279V59.6175L38.9167 34.4053Z" fill="#6F9C60"/>
<path d="M38.9167 34.4053V26.3157L82.5857 51.5279V59.6175L38.9167 34.4053Z" fill="black" fill-opacity="0.2"/>
<defs>
<filter id="filter0_d_51_3678" x="104.17" y="53.3254" width="8.98218" height="5.3335" filterUnits="userSpaceOnUse" color-interpolation-filters="sRGB">
<feFlood flood-opacity="0" result="BackgroundImageFix"/>
<feColorMatrix in="SourceAlpha" type="matrix" values="0 0 0 0 0 0 0 0 0 0 0 0 0 0 0 0 0 0 127 0" result="hardAlpha"/>
<feOffset dy="0.174441"/>
<feGaussianBlur stdDeviation="0.0872203"/>
<feComposite in2="hardAlpha" operator="out"/>
<feColorMatrix type="matrix" values="0 0 0 0 0 0 0 0 0 0 0 0 0 0 0 0 0 0 0.25 0"/>
<feBlend mode="normal" in2="BackgroundImageFix" result="effect1_dropShadow_51_3678"/>
<feBlend mode="normal" in="SourceGraphic" in2="effect1_dropShadow_51_3678" result="shape"/>
</filter>
<filter id="filter1_d_51_3678" x="105.971" y="52.9895" width="8.98218" height="5.3335" filterUnits="userSpaceOnUse" color-interpolation-filters="sRGB">
<feFlood flood-opacity="0" result="BackgroundImageFix"/>
<feColorMatrix in="SourceAlpha" type="matrix" values="0 0 0 0 0 0 0 0 0 0 0 0 0 0 0 0 0 0 127 0" result="hardAlpha"/>
<feOffset dy="0.174441"/>
<feGaussianBlur stdDeviation="0.0872203"/>
<feComposite in2="hardAlpha" operator="out"/>
<feColorMatrix type="matrix" values="0 0 0 0 0 0 0 0 0 0 0 0 0 0 0 0 0 0 0.25 0"/>
<feBlend mode="normal" in2="BackgroundImageFix" result="effect1_dropShadow_51_3678"/>
<feBlend mode="normal" in="SourceGraphic" in2="effect1_dropShadow_51_3678" result="shape"/>
</filter>
<filter id="filter2_d_51_3678" x="84.9176" y="62.7566" width="8.98218" height="5.3335" filterUnits="userSpaceOnUse" color-interpolation-filters="sRGB">
<feFlood flood-opacity="0" result="BackgroundImageFix"/>
<feColorMatrix in="SourceAlpha" type="matrix" values="0 0 0 0 0 0 0 0 0 0 0 0 0 0 0 0 0 0 127 0" result="hardAlpha"/>
<feOffset dy="0.174441"/>
<feGaussianBlur stdDeviation="0.0872203"/>
<feComposite in2="hardAlpha" operator="out"/>
<feColorMatrix type="matrix" values="0 0 0 0 0 0 0 0 0 0 0 0 0 0 0 0 0 0 0.25 0"/>
<feBlend mode="normal" in2="BackgroundImageFix" result="effect1_dropShadow_51_3678"/>
<feBlend mode="normal" in="SourceGraphic" in2="effect1_dropShadow_51_3678" result="shape"/>
</filter>
<filter id="filter3_d_51_3678" x="84.9176" y="66.1182" width="8.98218" height="5.3335" filterUnits="userSpaceOnUse" color-interpolation-filters="sRGB">
<feFlood flood-opacity="0" result="BackgroundImageFix"/>
<feColorMatrix in="SourceAlpha" type="matrix" values="0 0 0 0 0 0 0 0 0 0 0 0 0 0 0 0 0 0 127 0" result="hardAlpha"/>
<feOffset dy="0.174441"/>
<feGaussianBlur stdDeviation="0.0872203"/>
<feComposite in2="hardAlpha" operator="out"/>
<feColorMatrix type="matrix" values="0 0 0 0 0 0 0 0 0 0 0 0 0 0 0 0 0 0 0.25 0"/>
<feBlend mode="normal" in2="BackgroundImageFix" result="effect1_dropShadow_51_3678"/>
<feBlend mode="normal" in="SourceGraphic" in2="effect1_dropShadow_51_3678" result="shape"/>
</filter>
<filter id="filter4_d_51_3678" x="91.0809" y="63.2126" width="8.98218" height="5.3335" filterUnits="userSpaceOnUse" color-interpolation-filters="sRGB">
<feFlood flood-opacity="0" result="BackgroundImageFix"/>
<feColorMatrix in="SourceAlpha" type="matrix" values="0 0 0 0 0 0 0 0 0 0 0 0 0 0 0 0 0 0 127 0" result="hardAlpha"/>
<feOffset dy="0.174441"/>
<feGaussianBlur stdDeviation="0.0872203"/>
<feComposite in2="hardAlpha" operator="out"/>
<feColorMatrix type="matrix" values="0 0 0 0 0 0 0 0 0 0 0 0 0 0 0 0 0 0 0.25 0"/>
<feBlend mode="normal" in2="BackgroundImageFix" result="effect1_dropShadow_51_3678"/>
<feBlend mode="normal" in="SourceGraphic" in2="effect1_dropShadow_51_3678" result="shape"/>
</filter>
<filter id="filter5_f_51_3678" x="-6.63884" y="25.0096" width="138.344" height="80.6563" filterUnits="userSpaceOnUse" color-interpolation-filters="sRGB">
<feFlood flood-opacity="0" result="BackgroundImageFix"/>
<feBlend mode="normal" in="SourceGraphic" in2="BackgroundImageFix" result="shape"/>
<feGaussianBlur stdDeviation="3.97982" result="effect1_foregroundBlur_51_3678"/>
</filter>
<linearGradient id="paint0_linear_51_3678" x1="121.1" y1="54.6464" x2="119.859" y2="54.5666" gradientUnits="userSpaceOnUse">
<stop stop-color="#D9D9D9"/>
<stop offset="1" stop-color="#737373"/>
</linearGradient>
</defs>
</svg>
