<svg width="54" height="51" viewBox="0 0 54 51" fill="none" xmlns="http://www.w3.org/2000/svg">
<g filter="url(#filter0_n_1069_12810)">
<path d="M20.5761 50.3152C20.3191 50.3152 19.9593 50.2638 19.4967 50.161C19.0341 50.1096 18.4429 50.0325 17.7233 49.9297L13.5597 49.0816C13.2513 48.9274 12.9429 48.7989 12.6345 48.6961C12.3775 48.6447 12.1462 48.5676 11.9405 48.4648C11.8377 48.4134 11.6835 48.3363 11.4779 48.2335C11.2723 48.1306 11.1695 48.0021 11.1695 47.8479C10.7069 47.6937 10.1415 47.4367 9.47323 47.0769C8.805 46.8713 8.23957 46.6143 7.77695 46.3059L6.6975 45.5348C6.18347 45.2264 5.82366 44.9694 5.61805 44.7638C4.12738 43.4787 2.97082 41.6539 2.14838 39.2894C1.48015 37.3361 0.966128 35.0487 0.606311 32.4272C0.452104 30.8851 0.375 28.8804 0.375 26.4131C0.375 23.4832 0.529207 21.1958 0.837622 19.5509C1.09463 17.649 1.63436 15.3616 2.4568 12.6887C2.81661 12.3803 3.40774 11.3779 4.23018 9.68164C4.43579 9.42463 4.59 9.16762 4.6928 8.91061C4.79561 8.60219 4.92411 8.34518 5.07832 8.13957C5.12972 8.08817 5.20683 7.95966 5.30963 7.75405C5.46384 7.49704 5.61805 7.36853 5.77225 7.36853C6.18347 7.36853 6.7746 6.98301 7.54564 6.21198C7.80265 6.05777 8.16247 5.74936 8.62509 5.28674C8.9849 4.92692 9.31902 4.66991 9.62743 4.5157C11.0667 3.64186 12.8658 3.02503 15.0247 2.66521C15.3845 2.61381 15.8471 2.56241 16.4126 2.51101C17.0294 2.4082 17.5177 2.3568 17.8775 2.3568C18.5458 2.3568 19.1112 2.3311 19.5738 2.27969C20.0364 2.22829 20.4476 2.17689 20.8075 2.12549C24.0458 2.22829 26.7444 2.4339 28.9033 2.74231C30.8052 2.94792 33.1954 3.33344 36.074 3.89887C36.2282 3.89887 36.4852 3.97597 36.845 4.13018C38.5413 4.69561 39.8264 5.20963 40.7002 5.67225C41.317 5.98067 41.6254 6.28908 41.6254 6.5975V7.29143C42.1909 7.29143 42.782 7.54844 43.3988 8.06246C44.0156 8.52509 44.5811 9.16762 45.0951 9.99006C45.6605 10.7097 46.0974 11.4807 46.4059 12.3032C46.7143 13.1256 46.8685 13.7938 46.8685 14.3079C47.3311 14.3079 47.5881 14.3336 47.6395 14.385C47.7423 14.4364 47.7937 14.6677 47.7937 15.0789C48.0507 16.364 48.3077 17.392 48.5648 18.163C48.6676 18.5743 48.7704 19.0369 48.8732 19.5509C49.0274 20.0135 49.1816 20.579 49.3358 21.2472L49.4129 21.864L49.5671 24.7168V26.6444C49.5671 30.4996 49.3101 33.5067 48.7961 35.6656C48.0764 39.0067 46.6629 41.6025 44.5554 43.453C43.7843 44.1213 42.9362 44.7381 42.011 45.3035L39.3123 47.0769C37.7703 47.5909 36.6394 48.0278 35.9198 48.3877L32.6043 49.5442C30.8566 49.5442 28.8776 49.6727 26.6673 49.9297C24.9711 50.1867 22.9407 50.3152 20.5761 50.3152ZM25.0482 39.1352C26.6416 39.1352 27.7982 38.4413 28.5178 37.0534C28.7748 36.4366 28.929 35.7427 28.9804 34.9716C29.0318 34.2006 29.0575 33.738 29.0575 33.5838L29.1347 31.4249C29.2889 29.8828 29.366 28.3921 29.366 26.9529C29.4174 26.4902 29.4431 25.8734 29.4431 25.1024C29.4431 23.8687 29.3146 22.6865 29.0575 21.5556C28.8005 20.3733 28.5178 19.2682 28.2094 18.2401C27.901 17.2121 27.6954 16.5439 27.5926 16.2354C27.4898 15.3102 27.2585 14.5906 26.8986 14.0765C26.5902 13.5625 26.0248 13.3055 25.2024 13.3055C23.6603 13.3055 22.6322 14.128 22.1182 15.7728C21.8612 16.3897 21.6813 17.1093 21.5785 17.9317C21.5785 18.2401 21.5014 18.9341 21.3472 20.0135L20.8075 23.7916C20.4476 24.9225 20.2677 26.1818 20.2677 27.5697C20.2677 29.3688 20.4476 30.9879 20.8075 32.4272C20.9103 33.1982 21.1159 34.0207 21.4243 34.8945C21.7841 35.717 22.0154 36.3081 22.1182 36.6679C22.1696 37.1819 22.6322 37.696 23.5061 38.21C23.7631 38.467 24.0458 38.6983 24.3542 38.9039C24.6626 39.0581 24.8939 39.1352 25.0482 39.1352Z" fill="#B2651C"/>
<path d="M20.5761 50.3152C20.3191 50.3152 19.9593 50.2638 19.4967 50.161C19.0341 50.1096 18.4429 50.0325 17.7233 49.9297L13.5597 49.0816C13.2513 48.9274 12.9429 48.7989 12.6345 48.6961C12.3775 48.6447 12.1462 48.5676 11.9405 48.4648C11.8377 48.4134 11.6835 48.3363 11.4779 48.2335C11.2723 48.1306 11.1695 48.0021 11.1695 47.8479C10.7069 47.6937 10.1415 47.4367 9.47323 47.0769C8.805 46.8713 8.23957 46.6143 7.77695 46.3059L6.6975 45.5348C6.18347 45.2264 5.82366 44.9694 5.61805 44.7638C4.12738 43.4787 2.97082 41.6539 2.14838 39.2894C1.48015 37.3361 0.966128 35.0487 0.606311 32.4272C0.452104 30.8851 0.375 28.8804 0.375 26.4131C0.375 23.4832 0.529207 21.1958 0.837622 19.5509C1.09463 17.649 1.63436 15.3616 2.4568 12.6887C2.81661 12.3803 3.40774 11.3779 4.23018 9.68164C4.43579 9.42463 4.59 9.16762 4.6928 8.91061C4.79561 8.60219 4.92411 8.34518 5.07832 8.13957C5.12972 8.08817 5.20683 7.95966 5.30963 7.75405C5.46384 7.49704 5.61805 7.36853 5.77225 7.36853C6.18347 7.36853 6.7746 6.98301 7.54564 6.21198C7.80265 6.05777 8.16247 5.74936 8.62509 5.28674C8.9849 4.92692 9.31902 4.66991 9.62743 4.5157C11.0667 3.64186 12.8658 3.02503 15.0247 2.66521C15.3845 2.61381 15.8471 2.56241 16.4126 2.51101C17.0294 2.4082 17.5177 2.3568 17.8775 2.3568C18.5458 2.3568 19.1112 2.3311 19.5738 2.27969C20.0364 2.22829 20.4476 2.17689 20.8075 2.12549C24.0458 2.22829 26.7444 2.4339 28.9033 2.74231C30.8052 2.94792 33.1954 3.33344 36.074 3.89887C36.2282 3.89887 36.4852 3.97597 36.845 4.13018C38.5413 4.69561 39.8264 5.20963 40.7002 5.67225C41.317 5.98067 41.6254 6.28908 41.6254 6.5975V7.29143C42.1909 7.29143 42.782 7.54844 43.3988 8.06246C44.0156 8.52509 44.5811 9.16762 45.0951 9.99006C45.6605 10.7097 46.0974 11.4807 46.4059 12.3032C46.7143 13.1256 46.8685 13.7938 46.8685 14.3079C47.3311 14.3079 47.5881 14.3336 47.6395 14.385C47.7423 14.4364 47.7937 14.6677 47.7937 15.0789C48.0507 16.364 48.3077 17.392 48.5648 18.163C48.6676 18.5743 48.7704 19.0369 48.8732 19.5509C49.0274 20.0135 49.1816 20.579 49.3358 21.2472L49.4129 21.864L49.5671 24.7168V26.6444C49.5671 30.4996 49.3101 33.5067 48.7961 35.6656C48.0764 39.0067 46.6629 41.6025 44.5554 43.453C43.7843 44.1213 42.9362 44.7381 42.011 45.3035L39.3123 47.0769C37.7703 47.5909 36.6394 48.0278 35.9198 48.3877L32.6043 49.5442C30.8566 49.5442 28.8776 49.6727 26.6673 49.9297C24.9711 50.1867 22.9407 50.3152 20.5761 50.3152ZM25.0482 39.1352C26.6416 39.1352 27.7982 38.4413 28.5178 37.0534C28.7748 36.4366 28.929 35.7427 28.9804 34.9716C29.0318 34.2006 29.0575 33.738 29.0575 33.5838L29.1347 31.4249C29.2889 29.8828 29.366 28.3921 29.366 26.9529C29.4174 26.4902 29.4431 25.8734 29.4431 25.1024C29.4431 23.8687 29.3146 22.6865 29.0575 21.5556C28.8005 20.3733 28.5178 19.2682 28.2094 18.2401C27.901 17.2121 27.6954 16.5439 27.5926 16.2354C27.4898 15.3102 27.2585 14.5906 26.8986 14.0765C26.5902 13.5625 26.0248 13.3055 25.2024 13.3055C23.6603 13.3055 22.6322 14.128 22.1182 15.7728C21.8612 16.3897 21.6813 17.1093 21.5785 17.9317C21.5785 18.2401 21.5014 18.9341 21.3472 20.0135L20.8075 23.7916C20.4476 24.9225 20.2677 26.1818 20.2677 27.5697C20.2677 29.3688 20.4476 30.9879 20.8075 32.4272C20.9103 33.1982 21.1159 34.0207 21.4243 34.8945C21.7841 35.717 22.0154 36.3081 22.1182 36.6679C22.1696 37.1819 22.6322 37.696 23.5061 38.21C23.7631 38.467 24.0458 38.6983 24.3542 38.9039C24.6626 39.0581 24.8939 39.1352 25.0482 39.1352Z" stroke="black" stroke-width="0.75"/>
</g>
<g filter="url(#filter1_n_1069_12810)">
<path d="M24.0659 48.5657C23.8089 48.5657 23.4491 48.5143 22.9864 48.4115C22.5238 48.3601 21.9327 48.283 21.2131 48.1802L17.0495 47.3321C16.7411 47.1779 16.4326 47.0494 16.1242 46.9466C15.8672 46.8952 15.6359 46.8181 15.4303 46.7152C15.3275 46.6638 15.1733 46.5867 14.9677 46.4839C14.7621 46.3811 14.6593 46.2526 14.6593 46.0984C14.1966 45.9442 13.6312 45.6872 12.963 45.3274C12.2947 45.1218 11.7293 44.8648 11.2667 44.5563L10.1872 43.7853C9.67322 43.4769 9.3134 43.2199 9.10779 43.0143C7.61712 41.7292 6.46057 39.9044 5.63813 37.5399C4.9699 35.5866 4.45587 33.2992 4.09606 30.6777C3.94185 29.1356 3.86475 27.1309 3.86475 24.6636C3.86475 21.7337 4.01895 19.4463 4.32737 17.8014C4.58438 15.8995 5.12411 13.6121 5.94654 10.9392C6.30636 10.6308 6.89749 9.62841 7.71993 7.93213C7.92554 7.67512 8.07974 7.41811 8.18255 7.16109C8.28535 6.85268 8.41386 6.59567 8.56807 6.39006C8.61947 6.33865 8.69657 6.21015 8.79938 6.00454C8.95359 5.74753 9.10779 5.61902 9.262 5.61902C9.67322 5.61902 10.2643 5.2335 11.0354 4.46247C11.2924 4.30826 11.6522 3.99985 12.1148 3.53723C12.4746 3.17741 12.8088 2.92039 13.1172 2.76619C14.5564 1.89235 16.3555 1.27552 18.5144 0.9157C18.8743 0.864298 19.3369 0.812896 19.9023 0.761494C20.5191 0.658688 21.0075 0.607284 21.3673 0.607284C22.0355 0.607284 22.6009 0.581584 23.0635 0.530182C23.5262 0.47878 23.9374 0.427378 24.2972 0.375977C27.5356 0.47878 30.2342 0.684389 32.3931 0.992802C34.295 1.19841 36.6852 1.58393 39.5637 2.14936C39.7179 2.14936 39.9749 2.22646 40.3348 2.38067C42.031 2.9461 43.3161 3.46012 44.1899 3.92274C44.8068 4.23116 45.1152 4.53957 45.1152 4.84798V5.54192C45.6806 5.54192 46.2717 5.79893 46.8886 6.31295C47.5054 6.77557 48.0708 7.41811 48.5848 8.24055C49.1503 8.96018 49.5872 9.73122 49.8956 10.5537C50.204 11.3761 50.3582 12.0443 50.3582 12.5583C50.8208 12.5583 51.0779 12.584 51.1293 12.6355C51.2321 12.6869 51.2835 12.9182 51.2835 13.3294C51.5405 14.6144 51.7975 15.6425 52.0545 16.4135C52.1573 16.8247 52.2601 17.2874 52.3629 17.8014C52.5171 18.264 52.6713 18.8294 52.8255 19.4977L52.9026 20.1145L53.0569 22.9673V24.8949C53.0569 28.7501 52.7998 31.7571 52.2858 33.916C51.5662 37.2572 50.1526 39.853 48.0451 41.7035C47.2741 42.3717 46.4259 42.9886 45.5007 43.554L42.8021 45.3274C41.26 45.8414 40.1291 46.2783 39.4095 46.6381L36.0941 47.7947C34.3464 47.7947 32.3674 47.9232 30.1571 48.1802C28.4608 48.4372 26.4304 48.5657 24.0659 48.5657ZM28.5379 37.3857C30.1314 37.3857 31.2879 36.6918 32.0076 35.3039C32.2646 34.6871 32.4188 33.9932 32.4702 33.2221C32.5216 32.4511 32.5473 31.9885 32.5473 31.8343L32.6244 29.6754C32.7786 28.1333 32.8557 26.6426 32.8557 25.2033C32.9071 24.7407 32.9328 24.1239 32.9328 23.3529C32.9328 22.1192 32.8043 20.9369 32.5473 19.8061C32.2903 18.6238 32.0076 17.5187 31.6992 16.4906C31.3907 15.4626 31.1851 14.7944 31.0823 14.4859C30.9795 13.5607 30.7482 12.8411 30.3884 12.327C30.08 11.813 29.5146 11.556 28.6921 11.556C27.15 11.556 26.122 12.3784 25.608 14.0233C25.351 14.6401 25.171 15.3598 25.0682 16.1822C25.0682 16.4906 24.9911 17.1846 24.8369 18.264L24.2972 22.0421C23.9374 23.1729 23.7575 24.4323 23.7575 25.8202C23.7575 27.6193 23.9374 29.2384 24.2972 30.6777C24.4 31.4487 24.6056 32.2712 24.914 33.145C25.2739 33.9675 25.5052 34.5586 25.608 34.9184C25.6594 35.4324 26.122 35.9464 26.9958 36.4605C27.2528 36.7175 27.5356 36.9488 27.844 37.1544C28.1524 37.3086 28.3837 37.3857 28.5379 37.3857Z" fill="#E9C253"/>
<path d="M24.0659 48.5657C23.8089 48.5657 23.4491 48.5143 22.9864 48.4115C22.5238 48.3601 21.9327 48.283 21.2131 48.1802L17.0495 47.3321C16.7411 47.1779 16.4326 47.0494 16.1242 46.9466C15.8672 46.8952 15.6359 46.8181 15.4303 46.7152C15.3275 46.6638 15.1733 46.5867 14.9677 46.4839C14.7621 46.3811 14.6593 46.2526 14.6593 46.0984C14.1966 45.9442 13.6312 45.6872 12.963 45.3274C12.2947 45.1218 11.7293 44.8648 11.2667 44.5563L10.1872 43.7853C9.67322 43.4769 9.3134 43.2199 9.10779 43.0143C7.61712 41.7292 6.46057 39.9044 5.63813 37.5399C4.9699 35.5866 4.45587 33.2992 4.09606 30.6777C3.94185 29.1356 3.86475 27.1309 3.86475 24.6636C3.86475 21.7337 4.01895 19.4463 4.32737 17.8014C4.58438 15.8995 5.12411 13.6121 5.94654 10.9392C6.30636 10.6308 6.89749 9.62841 7.71993 7.93213C7.92554 7.67512 8.07974 7.41811 8.18255 7.16109C8.28535 6.85268 8.41386 6.59567 8.56807 6.39006C8.61947 6.33865 8.69657 6.21015 8.79938 6.00454C8.95359 5.74753 9.10779 5.61902 9.262 5.61902C9.67322 5.61902 10.2643 5.2335 11.0354 4.46247C11.2924 4.30826 11.6522 3.99985 12.1148 3.53723C12.4746 3.17741 12.8088 2.92039 13.1172 2.76619C14.5564 1.89235 16.3555 1.27552 18.5144 0.9157C18.8743 0.864298 19.3369 0.812896 19.9023 0.761494C20.5191 0.658688 21.0075 0.607284 21.3673 0.607284C22.0355 0.607284 22.6009 0.581584 23.0635 0.530182C23.5262 0.47878 23.9374 0.427378 24.2972 0.375977C27.5356 0.47878 30.2342 0.684389 32.3931 0.992802C34.295 1.19841 36.6852 1.58393 39.5637 2.14936C39.7179 2.14936 39.9749 2.22646 40.3348 2.38067C42.031 2.9461 43.3161 3.46012 44.1899 3.92274C44.8068 4.23116 45.1152 4.53957 45.1152 4.84798V5.54192C45.6806 5.54192 46.2717 5.79893 46.8886 6.31295C47.5054 6.77557 48.0708 7.41811 48.5848 8.24055C49.1503 8.96018 49.5872 9.73122 49.8956 10.5537C50.204 11.3761 50.3582 12.0443 50.3582 12.5583C50.8208 12.5583 51.0779 12.584 51.1293 12.6355C51.2321 12.6869 51.2835 12.9182 51.2835 13.3294C51.5405 14.6144 51.7975 15.6425 52.0545 16.4135C52.1573 16.8247 52.2601 17.2874 52.3629 17.8014C52.5171 18.264 52.6713 18.8294 52.8255 19.4977L52.9026 20.1145L53.0569 22.9673V24.8949C53.0569 28.7501 52.7998 31.7571 52.2858 33.916C51.5662 37.2572 50.1526 39.853 48.0451 41.7035C47.2741 42.3717 46.4259 42.9886 45.5007 43.554L42.8021 45.3274C41.26 45.8414 40.1291 46.2783 39.4095 46.6381L36.0941 47.7947C34.3464 47.7947 32.3674 47.9232 30.1571 48.1802C28.4608 48.4372 26.4304 48.5657 24.0659 48.5657ZM28.5379 37.3857C30.1314 37.3857 31.2879 36.6918 32.0076 35.3039C32.2646 34.6871 32.4188 33.9932 32.4702 33.2221C32.5216 32.4511 32.5473 31.9885 32.5473 31.8343L32.6244 29.6754C32.7786 28.1333 32.8557 26.6426 32.8557 25.2033C32.9071 24.7407 32.9328 24.1239 32.9328 23.3529C32.9328 22.1192 32.8043 20.9369 32.5473 19.8061C32.2903 18.6238 32.0076 17.5187 31.6992 16.4906C31.3907 15.4626 31.1851 14.7944 31.0823 14.4859C30.9795 13.5607 30.7482 12.8411 30.3884 12.327C30.08 11.813 29.5146 11.556 28.6921 11.556C27.15 11.556 26.122 12.3784 25.608 14.0233C25.351 14.6401 25.171 15.3598 25.0682 16.1822C25.0682 16.4906 24.9911 17.1846 24.8369 18.264L24.2972 22.0421C23.9374 23.1729 23.7575 24.4323 23.7575 25.8202C23.7575 27.6193 23.9374 29.2384 24.2972 30.6777C24.4 31.4487 24.6056 32.2712 24.914 33.145C25.2739 33.9675 25.5052 34.5586 25.608 34.9184C25.6594 35.4324 26.122 35.9464 26.9958 36.4605C27.2528 36.7175 27.5356 36.9488 27.844 37.1544C28.1524 37.3086 28.3837 37.3857 28.5379 37.3857Z" stroke="black" stroke-width="0.75"/>
</g>
<defs>
<filter id="filter0_n_1069_12810" x="0" y="1.74951" width="49.9419" height="48.9409" filterUnits="userSpaceOnUse" color-interpolation-filters="sRGB">
<feFlood flood-opacity="0" result="BackgroundImageFix"/>
<feBlend mode="normal" in="SourceGraphic" in2="BackgroundImageFix" result="shape"/>
<feTurbulence type="fractalNoise" baseFrequency="0.027657391503453255 0.027657391503453255" stitchTiles="stitch" numOctaves="3" result="noise" seed="9207" />
<feColorMatrix in="noise" type="luminanceToAlpha" result="alphaNoise" />
<feComponentTransfer in="alphaNoise" result="coloredNoise1">
<feFuncA type="discrete" tableValues="1 1 1 1 1 1 1 1 1 1 1 1 1 1 1 1 1 1 1 1 1 1 1 1 1 1 1 1 1 1 1 1 1 1 1 1 1 1 1 1 1 1 1 1 1 1 1 1 1 1 1 0 0 0 0 0 0 0 0 0 0 0 0 0 0 0 0 0 0 0 0 0 0 0 0 0 0 0 0 0 0 0 0 0 0 0 0 0 0 0 0 0 0 0 0 0 0 0 0 0 "/>
</feComponentTransfer>
<feComposite operator="in" in2="shape" in="coloredNoise1" result="noise1Clipped" />
<feFlood flood-color="rgba(178, 101, 28, 0.05)" result="color1Flood" />
<feComposite operator="in" in2="noise1Clipped" in="color1Flood" result="color1" />
<feMerge result="effect1_noise_1069_12810">
<feMergeNode in="shape" />
<feMergeNode in="color1" />
</feMerge>
</filter>
<filter id="filter1_n_1069_12810" x="3.48975" y="0" width="49.9419" height="48.9409" filterUnits="userSpaceOnUse" color-interpolation-filters="sRGB">
<feFlood flood-opacity="0" result="BackgroundImageFix"/>
<feBlend mode="normal" in="SourceGraphic" in2="BackgroundImageFix" result="shape"/>
<feTurbulence type="fractalNoise" baseFrequency="0.027657391503453255 0.027657391503453255" stitchTiles="stitch" numOctaves="3" result="noise" seed="9207" />
<feColorMatrix in="noise" type="luminanceToAlpha" result="alphaNoise" />
<feComponentTransfer in="alphaNoise" result="coloredNoise1">
<feFuncA type="discrete" tableValues="1 1 1 1 1 1 1 1 1 1 1 1 1 1 1 1 1 1 1 1 1 1 1 1 1 1 1 1 1 1 1 1 1 1 1 1 1 1 1 1 1 1 1 1 1 1 1 1 1 1 1 0 0 0 0 0 0 0 0 0 0 0 0 0 0 0 0 0 0 0 0 0 0 0 0 0 0 0 0 0 0 0 0 0 0 0 0 0 0 0 0 0 0 0 0 0 0 0 0 0 "/>
</feComponentTransfer>
<feComposite operator="in" in2="shape" in="coloredNoise1" result="noise1Clipped" />
<feFlood flood-color="rgba(178, 101, 28, 0.05)" result="color1Flood" />
<feComposite operator="in" in2="noise1Clipped" in="color1Flood" result="color1" />
<feMerge result="effect1_noise_1069_12810">
<feMergeNode in="shape" />
<feMergeNode in="color1" />
</feMerge>
</filter>
</defs>
</svg>
