<svg width="45" height="49" viewBox="0 0 45 49" fill="none" xmlns="http://www.w3.org/2000/svg">
<g filter="url(#filter0_n_1069_12834)">
<path d="M13.02 48.232C9.01061 48.232 6.08067 48.1035 4.23018 47.8465C2.84232 47.5895 1.94277 47.3581 1.53155 47.1525C0.863323 46.8441 0.529207 46.4329 0.529207 45.9189C0.529207 44.5824 1.22314 43.2203 2.611 41.8324V41.9095C2.611 41.9095 2.76521 41.7553 3.07363 41.4469C3.43344 41.0871 4.59 39.7249 6.54329 37.3604C7.93116 35.7669 9.37042 33.9164 10.8611 31.8089C11.1181 31.3977 11.4008 30.9608 11.7092 30.4982C12.069 29.9841 12.3261 29.5729 12.4803 29.2645C13.1485 28.3907 13.8424 27.1827 14.5621 25.6406C14.8705 24.921 15.1275 24.2014 15.3331 23.4817C15.5901 22.7107 15.7186 22.0168 15.7186 21.3999C15.7186 20.0121 15.2817 19.0354 14.4079 18.47C13.5854 17.8532 12.1205 17.5447 10.013 17.5447C8.72789 17.5447 7.36573 17.6733 5.92646 17.9303C5.00122 18.1873 3.51055 18.8298 1.45445 19.8579C1.45445 19.8065 1.42875 19.7037 1.37735 19.5494C1.32594 19.3952 1.27454 19.2153 1.22314 19.0097C1.06893 17.8789 0.914725 16.1826 0.760518 13.9209L0.529207 9.91149L0.452103 8.29232L0.375 6.90445V6.36472L4.23018 4.30164C7.05731 3.42779 9.47323 3.28058 12.4032 2.81796C15.3331 2.35533 18.2373 2.12402 21.1159 2.12402C23.5832 2.12402 25.9734 2.40674 28.2865 2.97217C30.5996 3.48619 32.63 4.28293 34.3777 5.36237C38.4385 7.88109 40.4689 11.6849 40.4689 16.7737C40.4689 19.498 39.5693 22.1453 37.7703 24.7154C35.9712 27.2855 33.1954 29.907 29.4431 32.58H35.8427C37.3333 32.58 38.3614 32.6828 38.9268 32.8884C40.0063 33.2482 40.546 33.8393 40.546 34.6618C40.546 36.2552 40.4946 37.9258 40.3918 39.6735V43.6829C40.3918 45.1221 44.0549 44.1289 43.6437 44.7971C43.6437 45.9189 38.0787 47.9236 36.3824 47.9236C36.2282 48.0778 35.8941 48.1549 35.38 48.1549C34.5062 48.2063 32.5786 48.232 29.5973 48.232H13.02Z" fill="#B2651C"/>
<path d="M13.02 48.232C9.01061 48.232 6.08067 48.1035 4.23018 47.8465C2.84232 47.5895 1.94277 47.3581 1.53155 47.1525C0.863323 46.8441 0.529207 46.4329 0.529207 45.9189C0.529207 44.5824 1.22314 43.2203 2.611 41.8324V41.9095C2.611 41.9095 2.76521 41.7553 3.07363 41.4469C3.43344 41.0871 4.59 39.7249 6.54329 37.3604C7.93116 35.7669 9.37042 33.9164 10.8611 31.8089C11.1181 31.3977 11.4008 30.9608 11.7092 30.4982C12.069 29.9841 12.3261 29.5729 12.4803 29.2645C13.1485 28.3907 13.8424 27.1827 14.5621 25.6406C14.8705 24.921 15.1275 24.2014 15.3331 23.4817C15.5901 22.7107 15.7186 22.0168 15.7186 21.3999C15.7186 20.0121 15.2817 19.0354 14.4079 18.47C13.5854 17.8532 12.1205 17.5447 10.013 17.5447C8.72789 17.5447 7.36573 17.6733 5.92646 17.9303C5.00122 18.1873 3.51055 18.8298 1.45445 19.8579C1.45445 19.8065 1.42875 19.7037 1.37735 19.5494C1.32594 19.3952 1.27454 19.2153 1.22314 19.0097C1.06893 17.8789 0.914725 16.1826 0.760518 13.9209L0.529207 9.91149L0.452103 8.29232L0.375 6.90445V6.36472L4.23018 4.30164C7.05731 3.42779 9.47323 3.28058 12.4032 2.81796C15.3331 2.35533 18.2373 2.12402 21.1159 2.12402C23.5832 2.12402 25.9734 2.40674 28.2865 2.97217C30.5996 3.48619 32.63 4.28293 34.3777 5.36237C38.4385 7.88109 40.4689 11.6849 40.4689 16.7737C40.4689 19.498 39.5693 22.1453 37.7703 24.7154C35.9712 27.2855 33.1954 29.907 29.4431 32.58H35.8427C37.3333 32.58 38.3614 32.6828 38.9268 32.8884C40.0063 33.2482 40.546 33.8393 40.546 34.6618C40.546 36.2552 40.4946 37.9258 40.3918 39.6735V43.6829C40.3918 45.1221 44.0549 44.1289 43.6437 44.7971C43.6437 45.9189 38.0787 47.9236 36.3824 47.9236C36.2282 48.0778 35.8941 48.1549 35.38 48.1549C34.5062 48.2063 32.5786 48.232 29.5973 48.232H13.02Z" stroke="black" stroke-width="0.75"/>
</g>
<g filter="url(#filter1_n_1069_12834)">
<path d="M16.5102 46.483C12.5008 46.483 9.5709 46.3545 7.72042 46.0974C6.33255 45.8404 5.43301 45.6091 5.02179 45.4035C4.35356 45.0951 4.01944 44.6839 4.01944 44.1699C4.01944 42.8334 4.71337 41.4712 6.10124 40.0834V40.1605C6.10124 40.1605 6.25545 40.0063 6.56386 39.6978C6.92368 39.338 8.08023 37.9759 10.0335 35.6114C11.4214 34.0179 12.8607 32.1674 14.3513 30.0599C14.6083 29.6487 14.8911 29.2118 15.1995 28.7491C15.5593 28.2351 15.8163 27.8239 15.9705 27.5155C16.6387 26.6416 17.3327 25.4337 18.0523 23.8916C18.3607 23.172 18.6177 22.4523 18.8233 21.7327C19.0803 20.9617 19.2089 20.2677 19.2089 19.6509C19.2089 18.263 18.7719 17.2864 17.8981 16.721C17.0757 16.1041 15.6107 15.7957 13.5032 15.7957C12.2181 15.7957 10.856 15.9242 9.4167 16.1812C8.49145 16.4383 7.00078 17.0808 4.94468 18.1088C4.94468 18.0574 4.91898 17.9546 4.86758 17.8004C4.81618 17.6462 4.76478 17.4663 4.71337 17.2607C4.55917 16.1298 4.40496 14.4336 4.25075 12.1719L4.01944 8.16247L3.94234 6.54329L3.86523 5.15543V4.6157L7.25779 3.07363C10.0849 2.19979 12.9635 1.53155 15.8934 1.06893C18.8233 0.606311 21.7276 0.375 24.6061 0.375C27.0734 0.375 29.4636 0.657714 31.7767 1.22314C34.0899 1.73717 36.1202 2.5339 37.8679 3.61335C41.9287 6.13207 43.9591 9.93585 43.9591 15.0247C43.9591 17.749 43.0596 20.3962 41.2605 22.9664C39.4614 25.5365 36.6857 28.158 32.9333 30.8309H39.3329C40.8236 30.8309 41.8516 30.9337 42.417 31.1393C43.4965 31.4992 44.0362 32.0903 44.0362 32.9127C44.0362 34.5062 43.9848 36.1768 43.882 37.9245V41.9339C43.882 43.3731 43.6764 44.4269 43.2652 45.0951C42.6998 45.8147 41.5689 46.1746 39.8726 46.1746C39.7184 46.3288 39.3843 46.4059 38.8703 46.4059C37.9964 46.4573 36.0688 46.483 33.0875 46.483H16.5102Z" fill="#E9C253"/>
<path d="M16.5102 46.483C12.5008 46.483 9.5709 46.3545 7.72042 46.0974C6.33255 45.8404 5.43301 45.6091 5.02179 45.4035C4.35356 45.0951 4.01944 44.6839 4.01944 44.1699C4.01944 42.8334 4.71337 41.4712 6.10124 40.0834V40.1605C6.10124 40.1605 6.25545 40.0063 6.56386 39.6978C6.92368 39.338 8.08023 37.9759 10.0335 35.6114C11.4214 34.0179 12.8607 32.1674 14.3513 30.0599C14.6083 29.6487 14.8911 29.2118 15.1995 28.7491C15.5593 28.2351 15.8163 27.8239 15.9705 27.5155C16.6387 26.6416 17.3327 25.4337 18.0523 23.8916C18.3607 23.172 18.6177 22.4523 18.8233 21.7327C19.0803 20.9617 19.2089 20.2677 19.2089 19.6509C19.2089 18.263 18.7719 17.2864 17.8981 16.721C17.0757 16.1041 15.6107 15.7957 13.5032 15.7957C12.2181 15.7957 10.856 15.9242 9.4167 16.1812C8.49145 16.4383 7.00078 17.0808 4.94468 18.1088C4.94468 18.0574 4.91898 17.9546 4.86758 17.8004C4.81618 17.6462 4.76478 17.4663 4.71337 17.2607C4.55917 16.1298 4.40496 14.4336 4.25075 12.1719L4.01944 8.16247L3.94234 6.54329L3.86523 5.15543V4.6157L7.25779 3.07363C10.0849 2.19979 12.9635 1.53155 15.8934 1.06893C18.8233 0.606311 21.7276 0.375 24.6061 0.375C27.0734 0.375 29.4636 0.657714 31.7767 1.22314C34.0899 1.73717 36.1202 2.5339 37.8679 3.61335C41.9287 6.13207 43.9591 9.93585 43.9591 15.0247C43.9591 17.749 43.0596 20.3962 41.2605 22.9664C39.4614 25.5365 36.6857 28.158 32.9333 30.8309H39.3329C40.8236 30.8309 41.8516 30.9337 42.417 31.1393C43.4965 31.4992 44.0362 32.0903 44.0362 32.9127C44.0362 34.5062 43.9848 36.1768 43.882 37.9245V41.9339C43.882 43.3731 43.6764 44.4269 43.2652 45.0951C42.6998 45.8147 41.5689 46.1746 39.8726 46.1746C39.7184 46.3288 39.3843 46.4059 38.8703 46.4059C37.9964 46.4573 36.0688 46.483 33.0875 46.483H16.5102Z" stroke="black" stroke-width="0.75"/>
</g>
<defs>
<filter id="filter0_n_1069_12834" x="0" y="1.74902" width="44.0513" height="46.8579" filterUnits="userSpaceOnUse" color-interpolation-filters="sRGB">
<feFlood flood-opacity="0" result="BackgroundImageFix"/>
<feBlend mode="normal" in="SourceGraphic" in2="BackgroundImageFix" result="shape"/>
<feTurbulence type="fractalNoise" baseFrequency="0.027657391503453255 0.027657391503453255" stitchTiles="stitch" numOctaves="3" result="noise" seed="9207" />
<feColorMatrix in="noise" type="luminanceToAlpha" result="alphaNoise" />
<feComponentTransfer in="alphaNoise" result="coloredNoise1">
<feFuncA type="discrete" tableValues="1 1 1 1 1 1 1 1 1 1 1 1 1 1 1 1 1 1 1 1 1 1 1 1 1 1 1 1 1 1 1 1 1 1 1 1 1 1 1 1 1 1 1 1 1 1 1 1 1 1 1 0 0 0 0 0 0 0 0 0 0 0 0 0 0 0 0 0 0 0 0 0 0 0 0 0 0 0 0 0 0 0 0 0 0 0 0 0 0 0 0 0 0 0 0 0 0 0 0 0 "/>
</feComponentTransfer>
<feComposite operator="in" in2="shape" in="coloredNoise1" result="noise1Clipped" />
<feFlood flood-color="rgba(178, 101, 28, 0.05)" result="color1Flood" />
<feComposite operator="in" in2="noise1Clipped" in="color1Flood" result="color1" />
<feMerge result="effect1_noise_1069_12834">
<feMergeNode in="shape" />
<feMergeNode in="color1" />
</feMerge>
</filter>
<filter id="filter1_n_1069_12834" x="3.49023" y="0" width="40.9214" height="46.8579" filterUnits="userSpaceOnUse" color-interpolation-filters="sRGB">
<feFlood flood-opacity="0" result="BackgroundImageFix"/>
<feBlend mode="normal" in="SourceGraphic" in2="BackgroundImageFix" result="shape"/>
<feTurbulence type="fractalNoise" baseFrequency="0.027657391503453255 0.027657391503453255" stitchTiles="stitch" numOctaves="3" result="noise" seed="9207" />
<feColorMatrix in="noise" type="luminanceToAlpha" result="alphaNoise" />
<feComponentTransfer in="alphaNoise" result="coloredNoise1">
<feFuncA type="discrete" tableValues="1 1 1 1 1 1 1 1 1 1 1 1 1 1 1 1 1 1 1 1 1 1 1 1 1 1 1 1 1 1 1 1 1 1 1 1 1 1 1 1 1 1 1 1 1 1 1 1 1 1 1 0 0 0 0 0 0 0 0 0 0 0 0 0 0 0 0 0 0 0 0 0 0 0 0 0 0 0 0 0 0 0 0 0 0 0 0 0 0 0 0 0 0 0 0 0 0 0 0 0 "/>
</feComponentTransfer>
<feComposite operator="in" in2="shape" in="coloredNoise1" result="noise1Clipped" />
<feFlood flood-color="rgba(178, 101, 28, 0.05)" result="color1Flood" />
<feComposite operator="in" in2="noise1Clipped" in="color1Flood" result="color1" />
<feMerge result="effect1_noise_1069_12834">
<feMergeNode in="shape" />
<feMergeNode in="color1" />
</feMerge>
</filter>
</defs>
</svg>
