<svg width="45" height="51" viewBox="0 0 45 51" fill="none" xmlns="http://www.w3.org/2000/svg">
<g filter="url(#filter0_n_1069_12831)">
<path d="M17.046 50.468C16.4292 50.468 15.5039 50.3652 14.2703 50.1596C12.574 49.954 11.2375 49.7227 10.2609 49.4656C9.38702 49.26 8.8216 49.1058 8.56459 49.003C8.15337 48.9002 7.94776 48.7717 7.94776 48.6175C7.69074 48.5661 7.40803 48.489 7.09962 48.3862C6.8426 48.2834 6.53419 48.2063 6.17437 48.1549C5.60895 48.0521 5.04352 47.8465 4.47809 47.5381C3.96407 47.1782 3.62995 46.9469 3.47575 46.8441L2.3963 46.3044L3.16733 35.6641C4.47809 34.8458 5.45354 34.4843 6.71902 33.7611C8.56951 33.7611 15.4011 36.6664 16.2749 36.0496C17.4058 35.3814 17.9712 34.3276 17.9712 32.8884C17.9712 30.9865 16.3521 29.907 13.1137 29.65C11.2118 29.65 9.10431 29.7271 6.7912 29.8813V21.5541L10.3347 19.8408C10.6431 19.8922 12.7398 20.5639 13.408 20.5639C15.1557 20.5639 12.7796 21.3999 13.9618 20.9373C15.2469 20.4233 15.8894 19.3695 15.8894 17.7761C15.8894 16.491 15.3754 15.6172 14.3474 15.1545C13.4735 14.6919 12.1114 14.4606 10.2609 14.4606C8.15337 14.4606 5.12062 15.2316 1.16264 16.7737L0.391602 5.9021C2.92257 4.65499 3.46492 4.2243 4.00727 4.11264C7.50264 3.39301 16.1721 2.12402 19.6675 2.12402L25.0648 2.50954C26.8124 2.81796 28.3545 3.12637 29.691 3.43479C29.7424 3.43479 29.8195 3.46049 29.9223 3.51189C30.0251 3.51189 30.1536 3.53759 30.3078 3.58899C31.4901 4.05161 32.3125 4.41143 32.7751 4.66845C33.1863 4.82265 33.392 5.00256 33.392 5.20817V5.825C34.3172 5.825 35.1653 6.57033 35.9364 8.061C36.142 8.36942 36.2962 8.67783 36.399 8.98625C36.5532 9.29466 36.7074 9.57737 36.8616 9.83439L37.4013 11.2994C37.8126 12.2246 38.0182 12.8928 38.0182 13.3041C38.121 14.0751 38.2752 14.8461 38.4808 15.6172C38.4808 17.1592 38.0953 18.6756 37.3242 20.1663C36.656 21.6055 35.628 22.8649 34.2401 23.9443C38.3523 26.3089 40.4084 29.5729 40.4084 33.7365C40.4084 37.8487 39.7658 41.2413 38.4808 43.9142C37.9668 44.9422 40.4192 44.6631 39.8024 45.3313C39.237 45.9995 35.1517 48.0521 34.7405 48.1549C32.0161 49.5428 29.6396 49.8255 26.4526 50.0825C24.3965 50.3395 21.261 50.468 17.046 50.468Z" fill="#B2651C"/>
<path d="M17.046 50.468C16.4292 50.468 15.5039 50.3652 14.2703 50.1596C12.574 49.954 11.2375 49.7227 10.2609 49.4656C9.38702 49.26 8.8216 49.1058 8.56459 49.003C8.15337 48.9002 7.94776 48.7717 7.94776 48.6175C7.69074 48.5661 7.40803 48.489 7.09962 48.3862C6.8426 48.2834 6.53419 48.2063 6.17437 48.1549C5.60895 48.0521 5.04352 47.8465 4.47809 47.5381C3.96407 47.1782 3.62995 46.9469 3.47575 46.8441L2.3963 46.3044L3.16733 35.6641C4.47809 34.8458 5.45354 34.4843 6.71902 33.7611C8.56951 33.7611 15.4011 36.6664 16.2749 36.0496C17.4058 35.3814 17.9712 34.3276 17.9712 32.8884C17.9712 30.9865 16.3521 29.907 13.1137 29.65C11.2118 29.65 9.10431 29.7271 6.7912 29.8813V21.5541L10.3347 19.8408C10.6431 19.8922 12.7398 20.5639 13.408 20.5639C15.1557 20.5639 12.7796 21.3999 13.9618 20.9373C15.2469 20.4233 15.8894 19.3695 15.8894 17.7761C15.8894 16.491 15.3754 15.6172 14.3474 15.1545C13.4735 14.6919 12.1114 14.4606 10.2609 14.4606C8.15337 14.4606 5.12062 15.2316 1.16264 16.7737L0.391602 5.9021C2.92257 4.65499 3.46492 4.2243 4.00727 4.11264C7.50264 3.39301 16.1721 2.12402 19.6675 2.12402L25.0648 2.50954C26.8124 2.81796 28.3545 3.12637 29.691 3.43479C29.7424 3.43479 29.8195 3.46049 29.9223 3.51189C30.0251 3.51189 30.1536 3.53759 30.3078 3.58899C31.4901 4.05161 32.3125 4.41143 32.7751 4.66845C33.1863 4.82265 33.392 5.00256 33.392 5.20817V5.825C34.3172 5.825 35.1653 6.57033 35.9364 8.061C36.142 8.36942 36.2962 8.67783 36.399 8.98625C36.5532 9.29466 36.7074 9.57737 36.8616 9.83439L37.4013 11.2994C37.8126 12.2246 38.0182 12.8928 38.0182 13.3041C38.121 14.0751 38.2752 14.8461 38.4808 15.6172C38.4808 17.1592 38.0953 18.6756 37.3242 20.1663C36.656 21.6055 35.628 22.8649 34.2401 23.9443C38.3523 26.3089 40.4084 29.5729 40.4084 33.7365C40.4084 37.8487 39.7658 41.2413 38.4808 43.9142C37.9668 44.9422 40.4192 44.6631 39.8024 45.3313C39.237 45.9995 35.1517 48.0521 34.7405 48.1549C32.0161 49.5428 29.6396 49.8255 26.4526 50.0825C24.3965 50.3395 21.261 50.468 17.046 50.468Z" stroke="black" stroke-width="0.75"/>
</g>
<g filter="url(#filter1_n_1069_12831)">
<path d="M20.5362 48.719C19.9194 48.719 18.9941 48.6162 17.7605 48.4106C16.0642 48.2049 14.7277 47.9736 13.7511 47.7166C12.8773 47.511 12.3118 47.3568 12.0548 47.254C11.6436 47.1512 11.438 47.0227 11.438 46.8685C11.181 46.8171 10.8983 46.74 10.5899 46.6372C10.3328 46.5344 10.0244 46.4573 9.66461 46.4059C9.09918 46.3031 8.53375 46.0974 7.96833 45.789C7.4543 45.4292 7.12019 45.1979 6.96598 45.0951L5.88653 44.5554L6.65757 33.9151C10.3071 34.7889 13.3142 35.2258 15.6787 35.2258C17.5292 35.2258 18.8913 34.9174 19.7652 34.3006C20.896 33.6324 21.4615 32.5786 21.4615 31.1393C21.4615 29.2375 19.8423 28.158 16.6039 27.901C14.702 27.901 12.5945 27.9781 10.2814 28.1323V19.8051H11.5922C11.9006 19.8565 12.3889 19.8822 13.0572 19.8822C14.8048 19.8822 16.2698 19.6509 17.4521 19.1883C18.7371 18.6743 19.3797 17.6205 19.3797 16.027C19.3797 14.742 18.8656 13.8681 17.8376 13.4055C16.9637 12.9429 15.6016 12.7116 13.7511 12.7116C11.6436 12.7116 8.61086 13.4826 4.65287 15.0247L3.88184 4.15308C6.86318 2.86802 9.79311 1.96848 12.6716 1.45445C16.167 0.734817 19.6624 0.375 23.1577 0.375L28.555 0.760518C30.3027 1.06893 31.8447 1.37735 33.1812 1.68576C33.2326 1.68576 33.3097 1.71146 33.4125 1.76287C33.5153 1.76287 33.6438 1.78857 33.798 1.83997C34.9803 2.30259 35.8027 2.66241 36.2654 2.91942C36.6766 3.07363 36.8822 3.25354 36.8822 3.45915V4.07598C37.8074 4.07598 38.6556 4.82131 39.4266 6.31198C39.6322 6.62039 39.7864 6.92881 39.8892 7.23723C40.0434 7.54564 40.1976 7.82835 40.3518 8.08536L40.8916 9.55033C41.3028 10.4756 41.5084 11.1438 41.5084 11.555C41.6112 12.3261 41.7654 13.0971 41.971 13.8681C41.971 15.4102 41.5855 16.9266 40.8145 18.4172C40.1462 19.8565 39.1182 21.1159 37.7303 22.1953C41.8425 24.5598 43.8986 27.8239 43.8986 31.9875C43.8986 36.0997 43.2561 39.4922 41.971 42.1652C41.457 43.1932 40.8916 44.0414 40.2747 44.7096C39.7093 45.3778 39.221 45.7633 38.8098 45.8661C36.0854 47.254 33.1298 48.0764 29.9429 48.3335C27.8868 48.5905 24.7512 48.719 20.5362 48.719Z" fill="#E9C253"/>
<path d="M20.5362 48.719C19.9194 48.719 18.9941 48.6162 17.7605 48.4106C16.0642 48.2049 14.7277 47.9736 13.7511 47.7166C12.8773 47.511 12.3118 47.3568 12.0548 47.254C11.6436 47.1512 11.438 47.0227 11.438 46.8685C11.181 46.8171 10.8983 46.74 10.5899 46.6372C10.3328 46.5344 10.0244 46.4573 9.66461 46.4059C9.09918 46.3031 8.53375 46.0974 7.96833 45.789C7.4543 45.4292 7.12019 45.1979 6.96598 45.0951L5.88653 44.5554L6.65757 33.9151C10.3071 34.7889 13.3142 35.2258 15.6787 35.2258C17.5292 35.2258 18.8913 34.9174 19.7652 34.3006C20.896 33.6324 21.4615 32.5786 21.4615 31.1393C21.4615 29.2375 19.8423 28.158 16.6039 27.901C14.702 27.901 12.5945 27.9781 10.2814 28.1323V19.8051H11.5922C11.9006 19.8565 12.3889 19.8822 13.0572 19.8822C14.8048 19.8822 16.2698 19.6509 17.4521 19.1883C18.7371 18.6743 19.3797 17.6205 19.3797 16.027C19.3797 14.742 18.8656 13.8681 17.8376 13.4055C16.9637 12.9429 15.6016 12.7116 13.7511 12.7116C11.6436 12.7116 8.61086 13.4826 4.65287 15.0247L3.88184 4.15308C6.86318 2.86802 9.79311 1.96848 12.6716 1.45445C16.167 0.734817 19.6624 0.375 23.1577 0.375L28.555 0.760518C30.3027 1.06893 31.8447 1.37735 33.1812 1.68576C33.2326 1.68576 33.3097 1.71146 33.4125 1.76287C33.5153 1.76287 33.6438 1.78857 33.798 1.83997C34.9803 2.30259 35.8027 2.66241 36.2654 2.91942C36.6766 3.07363 36.8822 3.25354 36.8822 3.45915V4.07598C37.8074 4.07598 38.6556 4.82131 39.4266 6.31198C39.6322 6.62039 39.7864 6.92881 39.8892 7.23723C40.0434 7.54564 40.1976 7.82835 40.3518 8.08536L40.8916 9.55033C41.3028 10.4756 41.5084 11.1438 41.5084 11.555C41.6112 12.3261 41.7654 13.0971 41.971 13.8681C41.971 15.4102 41.5855 16.9266 40.8145 18.4172C40.1462 19.8565 39.1182 21.1159 37.7303 22.1953C41.8425 24.5598 43.8986 27.8239 43.8986 31.9875C43.8986 36.0997 43.2561 39.4922 41.971 42.1652C41.457 43.1932 40.8916 44.0414 40.2747 44.7096C39.7093 45.3778 39.221 45.7633 38.8098 45.8661C36.0854 47.254 33.1298 48.0764 29.9429 48.3335C27.8868 48.5905 24.7512 48.719 20.5362 48.719Z" stroke="black" stroke-width="0.75"/>
</g>
<defs>
<filter id="filter0_n_1069_12831" x="0" y="1.74902" width="40.7832" height="49.0938" filterUnits="userSpaceOnUse" color-interpolation-filters="sRGB">
<feFlood flood-opacity="0" result="BackgroundImageFix"/>
<feBlend mode="normal" in="SourceGraphic" in2="BackgroundImageFix" result="shape"/>
<feTurbulence type="fractalNoise" baseFrequency="0.027657391503453255 0.027657391503453255" stitchTiles="stitch" numOctaves="3" result="noise" seed="9207" />
<feColorMatrix in="noise" type="luminanceToAlpha" result="alphaNoise" />
<feComponentTransfer in="alphaNoise" result="coloredNoise1">
<feFuncA type="discrete" tableValues="1 1 1 1 1 1 1 1 1 1 1 1 1 1 1 1 1 1 1 1 1 1 1 1 1 1 1 1 1 1 1 1 1 1 1 1 1 1 1 1 1 1 1 1 1 1 1 1 1 1 1 0 0 0 0 0 0 0 0 0 0 0 0 0 0 0 0 0 0 0 0 0 0 0 0 0 0 0 0 0 0 0 0 0 0 0 0 0 0 0 0 0 0 0 0 0 0 0 0 0 "/>
</feComponentTransfer>
<feComposite operator="in" in2="shape" in="coloredNoise1" result="noise1Clipped" />
<feFlood flood-color="rgba(178, 101, 28, 0.05)" result="color1Flood" />
<feComposite operator="in" in2="noise1Clipped" in="color1Flood" result="color1" />
<feMerge result="effect1_noise_1069_12831">
<feMergeNode in="shape" />
<feMergeNode in="color1" />
</feMerge>
</filter>
<filter id="filter1_n_1069_12831" x="3.48926" y="0" width="40.7842" height="49.0938" filterUnits="userSpaceOnUse" color-interpolation-filters="sRGB">
<feFlood flood-opacity="0" result="BackgroundImageFix"/>
<feBlend mode="normal" in="SourceGraphic" in2="BackgroundImageFix" result="shape"/>
<feTurbulence type="fractalNoise" baseFrequency="0.027657391503453255 0.027657391503453255" stitchTiles="stitch" numOctaves="3" result="noise" seed="9207" />
<feColorMatrix in="noise" type="luminanceToAlpha" result="alphaNoise" />
<feComponentTransfer in="alphaNoise" result="coloredNoise1">
<feFuncA type="discrete" tableValues="1 1 1 1 1 1 1 1 1 1 1 1 1 1 1 1 1 1 1 1 1 1 1 1 1 1 1 1 1 1 1 1 1 1 1 1 1 1 1 1 1 1 1 1 1 1 1 1 1 1 1 0 0 0 0 0 0 0 0 0 0 0 0 0 0 0 0 0 0 0 0 0 0 0 0 0 0 0 0 0 0 0 0 0 0 0 0 0 0 0 0 0 0 0 0 0 0 0 0 0 "/>
</feComponentTransfer>
<feComposite operator="in" in2="shape" in="coloredNoise1" result="noise1Clipped" />
<feFlood flood-color="rgba(178, 101, 28, 0.05)" result="color1Flood" />
<feComposite operator="in" in2="noise1Clipped" in="color1Flood" result="color1" />
<feMerge result="effect1_noise_1069_12831">
<feMergeNode in="shape" />
<feMergeNode in="color1" />
</feMerge>
</filter>
</defs>
</svg>
