<svg width="56" height="55" viewBox="0 0 56 55" fill="none" xmlns="http://www.w3.org/2000/svg">
<g filter="url(#filter0_n_1069_12828)">
<path d="M28.1323 54.0148C27.3099 54.0148 26.7958 53.2438 26.5902 51.7017C26.5902 51.3419 26.5645 51.0078 26.5131 50.6994C26.4617 50.391 26.436 50.0568 26.436 49.697C26.436 49.0288 26.4103 48.6176 26.3589 48.4634L26.2047 45.6105H20.4219C15.6929 45.6105 12.0947 45.6362 9.62743 45.6876C8.44518 45.6876 6.51759 45.739 3.84466 45.8418C2.5596 45.7904 1.60866 45.5334 0.991829 45.0708C0.58061 44.9166 0.375 44.6596 0.375 44.2997V40.2132C0.375 38.0029 0.503506 36.3324 0.760518 35.2015C0.811921 34.3277 1.22314 32.5543 1.99418 29.8814L3.22783 25.4093L3.69046 24.2528C3.84466 23.7902 4.33299 22.5822 5.15542 20.6289L6.6975 16.928L11.0153 7.29001C12.0947 5.13111 12.7887 3.79464 13.0971 3.28062C13.1485 3.22922 16.8573 1.29332 17.2171 1.03631C17.3713 0.933503 17.4998 0.830698 17.6026 0.727895C17.7054 0.625088 17.8082 0.547984 17.911 0.496582L19.2654 2.27827C20.3962 2.27827 21.8869 2.35538 23.7374 2.50958C24.1486 2.25257 25.0225 2.12407 26.3589 2.12407C27.7982 2.12407 28.8262 2.14977 29.4431 2.20117C30.1113 2.25257 31.165 2.27827 32.6043 2.27827H32.7585L32.9127 2.20117H35.8427C35.9455 2.25257 36.0997 2.27827 36.3053 2.27827H36.845C37.2562 2.17547 37.616 2.17547 37.9245 2.27827H41.6254C41.8824 2.38107 42.1652 2.43248 42.4736 2.43248C42.9362 2.43248 43.2189 2.76659 43.3217 3.43482C43.3731 3.69184 43.3988 4.12876 43.3988 4.74559L43.3217 7.36711C43.2189 8.80638 43.1675 9.96293 43.1675 10.8368C43.1675 11.9162 43.2446 13.0471 43.3988 14.2293V15.3088C43.2446 17.7761 43.1675 20.3719 43.1675 23.0963C43.0647 24.4841 43.0133 26.8743 43.0133 30.2669V31.5776H48.5648C49.5928 31.5776 50.3638 32.6057 50.8779 34.6618C51.1349 35.7926 51.2634 37.3861 51.2634 39.4422C51.2634 39.802 51.212 40.1361 51.1092 40.4446C51.1092 41.2156 51.0835 41.8067 51.0321 42.2179C51.0321 42.989 54.4807 42.5429 54.4293 42.7999C54.4293 43.2626 51.1752 44.427 50.8779 44.6082C50.6328 44.7575 50.6466 44.8138 50.3381 44.9166C49.9783 45.0194 49.3358 45.0708 48.4105 45.0708C48.1535 45.1736 47.8451 45.225 47.4853 45.225H45.1722C44.1442 45.225 43.3731 45.2507 42.8591 45.3021L42.782 46.5357C42.6792 47.204 42.6278 48.1036 42.6278 49.2344C42.6278 51.0335 45.9307 50.3184 45.5709 50.9352C45.5709 51.8391 41.4198 53.2438 40.8544 53.2438C40.803 53.2438 40.7516 53.2181 40.7002 53.1667C40.6488 53.1153 40.6231 53.0896 40.6231 53.0896C40.5203 53.0896 40.4175 53.141 40.3147 53.2438H40.0834C39.8778 53.2438 39.7492 53.2695 39.6978 53.3209L38.1558 53.2438H37.7703C37.616 53.141 37.4361 53.0896 37.2305 53.0896C37.0763 53.0896 36.9221 53.1667 36.7679 53.3209H31.7562L31.2164 53.398C30.8052 53.5008 30.394 53.6036 29.9828 53.7064C29.623 53.8092 29.2632 53.912 28.9033 54.0148H28.1323ZM25.4337 31.5776V11.2994L24.2771 14.6149C23.9687 15.4373 23.686 16.1569 23.429 16.7738C23.2234 17.3906 23.0435 17.9303 22.8893 18.3929C22.5294 19.2154 22.0925 20.5004 21.5785 22.2481C20.8075 24.0986 19.9336 26.3603 18.957 29.0332C18.4943 30.2669 18.2116 31.0893 18.1088 31.5005C19.6509 31.5005 20.8332 31.5262 21.6556 31.5776H25.4337Z" fill="#B2651C"/>
<path d="M28.1323 54.0148C27.3099 54.0148 26.7958 53.2438 26.5902 51.7017C26.5902 51.3419 26.5645 51.0078 26.5131 50.6994C26.4617 50.391 26.436 50.0568 26.436 49.697C26.436 49.0288 26.4103 48.6176 26.3589 48.4634L26.2047 45.6105H20.4219C15.6929 45.6105 12.0947 45.6362 9.62743 45.6876C8.44518 45.6876 6.51759 45.739 3.84466 45.8418C2.5596 45.7904 1.60866 45.5334 0.991829 45.0708C0.58061 44.9166 0.375 44.6596 0.375 44.2997V40.2132C0.375 38.0029 0.503506 36.3324 0.760518 35.2015C0.811921 34.3277 1.22314 32.5543 1.99418 29.8814L3.22783 25.4093L3.69046 24.2528C3.84466 23.7902 4.33299 22.5822 5.15542 20.6289L6.6975 16.928L11.0153 7.29001C12.0947 5.13111 12.7887 3.79464 13.0971 3.28062C13.1485 3.22922 16.8573 1.29332 17.2171 1.03631C17.3713 0.933503 17.4998 0.830698 17.6026 0.727895C17.7054 0.625088 17.8082 0.547984 17.911 0.496582L19.2654 2.27827C20.3962 2.27827 21.8869 2.35538 23.7374 2.50958C24.1486 2.25257 25.0225 2.12407 26.3589 2.12407C27.7982 2.12407 28.8262 2.14977 29.4431 2.20117C30.1113 2.25257 31.165 2.27827 32.6043 2.27827H32.7585L32.9127 2.20117H35.8427C35.9455 2.25257 36.0997 2.27827 36.3053 2.27827H36.845C37.2562 2.17547 37.616 2.17547 37.9245 2.27827H41.6254C41.8824 2.38107 42.1652 2.43248 42.4736 2.43248C42.9362 2.43248 43.2189 2.76659 43.3217 3.43482C43.3731 3.69184 43.3988 4.12876 43.3988 4.74559L43.3217 7.36711C43.2189 8.80638 43.1675 9.96293 43.1675 10.8368C43.1675 11.9162 43.2446 13.0471 43.3988 14.2293V15.3088C43.2446 17.7761 43.1675 20.3719 43.1675 23.0963C43.0647 24.4841 43.0133 26.8743 43.0133 30.2669V31.5776H48.5648C49.5928 31.5776 50.3638 32.6057 50.8779 34.6618C51.1349 35.7926 51.2634 37.3861 51.2634 39.4422C51.2634 39.802 51.212 40.1361 51.1092 40.4446C51.1092 41.2156 51.0835 41.8067 51.0321 42.2179C51.0321 42.989 54.4807 42.5429 54.4293 42.7999C54.4293 43.2626 51.1752 44.427 50.8779 44.6082C50.6328 44.7575 50.6466 44.8138 50.3381 44.9166C49.9783 45.0194 49.3358 45.0708 48.4105 45.0708C48.1535 45.1736 47.8451 45.225 47.4853 45.225H45.1722C44.1442 45.225 43.3731 45.2507 42.8591 45.3021L42.782 46.5357C42.6792 47.204 42.6278 48.1036 42.6278 49.2344C42.6278 51.0335 45.9307 50.3184 45.5709 50.9352C45.5709 51.8391 41.4198 53.2438 40.8544 53.2438C40.803 53.2438 40.7516 53.2181 40.7002 53.1667C40.6488 53.1153 40.6231 53.0896 40.6231 53.0896C40.5203 53.0896 40.4175 53.141 40.3147 53.2438H40.0834C39.8778 53.2438 39.7492 53.2695 39.6978 53.3209L38.1558 53.2438H37.7703C37.616 53.141 37.4361 53.0896 37.2305 53.0896C37.0763 53.0896 36.9221 53.1667 36.7679 53.3209H31.7562L31.2164 53.398C30.8052 53.5008 30.394 53.6036 29.9828 53.7064C29.623 53.8092 29.2632 53.912 28.9033 54.0148H28.1323ZM25.4337 31.5776V11.2994L24.2771 14.6149C23.9687 15.4373 23.686 16.1569 23.429 16.7738C23.2234 17.3906 23.0435 17.9303 22.8893 18.3929C22.5294 19.2154 22.0925 20.5004 21.5785 22.2481C20.8075 24.0986 19.9336 26.3603 18.957 29.0332C18.4943 30.2669 18.2116 31.0893 18.1088 31.5005C19.6509 31.5005 20.8332 31.5262 21.6556 31.5776H25.4337Z" stroke="black" stroke-width="0.75"/>
</g>
<g filter="url(#filter1_n_1069_12828)">
<path d="M31.6216 52.2657C30.7991 52.2657 30.2851 51.4947 30.0795 49.9526C30.0795 49.5928 30.0538 49.2587 30.0024 48.9503C29.951 48.6419 29.9253 48.3077 29.9253 47.9479C29.9253 47.2797 29.8996 46.8685 29.8482 46.7143L29.694 43.8614H23.9112C19.1822 43.8614 15.584 43.8871 13.1167 43.9385C11.9344 43.9385 10.0068 43.9899 7.33392 44.0927C6.04886 44.0413 5.09792 43.7843 4.48109 43.3217C4.06987 43.1675 3.86426 42.9105 3.86426 42.5507V38.4642C3.86426 36.2539 3.99276 34.5833 4.24978 33.4525C4.30118 32.5786 4.7124 30.8052 5.48343 28.1323L6.71709 23.6603L7.17971 22.5037C7.33392 22.0411 7.82224 20.8332 8.64468 18.8799L10.1868 15.1789L14.5046 5.54094C15.584 3.38204 16.2779 2.04558 16.5864 1.53155C16.6378 1.48015 16.8434 1.32594 17.2032 1.06893C17.3574 0.966126 17.4859 0.863321 17.5887 0.760518C17.6915 0.657711 17.7943 0.580607 17.8971 0.529205H22.7546C23.8855 0.529205 25.3762 0.606309 27.2267 0.760518C27.6379 0.503506 28.5117 0.375 29.8482 0.375C31.2874 0.375 32.3155 0.400701 32.9323 0.452103C33.6006 0.503504 34.6543 0.529205 36.0936 0.529205H36.2478L36.402 0.452103H39.3319C39.4347 0.503504 39.5889 0.529205 39.7945 0.529205H40.3343C40.7455 0.426402 41.1053 0.426402 41.4137 0.529205H45.1147C45.3717 0.632009 45.6544 0.683411 45.9628 0.683411C46.4255 0.683411 46.7082 1.01753 46.811 1.68576C46.8624 1.94277 46.8881 2.37969 46.8881 2.99652L46.811 5.61804C46.7082 7.05731 46.6568 8.21386 46.6568 9.08771C46.6568 10.1672 46.7339 11.298 46.8881 12.4803V13.5597C46.7339 16.027 46.6568 18.6229 46.6568 21.3472C46.554 22.735 46.5026 25.1253 46.5026 28.5178V29.8286H52.054C53.0821 29.8286 53.8531 30.8566 54.3671 32.9127C54.6241 34.0436 54.7526 35.6371 54.7526 37.6931C54.7526 38.053 54.7012 38.3871 54.5984 38.6955C54.5984 39.4665 54.5727 40.0577 54.5213 40.4689C54.5213 41.2399 54.4956 41.7539 54.4442 42.011C54.4442 42.4736 54.4185 42.7563 54.3671 42.8591C54.3157 42.9619 54.1358 43.0647 53.8274 43.1675C53.4676 43.2703 52.8251 43.3217 51.8998 43.3217C51.6428 43.4245 51.3344 43.4759 50.9746 43.4759H48.6615C47.6334 43.4759 46.8624 43.5016 46.3484 43.553L46.2712 44.7867C46.1684 45.4549 46.117 46.3545 46.117 47.4853C46.117 49.2844 45.9371 50.4924 45.5773 51.1092C45.3203 51.3662 44.9091 51.4947 44.3437 51.4947C44.2923 51.4947 44.2409 51.469 44.1895 51.4176C44.138 51.3662 44.1123 51.3405 44.1123 51.3405C44.0095 51.3405 43.9067 51.3919 43.8039 51.4947H43.5726C43.367 51.4947 43.2385 51.5204 43.1871 51.5718L41.645 51.4947H41.2595C41.1053 51.3919 40.9254 51.3405 40.7198 51.3405C40.5656 51.3405 40.4114 51.4176 40.2572 51.5718H35.2454L34.7057 51.6489C34.2945 51.7517 33.8833 51.8545 33.472 51.9573C33.1122 52.0601 32.7524 52.1629 32.3926 52.2657H31.6216ZM28.9229 29.8286V9.55033L27.7664 12.8658C27.458 13.6882 27.1753 14.4079 26.9182 15.0247C26.7126 15.6415 26.5327 16.1812 26.3785 16.6439C26.0187 17.4663 25.5818 18.7514 25.0678 20.499C24.2967 22.3495 23.4229 24.6112 22.4462 27.2842C21.9836 28.5178 21.7009 29.3403 21.5981 29.7515C23.1402 29.7515 24.3224 29.7772 25.1449 29.8286H28.9229Z" fill="#E9C253"/>
<path d="M31.6216 52.2657C30.7991 52.2657 30.2851 51.4947 30.0795 49.9526C30.0795 49.5928 30.0538 49.2587 30.0024 48.9503C29.951 48.6419 29.9253 48.3077 29.9253 47.9479C29.9253 47.2797 29.8996 46.8685 29.8482 46.7143L29.694 43.8614H23.9112C19.1822 43.8614 15.584 43.8871 13.1167 43.9385C11.9344 43.9385 10.0068 43.9899 7.33392 44.0927C6.04886 44.0413 5.09792 43.7843 4.48109 43.3217C4.06987 43.1675 3.86426 42.9105 3.86426 42.5507V38.4642C3.86426 36.2539 3.99276 34.5833 4.24978 33.4525C4.30118 32.5786 4.7124 30.8052 5.48343 28.1323L6.71709 23.6603L7.17971 22.5037C7.33392 22.0411 7.82224 20.8332 8.64468 18.8799L10.1868 15.1789L14.5046 5.54094C15.584 3.38204 16.2779 2.04558 16.5864 1.53155C16.6378 1.48015 16.8434 1.32594 17.2032 1.06893C17.3574 0.966126 17.4859 0.863321 17.5887 0.760518C17.6915 0.657711 17.7943 0.580607 17.8971 0.529205H22.7546C23.8855 0.529205 25.3762 0.606309 27.2267 0.760518C27.6379 0.503506 28.5117 0.375 29.8482 0.375C31.2874 0.375 32.3155 0.400701 32.9323 0.452103C33.6006 0.503504 34.6543 0.529205 36.0936 0.529205H36.2478L36.402 0.452103H39.3319C39.4347 0.503504 39.5889 0.529205 39.7945 0.529205H40.3343C40.7455 0.426402 41.1053 0.426402 41.4137 0.529205H45.1147C45.3717 0.632009 45.6544 0.683411 45.9628 0.683411C46.4255 0.683411 46.7082 1.01753 46.811 1.68576C46.8624 1.94277 46.8881 2.37969 46.8881 2.99652L46.811 5.61804C46.7082 7.05731 46.6568 8.21386 46.6568 9.08771C46.6568 10.1672 46.7339 11.298 46.8881 12.4803V13.5597C46.7339 16.027 46.6568 18.6229 46.6568 21.3472C46.554 22.735 46.5026 25.1253 46.5026 28.5178V29.8286H52.054C53.0821 29.8286 53.8531 30.8566 54.3671 32.9127C54.6241 34.0436 54.7526 35.6371 54.7526 37.6931C54.7526 38.053 54.7012 38.3871 54.5984 38.6955C54.5984 39.4665 54.5727 40.0577 54.5213 40.4689C54.5213 41.2399 54.4956 41.7539 54.4442 42.011C54.4442 42.4736 54.4185 42.7563 54.3671 42.8591C54.3157 42.9619 54.1358 43.0647 53.8274 43.1675C53.4676 43.2703 52.8251 43.3217 51.8998 43.3217C51.6428 43.4245 51.3344 43.4759 50.9746 43.4759H48.6615C47.6334 43.4759 46.8624 43.5016 46.3484 43.553L46.2712 44.7867C46.1684 45.4549 46.117 46.3545 46.117 47.4853C46.117 49.2844 45.9371 50.4924 45.5773 51.1092C45.3203 51.3662 44.9091 51.4947 44.3437 51.4947C44.2923 51.4947 44.2409 51.469 44.1895 51.4176C44.138 51.3662 44.1123 51.3405 44.1123 51.3405C44.0095 51.3405 43.9067 51.3919 43.8039 51.4947H43.5726C43.367 51.4947 43.2385 51.5204 43.1871 51.5718L41.645 51.4947H41.2595C41.1053 51.3919 40.9254 51.3405 40.7198 51.3405C40.5656 51.3405 40.4114 51.4176 40.2572 51.5718H35.2454L34.7057 51.6489C34.2945 51.7517 33.8833 51.8545 33.472 51.9573C33.1122 52.0601 32.7524 52.1629 32.3926 52.2657H31.6216ZM28.9229 29.8286V9.55033L27.7664 12.8658C27.458 13.6882 27.1753 14.4079 26.9182 15.0247C26.7126 15.6415 26.5327 16.1812 26.3785 16.6439C26.0187 17.4663 25.5818 18.7514 25.0678 20.499C24.2967 22.3495 23.4229 24.6112 22.4462 27.2842C21.9836 28.5178 21.7009 29.3403 21.5981 29.7515C23.1402 29.7515 24.3224 29.7772 25.1449 29.8286H28.9229Z" stroke="black" stroke-width="0.75"/>
</g>
<defs>
<filter id="filter0_n_1069_12828" x="0" y="0.0219727" width="54.8047" height="54.3677" filterUnits="userSpaceOnUse" color-interpolation-filters="sRGB">
<feFlood flood-opacity="0" result="BackgroundImageFix"/>
<feBlend mode="normal" in="SourceGraphic" in2="BackgroundImageFix" result="shape"/>
<feTurbulence type="fractalNoise" baseFrequency="0.027657391503453255 0.027657391503453255" stitchTiles="stitch" numOctaves="3" result="noise" seed="9207" />
<feColorMatrix in="noise" type="luminanceToAlpha" result="alphaNoise" />
<feComponentTransfer in="alphaNoise" result="coloredNoise1">
<feFuncA type="discrete" tableValues="1 1 1 1 1 1 1 1 1 1 1 1 1 1 1 1 1 1 1 1 1 1 1 1 1 1 1 1 1 1 1 1 1 1 1 1 1 1 1 1 1 1 1 1 1 1 1 1 1 1 1 0 0 0 0 0 0 0 0 0 0 0 0 0 0 0 0 0 0 0 0 0 0 0 0 0 0 0 0 0 0 0 0 0 0 0 0 0 0 0 0 0 0 0 0 0 0 0 0 0 "/>
</feComponentTransfer>
<feComposite operator="in" in2="shape" in="coloredNoise1" result="noise1Clipped" />
<feFlood flood-color="rgba(178, 101, 28, 0.05)" result="color1Flood" />
<feComposite operator="in" in2="noise1Clipped" in="color1Flood" result="color1" />
<feMerge result="effect1_noise_1069_12828">
<feMergeNode in="shape" />
<feMergeNode in="color1" />
</feMerge>
</filter>
<filter id="filter1_n_1069_12828" x="3.48926" y="0" width="51.6387" height="52.6406" filterUnits="userSpaceOnUse" color-interpolation-filters="sRGB">
<feFlood flood-opacity="0" result="BackgroundImageFix"/>
<feBlend mode="normal" in="SourceGraphic" in2="BackgroundImageFix" result="shape"/>
<feTurbulence type="fractalNoise" baseFrequency="0.027657391503453255 0.027657391503453255" stitchTiles="stitch" numOctaves="3" result="noise" seed="9207" />
<feColorMatrix in="noise" type="luminanceToAlpha" result="alphaNoise" />
<feComponentTransfer in="alphaNoise" result="coloredNoise1">
<feFuncA type="discrete" tableValues="1 1 1 1 1 1 1 1 1 1 1 1 1 1 1 1 1 1 1 1 1 1 1 1 1 1 1 1 1 1 1 1 1 1 1 1 1 1 1 1 1 1 1 1 1 1 1 1 1 1 1 0 0 0 0 0 0 0 0 0 0 0 0 0 0 0 0 0 0 0 0 0 0 0 0 0 0 0 0 0 0 0 0 0 0 0 0 0 0 0 0 0 0 0 0 0 0 0 0 0 "/>
</feComponentTransfer>
<feComposite operator="in" in2="shape" in="coloredNoise1" result="noise1Clipped" />
<feFlood flood-color="rgba(178, 101, 28, 0.05)" result="color1Flood" />
<feComposite operator="in" in2="noise1Clipped" in="color1Flood" result="color1" />
<feMerge result="effect1_noise_1069_12828">
<feMergeNode in="shape" />
<feMergeNode in="color1" />
</feMerge>
</filter>
</defs>
</svg>
