<svg width="43" height="50" viewBox="0 0 43 50" fill="none" xmlns="http://www.w3.org/2000/svg">
<g filter="url(#filter0_n_1069_12825)">
<path d="M14.9866 49.5428C14.267 49.5428 13.3675 49.44 12.288 49.2344C10.6431 49.0288 9.25528 48.7975 8.12442 48.5404C7.25058 48.3348 6.73656 48.1806 6.58235 48.0778C6.11973 48.0264 5.86272 47.8979 5.81132 47.6923C5.04028 47.4353 4.50055 47.2811 4.19214 47.2297C3.47251 47.0241 2.90708 46.8185 2.49586 46.6128L0.414062 45.3792L0.876684 42.7577L0.799581 39.9819L0.953788 37.823L1.1851 34.7389C2.65007 33.9421 3.84895 33.219 4.57208 32.8574C6.01835 33.5806 13.3161 35.7412 14.2927 35.1244C15.3722 34.5076 15.9119 33.4538 15.9119 31.9632C15.9119 30.0613 14.3184 28.9818 11.1315 28.7248C8.66415 28.7248 5.91412 28.8019 2.88138 28.9561L2.65007 25.872L2.72717 24.6383V21.8626C2.72717 21.5542 2.75287 21.3486 2.80427 21.2457L2.72717 19.3182C2.72717 19.2668 2.70147 19.164 2.65007 19.0097C2.65007 18.8041 2.65007 18.4443 2.65007 17.9303C2.44446 17.2621 2.34165 16.0541 2.34165 14.3064V3.1264C2.39306 3.0236 2.47016 2.89509 2.57296 2.74088C2.67577 2.58668 6.35509 0.780754 6.5607 0.67795H6.71491C6.76631 0.780754 6.86912 0.832155 7.02332 0.832155C7.38314 0.832155 7.69155 0.806454 7.94857 0.755053C8.25698 0.703651 8.5654 0.67795 8.87381 0.67795C9.43924 0.523742 6.50525 2.12405 7.12208 2.12405C7.94452 2.12405 8.92116 2.17546 10.052 2.27826C10.7716 2.32966 11.7997 2.35537 13.1362 2.35537L13.4446 2.20116H16.9142C16.9656 2.30396 17.1455 2.35537 17.454 2.35537H18.0708C18.1736 2.30396 18.3278 2.27826 18.5334 2.27826C18.5848 2.22686 18.6876 2.20116 18.8418 2.20116L19.7671 2.35537H31.9494C32.0008 2.45817 32.0779 2.53527 32.1808 2.58667C32.335 2.63808 32.4378 2.66378 32.4892 2.66378C32.6434 2.66378 32.7719 2.63808 32.8747 2.58667C33.1831 2.58667 33.4144 2.56097 33.5686 2.50957C33.8256 2.50957 34.0569 2.45817 34.2626 2.35537H34.6481C34.9565 2.35537 35.2135 2.66378 35.4191 3.28061C35.7789 4.15445 36.0359 5.90213 36.1901 8.52365C36.2415 9.29469 39.6441 9.07901 39.6441 10.6211C39.6441 11.1634 36.1901 12.4559 36.0359 12.6101C35.8817 12.713 35.7018 12.7901 35.4962 12.8415C35.2906 12.8929 35.1364 12.9443 35.0336 12.9957C34.8794 12.9957 34.6995 13.0214 34.4939 13.0728C34.3397 13.0728 34.134 13.0471 33.877 12.9957H31.9494C31.2812 12.9957 30.6387 13.0471 30.0219 13.1499C29.8162 13.1499 29.5335 13.1756 29.1737 13.227C28.8139 13.2784 28.3256 13.3041 27.7087 13.3041H26.2438C25.7297 13.3041 25.447 13.2527 25.3956 13.1499L24.7788 13.5354L24.4704 15.0004C24.2134 15.7714 24.0592 17.0051 24.0078 18.7013C26.5265 18.9583 28.4541 19.2925 29.7905 19.7037L30.2532 19.8579C31.0756 20.0121 31.9494 20.3462 32.8747 20.8602C33.2859 21.1172 33.4915 21.3486 33.4915 21.5542V22.0168C34.3654 22.0168 35.2135 22.7878 36.0359 24.3299L36.9612 26.1804C37.064 26.5916 37.2182 27.0028 37.4238 27.414C37.8864 28.4935 38.1434 29.2645 38.1948 29.7272C38.4004 30.9608 38.5033 31.7318 38.5033 32.0403C38.5033 35.9468 37.8607 39.5193 36.5757 42.7577C36.0102 43.8885 35.4191 44.8138 34.8023 45.5334C34.2369 46.2016 33.7228 46.5871 33.2602 46.6899C30.5873 48.0778 27.6316 48.9003 24.3933 49.1573C22.3372 49.4143 19.2016 49.5428 14.9866 49.5428Z" fill="#B2651C"/>
<path d="M14.9866 49.5428C14.267 49.5428 13.3675 49.44 12.288 49.2344C10.6431 49.0288 9.25528 48.7975 8.12442 48.5404C7.25058 48.3348 6.73656 48.1806 6.58235 48.0778C6.11973 48.0264 5.86272 47.8979 5.81132 47.6923C5.04028 47.4353 4.50055 47.2811 4.19214 47.2297C3.47251 47.0241 2.90708 46.8185 2.49586 46.6128L0.414062 45.3792L0.876684 42.7577L0.799581 39.9819L0.953788 37.823L1.1851 34.7389C2.65007 33.9421 3.84895 33.219 4.57208 32.8574C6.01835 33.5806 13.3161 35.7412 14.2927 35.1244C15.3722 34.5076 15.9119 33.4538 15.9119 31.9632C15.9119 30.0613 14.3184 28.9818 11.1315 28.7248C8.66415 28.7248 5.91412 28.8019 2.88138 28.9561L2.65007 25.872L2.72717 24.6383V21.8626C2.72717 21.5542 2.75287 21.3486 2.80427 21.2457L2.72717 19.3182C2.72717 19.2668 2.70147 19.164 2.65007 19.0097C2.65007 18.8041 2.65007 18.4443 2.65007 17.9303C2.44446 17.2621 2.34165 16.0541 2.34165 14.3064V3.1264C2.39306 3.0236 2.47016 2.89509 2.57296 2.74088C2.67577 2.58668 6.35509 0.780754 6.5607 0.67795H6.71491C6.76631 0.780754 6.86912 0.832155 7.02332 0.832155C7.38314 0.832155 7.69155 0.806454 7.94857 0.755053C8.25698 0.703651 8.5654 0.67795 8.87381 0.67795C9.43924 0.523742 6.50525 2.12405 7.12208 2.12405C7.94452 2.12405 8.92116 2.17546 10.052 2.27826C10.7716 2.32966 11.7997 2.35537 13.1362 2.35537L13.4446 2.20116H16.9142C16.9656 2.30396 17.1455 2.35537 17.454 2.35537H18.0708C18.1736 2.30396 18.3278 2.27826 18.5334 2.27826C18.5848 2.22686 18.6876 2.20116 18.8418 2.20116L19.7671 2.35537H31.9494C32.0008 2.45817 32.0779 2.53527 32.1808 2.58667C32.335 2.63808 32.4378 2.66378 32.4892 2.66378C32.6434 2.66378 32.7719 2.63808 32.8747 2.58667C33.1831 2.58667 33.4144 2.56097 33.5686 2.50957C33.8256 2.50957 34.0569 2.45817 34.2626 2.35537H34.6481C34.9565 2.35537 35.2135 2.66378 35.4191 3.28061C35.7789 4.15445 36.0359 5.90213 36.1901 8.52365C36.2415 9.29469 39.6441 9.07901 39.6441 10.6211C39.6441 11.1634 36.1901 12.4559 36.0359 12.6101C35.8817 12.713 35.7018 12.7901 35.4962 12.8415C35.2906 12.8929 35.1364 12.9443 35.0336 12.9957C34.8794 12.9957 34.6995 13.0214 34.4939 13.0728C34.3397 13.0728 34.134 13.0471 33.877 12.9957H31.9494C31.2812 12.9957 30.6387 13.0471 30.0219 13.1499C29.8162 13.1499 29.5335 13.1756 29.1737 13.227C28.8139 13.2784 28.3256 13.3041 27.7087 13.3041H26.2438C25.7297 13.3041 25.447 13.2527 25.3956 13.1499L24.7788 13.5354L24.4704 15.0004C24.2134 15.7714 24.0592 17.0051 24.0078 18.7013C26.5265 18.9583 28.4541 19.2925 29.7905 19.7037L30.2532 19.8579C31.0756 20.0121 31.9494 20.3462 32.8747 20.8602C33.2859 21.1172 33.4915 21.3486 33.4915 21.5542V22.0168C34.3654 22.0168 35.2135 22.7878 36.0359 24.3299L36.9612 26.1804C37.064 26.5916 37.2182 27.0028 37.4238 27.414C37.8864 28.4935 38.1434 29.2645 38.1948 29.7272C38.4004 30.9608 38.5033 31.7318 38.5033 32.0403C38.5033 35.9468 37.8607 39.5193 36.5757 42.7577C36.0102 43.8885 35.4191 44.8138 34.8023 45.5334C34.2369 46.2016 33.7228 46.5871 33.2602 46.6899C30.5873 48.0778 27.6316 48.9003 24.3933 49.1573C22.3372 49.4143 19.2016 49.5428 14.9866 49.5428Z" stroke="black" stroke-width="0.75"/>
</g>
<g filter="url(#filter1_n_1069_12825)">
<path d="M18.4759 47.7937C17.7563 47.7937 16.8567 47.6909 15.7773 47.4853C14.1324 47.2797 12.7445 47.0484 11.6137 46.7914C10.7398 46.5858 10.2258 46.4316 10.0716 46.3288C9.60899 46.2774 9.35198 46.1488 9.30057 45.9432C8.52954 45.6862 7.98981 45.532 7.6814 45.4806C6.96176 45.275 6.39634 45.0694 5.98512 44.8638L3.90332 43.6301L4.36594 41.0086L4.28884 38.2329L4.44305 36.074L4.67436 32.9898C8.16972 33.8637 11.1768 34.3006 13.6955 34.3006C15.4432 34.3006 16.8053 33.9922 17.782 33.3754C18.8614 32.7585 19.4011 31.7048 19.4011 30.2141C19.4011 28.3122 17.8077 27.2328 14.6207 26.9757C12.1534 26.9757 9.40338 27.0529 6.37064 27.2071L6.13932 24.1229L6.21643 22.8893V20.1135C6.21643 19.8051 6.24213 19.5995 6.29353 19.4967L6.21643 17.5691C6.21643 17.5177 6.19073 17.4149 6.13932 17.2607C6.13932 17.0551 6.13932 16.6953 6.13932 16.1812C5.93372 15.513 5.83091 14.3051 5.83091 12.5574V1.37735C5.88231 1.27454 5.95942 1.14604 6.06222 0.99183C6.16503 0.837622 6.31923 0.709116 6.52484 0.606312H6.67905C6.73045 0.709116 6.83326 0.760518 6.98746 0.760518C7.34728 0.760518 7.6557 0.734817 7.91271 0.683415C8.22112 0.632013 8.52954 0.606312 8.83795 0.606312C9.40338 0.452104 9.99451 0.375 10.6113 0.375C11.4338 0.375 12.4104 0.426402 13.5413 0.529205C14.2609 0.58061 15.289 0.606312 16.6254 0.606312L16.9338 0.452103H20.4035C20.4549 0.554909 20.6348 0.606312 20.9432 0.606312H21.56C21.6629 0.554908 21.8171 0.529205 22.0227 0.529205C22.0741 0.477804 22.1769 0.452103 22.3311 0.452103L23.2563 0.606312H35.4387C35.4901 0.709116 35.5672 0.786219 35.67 0.83762C35.8242 0.889022 35.927 0.914723 35.9784 0.914723C36.1326 0.914723 36.2611 0.889022 36.3639 0.83762C36.6724 0.83762 36.9037 0.811919 37.0579 0.760518C37.3149 0.760518 37.5462 0.709116 37.7518 0.606312H38.1373C38.4457 0.606312 38.7028 0.914726 38.9084 1.53155C39.2682 2.4054 39.5252 4.15308 39.6794 6.7746C39.7308 7.54564 39.7565 8.70219 39.7565 10.2443C39.7565 10.5013 39.6794 10.7069 39.5252 10.8611C39.371 10.9639 39.1911 11.041 38.9855 11.0924C38.7799 11.1438 38.6256 11.1952 38.5228 11.2466C38.3686 11.2466 38.1887 11.2723 37.9831 11.3237C37.8289 11.3237 37.6233 11.298 37.3663 11.2466H35.4387C34.7705 11.2466 34.1279 11.298 33.5111 11.4008C33.3055 11.4008 33.0228 11.4265 32.663 11.4779C32.3032 11.5293 31.8148 11.555 31.198 11.555H29.733C29.219 11.555 28.9363 11.5036 28.8849 11.4008L28.2681 11.7863L27.9596 13.2513C27.7026 14.0223 27.5484 15.256 27.497 16.9523C30.0157 17.2093 31.9433 17.5434 33.2798 17.9546L33.7424 18.1088C34.5649 18.263 35.4387 18.5972 36.3639 19.1112C36.7752 19.3682 36.9808 19.5995 36.9808 19.8051V20.2677C37.8546 20.2677 38.7028 21.0388 39.5252 22.5808L40.4504 24.4313C40.5532 24.8425 40.7074 25.2538 40.9131 25.665C41.3757 26.7444 41.6327 27.5155 41.6841 27.9781C41.8897 29.2118 41.9925 29.9828 41.9925 30.2912C41.9925 34.1978 41.35 37.7703 40.0649 41.0086C39.4995 42.1395 38.9084 43.0647 38.2915 43.7843C37.7261 44.4526 37.2121 44.8381 36.7495 44.9409C34.0765 46.3288 31.1209 47.1512 27.8825 47.4082C25.8264 47.6652 22.6909 47.7937 18.4759 47.7937Z" fill="#E9C253"/>
<path d="M18.4759 47.7937C17.7563 47.7937 16.8567 47.6909 15.7773 47.4853C14.1324 47.2797 12.7445 47.0484 11.6137 46.7914C10.7398 46.5858 10.2258 46.4316 10.0716 46.3288C9.60899 46.2774 9.35198 46.1488 9.30057 45.9432C8.52954 45.6862 7.98981 45.532 7.6814 45.4806C6.96176 45.275 6.39634 45.0694 5.98512 44.8638L3.90332 43.6301L4.36594 41.0086L4.28884 38.2329L4.44305 36.074L4.67436 32.9898C8.16972 33.8637 11.1768 34.3006 13.6955 34.3006C15.4432 34.3006 16.8053 33.9922 17.782 33.3754C18.8614 32.7585 19.4011 31.7048 19.4011 30.2141C19.4011 28.3122 17.8077 27.2328 14.6207 26.9757C12.1534 26.9757 9.40338 27.0529 6.37064 27.2071L6.13932 24.1229L6.21643 22.8893V20.1135C6.21643 19.8051 6.24213 19.5995 6.29353 19.4967L6.21643 17.5691C6.21643 17.5177 6.19073 17.4149 6.13932 17.2607C6.13932 17.0551 6.13932 16.6953 6.13932 16.1812C5.93372 15.513 5.83091 14.3051 5.83091 12.5574V1.37735C5.88231 1.27454 5.95942 1.14604 6.06222 0.99183C6.16503 0.837622 6.31923 0.709116 6.52484 0.606312H6.67905C6.73045 0.709116 6.83326 0.760518 6.98746 0.760518C7.34728 0.760518 7.6557 0.734817 7.91271 0.683415C8.22112 0.632013 8.52954 0.606312 8.83795 0.606312C9.40338 0.452104 9.99451 0.375 10.6113 0.375C11.4338 0.375 12.4104 0.426402 13.5413 0.529205C14.2609 0.58061 15.289 0.606312 16.6254 0.606312L16.9338 0.452103H20.4035C20.4549 0.554909 20.6348 0.606312 20.9432 0.606312H21.56C21.6629 0.554908 21.8171 0.529205 22.0227 0.529205C22.0741 0.477804 22.1769 0.452103 22.3311 0.452103L23.2563 0.606312H35.4387C35.4901 0.709116 35.5672 0.786219 35.67 0.83762C35.8242 0.889022 35.927 0.914723 35.9784 0.914723C36.1326 0.914723 36.2611 0.889022 36.3639 0.83762C36.6724 0.83762 36.9037 0.811919 37.0579 0.760518C37.3149 0.760518 37.5462 0.709116 37.7518 0.606312H38.1373C38.4457 0.606312 38.7028 0.914726 38.9084 1.53155C39.2682 2.4054 39.5252 4.15308 39.6794 6.7746C39.7308 7.54564 39.7565 8.70219 39.7565 10.2443C39.7565 10.5013 39.6794 10.7069 39.5252 10.8611C39.371 10.9639 39.1911 11.041 38.9855 11.0924C38.7799 11.1438 38.6256 11.1952 38.5228 11.2466C38.3686 11.2466 38.1887 11.2723 37.9831 11.3237C37.8289 11.3237 37.6233 11.298 37.3663 11.2466H35.4387C34.7705 11.2466 34.1279 11.298 33.5111 11.4008C33.3055 11.4008 33.0228 11.4265 32.663 11.4779C32.3032 11.5293 31.8148 11.555 31.198 11.555H29.733C29.219 11.555 28.9363 11.5036 28.8849 11.4008L28.2681 11.7863L27.9596 13.2513C27.7026 14.0223 27.5484 15.256 27.497 16.9523C30.0157 17.2093 31.9433 17.5434 33.2798 17.9546L33.7424 18.1088C34.5649 18.263 35.4387 18.5972 36.3639 19.1112C36.7752 19.3682 36.9808 19.5995 36.9808 19.8051V20.2677C37.8546 20.2677 38.7028 21.0388 39.5252 22.5808L40.4504 24.4313C40.5532 24.8425 40.7074 25.2538 40.9131 25.665C41.3757 26.7444 41.6327 27.5155 41.6841 27.9781C41.8897 29.2118 41.9925 29.9828 41.9925 30.2912C41.9925 34.1978 41.35 37.7703 40.0649 41.0086C39.4995 42.1395 38.9084 43.0647 38.2915 43.7843C37.7261 44.4526 37.2121 44.8381 36.7495 44.9409C34.0765 46.3288 31.1209 47.1512 27.8825 47.4082C25.8264 47.6652 22.6909 47.7937 18.4759 47.7937Z" stroke="black" stroke-width="0.75"/>
</g>
<defs>
<filter id="filter0_n_1069_12825" x="0" y="0.29248" width="40.0195" height="49.6255" filterUnits="userSpaceOnUse" color-interpolation-filters="sRGB">
<feFlood flood-opacity="0" result="BackgroundImageFix"/>
<feBlend mode="normal" in="SourceGraphic" in2="BackgroundImageFix" result="shape"/>
<feTurbulence type="fractalNoise" baseFrequency="0.027657391503453255 0.027657391503453255" stitchTiles="stitch" numOctaves="3" result="noise" seed="9207" />
<feColorMatrix in="noise" type="luminanceToAlpha" result="alphaNoise" />
<feComponentTransfer in="alphaNoise" result="coloredNoise1">
<feFuncA type="discrete" tableValues="1 1 1 1 1 1 1 1 1 1 1 1 1 1 1 1 1 1 1 1 1 1 1 1 1 1 1 1 1 1 1 1 1 1 1 1 1 1 1 1 1 1 1 1 1 1 1 1 1 1 1 0 0 0 0 0 0 0 0 0 0 0 0 0 0 0 0 0 0 0 0 0 0 0 0 0 0 0 0 0 0 0 0 0 0 0 0 0 0 0 0 0 0 0 0 0 0 0 0 0 "/>
</feComponentTransfer>
<feComposite operator="in" in2="shape" in="coloredNoise1" result="noise1Clipped" />
<feFlood flood-color="rgba(178, 101, 28, 0.05)" result="color1Flood" />
<feComposite operator="in" in2="noise1Clipped" in="color1Flood" result="color1" />
<feMerge result="effect1_noise_1069_12825">
<feMergeNode in="shape" />
<feMergeNode in="color1" />
</feMerge>
</filter>
<filter id="filter1_n_1069_12825" x="3.48926" y="0" width="38.8779" height="48.1689" filterUnits="userSpaceOnUse" color-interpolation-filters="sRGB">
<feFlood flood-opacity="0" result="BackgroundImageFix"/>
<feBlend mode="normal" in="SourceGraphic" in2="BackgroundImageFix" result="shape"/>
<feTurbulence type="fractalNoise" baseFrequency="0.027657391503453255 0.027657391503453255" stitchTiles="stitch" numOctaves="3" result="noise" seed="9207" />
<feColorMatrix in="noise" type="luminanceToAlpha" result="alphaNoise" />
<feComponentTransfer in="alphaNoise" result="coloredNoise1">
<feFuncA type="discrete" tableValues="1 1 1 1 1 1 1 1 1 1 1 1 1 1 1 1 1 1 1 1 1 1 1 1 1 1 1 1 1 1 1 1 1 1 1 1 1 1 1 1 1 1 1 1 1 1 1 1 1 1 1 0 0 0 0 0 0 0 0 0 0 0 0 0 0 0 0 0 0 0 0 0 0 0 0 0 0 0 0 0 0 0 0 0 0 0 0 0 0 0 0 0 0 0 0 0 0 0 0 0 "/>
</feComponentTransfer>
<feComposite operator="in" in2="shape" in="coloredNoise1" result="noise1Clipped" />
<feFlood flood-color="rgba(178, 101, 28, 0.05)" result="color1Flood" />
<feComposite operator="in" in2="noise1Clipped" in="color1Flood" result="color1" />
<feMerge result="effect1_noise_1069_12825">
<feMergeNode in="shape" />
<feMergeNode in="color1" />
</feMerge>
</filter>
</defs>
</svg>
