<svg width="54" height="52" viewBox="0 0 54 52" fill="none" xmlns="http://www.w3.org/2000/svg">
<g filter="url(#filter0_n_1069_12822)">
<path d="M26.5902 51.0082C22.0668 51.0082 17.9032 50.1344 14.0994 48.3867C9.88445 46.4848 6.59469 43.8633 4.23018 40.5221C1.66006 36.9239 0.375 32.4776 0.375 27.1832C0.375 24.7673 0.452104 22.7626 0.606311 21.1691C0.811921 19.5242 1.19744 17.9822 1.76287 16.5429C2.99652 13.3559 5.23253 10.2718 8.47088 7.29045C13.6111 3.84649 20.3448 2.12451 28.672 2.12451C31.859 2.12451 35.3543 2.63854 39.1581 3.66658L41.7025 4.59183C42.7306 5.05445 43.5016 5.51707 44.0156 5.97969C44.1185 6.0311 44.2213 6.1082 44.3241 6.211C44.4269 6.26241 44.5811 6.31381 44.7867 6.36521C45.4035 6.57082 45.7119 7.16195 45.7119 8.13859C45.7119 8.85823 45.4292 10.1947 44.8638 12.148L46.3569 14.3649C45.7914 15.65 42.4993 16.7999 41.7796 17.0055H41.3941C41.0343 17.0055 40.546 16.9284 39.9292 16.7742C37.5646 16.106 35.38 15.7719 33.3753 15.7719C30.651 15.7719 28.5178 16.1831 26.9757 17.0055C25.6393 17.7251 24.8168 18.6247 24.5084 19.7041C24.3028 20.4752 24.1486 21.2719 24.0458 22.0943C27.1814 21.0663 30.2655 20.5523 33.2982 20.5523C37.2562 20.5523 40.4432 21.3233 42.8591 22.8654C44.9152 24.0476 46.5087 25.6411 47.6395 27.6458C48.8218 29.5991 49.4129 31.8865 49.4129 34.508C49.4129 37.1296 48.7961 39.4941 47.5624 41.6016C46.3288 43.7091 44.6068 45.4567 42.3965 46.8446C40.289 48.1811 37.8474 49.2091 35.0716 49.9288C32.3473 50.6484 29.5202 51.0082 26.5902 51.0082ZM30.0599 38.5945C32.6814 38.5945 33.9922 37.3352 33.9922 34.8164C33.9922 32.9146 32.8099 31.9636 30.4454 31.9636C28.9033 31.9636 27.5669 32.1692 26.436 32.5804C25.7164 32.7346 25.1253 32.9403 24.6626 33.1973C25.4851 36.7954 27.2842 38.5945 30.0599 38.5945Z" fill="#B2651C"/>
<path d="M26.5902 51.0082C22.0668 51.0082 17.9032 50.1344 14.0994 48.3867C9.88445 46.4848 6.59469 43.8633 4.23018 40.5221C1.66006 36.9239 0.375 32.4776 0.375 27.1832C0.375 24.7673 0.452104 22.7626 0.606311 21.1691C0.811921 19.5242 1.19744 17.9822 1.76287 16.5429C2.99652 13.3559 5.23253 10.2718 8.47088 7.29045C13.6111 3.84649 20.3448 2.12451 28.672 2.12451C31.859 2.12451 35.3543 2.63854 39.1581 3.66658L41.7025 4.59183C42.7306 5.05445 43.5016 5.51707 44.0156 5.97969C44.1185 6.0311 44.2213 6.1082 44.3241 6.211C44.4269 6.26241 44.5811 6.31381 44.7867 6.36521C45.4035 6.57082 45.7119 7.16195 45.7119 8.13859C45.7119 8.85823 45.4292 10.1947 44.8638 12.148L46.3569 14.3649C45.7914 15.65 42.4993 16.7999 41.7796 17.0055H41.3941C41.0343 17.0055 40.546 16.9284 39.9292 16.7742C37.5646 16.106 35.38 15.7719 33.3753 15.7719C30.651 15.7719 28.5178 16.1831 26.9757 17.0055C25.6393 17.7251 24.8168 18.6247 24.5084 19.7041C24.3028 20.4752 24.1486 21.2719 24.0458 22.0943C27.1814 21.0663 30.2655 20.5523 33.2982 20.5523C37.2562 20.5523 40.4432 21.3233 42.8591 22.8654C44.9152 24.0476 46.5087 25.6411 47.6395 27.6458C48.8218 29.5991 49.4129 31.8865 49.4129 34.508C49.4129 37.1296 48.7961 39.4941 47.5624 41.6016C46.3288 43.7091 44.6068 45.4567 42.3965 46.8446C40.289 48.1811 37.8474 49.2091 35.0716 49.9288C32.3473 50.6484 29.5202 51.0082 26.5902 51.0082ZM30.0599 38.5945C32.6814 38.5945 33.9922 37.3352 33.9922 34.8164C33.9922 32.9146 32.8099 31.9636 30.4454 31.9636C28.9033 31.9636 27.5669 32.1692 26.436 32.5804C25.7164 32.7346 25.1253 32.9403 24.6626 33.1973C25.4851 36.7954 27.2842 38.5945 30.0599 38.5945Z" stroke="black" stroke-width="0.75"/>
</g>
<g filter="url(#filter1_n_1069_12822)">
<path d="M30.0795 49.2587C25.5561 49.2587 21.3925 48.3849 17.5887 46.6372C13.3737 44.7353 10.084 42.1138 7.71944 38.7726C5.14932 35.1744 3.86426 30.7281 3.86426 25.4337C3.86426 23.0178 3.94136 21.0131 4.09557 19.4196C4.30118 17.7747 4.6867 16.2326 5.25212 14.7934C6.48578 11.6064 8.72179 8.52228 11.9601 5.54094C17.1004 2.09698 23.8341 0.375 32.1613 0.375C35.3482 0.375 38.8436 0.889024 42.6474 1.91707L45.1918 2.84232C46.2198 3.30494 46.9909 3.76756 47.5049 4.23018C47.6077 4.28158 47.7105 4.35869 47.8133 4.46149C47.9161 4.51289 48.0703 4.5643 48.2759 4.6157C48.8928 4.82131 49.2012 5.41244 49.2012 6.38908C49.2012 7.10872 48.9185 8.44518 48.353 10.3985L47.1965 13.02C46.6311 14.3051 45.9885 15.0504 45.2689 15.256H44.8834C44.5236 15.256 44.0352 15.1789 43.4184 15.0247C41.0539 14.3565 38.8693 14.0223 36.8646 14.0223C34.1403 14.0223 32.0071 14.4336 30.465 15.256C29.1285 15.9756 28.3061 16.8752 27.9977 17.9546C27.7921 18.7257 27.6379 19.5224 27.5351 20.3448C30.6706 19.3168 33.7548 18.8028 36.7875 18.8028C40.7455 18.8028 43.9324 19.5738 46.3484 21.1159C48.4044 22.2981 49.9979 23.8916 51.1288 25.8963C52.311 27.8496 52.9022 30.137 52.9022 32.7585C52.9022 35.38 52.2853 37.7446 51.0517 39.8521C49.818 41.9596 48.096 43.7072 45.8857 45.0951C43.7782 46.4316 41.3366 47.4596 38.5609 48.1792C35.8366 48.8989 33.0094 49.2587 30.0795 49.2587ZM33.5492 36.845C36.1707 36.845 37.4814 35.5857 37.4814 33.0669C37.4814 31.165 36.2992 30.2141 33.9347 30.2141C32.3926 30.2141 31.0561 30.4197 29.9253 30.8309C29.2056 30.9851 28.6145 31.1907 28.1519 31.4478C28.9743 35.0459 30.7734 36.845 33.5492 36.845Z" fill="#E9C253"/>
<path d="M30.0795 49.2587C25.5561 49.2587 21.3925 48.3849 17.5887 46.6372C13.3737 44.7353 10.084 42.1138 7.71944 38.7726C5.14932 35.1744 3.86426 30.7281 3.86426 25.4337C3.86426 23.0178 3.94136 21.0131 4.09557 19.4196C4.30118 17.7747 4.6867 16.2326 5.25212 14.7934C6.48578 11.6064 8.72179 8.52228 11.9601 5.54094C17.1004 2.09698 23.8341 0.375 32.1613 0.375C35.3482 0.375 38.8436 0.889024 42.6474 1.91707L45.1918 2.84232C46.2198 3.30494 46.9909 3.76756 47.5049 4.23018C47.6077 4.28158 47.7105 4.35869 47.8133 4.46149C47.9161 4.51289 48.0703 4.5643 48.2759 4.6157C48.8928 4.82131 49.2012 5.41244 49.2012 6.38908C49.2012 7.10872 48.9185 8.44518 48.353 10.3985L47.1965 13.02C46.6311 14.3051 45.9885 15.0504 45.2689 15.256H44.8834C44.5236 15.256 44.0352 15.1789 43.4184 15.0247C41.0539 14.3565 38.8693 14.0223 36.8646 14.0223C34.1403 14.0223 32.0071 14.4336 30.465 15.256C29.1285 15.9756 28.3061 16.8752 27.9977 17.9546C27.7921 18.7257 27.6379 19.5224 27.5351 20.3448C30.6706 19.3168 33.7548 18.8028 36.7875 18.8028C40.7455 18.8028 43.9324 19.5738 46.3484 21.1159C48.4044 22.2981 49.9979 23.8916 51.1288 25.8963C52.311 27.8496 52.9022 30.137 52.9022 32.7585C52.9022 35.38 52.2853 37.7446 51.0517 39.8521C49.818 41.9596 48.096 43.7072 45.8857 45.0951C43.7782 46.4316 41.3366 47.4596 38.5609 48.1792C35.8366 48.8989 33.0094 49.2587 30.0795 49.2587ZM33.5492 36.845C36.1707 36.845 37.4814 35.5857 37.4814 33.0669C37.4814 31.165 36.2992 30.2141 33.9347 30.2141C32.3926 30.2141 31.0561 30.4197 29.9253 30.8309C29.2056 30.9851 28.6145 31.1907 28.1519 31.4478C28.9743 35.0459 30.7734 36.845 33.5492 36.845Z" stroke="black" stroke-width="0.75"/>
</g>
<defs>
<filter id="filter0_n_1069_12822" x="0" y="1.74951" width="49.7881" height="49.6338" filterUnits="userSpaceOnUse" color-interpolation-filters="sRGB">
<feFlood flood-opacity="0" result="BackgroundImageFix"/>
<feBlend mode="normal" in="SourceGraphic" in2="BackgroundImageFix" result="shape"/>
<feTurbulence type="fractalNoise" baseFrequency="0.027657391503453255 0.027657391503453255" stitchTiles="stitch" numOctaves="3" result="noise" seed="9207" />
<feColorMatrix in="noise" type="luminanceToAlpha" result="alphaNoise" />
<feComponentTransfer in="alphaNoise" result="coloredNoise1">
<feFuncA type="discrete" tableValues="1 1 1 1 1 1 1 1 1 1 1 1 1 1 1 1 1 1 1 1 1 1 1 1 1 1 1 1 1 1 1 1 1 1 1 1 1 1 1 1 1 1 1 1 1 1 1 1 1 1 1 0 0 0 0 0 0 0 0 0 0 0 0 0 0 0 0 0 0 0 0 0 0 0 0 0 0 0 0 0 0 0 0 0 0 0 0 0 0 0 0 0 0 0 0 0 0 0 0 0 "/>
</feComponentTransfer>
<feComposite operator="in" in2="shape" in="coloredNoise1" result="noise1Clipped" />
<feFlood flood-color="rgba(178, 101, 28, 0.05)" result="color1Flood" />
<feComposite operator="in" in2="noise1Clipped" in="color1Flood" result="color1" />
<feMerge result="effect1_noise_1069_12822">
<feMergeNode in="shape" />
<feMergeNode in="color1" />
</feMerge>
</filter>
<filter id="filter1_n_1069_12822" x="3.48926" y="0" width="49.7881" height="49.6338" filterUnits="userSpaceOnUse" color-interpolation-filters="sRGB">
<feFlood flood-opacity="0" result="BackgroundImageFix"/>
<feBlend mode="normal" in="SourceGraphic" in2="BackgroundImageFix" result="shape"/>
<feTurbulence type="fractalNoise" baseFrequency="0.027657391503453255 0.027657391503453255" stitchTiles="stitch" numOctaves="3" result="noise" seed="9207" />
<feColorMatrix in="noise" type="luminanceToAlpha" result="alphaNoise" />
<feComponentTransfer in="alphaNoise" result="coloredNoise1">
<feFuncA type="discrete" tableValues="1 1 1 1 1 1 1 1 1 1 1 1 1 1 1 1 1 1 1 1 1 1 1 1 1 1 1 1 1 1 1 1 1 1 1 1 1 1 1 1 1 1 1 1 1 1 1 1 1 1 1 0 0 0 0 0 0 0 0 0 0 0 0 0 0 0 0 0 0 0 0 0 0 0 0 0 0 0 0 0 0 0 0 0 0 0 0 0 0 0 0 0 0 0 0 0 0 0 0 0 "/>
</feComponentTransfer>
<feComposite operator="in" in2="shape" in="coloredNoise1" result="noise1Clipped" />
<feFlood flood-color="rgba(178, 101, 28, 0.05)" result="color1Flood" />
<feComposite operator="in" in2="noise1Clipped" in="color1Flood" result="color1" />
<feMerge result="effect1_noise_1069_12822">
<feMergeNode in="shape" />
<feMergeNode in="color1" />
</feMerge>
</filter>
</defs>
</svg>
