<svg width="54" height="52" viewBox="0 0 54 52" fill="none" xmlns="http://www.w3.org/2000/svg">
<g filter="url(#filter0_n_1069_12813)">
<path d="M21.0388 51.0077C17.8004 51.0077 14.2794 50.468 10.4756 49.3885C9.19051 48.8745 8.39378 48.5404 8.08536 48.3862C7.57134 48.232 7.05731 48.0007 6.54329 47.6923C6.02927 47.3838 5.72085 47.2039 5.61805 47.1525C5.51524 47.0497 5.30963 46.9212 5.00122 46.767C4.17878 46.4072 3.84466 45.5848 3.99887 44.2997C3.99887 43.6315 4.28158 42.5263 4.84701 40.9842C5.46384 39.802 5.82366 38.9282 5.92646 38.3627C6.28628 37.6431 6.62039 37.1034 6.92881 36.7435C7.23722 36.3837 7.20657 36.1524 7.66919 36.0496C8.39233 35.8889 11.1324 34.0964 11.6464 34.2506C14.1137 34.9702 14.4336 37.3604 16.3354 37.3604C19.1112 37.3604 21.2444 36.9235 22.735 36.0496C23.9687 35.3814 24.7911 34.4818 25.2024 33.351C25.3566 32.8884 25.5108 32.0916 25.665 30.9608C22.5808 32.0402 19.471 32.58 16.3354 32.58C12.5317 32.58 9.34472 31.7832 6.7746 30.1897C4.7185 29.0075 3.12503 27.4397 1.99418 25.4864C0.914725 23.5331 0.375 21.22 0.375 18.5471C0.375 15.9256 0.966128 13.5868 2.14838 11.5307C3.38204 9.42316 5.10402 7.64978 7.31433 6.21051C9.42182 4.87405 11.8377 3.87171 14.5621 3.20347C17.3378 2.48384 20.1906 2.12402 23.1206 2.12402C27.7982 2.12402 31.9618 2.99786 35.6114 4.74554C39.8778 6.64743 43.1675 9.24326 45.4806 12.533C48.1021 16.234 49.4129 20.6803 49.4129 25.8719C49.4129 28.0822 49.3101 30.0612 49.1045 31.8089C48.8989 33.5052 48.5134 35.0987 47.9479 36.5893C46.8171 39.7763 44.6068 42.8604 41.317 45.8418C36.0226 49.2857 29.2632 51.0077 21.0388 51.0077ZM19.2654 21.1686C20.499 21.1686 21.8355 20.963 23.2748 20.5518C23.8916 20.3976 24.5084 20.1663 25.1253 19.8579C24.2 16.2597 22.4009 14.4606 19.728 14.4606C18.4944 14.4606 17.5177 14.769 16.7981 15.3858C16.1298 16.0027 15.7957 16.9536 15.7957 18.2387C15.7957 19.2667 16.1041 20.0378 16.721 20.5518C17.2864 20.963 18.1345 21.1686 19.2654 21.1686Z" fill="#B2651C"/>
<path d="M21.0388 51.0077C17.8004 51.0077 14.2794 50.468 10.4756 49.3885C9.19051 48.8745 8.39378 48.5404 8.08536 48.3862C7.57134 48.232 7.05731 48.0007 6.54329 47.6923C6.02927 47.3838 5.72085 47.2039 5.61805 47.1525C5.51524 47.0497 5.30963 46.9212 5.00122 46.767C4.17878 46.4072 3.84466 45.5848 3.99887 44.2997C3.99887 43.6315 4.28158 42.5263 4.84701 40.9842C5.46384 39.802 5.82366 38.9282 5.92646 38.3627C6.28628 37.6431 6.62039 37.1034 6.92881 36.7435C7.23722 36.3837 7.20657 36.1524 7.66919 36.0496C8.39233 35.8889 11.1324 34.0964 11.6464 34.2506C14.1137 34.9702 14.4336 37.3604 16.3354 37.3604C19.1112 37.3604 21.2444 36.9235 22.735 36.0496C23.9687 35.3814 24.7911 34.4818 25.2024 33.351C25.3566 32.8884 25.5108 32.0916 25.665 30.9608C22.5808 32.0402 19.471 32.58 16.3354 32.58C12.5317 32.58 9.34472 31.7832 6.7746 30.1897C4.7185 29.0075 3.12503 27.4397 1.99418 25.4864C0.914725 23.5331 0.375 21.22 0.375 18.5471C0.375 15.9256 0.966128 13.5868 2.14838 11.5307C3.38204 9.42316 5.10402 7.64978 7.31433 6.21051C9.42182 4.87405 11.8377 3.87171 14.5621 3.20347C17.3378 2.48384 20.1906 2.12402 23.1206 2.12402C27.7982 2.12402 31.9618 2.99786 35.6114 4.74554C39.8778 6.64743 43.1675 9.24326 45.4806 12.533C48.1021 16.234 49.4129 20.6803 49.4129 25.8719C49.4129 28.0822 49.3101 30.0612 49.1045 31.8089C48.8989 33.5052 48.5134 35.0987 47.9479 36.5893C46.8171 39.7763 44.6068 42.8604 41.317 45.8418C36.0226 49.2857 29.2632 51.0077 21.0388 51.0077ZM19.2654 21.1686C20.499 21.1686 21.8355 20.963 23.2748 20.5518C23.8916 20.3976 24.5084 20.1663 25.1253 19.8579C24.2 16.2597 22.4009 14.4606 19.728 14.4606C18.4944 14.4606 17.5177 14.769 16.7981 15.3858C16.1298 16.0027 15.7957 16.9536 15.7957 18.2387C15.7957 19.2667 16.1041 20.0378 16.721 20.5518C17.2864 20.963 18.1345 21.1686 19.2654 21.1686Z" stroke="black" stroke-width="0.75"/>
</g>
<g filter="url(#filter1_n_1069_12813)">
<path d="M24.528 49.2587C21.2897 49.2587 17.7686 48.719 13.9648 47.6395C12.6798 47.1255 11.883 46.7914 11.5746 46.6372C11.0606 46.483 10.5466 46.2517 10.0325 45.9432C9.51852 45.6348 9.21011 45.4549 9.1073 45.4035C9.0045 45.3007 8.79889 45.1722 8.49048 45.018C7.66804 44.6582 7.33392 43.8357 7.48813 42.5507C7.48813 41.8824 7.77084 40.7773 8.33627 39.2352C8.9531 38.053 9.31291 37.1791 9.41572 36.6137C9.77554 35.8941 10.1097 35.3543 10.4181 34.9945C10.7265 34.6347 11.112 34.4034 11.5746 34.3006C12.1914 34.3006 12.7569 34.3777 13.2709 34.5319C15.7382 35.2515 17.9228 35.6114 19.8247 35.6114C22.6004 35.6114 24.7336 35.1744 26.2243 34.3006C27.458 33.6324 28.2804 32.7328 28.6916 31.602C28.8458 31.1393 29 30.3426 29.1542 29.2118C26.0701 30.2912 22.9603 30.8309 19.8247 30.8309C16.0209 30.8309 12.834 30.0342 10.2639 28.4407C8.20776 27.2585 6.61429 25.6907 5.48343 23.7374C4.40398 21.7841 3.86426 19.471 3.86426 16.7981C3.86426 14.1765 4.45539 11.8377 5.63764 9.78164C6.8713 7.67414 8.59328 5.90076 10.8036 4.46149C12.9111 3.12503 15.327 2.12268 18.0513 1.45445C20.8271 0.734817 23.6799 0.375 26.6098 0.375C31.2874 0.375 35.451 1.24884 39.1006 2.99652C43.367 4.89841 46.6568 7.49423 48.9699 10.784C51.5914 14.485 52.9022 18.9313 52.9022 24.1229C52.9022 26.3332 52.7994 28.3122 52.5937 30.0599C52.3881 31.7562 52.0026 33.3496 51.4372 34.8403C50.3063 38.0273 48.096 41.1114 44.8063 44.0928C39.5118 47.5367 32.7524 49.2587 24.528 49.2587ZM22.7546 19.4196C23.9883 19.4196 25.3248 19.214 26.764 18.8028C27.3809 18.6486 27.9977 18.4172 28.6145 18.1088C27.6893 14.5107 25.8902 12.7116 23.2173 12.7116C21.9836 12.7116 21.007 13.02 20.2873 13.6368C19.6191 14.2537 19.285 15.2046 19.285 16.4897C19.285 17.5177 19.5934 18.2887 20.2102 18.8028C20.7757 19.214 21.6238 19.4196 22.7546 19.4196Z" fill="#E9C253"/>
<path d="M24.528 49.2587C21.2897 49.2587 17.7686 48.719 13.9648 47.6395C12.6798 47.1255 11.883 46.7914 11.5746 46.6372C11.0606 46.483 10.5466 46.2517 10.0325 45.9432C9.51852 45.6348 9.21011 45.4549 9.1073 45.4035C9.0045 45.3007 8.79889 45.1722 8.49048 45.018C7.66804 44.6582 7.33392 43.8357 7.48813 42.5507C7.48813 41.8824 7.77084 40.7773 8.33627 39.2352C8.9531 38.053 9.31291 37.1791 9.41572 36.6137C9.77554 35.8941 10.1097 35.3543 10.4181 34.9945C10.7265 34.6347 11.112 34.4034 11.5746 34.3006C12.1914 34.3006 12.7569 34.3777 13.2709 34.5319C15.7382 35.2515 17.9228 35.6114 19.8247 35.6114C22.6004 35.6114 24.7336 35.1744 26.2243 34.3006C27.458 33.6324 28.2804 32.7328 28.6916 31.602C28.8458 31.1393 29 30.3426 29.1542 29.2118C26.0701 30.2912 22.9603 30.8309 19.8247 30.8309C16.0209 30.8309 12.834 30.0342 10.2639 28.4407C8.20776 27.2585 6.61429 25.6907 5.48343 23.7374C4.40398 21.7841 3.86426 19.471 3.86426 16.7981C3.86426 14.1765 4.45539 11.8377 5.63764 9.78164C6.8713 7.67414 8.59328 5.90076 10.8036 4.46149C12.9111 3.12503 15.327 2.12268 18.0513 1.45445C20.8271 0.734817 23.6799 0.375 26.6098 0.375C31.2874 0.375 35.451 1.24884 39.1006 2.99652C43.367 4.89841 46.6568 7.49423 48.9699 10.784C51.5914 14.485 52.9022 18.9313 52.9022 24.1229C52.9022 26.3332 52.7994 28.3122 52.5937 30.0599C52.3881 31.7562 52.0026 33.3496 51.4372 34.8403C50.3063 38.0273 48.096 41.1114 44.8063 44.0928C39.5118 47.5367 32.7524 49.2587 24.528 49.2587ZM22.7546 19.4196C23.9883 19.4196 25.3248 19.214 26.764 18.8028C27.3809 18.6486 27.9977 18.4172 28.6145 18.1088C27.6893 14.5107 25.8902 12.7116 23.2173 12.7116C21.9836 12.7116 21.007 13.02 20.2873 13.6368C19.6191 14.2537 19.285 15.2046 19.285 16.4897C19.285 17.5177 19.5934 18.2887 20.2102 18.8028C20.7757 19.214 21.6238 19.4196 22.7546 19.4196Z" stroke="black" stroke-width="0.75"/>
</g>
<defs>
<filter id="filter0_n_1069_12813" x="0" y="1.74902" width="49.7881" height="49.6338" filterUnits="userSpaceOnUse" color-interpolation-filters="sRGB">
<feFlood flood-opacity="0" result="BackgroundImageFix"/>
<feBlend mode="normal" in="SourceGraphic" in2="BackgroundImageFix" result="shape"/>
<feTurbulence type="fractalNoise" baseFrequency="0.027657391503453255 0.027657391503453255" stitchTiles="stitch" numOctaves="3" result="noise" seed="9207" />
<feColorMatrix in="noise" type="luminanceToAlpha" result="alphaNoise" />
<feComponentTransfer in="alphaNoise" result="coloredNoise1">
<feFuncA type="discrete" tableValues="1 1 1 1 1 1 1 1 1 1 1 1 1 1 1 1 1 1 1 1 1 1 1 1 1 1 1 1 1 1 1 1 1 1 1 1 1 1 1 1 1 1 1 1 1 1 1 1 1 1 1 0 0 0 0 0 0 0 0 0 0 0 0 0 0 0 0 0 0 0 0 0 0 0 0 0 0 0 0 0 0 0 0 0 0 0 0 0 0 0 0 0 0 0 0 0 0 0 0 0 "/>
</feComponentTransfer>
<feComposite operator="in" in2="shape" in="coloredNoise1" result="noise1Clipped" />
<feFlood flood-color="rgba(178, 101, 28, 0.05)" result="color1Flood" />
<feComposite operator="in" in2="noise1Clipped" in="color1Flood" result="color1" />
<feMerge result="effect1_noise_1069_12813">
<feMergeNode in="shape" />
<feMergeNode in="color1" />
</feMerge>
</filter>
<filter id="filter1_n_1069_12813" x="3.48926" y="0" width="49.7881" height="49.6338" filterUnits="userSpaceOnUse" color-interpolation-filters="sRGB">
<feFlood flood-opacity="0" result="BackgroundImageFix"/>
<feBlend mode="normal" in="SourceGraphic" in2="BackgroundImageFix" result="shape"/>
<feTurbulence type="fractalNoise" baseFrequency="0.027657391503453255 0.027657391503453255" stitchTiles="stitch" numOctaves="3" result="noise" seed="9207" />
<feColorMatrix in="noise" type="luminanceToAlpha" result="alphaNoise" />
<feComponentTransfer in="alphaNoise" result="coloredNoise1">
<feFuncA type="discrete" tableValues="1 1 1 1 1 1 1 1 1 1 1 1 1 1 1 1 1 1 1 1 1 1 1 1 1 1 1 1 1 1 1 1 1 1 1 1 1 1 1 1 1 1 1 1 1 1 1 1 1 1 1 0 0 0 0 0 0 0 0 0 0 0 0 0 0 0 0 0 0 0 0 0 0 0 0 0 0 0 0 0 0 0 0 0 0 0 0 0 0 0 0 0 0 0 0 0 0 0 0 0 "/>
</feComponentTransfer>
<feComposite operator="in" in2="shape" in="coloredNoise1" result="noise1Clipped" />
<feFlood flood-color="rgba(178, 101, 28, 0.05)" result="color1Flood" />
<feComposite operator="in" in2="noise1Clipped" in="color1Flood" result="color1" />
<feMerge result="effect1_noise_1069_12813">
<feMergeNode in="shape" />
<feMergeNode in="color1" />
</feMerge>
</filter>
</defs>
</svg>
